<svg width="48" height="48" viewBox="0 0 48 48" fill="none" xmlns="http://www.w3.org/2000/svg">
<path fill-rule="evenodd" clip-rule="evenodd" d="M23.1009 6.84867C23.4658 6.09862 24.5345 6.09862 24.8994 6.84867L41.3008 40.5628C41.6239 41.227 41.1402 42.0002 40.4016 42.0002H7.59866C6.86002 42.0002 6.3763 41.227 6.69943 40.5628L23.1009 6.84867ZM22.0001 18C22.0001 16.8954 22.8956 16 24.0001 16C25.1047 16 26.0001 16.8954 26.0001 18V30C26.0001 31.1046 25.1047 32 24.0001 32C22.8956 32 22.0001 31.1046 22.0001 30V18ZM23.9664 35.0001C22.8805 35.0001 22.0001 35.8805 22.0001 36.9664C22.0001 38.0524 22.8805 38.9327 23.9664 38.9327H24.0338C25.1198 38.9327 26.0001 38.0524 26.0001 36.9664C26.0001 35.8805 25.1198 35.0001 24.0338 35.0001H23.9664Z" fill="#333333"/>
</svg>
