<svg width="48" height="48" viewBox="0 0 48 48" fill="none" xmlns="http://www.w3.org/2000/svg">
<path fill-rule="evenodd" clip-rule="evenodd" d="M29.9553 35.0299C35.5383 33.6868 39.0894 28.4205 37.8868 23.2673C36.6842 18.1141 31.1834 15.0254 25.6004 16.3685C20.0173 17.7116 16.4662 22.9779 17.6688 28.1311C18.8714 33.2843 24.3722 36.373 29.9553 35.0299ZM32.0278 30.4934C33.3318 30.4934 34.3889 29.4201 34.3889 28.0962C34.3889 26.7722 33.3318 25.6989 32.0278 25.6989C30.7238 25.6989 29.6667 26.7722 29.6667 28.0962C29.6667 29.4201 30.7238 30.4934 32.0278 30.4934Z" fill="#333333"/>
<path d="M17.3891 17.1557C17.3891 15.4707 18.7345 14.1047 20.3941 14.1047C22.0538 14.1047 23.3992 15.4707 23.3992 17.1557C23.3992 18.8408 22.0538 20.2068 20.3941 20.2068C18.7345 20.2068 17.3891 18.8408 17.3891 17.1557Z" fill="#333333"/>
<path d="M13.0961 16.2837C13.0961 14.5986 14.4415 13.2326 16.1012 13.2326C17.7608 13.2326 19.1062 14.5986 19.1062 16.2837C19.1062 17.9687 17.7608 19.3347 16.1012 19.3347C14.4415 19.3347 13.0961 17.9687 13.0961 16.2837Z" fill="#333333"/>
<path d="M9.66177 18.8991C9.66177 17.2141 11.0072 15.8481 12.6668 15.8481C14.3265 15.8481 15.6719 17.2141 15.6719 18.8991C15.6719 20.5842 14.3265 21.9502 12.6668 21.9502C11.0072 21.9502 9.66177 20.5842 9.66177 18.8991Z" fill="#333333"/>
<path d="M7.94449 23.258C7.94449 21.573 9.2899 20.207 10.9495 20.207C12.6092 20.207 13.9546 21.573 13.9546 23.258C13.9546 24.9431 12.6092 26.3091 10.9495 26.3091C9.2899 26.3091 7.94449 24.9431 7.94449 23.258Z" fill="#333333"/>
<path d="M8.80313 27.6167C8.80313 25.9316 10.1485 24.5656 11.8082 24.5656C13.4678 24.5656 14.8132 25.9316 14.8132 27.6167C14.8132 29.3017 13.4678 30.6677 11.8082 30.6677C10.1485 30.6677 8.80313 29.3017 8.80313 27.6167Z" fill="#333333"/>
<path d="M11.3788 31.9751C11.3788 30.29 12.7242 28.924 14.3839 28.924C16.0435 28.924 17.3889 30.29 17.3889 31.9751C17.3889 33.6601 16.0435 35.0261 14.3839 35.0261C12.7242 35.0261 11.3788 33.6601 11.3788 31.9751Z" fill="#333333"/>
<path d="M13.096 36.3336C13.096 35.13 14.057 34.1543 15.2425 34.1543C16.4279 34.1543 17.3889 35.13 17.3889 36.3336C17.3889 37.5372 16.4279 38.5129 15.2425 38.5129C14.057 38.5129 13.096 37.5372 13.096 36.3336Z" fill="#333333"/>
<path d="M13.0962 40.2565C13.0962 39.2937 13.865 38.5131 14.8133 38.5131C15.7617 38.5131 16.5305 39.2937 16.5305 40.2565C16.5305 41.2194 15.7617 42 14.8133 42C13.865 42 13.0962 41.2194 13.0962 40.2565Z" fill="#333333"/>
<path d="M16.1011 29.7955C15.2425 28.4879 13.9547 20.6423 19.5355 21.0782C25.1163 21.5141 20.8234 20.6423 20.8234 20.6423L20.3941 17.5913L16.5304 16.2837L12.2375 19.3348L11.3789 26.3086C11.3789 26.3086 16.9597 31.1031 16.1011 29.7955Z" fill="#333333"/>
<path fill-rule="evenodd" clip-rule="evenodd" d="M29.1527 17.9385C29.0269 18.4795 29.3575 19.023 29.8912 19.1523C30.4246 19.2816 30.959 18.9482 31.0851 18.4075" fill="#333333"/>
<path fill-rule="evenodd" clip-rule="evenodd" d="M6.65356 6.06197C7.17164 5.87062 7.74674 6.13548 7.93809 6.65356C8.49122 8.15117 9.74974 8.87674 11.0729 8.87674C12.4076 8.87674 13.8285 8.13087 14.6029 6.55823C14.7637 6.23166 15.0893 6.01828 15.4529 6.00114C15.8166 5.984 16.1608 6.16581 16.3516 6.47581C17.4151 8.20341 18.6706 8.87674 19.75 8.87674C20.8295 8.87674 22.085 8.20341 23.1484 6.47581C23.3393 6.16581 23.6835 5.984 24.0471 6.00114C24.4107 6.01828 24.7363 6.23166 24.8971 6.55823C25.7044 8.1974 26.9258 8.87675 28.0729 8.87676C29.242 8.87676 30.6052 8.17058 31.6484 6.47582C31.8305 6.18013 32.1528 6.00003 32.5 6.00003C32.8472 6.00003 33.1696 6.18013 33.3516 6.47581C34.4151 8.20341 35.6706 8.87674 36.75 8.87674C37.8295 8.87674 39.085 8.20341 40.1484 6.47581C40.438 6.00549 41.0539 5.85893 41.5242 6.14844C41.9946 6.43796 42.1411 7.05392 41.8516 7.52424C40.554 9.63226 38.74 10.8767 36.75 10.8767C35.1613 10.8767 33.6849 10.0836 32.4937 8.69114C31.2566 10.0999 29.6892 10.8768 28.0729 10.8768C26.4894 10.8768 25.0217 10.1307 23.9382 8.7698C22.7591 10.1134 21.3085 10.8767 19.75 10.8767C18.1848 10.8767 16.7284 10.1068 15.5466 8.75232C14.3699 10.1556 12.7116 10.8767 11.0729 10.8767C8.97254 10.8767 6.9255 9.68451 6.06197 7.3465C5.87062 6.82842 6.13548 6.25332 6.65356 6.06197Z" fill="#333333"/>
</svg>
