<svg width="48" height="48" viewBox="0 0 48 48" fill="none" xmlns="http://www.w3.org/2000/svg">
<path d="M29.0001 3.5C29.0001 2.67157 28.3285 2 27.5001 2C26.6717 2 26.0001 2.67157 26.0001 3.5V6.50082C26.0001 7.32925 26.6717 8.00082 27.5001 8.00082C28.3285 8.00082 29.0001 7.32925 29.0001 6.50082V3.5Z" fill="#333333"/>
<path fill-rule="evenodd" clip-rule="evenodd" d="M14.0001 4.18945H12.0357C9.82657 4.18945 8.0357 5.98031 8.0357 8.18945V36.1895C8.0357 38.3986 9.82656 40.1895 12.0357 40.1895H32.0357C34.2448 40.1895 36.0357 38.3986 36.0357 36.1895V8.18945C36.0357 5.98031 34.2448 4.18945 32.0357 4.18945H30.0001V6.5C30.0001 7.88071 28.8808 9 27.5001 9C26.1194 9 25.0001 7.88071 25.0001 6.5V4.18945H19.0001V6.5C19.0001 7.88071 17.8808 9 16.5001 9C15.1194 9 14.0001 7.88071 14.0001 6.5V4.18945ZM14.0001 15C14.0001 14.4477 14.4478 14 15.0001 14H29.0001C29.5524 14 30.0001 14.4477 30.0001 15C30.0001 15.5523 29.5524 16 29.0001 16H15.0001C14.4478 16 14.0001 15.5523 14.0001 15ZM15.0356 19.1895C14.4834 19.1895 14.0356 19.6372 14.0356 20.1895C14.0356 20.7417 14.4834 21.1895 15.0356 21.1895H29.0356C29.5879 21.1895 30.0356 20.7417 30.0356 20.1895C30.0356 19.6372 29.5879 19.1895 29.0356 19.1895H15.0356ZM14.0356 25.1895C14.0356 24.6372 14.4834 24.1895 15.0356 24.1895H29.0356C29.5879 24.1895 30.0356 24.6372 30.0356 25.1895C30.0356 25.7417 29.5879 26.1895 29.0356 26.1895H15.0356C14.4834 26.1895 14.0356 25.7417 14.0356 25.1895ZM15.0356 29.2441C14.4834 29.2441 14.0356 29.6919 14.0356 30.2441C14.0356 30.7964 14.4834 31.2441 15.0356 31.2441H23.0356C23.5879 31.2441 24.0356 30.7964 24.0356 30.2441C24.0356 29.6919 23.5879 29.2441 23.0356 29.2441H15.0356Z" fill="#333333"/>
<path d="M5.03565 8.95703C5.58794 8.95703 6.03565 9.40475 6.03565 9.95703L6.03564 36.9996C6.03564 39.761 8.27422 41.9996 11.0356 41.9996H30.1003C30.6525 41.9996 31.1003 42.4473 31.1003 42.9996C31.1003 43.5518 30.6525 43.9996 30.1003 43.9996H11.0356C7.16965 43.9996 4.03564 40.8655 4.03564 36.9996L4.03565 9.95703C4.03565 9.40475 4.48337 8.95703 5.03565 8.95703Z" fill="#333333"/>
<path d="M16.5087 2C17.3372 2 18.0087 2.67157 18.0087 3.5V6.50082C18.0087 7.32925 17.3372 8.00082 16.5087 8.00082C15.6803 8.00082 15.0087 7.32925 15.0087 6.50082V3.5C15.0087 2.67157 15.6803 2 16.5087 2Z" fill="#333333"/>
<path d="M42.0001 10H40.0001C38.8956 10 38.0001 10.8954 38.0001 12V16H44.0001V12C44.0001 10.8954 43.1047 10 42.0001 10Z" fill="#333333"/>
<path d="M44.0001 17H38.0001V35L41.0001 39L44.0001 35V17Z" fill="#333333"/>
</svg>
