<svg width="49" height="49" viewBox="0 0 49 49" fill="none" xmlns="http://www.w3.org/2000/svg">
<rect width="48" height="48" transform="translate(0 1) rotate(-0.0469255)" fill="white"/>
<path fill-rule="evenodd" clip-rule="evenodd" d="M15.005 6.9877C13.9004 6.98861 13.0057 7.88477 13.0066 8.98934L13.0328 40.9893C13.0337 42.0939 13.9299 42.9886 15.0344 42.9877L33.0344 42.9729C34.139 42.972 35.0337 42.0759 35.0328 40.9713L35.0066 8.97132C35.0057 7.86675 34.1095 6.97206 33.0049 6.97296L15.005 6.9877ZM23.009 11.9812C23.0086 11.4289 23.4559 10.9808 24.0082 10.9803C24.5605 10.9799 25.0086 11.4272 25.009 11.9795L25.0123 15.9795C25.0128 16.5318 24.5654 16.9799 24.0131 16.9803C23.4609 16.9808 23.0128 16.5334 23.0123 15.9811L23.009 11.9812ZM23.0181 22.9811C23.0176 22.4289 23.465 21.9808 24.0172 21.9803C24.5695 21.9799 25.0176 22.4272 25.0181 22.9795L25.0213 26.9795C25.0218 27.5318 24.5744 27.9799 24.0222 27.9803C23.4699 27.9808 23.0218 27.5334 23.0213 26.9811L23.0181 22.9811ZM24.0262 32.9803C23.474 32.9808 23.0266 33.4289 23.0271 33.9811L23.0303 37.9811C23.0308 38.5334 23.4789 38.9808 24.0312 38.9803C24.5834 38.9799 25.0308 38.5318 25.0303 37.9795L25.0271 33.9795C25.0266 33.4272 24.5785 32.9799 24.0262 32.9803Z" fill="#333333"/>
</svg>
