<svg width="48" height="48" viewBox="0 0 48 48" fill="none" xmlns="http://www.w3.org/2000/svg">
<path d="M10.3446 11.9881C8.88462 13.846 8 16.3844 8 19.0345C8 24.9753 11.9647 29.9621 16.1509 33.5511C18.2235 35.3281 20.301 36.7192 21.8625 37.6666C22.6421 38.1396 23.2904 38.5003 23.7413 38.7417C23.8312 38.7898 23.9132 38.8331 23.9868 38.8716C24.0623 38.83 24.1466 38.783 24.2393 38.7307C24.6913 38.4758 25.3407 38.0963 26.1217 37.6023C26.4587 37.3891 26.8198 37.1549 27.1996 36.9005C27.7851 37.3403 28.4181 37.7203 29.0894 38.0315C28.4045 38.5087 27.7637 38.9302 27.1908 39.2925C26.378 39.8067 25.6993 40.2035 25.2217 40.4728C24.9828 40.6075 24.794 40.7105 24.6636 40.7804C24.5985 40.8154 24.5479 40.8421 24.5129 40.8604L24.4724 40.8815L24.4611 40.8873L24.4578 40.8891L24.4567 40.8896C24.4563 40.8898 24.456 40.89 24 40C23.5662 40.901 23.5659 40.9009 23.5655 40.9007L23.561 40.8985L23.5496 40.8929L23.5087 40.8729C23.4735 40.8555 23.4227 40.8302 23.3573 40.7971C23.2264 40.7308 23.0371 40.6332 22.7977 40.5051C22.319 40.2489 21.6391 39.8704 20.825 39.3765C19.199 38.3899 17.0265 36.9362 14.8491 35.0695C10.5353 31.3711 6 25.8752 6 19.0345C6 15.9592 7.02123 12.9804 8.77202 10.7524C10.5276 8.51823 13.0561 7 16.0312 7C19.5348 7 22.1991 8.96337 24 11.7338C25.8008 8.9635 28.4651 7 31.9688 7C34.9442 7 37.4727 8.5185 39.2282 10.7527C40.9789 12.9809 42 15.9597 42 19.0345C42 20.0308 41.8959 21.0023 41.7043 21.9466C41.1878 21.3007 40.5965 20.7172 39.9437 20.2091C39.9808 19.821 40 19.4294 40 19.0345C40 16.3848 39.1155 13.8464 37.6556 11.9884C36.2005 10.1365 34.2134 9 31.9688 9C28.866 9 26.4594 11.0208 24.8976 14.2018L24 16.0301L23.1024 14.2018C21.5405 11.0206 19.1339 9 16.0312 9C13.7868 9 11.7997 10.1363 10.3446 11.9881Z" fill="#333333"/>
<path d="M24 40L24.4567 40.8896L24.0139 41.1165L23.5655 40.9007L24 40Z" fill="#333333"/>
<path d="M34 31C35.1046 31 36 30.1046 36 29C36 27.8954 35.1046 27 34 27C33.7627 27 33.5351 27.0413 33.324 27.1171L31.0251 24.8182L29.6108 26.2324L32.0302 28.6518C32.0104 28.7649 32 28.8812 32 29C32 30.1046 32.8954 31 34 31Z" fill="#333333"/>
<path fill-rule="evenodd" clip-rule="evenodd" d="M42 28.5C42 33.1944 38.1944 37 33.5 37C28.8056 37 25 33.1944 25 28.5C25 23.8056 28.8056 20 33.5 20C38.1944 20 42 23.8056 42 28.5ZM40 28.5C40 32.0899 37.0899 35 33.5 35C29.9101 35 27 32.0899 27 28.5C27 24.9101 29.9101 22 33.5 22C37.0899 22 40 24.9101 40 28.5Z" fill="#333333"/>
</svg>
