<svg width="48" height="48" viewBox="0 0 48 48" fill="none" xmlns="http://www.w3.org/2000/svg">
<path fill-rule="evenodd" clip-rule="evenodd" d="M24.0305 29.4311C24.1315 30.1371 23.849 30.8433 23.289 31.2849C21.8913 32.3869 21 34.0888 21 36C21 39.3137 23.6863 42 27 42C30.3137 42 33 39.3137 33 36C33 34.0888 32.1087 32.3869 30.711 31.2849C30.151 30.8433 29.8685 30.1371 29.9695 29.4311C29.9895 29.2914 30 29.1475 30 29L30 9C30 7.34315 28.6569 6 27 6C25.3431 6 24 7.34315 24 9L24 29C24 29.1475 24.0105 29.2914 24.0305 29.4311ZM22 9C22 6.23858 24.2386 4 27 4C29.7614 4 32 6.23858 32 9L32 29C32 29.2425 31.9827 29.4811 31.9494 29.7144C33.8073 31.1793 35 33.4504 35 36C35 40.4183 31.4183 44 27 44C22.5817 44 19 40.4183 19 36C19 33.4504 20.1927 31.1793 22.0506 29.7144C22.0173 29.4811 22 29.2425 22 29L22 9Z" fill="#333333"/>
<path d="M27 11C27 10.4477 27.4477 10 28 10L30 10L30 12L28 12C27.4477 12 27 11.5523 27 11Z" fill="#333333"/>
<path d="M27 15C27 14.4477 27.4477 14 28 14L30 14L30 16L28 16C27.4477 16 27 15.5523 27 15Z" fill="#333333"/>
<path d="M27 19C27 18.4477 27.4477 18 28 18L30 18L30 20L28 20C27.4477 20 27 19.5523 27 19Z" fill="#333333"/>
<path fill-rule="evenodd" clip-rule="evenodd" d="M22.3076 30.2932L32.3076 40.2931L33.7218 38.8789L23.7218 28.879L22.3076 30.2932Z" fill="#333333"/>
<path fill-rule="evenodd" clip-rule="evenodd" d="M22.3076 26.2932L33.3076 37.2931L34.7218 35.8789L23.7218 24.879L22.3076 26.2932Z" fill="#333333"/>
<path fill-rule="evenodd" clip-rule="evenodd" d="M23.7219 23.7074L30.2219 30.2074L31.6361 28.7932L25.1361 22.2932L23.7219 23.7074Z" fill="#333333"/>
<path fill-rule="evenodd" clip-rule="evenodd" d="M27.7221 23.7073L30.222 26.2072L31.6362 24.793L29.1364 22.2931L27.7221 23.7073Z" fill="#333333"/>
<path fill-rule="evenodd" clip-rule="evenodd" d="M23 22.0002L31.0001 22.0002L31.0001 24.0002L23 24.0002L23 22.0002Z" fill="#333333"/>
<path fill-rule="evenodd" clip-rule="evenodd" d="M21.0147 33.0004L31.0147 43.0004L32.429 41.5862L22.429 31.5862L21.0147 33.0004Z" fill="#333333"/>
<path fill-rule="evenodd" clip-rule="evenodd" d="M19.7217 35.7074L27.7218 43.7074L29.136 42.2932L21.136 34.2932L19.7217 35.7074Z" fill="#333333"/>
<path fill-rule="evenodd" clip-rule="evenodd" d="M13 30L13 18L15 18L15 30L13 30Z" fill="#333333"/>
<path fill-rule="evenodd" clip-rule="evenodd" d="M14 13L11.4019 17.5H16.598L14 13ZM14.866 10.5C14.4811 9.83333 13.5188 9.83333 13.1339 10.5L8.8038 18C8.4189 18.6667 8.90003 19.5 9.66983 19.5H18.3301C19.0999 19.5 19.581 18.6667 19.1961 18L14.866 10.5Z" fill="#333333"/>
</svg>
