<svg width="48" height="48" viewBox="0 0 48 48" fill="none" xmlns="http://www.w3.org/2000/svg">
<path fill-rule="evenodd" clip-rule="evenodd" d="M29 8V6H31V8C31 8.55228 31.4477 9 32 9H38C39.1046 9 40 9.89543 40 11V24C40 24.5523 39.5523 25 39 25C38.4477 25 38 24.5523 38 24V11H32C30.3431 11 29 9.65685 29 8Z" fill="#333333"/>
<path fill-rule="evenodd" clip-rule="evenodd" d="M31 14V18H33V14H31ZM30 12C29.4477 12 29 12.4477 29 13V19C29 19.5523 29.4477 20 30 20H34C34.5523 20 35 19.5523 35 19V13C35 12.4477 34.5523 12 34 12H30Z" fill="#333333"/>
<path fill-rule="evenodd" clip-rule="evenodd" d="M31 12.5V9H33V12.5H31Z" fill="#333333"/>
<path fill-rule="evenodd" clip-rule="evenodd" d="M38.0662 25.0664H20.11C19.4932 25.0664 18.905 24.8194 18.4736 24.3851L19.8925 22.9756C19.9502 23.0337 20.0285 23.0664 20.11 23.0664H38.0662C40.2388 23.0664 42 24.8423 42 27.033C42 29.2238 40.2388 30.9997 38.0662 30.9997H17.0722C16.7733 30.9997 16.4867 30.8801 16.2752 30.6672L8.16703 22.5042C6.61099 20.9376 6.61099 18.3951 8.16703 16.8285C9.71958 15.2655 12.2342 15.2655 13.7867 16.8285L19.8925 22.9756L18.4736 24.3851L12.3677 18.238C11.5973 17.4623 10.3564 17.4623 9.586 18.238C8.80467 19.0246 8.80467 20.3081 9.586 21.0948L17.4379 28.9997H38.0662C39.1186 28.9997 40 28.1349 40 27.033C40 25.9311 39.1185 25.0664 38.0662 25.0664Z" fill="#333333"/>
<path d="M9 23L11 24.1818V36H9V23Z" fill="#333333"/>
<path d="M36 30.5234H38V36.1991H36V30.5234Z" fill="#333333"/>
<path fill-rule="evenodd" clip-rule="evenodd" d="M42 36H6V34H42V36Z" fill="#333333"/>
<path fill-rule="evenodd" clip-rule="evenodd" d="M11.5 40C12.3284 40 13 39.3284 13 38.5C13 37.6716 12.3284 37 11.5 37C10.6716 37 10 37.6716 10 38.5C10 39.3284 10.6716 40 11.5 40ZM11.5 42C13.433 42 15 40.433 15 38.5C15 36.567 13.433 35 11.5 35C9.567 35 8 36.567 8 38.5C8 40.433 9.567 42 11.5 42Z" fill="#333333"/>
<path fill-rule="evenodd" clip-rule="evenodd" d="M36.5 40C37.3284 40 38 39.3284 38 38.5C38 37.6716 37.3284 37 36.5 37C35.6716 37 35 37.6716 35 38.5C35 39.3284 35.6716 40 36.5 40ZM36.5 42C38.433 42 40 40.433 40 38.5C40 36.567 38.433 35 36.5 35C34.567 35 33 36.567 33 38.5C33 40.433 34.567 42 36.5 42Z" fill="#333333"/>
<path fill-rule="evenodd" clip-rule="evenodd" d="M12.7632 15.1034C14.2364 13.6315 16.624 13.6323 18.0961 15.1052L19.8963 16.9063C21.3686 18.3793 21.3678 20.7667 19.8945 22.2387L18.4245 23.7074L17.0109 22.2926L18.4809 20.8239C19.1727 20.1327 19.1731 19.0118 18.4818 18.3202L16.6816 16.5191C15.9902 15.8273 14.8687 15.8269 14.1768 16.5182L12.7068 17.9869L11.2932 16.5721L12.7632 15.1034Z" fill="#333333"/>
</svg>
