<svg width="48" height="48" viewBox="0 0 48 48" fill="none" xmlns="http://www.w3.org/2000/svg">
<path fill-rule="evenodd" clip-rule="evenodd" d="M10 5C10 5.55228 10.4477 6 11 6L23 6V36.126C21.2748 36.5701 20 38.1362 20 40C20 42.2091 21.7909 44 24 44C26.2091 44 28 42.2091 28 40C28 38.1362 26.7252 36.5701 25 36.126V6L37 6C37.5523 6 38 5.55228 38 5C38 4.44772 37.5523 4 37 4H25C24.4477 4 24 4.44772 24 5C24 4.44772 23.5523 4 23 4H11C10.4477 4 10 4.44772 10 5ZM24 38C22.8954 38 22 38.8954 22 40C22 41.1046 22.8954 42 24 42C25.1046 42 26 41.1046 26 40C26 38.8954 25.1046 38 24 38Z" fill="#333333"/>
</svg>
