<svg width="48" height="48" viewBox="0 0 48 48" fill="none" xmlns="http://www.w3.org/2000/svg">
<path fill-rule="evenodd" clip-rule="evenodd" d="M12.3682 10.9961C12.6598 10.4858 13.2238 9.69614 13.9274 9.04805C14.6536 8.37919 15.376 8 16 8H23V14H19C17.8954 14 17 14.8954 17 16V18H16C12.6863 18 10 20.6863 10 24V39C10 40.6569 11.3431 42 13 42H35C36.6569 42 38 40.6569 38 39V24C38 20.6863 35.3137 18 32 18H31V16C31 14.8954 30.1046 14 29 14H25V8H33V6H16C14.6239 6 13.4296 6.78748 12.5725 7.57695C11.6928 8.38719 11.0068 9.3475 10.6317 10.0039L12.3682 10.9961ZM31 20H17H16C13.7909 20 12 21.7909 12 24V39C12 39.5523 12.4477 40 13 40H35C35.5523 40 36 39.5523 36 39V24C36 21.7909 34.2091 20 32 20H31ZM29 18V16H19V18H29ZM30 29H25V24H23V29H18V31H23V36H25V31H30V29Z" fill="#333333"/>
</svg>
