<svg width="48" height="48" viewBox="0 0 48 48" fill="none" xmlns="http://www.w3.org/2000/svg">
<path fill-rule="evenodd" clip-rule="evenodd" d="M6.81815 13.3639C6.36628 13.8158 6.36628 14.5484 6.81815 15.0003C7.27002 15.4521 8.00264 15.4522 8.45451 15.0003L9.27321 14.1815L13.3636 18.272L10.0909 21.5448C9.63899 21.9967 9.63899 22.7293 10.0909 23.1812C10.5427 23.6331 11.2753 23.6331 11.7272 23.1812L13.3632 21.5451L27.2727 35.4549C28.9501 37.1324 31.4015 37.5644 33.4775 36.751L34.6361 37.9096C35.242 38.5155 36.1002 38.7152 36.8724 38.5087L39.5455 41.1819C39.9973 41.6338 40.7299 41.6338 41.1818 41.1819C41.6337 40.73 41.6337 39.9974 41.1818 39.5455L38.5083 36.8719C38.7142 36.1 38.5144 35.2424 37.9089 34.6368L36.7504 33.4783C37.564 31.4021 37.132 28.9505 35.4545 27.2729L21.545 13.3631L23.1817 11.7264C23.6336 11.2745 23.6336 10.5419 23.1817 10.09C22.7299 9.63811 21.9972 9.63812 21.5454 10.09L18.2726 13.3628L14.1823 9.27235L14.9999 8.45468C15.4518 8.0028 15.4518 7.27016 14.9999 6.81828C14.5481 6.3664 13.8155 6.3664 13.3636 6.81828L6.81815 13.3639ZM16.8584 14.777L12.7681 10.6866L10.6874 12.7673L14.7778 16.8578L16.8584 14.777ZM20.1308 14.7774L14.7774 20.1309L19.1834 24.5369L24.5368 19.1834L20.1308 14.7774ZM20.8197 26.1733L23.2743 28.628L25.133 26.7693C25.5849 26.3174 26.3175 26.3174 26.7694 26.7693C27.2213 27.2211 27.2213 27.9538 26.7694 28.4057L24.9107 30.2644L26.5466 31.9004L28.4055 30.0415C28.8574 29.5896 29.59 29.5896 30.0419 30.0415C30.4937 30.4934 30.4937 31.226 30.0419 31.6779L28.183 33.5368L28.6869 34.0407C29.785 35.1388 31.3899 35.4212 32.7487 34.8879L34.8875 32.749C35.4208 31.3902 35.1384 29.7853 34.0403 28.6871L26.1731 20.8198L20.8197 26.1733ZM36.5224 36.0827C36.514 36.0717 36.5047 36.0611 36.4947 36.051L35.6706 35.2269C35.601 35.3044 35.529 35.3804 35.4545 35.4549C35.3799 35.5295 35.3038 35.6016 35.2262 35.6712L36.0503 36.4954C36.0605 36.5055 36.0712 36.5148 36.0823 36.5233C36.1328 36.4335 36.1963 36.3491 36.2727 36.2727C36.3489 36.1965 36.433 36.1332 36.5224 36.0827Z" fill="#333333"/>
</svg>
