<svg width="48" height="48" viewBox="0 0 48 48" fill="none" xmlns="http://www.w3.org/2000/svg">
<path fill-rule="evenodd" clip-rule="evenodd" d="M21.013 29.5111C21.1146 30.217 20.8326 30.9235 20.273 31.3655C18.8763 32.4686 17.9863 34.1712 17.9879 36.0825C17.9906 39.3962 20.6791 42.0803 23.9928 42.0775C27.3065 42.0748 29.9906 39.3863 29.9879 36.0726C29.9863 34.1614 29.0936 32.4603 27.695 31.3594C27.1347 30.9183 26.8516 30.2123 26.952 29.5063C26.9719 29.3664 26.9823 29.2226 26.9821 29.0751L26.9658 9.0751C26.9644 7.41824 25.6202 6.0762 23.9633 6.07755C22.3065 6.07891 20.9644 7.42316 20.9658 9.08001L20.9821 29.08C20.9823 29.2275 20.9929 29.3713 21.013 29.5111ZM18.9658 9.08165C18.9635 6.32023 21.2002 4.07982 23.9617 4.07755C26.7231 4.07529 28.9635 6.31204 28.9658 9.07346L28.9821 29.0735C28.9823 29.316 28.9653 29.5545 28.9321 29.7879C30.7912 31.2513 31.9858 33.5214 31.9879 36.071C31.9915 40.4893 28.4127 44.0739 23.9944 44.0775C19.5762 44.0812 15.9915 40.5024 15.9879 36.0841C15.9858 33.5345 17.1767 31.2624 19.0334 29.796C18.9998 29.5627 18.9823 29.3242 18.9821 29.0816L18.9658 9.08165Z" fill="#333333"/>
<path d="M23.9674 11.0775C23.9669 10.5252 24.4143 10.0771 24.9666 10.0767L26.9666 10.0751L26.9682 12.0751L24.9682 12.0767C24.4159 12.0771 23.9678 11.6298 23.9674 11.0775Z" fill="#333333"/>
<path d="M23.9707 15.0775C23.9702 14.5252 24.4176 14.0771 24.9698 14.0767L26.9698 14.0751L26.9715 16.0751L24.9715 16.0767C24.4192 16.0771 23.9711 15.6298 23.9707 15.0775Z" fill="#333333"/>
<path d="M23.974 19.0775C23.9735 18.5252 24.4209 18.0771 24.9731 18.0767L26.9731 18.0751L26.9748 20.0751L24.9748 20.0767C24.4225 20.0771 23.9744 19.6298 23.974 19.0775Z" fill="#333333"/>
<path fill-rule="evenodd" clip-rule="evenodd" d="M19.2907 30.3743L29.2989 40.3661L30.7119 38.9507L20.7037 28.959L19.2907 30.3743Z" fill="#333333"/>
<path fill-rule="evenodd" clip-rule="evenodd" d="M19.2874 26.3743L30.2964 37.3652L31.7095 35.9498L20.7005 24.9589L19.2874 26.3743Z" fill="#333333"/>
<path fill-rule="evenodd" clip-rule="evenodd" d="M20.6997 23.7874L27.205 30.2821L28.618 28.8667L22.1127 22.372L20.6997 23.7874Z" fill="#333333"/>
<path fill-rule="evenodd" clip-rule="evenodd" d="M24.6999 23.7841L27.2018 26.2819L28.6149 24.8666L26.1129 22.3687L24.6999 23.7841Z" fill="#333333"/>
<path fill-rule="evenodd" clip-rule="evenodd" d="M19.9763 22.0808L27.9764 22.0742L27.978 24.0742L19.9779 24.0808L19.9763 22.0808Z" fill="#333333"/>
<path fill-rule="evenodd" clip-rule="evenodd" d="M18 33.0825L28.0082 43.0743L29.4213 41.6589L19.4131 31.6671L18 33.0825Z" fill="#333333"/>
<path fill-rule="evenodd" clip-rule="evenodd" d="M16.7094 35.7907L24.716 43.7841L26.129 42.3688L18.1224 34.3753L16.7094 35.7907Z" fill="#333333"/>
</svg>
