<svg width="48" height="48" viewBox="0 0 48 48" fill="none" xmlns="http://www.w3.org/2000/svg">
<path d="M23.1032 9.81695C23.47 9.07371 24.5299 9.07371 24.8967 9.81696L28.4696 17.0564C28.6152 17.3515 28.8968 17.5561 29.2225 17.6034L37.2117 18.7643C38.0319 18.8835 38.3594 19.8915 37.7659 20.47L31.9849 26.1051C31.7492 26.3349 31.6416 26.6659 31.6973 26.9903L33.062 34.9472C33.2021 35.7641 32.3447 36.387 31.611 36.0014L24.4653 32.2446C24.174 32.0915 23.8259 32.0915 23.5346 32.2446L16.3889 36.0014C15.6552 36.3871 14.7978 35.7641 14.9379 34.9472L16.3026 26.9903C16.3583 26.6659 16.2507 26.3349 16.015 26.1051L10.234 20.47C9.64047 19.8915 9.96798 18.8835 10.7882 18.7643L18.7774 17.6034C19.1031 17.5561 19.3847 17.3515 19.5303 17.0564L23.1032 9.81695Z" fill="#333333"/>
</svg>
