<svg width="48" height="48" viewBox="0 0 48 48" fill="none" xmlns="http://www.w3.org/2000/svg">
<path d="M23.1032 13.817C23.47 13.0737 24.5298 13.0737 24.8967 13.817L27.294 18.6744C27.4396 18.9696 27.7212 19.1741 28.0469 19.2215L33.4074 20.0004C34.2276 20.1196 34.5552 21.1276 33.9616 21.7061L30.0827 25.4871C29.847 25.7168 29.7395 26.0478 29.7951 26.3722L30.7108 31.7111C30.8509 32.528 29.9935 33.151 29.2599 32.7653L24.4653 30.2446C24.1739 30.0915 23.8259 30.0915 23.5346 30.2446L18.74 32.7653C18.0063 33.151 17.1489 32.528 17.289 31.7111L18.2047 26.3722C18.2603 26.0478 18.1528 25.7168 17.9171 25.4871L14.0382 21.7061C13.4447 21.1276 13.7722 20.1196 14.5924 20.0004L19.9529 19.2215C20.2786 19.1741 20.5602 18.9696 20.7059 18.6744L23.1032 13.817Z" fill="#333333"/>
</svg>
