<svg width="48" height="48" viewBox="0 0 48 48" fill="none" xmlns="http://www.w3.org/2000/svg">
<path fill-rule="evenodd" clip-rule="evenodd" d="M23.9999 16.5191L22.4993 19.5596C22.0624 20.445 21.2177 21.0587 20.2405 21.2007L16.8852 21.6882L19.3131 24.0549C20.0202 24.7441 20.3428 25.7371 20.1759 26.7103L19.6028 30.0521L22.6039 28.4744C23.4779 28.0149 24.522 28.0149 25.3959 28.4744L28.3971 30.0521L27.8239 26.7103C27.657 25.7371 27.9796 24.7441 28.6867 24.0549L31.1147 21.6882L27.7593 21.2007C26.7822 21.0587 25.9375 20.445 25.5005 19.5596L23.9999 16.5191ZM24.8967 13.817C24.5298 13.0737 23.47 13.0737 23.1032 13.817L20.7059 18.6744C20.5602 18.9696 20.2786 19.1741 19.9529 19.2215L14.5924 20.0004C13.7722 20.1196 13.4447 21.1276 14.0382 21.7061L17.9171 25.4871C18.1528 25.7168 18.2603 26.0478 18.2047 26.3722L17.289 31.7111C17.1489 32.528 18.0063 33.151 18.74 32.7653L23.5346 30.2446C23.8259 30.0915 24.1739 30.0915 24.4653 30.2446L29.2599 32.7653C29.9935 33.151 30.8509 32.528 30.7108 31.7111L29.7951 26.3722C29.7395 26.0478 29.847 25.7168 30.0827 25.4871L33.9616 21.7061C34.5552 21.1276 34.2276 20.1196 33.4074 20.0004L28.0469 19.2215C27.7212 19.1741 27.4396 18.9696 27.294 18.6744L24.8967 13.817Z" fill="#333333"/>
</svg>
