<svg width="48" height="48" viewBox="0 0 48 48" fill="none" xmlns="http://www.w3.org/2000/svg">
<path fill-rule="evenodd" clip-rule="evenodd" d="M23.9999 12.5191L21.3238 17.9415C20.8868 18.827 20.0421 19.4407 19.065 19.5826L13.081 20.4522L17.411 24.673C18.1181 25.3622 18.4408 26.3552 18.2738 27.3284L17.2516 33.2882L22.6039 30.4744C23.4779 30.0149 24.522 30.0149 25.396 30.4744L30.7482 33.2882L29.7261 27.3284C29.5591 26.3552 29.8818 25.3622 30.5888 24.673L34.9189 20.4522L28.9349 19.5826C27.9578 19.4407 27.1131 18.827 26.6761 17.9415L23.9999 12.5191ZM24.8967 9.81696C24.5299 9.07371 23.47 9.07371 23.1032 9.81695L19.5303 17.0564C19.3847 17.3515 19.1031 17.5561 18.7774 17.6034L10.7882 18.7643C9.96798 18.8835 9.64047 19.8915 10.234 20.47L16.015 26.1051C16.2507 26.3349 16.3583 26.6659 16.3026 26.9903L14.9379 34.9472C14.7978 35.7641 15.6552 36.3871 16.3889 36.0014L23.5346 32.2446C23.8259 32.0915 24.174 32.0915 24.4653 32.2446L31.611 36.0014C32.3447 36.387 33.2021 35.7641 33.062 34.9472L31.6973 26.9903C31.6416 26.6659 31.7492 26.3349 31.9849 26.1051L37.7659 20.47C38.3594 19.8915 38.0319 18.8835 37.2117 18.7643L29.2225 17.6034C28.8968 17.5561 28.6152 17.3515 28.4696 17.0564L24.8967 9.81696Z" fill="#333333"/>
</svg>
