<svg width="48" height="48" viewBox="0 0 48 48" fill="none" xmlns="http://www.w3.org/2000/svg">
<path fill-rule="evenodd" clip-rule="evenodd" d="M48 0H0V48H48V0ZM24.8967 13.817C24.5299 13.0737 23.4701 13.0737 23.1033 13.817L20.706 18.6745C20.5603 18.9696 20.2787 19.1742 19.953 19.2215L14.5925 20.0004C13.7723 20.1196 13.4448 21.1276 14.0383 21.7061L17.9172 25.4871C18.1529 25.7169 18.2604 26.0479 18.2048 26.3723L17.2891 31.7111C17.149 32.528 18.0064 33.151 18.7401 32.7653L23.5347 30.2446C23.826 30.0915 24.174 30.0915 24.4653 30.2446L29.26 32.7653C29.9936 33.151 30.851 32.528 30.7109 31.7111L29.7952 26.3723C29.7396 26.0479 29.8471 25.7169 30.0828 25.4871L33.9617 21.7061C34.5552 21.1276 34.2277 20.1196 33.4075 20.0004L28.047 19.2215C27.7213 19.1742 27.4397 18.9696 27.294 18.6745L24.8967 13.817Z" fill="#333333"/>
</svg>
