<svg width="48" height="48" viewBox="0 0 48 48" fill="none" xmlns="http://www.w3.org/2000/svg">
<path fill-rule="evenodd" clip-rule="evenodd" d="M48 0H0V48H48V0ZM24.8967 9.81699C24.5299 9.07374 23.4701 9.07374 23.1033 9.81698L19.5304 17.0564C19.3847 17.3516 19.1032 17.5561 18.7775 17.6035L10.7883 18.7644C9.96804 18.8835 9.64053 19.8915 10.234 20.4701L16.0151 26.1052C16.2508 26.3349 16.3583 26.6659 16.3027 26.9903L14.938 34.9472C14.7978 35.7641 15.6553 36.3871 16.3889 36.0014L23.5347 32.2446C23.826 32.0915 24.174 32.0915 24.4653 32.2446L31.6111 36.0014C32.3447 36.3871 33.2022 35.7641 33.062 34.9472L31.6973 26.9903C31.6417 26.6659 31.7492 26.3349 31.9849 26.1052L37.766 20.4701C38.3595 19.8915 38.032 18.8835 37.2117 18.7644L29.2225 17.6035C28.8968 17.5561 28.6153 17.3516 28.4696 17.0564L24.8967 9.81699Z" fill="#333333"/>
</svg>
