<svg width="48" height="48" viewBox="0 0 48 48" fill="none" xmlns="http://www.w3.org/2000/svg">
<path fill-rule="evenodd" clip-rule="evenodd" d="M48 0H0V48H48V0ZM24.8967 5.81699C24.5299 5.07374 23.4701 5.07374 23.1033 5.81699L18.3548 15.4384C18.2092 15.7335 17.9276 15.9381 17.6019 15.9854L6.98403 17.5283C6.16381 17.6475 5.8363 18.6555 6.42982 19.234L14.113 26.7232C14.3487 26.9529 14.4562 27.2839 14.4006 27.6083L12.5868 38.1833C12.4467 39.0002 13.3041 39.6231 14.0378 39.2375L23.5347 34.2446C23.826 34.0915 24.174 34.0915 24.4653 34.2446L33.9622 39.2375C34.6959 39.6231 35.5533 39.0002 35.4132 38.1833L33.5994 27.6083C33.5438 27.2839 33.6513 26.9529 33.887 26.7232L41.5702 19.234C42.1637 18.6555 41.8362 17.6475 41.016 17.5283L30.3981 15.9854C30.0724 15.9381 29.7908 15.7335 29.6452 15.4384L24.8967 5.81699Z" fill="#333333"/>
</svg>
