<svg width="48" height="48" viewBox="0 0 48 48" fill="none" xmlns="http://www.w3.org/2000/svg">
<path fill-rule="evenodd" clip-rule="evenodd" d="M48 0H0V48H48V0ZM16 14C16 11.7909 17.7909 10 20 10V12C20 13.1046 20.8954 14 22 14H23V21.5858L22.2929 22.2929L22 22.5858V23V39C22 40.6569 23.3431 42 25 42H26C27.6569 42 29 40.6569 29 39V23V22.5858L28.7071 22.2929L28 21.5858V14H30C30.5523 14 31 13.5523 31 13V12H32V14H35V8H32V10H31V9C31 8.44772 30.5523 8 30 8H20C16.6863 8 14 10.6863 14 14H16ZM26 14H25V22V22.4142L24.7071 22.7071L24 23.4142V39C24 39.5523 24.4477 40 25 40H26C26.5523 40 27 39.5523 27 39V23.4142L26.2929 22.7071L26 22.4142V22V14Z" fill="#333333"/>
</svg>
