<svg width="48" height="48" viewBox="0 0 48 48" fill="none" xmlns="http://www.w3.org/2000/svg">
<path fill-rule="evenodd" clip-rule="evenodd" d="M48 0H0V48H48V0ZM16.8597 13.498C17.1348 13.0195 16.9695 12.4082 16.4906 12.1328C16.0117 11.8584 15.4004 12.0234 15.1254 12.502C14.9489 12.8096 14.7187 13.3086 14.5477 13.8838C14.379 14.4512 14.2441 15.1719 14.3324 15.8906C14.3896 16.3564 14.5266 16.7324 14.7214 17.0537C14.8981 17.3457 15.1087 17.5645 15.2461 17.707L15.2628 17.7246C15.357 17.8223 15.4189 17.8887 15.465 17.9463C15.4934 17.9814 15.5157 18.0127 15.5358 18.0459C15.5778 18.1152 15.6258 18.2197 15.65 18.416C15.6916 18.7549 15.6311 19.1777 15.5027 19.6094C15.3765 20.0342 15.208 20.3896 15.1078 20.5645C14.8327 21.0439 14.998 21.6543 15.4769 21.9297C15.9558 22.2051 16.5671 22.04 16.8421 21.5605C17.0186 21.2529 17.2488 20.7549 17.4198 20.1797C17.5885 19.6123 17.7234 18.8916 17.6351 18.1719C17.5779 17.707 17.441 17.3301 17.2461 17.0088C17.1348 16.8262 17.0102 16.6719 16.8988 16.5459C16.8355 16.4746 16.7764 16.4131 16.7265 16.3613L16.7214 16.3555L16.7047 16.3389L16.5665 16.1924L16.5121 16.1299C16.4791 16.0898 16.454 16.0547 16.4317 16.0176C16.4101 15.9824 16.387 15.9375 16.3663 15.875C16.3467 15.8164 16.3293 15.7432 16.3175 15.6475C16.2759 15.3076 16.3364 14.8848 16.4648 14.4531C16.591 14.0293 16.7595 13.6729 16.8597 13.498ZM24.8597 13.498C25.1348 13.0195 24.9695 12.4082 24.4906 12.1328C24.0117 11.8584 23.4004 12.0234 23.1254 12.502C22.9489 12.8096 22.7187 13.3086 22.5477 13.8828C22.379 14.4502 22.2441 15.1709 22.3324 15.8906C22.3896 16.3555 22.5266 16.7324 22.7214 17.0537C22.8981 17.3457 23.1087 17.5645 23.2461 17.707L23.2628 17.7246C23.4151 17.8828 23.483 17.958 23.5358 18.0459C23.5778 18.1143 23.6258 18.2188 23.65 18.416C23.6916 18.7549 23.6311 19.1777 23.5027 19.6094C23.3765 20.0342 23.208 20.3896 23.1078 20.5645C22.8327 21.043 22.998 21.6543 23.4769 21.9297C23.9558 22.2051 24.5671 22.0391 24.8421 21.5605C25.0186 21.2529 25.2488 20.7539 25.4198 20.1797C25.5885 19.6123 25.7234 18.8916 25.6351 18.1719C25.5779 17.707 25.441 17.3301 25.2461 17.0088C25.0694 16.7168 24.8588 16.498 24.7214 16.3555L24.7047 16.3379C24.5524 16.1797 24.4845 16.1045 24.4317 16.0176C24.4073 15.9775 24.3808 15.9258 24.3582 15.8506C24.3419 15.7959 24.3276 15.7295 24.3175 15.6465C24.2759 15.3076 24.3364 14.8848 24.4648 14.4531C24.591 14.0283 24.7595 13.6729 24.8597 13.498ZM32.4906 12.1328C32.9695 12.4082 33.1348 13.0195 32.8597 13.498C32.7595 13.6729 32.591 14.0293 32.4648 14.4531C32.3364 14.8848 32.2759 15.3076 32.3175 15.6475C32.3417 15.8438 32.3897 15.9482 32.4317 16.0176L32.4617 16.0635C32.4783 16.0869 32.4971 16.1113 32.5193 16.1377C32.5428 16.166 32.5702 16.1963 32.6032 16.2314L32.7047 16.3389L32.7214 16.3555C32.7762 16.4131 32.8427 16.4824 32.914 16.5635L33.0107 16.6777C33.0379 16.7109 33.0654 16.7461 33.0928 16.7832C33.145 16.8525 33.1968 16.9277 33.2461 17.0088C33.441 17.3301 33.5779 17.707 33.6351 18.1719C33.7234 18.8916 33.5885 19.6123 33.4198 20.1797C33.2488 20.7549 33.0186 21.2529 32.8421 21.5605C32.5671 22.04 31.9558 22.2051 31.4769 21.9297C30.998 21.6543 30.8327 21.0439 31.1078 20.5645C31.208 20.3896 31.3765 20.0342 31.5027 19.6094C31.6311 19.1777 31.6916 18.7549 31.65 18.416C31.6425 18.3555 31.6327 18.3037 31.6215 18.2588C31.5966 18.1582 31.5648 18.0938 31.5358 18.0459C31.483 17.959 31.4151 17.8828 31.2628 17.7246L31.2461 17.707C31.1939 17.6533 31.1311 17.5879 31.0637 17.5117C31.0153 17.457 30.9645 17.3965 30.9135 17.3311C30.879 17.2871 30.8445 17.2402 30.8105 17.1914C30.7802 17.1475 30.7504 17.1016 30.7214 17.0537C30.5266 16.7324 30.3896 16.3564 30.3324 15.8906C30.2441 15.1719 30.379 14.4512 30.5477 13.8838C30.7187 13.3086 30.9489 12.8096 31.1254 12.502C31.4004 12.0234 32.0117 11.8584 32.4906 12.1328ZM4 27.0303C4 26.4775 4.44771 26.0303 5 26.0303H43C43.5523 26.0303 44 26.4775 44 27.0303C44 27.582 43.5523 28.0303 43 28.0303H40C40 32.4482 36.4183 36.0303 32 36.0303H16C11.5817 36.0303 8 32.4482 8 28.0303H5C4.44771 28.0303 4 27.582 4 27.0303Z" fill="#333333"/>
</svg>
