<svg width="48" height="48" viewBox="0 0 48 48" fill="none" xmlns="http://www.w3.org/2000/svg">
<path fill-rule="evenodd" clip-rule="evenodd" d="M48 0H0V48H48V0ZM21 3H27V6H24V8H27V11H24V13H27V16H24V18H27V21H24V23H27V25H21V3ZM34 26V40C34 42.2091 32.2091 44 30 44H18C15.7909 44 14 42.2091 14 40V26H34ZM31 8C29.8954 8 29 8.89543 29 10V16H33V20C33.5523 20 34 19.5523 34 19V13C34 12.4477 33.5523 12 33 12V10C33 8.89543 32.1046 8 31 8ZM15 14L17 12L19 14V25H15V14ZM32 17H30V25H32V17Z" fill="#333333"/>
</svg>
