<svg width="48" height="48" viewBox="0 0 48 48" fill="none" xmlns="http://www.w3.org/2000/svg">
<path d="M35.4904 12.7017L38.6511 19.5137L32.2887 19.5138L35.4904 12.7017Z" fill="#333333"/>
<path d="M12.6165 18.372L15.7442 25.2178L9.45891 25.2179L12.6165 18.372Z" fill="#333333"/>
<path fill-rule="evenodd" clip-rule="evenodd" d="M48 0H0V48H48V0ZM37.1832 11.5456L40.8608 19.5137L42.5256 19.5137C42.5256 23.6558 39.1677 27.0137 35.0256 27.0137C30.8834 27.0137 27.5256 23.6558 27.5256 19.5137L29.9813 19.5137L33.6599 11.5456L33.3847 11.2566L26.0628 13.1972V35.2177H26.2142L35.3665 38.0667C35.6571 38.1618 35.9104 38.3459 36.0907 38.5929C36.271 38.8398 36.3691 39.1372 36.3712 39.4429V39.553C36.3811 39.7454 36.3505 39.9377 36.2814 40.1175C36.2122 40.2974 36.1061 40.4606 35.9699 40.5969C35.8337 40.7331 35.6704 40.8392 35.4906 40.9083C35.3108 40.9774 35.1185 41.008 34.9261 40.9981H13.0569C12.8633 41.0082 12.6698 40.9772 12.489 40.9073C12.3081 40.8374 12.1442 40.73 12.0077 40.5923C11.8713 40.4545 11.7655 40.2895 11.6973 40.1081C11.629 39.9266 11.5999 39.7328 11.6118 39.5393V39.4429C11.6149 39.1355 11.715 38.8368 11.8979 38.5897C12.0808 38.3425 12.3371 38.1595 12.6303 38.0667L21.7963 35.2177H21.934V14.078L15.1489 15.7983C15.0348 16.3299 14.7554 16.8117 14.3506 17.1746L18.0505 25.2178L20.1198 25.2178C20.1198 29.3599 16.762 32.7178 12.6198 32.7178C8.47771 32.7178 5.11984 29.3599 5.11984 25.2178L7.18817 25.2178L10.8824 17.2159C10.4839 16.866 10.202 16.4026 10.0743 15.8879C9.94658 15.3732 9.97926 14.8317 10.1679 14.3361C10.3566 13.8405 10.6922 13.4144 11.1299 13.1149C11.5675 12.8154 12.0862 12.6568 12.6165 12.6604C13.2277 12.6614 13.8184 12.8811 14.2818 13.2797L33.0681 8.50402C33.3204 7.96648 33.7481 7.5308 34.2809 7.26865C34.8137 7.00649 35.4198 6.93348 35.9996 7.06161C36.5794 7.18974 37.0984 7.5114 37.4711 7.97366C37.8438 8.43592 38.048 9.01126 38.0503 9.60505C38.048 9.97092 37.9697 10.3323 37.8205 10.6664C37.6712 11.0004 37.4542 11.2998 37.1832 11.5456Z" fill="#333333"/>
</svg>
