<svg width="48" height="48" viewBox="0 0 48 48" fill="none" xmlns="http://www.w3.org/2000/svg">
<g clip-path="url(#clip0)">
<path fill-rule="evenodd" clip-rule="evenodd" d="M48 0.325928H0V48.3259H48V0.325928ZM11.7469 7.33823C14.4518 5.98339 19.0249 4.32593 24.0433 4.32593C28.9687 4.32593 33.4307 5.92256 36.1239 7.26266C36.1692 7.28517 36.2139 7.3076 36.2581 7.32995C36.9838 7.69671 37.5736 8.04163 38 8.32593L35.09 12.5799L33.4451 13.4334C27.7825 16.2904 20.1889 16.2904 14.5263 13.4334L13.0777 12.8566L10 8.32593C10.2852 8.13849 10.642 7.92471 11.0622 7.69568C11.2746 7.57995 11.5031 7.46032 11.7469 7.33823ZM13.662 8.64542C14.6893 8.96879 15.7776 9.25064 16.8852 9.45499C19.2829 9.8974 21.6987 9.96319 23.7654 9.36532C26.3919 8.60547 29.1492 7.98977 31.733 7.62502C29.5282 6.89918 26.8626 6.32593 24.0433 6.32593C19.9743 6.32593 16.1968 7.51986 13.662 8.64542ZM34.3461 15.219L34.6185 15.0815C43.9033 25.0021 53.8737 44.0344 24.0433 44.3227C-5.80757 44.6112 4.00908 25.3564 13.3664 15.0883L13.6254 15.219C19.8546 18.3619 28.1168 18.3619 34.3461 15.219ZM22.2887 22.3259H25.7113V23.9259H29.1339V27.1259H22.2887L22.1347 27.1387C21.9374 27.1721 21.7589 27.2692 21.6304 27.4131C21.5019 27.557 21.4314 27.7385 21.4314 27.9259C21.4314 28.1134 21.5019 28.2949 21.6304 28.4387C21.7589 28.5826 21.9374 28.6798 22.1347 28.7131L22.2887 28.7259H25.7113L25.9919 28.7339C27.1019 28.7996 28.1409 29.2668 28.8887 30.0366C29.6364 30.8062 30.0342 31.8179 29.9977 32.8572C29.9612 33.8965 29.4933 34.8816 28.6932 35.6038C27.8929 36.326 26.8235 36.7285 25.7113 36.7259V38.3259H22.2887V36.7259H18.8661V33.5259H25.7113L25.8653 33.5131C26.0626 33.4798 26.2411 33.3826 26.3696 33.2387C26.4981 33.0949 26.5686 32.9134 26.5686 32.7259C26.5686 32.5385 26.4981 32.357 26.3696 32.2131C26.2411 32.0692 26.0626 31.9721 25.8653 31.9387L25.7113 31.9259H22.2887L22.0081 31.9179C20.8981 31.8522 19.8591 31.385 19.1113 30.6154C18.3636 29.8456 17.9658 28.8339 18.0023 27.7946C18.0388 26.7554 18.5067 25.7702 19.3068 25.0481C20.1071 24.3258 21.1765 23.9234 22.2887 23.9259V22.3259Z" fill="#333333"/>
</g>
<defs>
<clipPath id="clip0">
<rect width="48" height="48" fill="white"/>
</clipPath>
</defs>
</svg>
