<svg width="48" height="48" viewBox="0 0 48 48" fill="none" xmlns="http://www.w3.org/2000/svg">
<path fill-rule="evenodd" clip-rule="evenodd" d="M48 0H0V48H48V0ZM26.1511 33.5644C21.12 30.9867 16.9956 26.88 14.4356 21.8489L18.3467 17.9378C18.8444 17.44 18.9867 16.7467 18.7911 16.1244C18.1333 14.1333 17.7778 12 17.7778 9.77778C17.7778 8.8 16.9778 8 16 8H9.77778C8.8 8 8 8.8 8 9.77778C8 26.4711 21.5289 40 38.2222 40C39.2 40 40 39.2 40 38.2222V32.0178C40 31.04 39.2 30.24 38.2222 30.24C36.0178 30.24 33.8667 29.8844 31.8756 29.2267C31.2533 29.0133 30.5422 29.1733 30.0622 29.6533L26.1511 33.5644Z" fill="#333333"/>
</svg>
