<svg width="48" height="48" viewBox="0 0 48 48" fill="none" xmlns="http://www.w3.org/2000/svg">
<path fill-rule="evenodd" clip-rule="evenodd" d="M48 0H0V48H48V0ZM5 41V21V11V5H7V11H9V21H7L7 41H5ZM19 7H26C26.5523 7 27 6.55228 27 6C27 5.44772 26.5523 5 26 5H10C9.44771 5 9 5.44772 9 6C9 6.55228 9.44771 7 10 7H17V10H11V23H25V10H19V7ZM28 26V32H42V26H28ZM27 11V21H28C29.1046 21 30 21.8954 30 23V24H40V21C40 15.4772 35.5228 11 30 11H27ZM39 40C39 42.2091 37.2091 44 35 44C32.7909 44 31 42.2091 31 40C31 36.5 35 33 35 33C35 33 39 36.5 39 40Z" fill="#333333"/>
</svg>
