<svg width="48" height="48" viewBox="0 0 48 48" fill="none" xmlns="http://www.w3.org/2000/svg">
<path fill-rule="evenodd" clip-rule="evenodd" d="M48 0H0V48H48V0ZM32.435 10.6624L26.6569 8.44336L25.5474 11.3339L26.9896 11.8864L25.8368 14.8961C25.2426 14.7769 24.6283 14.715 24 14.715C23.2031 14.715 22.4278 14.8156 21.6897 15.0044L20.3791 12.0612L21.7918 11.4314L20.5338 8.60429L14.8795 11.1204L16.1376 13.9475L17.5519 13.3177L18.8626 16.2624C17.6989 17.0392 16.721 18.0683 16.0061 19.2753L12.9963 18.1193L13.5519 16.6756L10.6628 15.5661L8.44385 21.3426L11.3344 22.4521L11.8868 21.0084L14.8966 22.1627C14.7774 22.7569 14.7155 23.3713 14.7155 23.9995C14.7155 24.7964 14.8161 25.5717 15.0033 26.3098L12.0586 27.622L11.4304 26.2077L8.60323 27.4657L11.1209 33.12L13.948 31.8619L13.3182 30.4476L16.2629 29.1369C17.0397 30.3006 18.0688 31.2786 19.2742 31.9935L18.1167 35.0016L16.6745 34.4477L15.565 37.3367L21.3431 39.5557L22.4526 36.6651L21.0073 36.1111L22.1617 33.1014C22.7559 33.2221 23.3702 33.284 24 33.284C24.7969 33.284 25.5722 33.1834 26.3103 32.9946L27.621 35.9378L26.2082 36.5676L27.4662 39.3947L33.1205 36.8771L31.8624 34.05L30.4481 34.6798L29.1374 31.735C30.3011 30.9598 31.279 29.9308 31.9939 28.7253L35.0021 29.8812L34.4481 31.325L37.3372 32.4345L39.5562 26.6564L36.6656 25.5469L36.1116 26.9907L33.1034 25.8363C33.2226 25.2421 33.2845 24.6278 33.2845 23.9995C33.2845 23.2026 33.1839 22.4273 32.9951 21.6892L35.9383 20.3786L36.5681 21.7914L39.3952 20.5333L36.8776 14.8791L34.0505 16.1371L34.6803 17.5514L31.7355 18.8621C30.9603 17.6984 29.9312 16.7205 28.7258 16.0056L29.8802 12.9959L31.3255 13.5514L32.435 10.6624ZM21.6789 28.0197C20.9392 27.5926 20.6854 26.6456 21.1125 25.9059C21.5396 25.1663 22.4866 24.9125 23.2263 25.3396C23.966 25.7667 24.2197 26.7137 23.7927 27.4533C23.3656 28.193 22.4185 28.4468 21.6789 28.0197ZM25.5474 23.9995C25.5474 23.1453 26.2407 22.4521 27.0948 22.4521C27.949 22.4521 28.6422 23.1453 28.6422 23.9995C28.6422 24.8537 27.949 25.5469 27.0948 25.5469C26.2407 25.5469 25.5474 24.8537 25.5474 23.9995ZM21.1125 22.0931C20.6854 21.3534 20.9392 20.4064 21.6789 19.9793C22.4185 19.5522 23.3656 19.806 23.7927 20.5457C24.2197 21.2854 23.966 22.2324 23.2263 22.6595C22.4866 23.0865 21.5396 22.8328 21.1125 22.0931Z" fill="#333333"/>
</svg>
