<svg width="48" height="48" viewBox="0 0 48 48" fill="none" xmlns="http://www.w3.org/2000/svg">
<path fill-rule="evenodd" clip-rule="evenodd" d="M35.7919 23.5128C38.116 23.5128 39.9999 21.6288 39.9999 19.3047C39.9999 16.9807 38.116 15.0967 35.7919 15.0967C33.4679 15.0967 31.5839 16.9808 31.5839 19.3047C31.5839 21.6288 33.4679 23.5128 35.7919 23.5128ZM41.9999 19.3047C41.9999 22.7334 39.2206 25.5128 35.7919 25.5128C32.3634 25.5128 29.5839 22.7334 29.5839 19.3047C29.5839 15.8762 32.3634 13.0967 35.7919 13.0967C39.2206 13.0967 41.9999 15.8762 41.9999 19.3047Z" fill="#333333"/>
<path fill-rule="evenodd" clip-rule="evenodd" d="M38.896 31.1058V31.0997H36.8421L33.4485 27.7017C32.909 26.8368 32.157 26.1245 31.264 25.6325C30.3711 25.1406 29.3671 24.8856 28.3477 24.8917H21.8246L23.4705 37.3078H28.0326C28.8608 37.307 29.6802 37.1401 30.4426 36.8166C31.1431 36.5194 31.7821 36.0957 32.3281 35.5673C32.3762 35.5207 32.4237 35.4732 32.4704 35.425L33.4275 36.3821C33.5376 36.4955 33.656 36.5997 33.7816 36.6942C33.9902 36.8511 34.2186 36.9809 34.4615 37.0801C34.8505 37.2388 35.2683 37.3153 35.6884 37.3048C35.7064 37.3048 35.7233 37.307 35.7402 37.3093C35.757 37.3115 35.7739 37.3138 35.7919 37.3138H38.896C39.7193 37.3138 40.5087 36.9867 41.0908 36.4046C41.6729 35.8225 42 35.0331 42 34.2098C42 33.3866 41.6729 32.597 41.0908 32.0149C40.5087 31.4328 39.7193 31.1058 38.896 31.1058ZM35.2174 35.2284C35.3508 35.2828 35.4942 35.309 35.6384 35.3054L35.6634 35.3048H35.6884C35.7688 35.3048 35.8375 35.3092 35.8891 35.3138H38.896C39.1888 35.3138 39.4695 35.1975 39.6766 34.9904C39.8837 34.7834 40 34.5026 40 34.2098C40 33.917 39.8836 33.6361 39.6766 33.4291C39.4695 33.2221 39.1888 33.1058 38.896 33.1058H36.896V33.0997H36.0129L31.8723 28.9536L31.7516 28.7602C31.3929 28.1852 30.8928 27.7115 30.299 27.3843C29.7052 27.0572 29.0376 26.8876 28.3597 26.8917L28.3477 26.8917L24.1072 26.8917L25.2229 35.3078L28.0308 35.3078C28.0311 35.3078 28.0305 35.3078 28.0308 35.3078C28.5909 35.3072 29.1459 35.1942 29.6614 34.9755M32.4472 32.5733L34.8521 34.9783L34.8623 34.9888C34.9626 35.0921 35.0836 35.1737 35.2174 35.2284M32.4472 32.5733L31.0333 34.034L32.4472 32.5733ZM31.0333 34.034C30.6437 34.4365 30.1772 34.7566 29.6614 34.9755L31.0333 34.034Z" fill="#333333"/>
<path fill-rule="evenodd" clip-rule="evenodd" d="M17.3127 29.3198L13.5331 33.0995H9.10402C8.81127 33.0995 8.5304 33.2158 8.32337 33.4228C8.11634 33.6298 8 33.9107 8 34.2035C8 34.4963 8.1163 34.7771 8.32337 34.9841C8.53039 35.1912 8.81127 35.3075 9.10402 35.3075H13.6591C13.7105 35.3029 13.7792 35.2985 13.8598 35.2985H13.8841L13.9084 35.2991C14.0531 35.3026 14.1971 35.2762 14.3314 35.2214C14.4651 35.1668 14.5861 35.0851 14.6866 34.9818L14.6964 34.9718L18.7404 30.9262C18.8404 30.8262 18.92 30.7072 18.9739 30.5769C19.0279 30.4467 19.0559 30.3064 19.0559 30.1648C19.0559 30.0233 19.0281 29.8835 18.9741 29.7532C18.9202 29.6229 18.8407 29.5036 18.7407 29.4036C18.6408 29.3038 18.5221 29.2244 18.3913 29.1702C18.2611 29.1163 18.1211 29.0884 17.9795 29.0884C17.838 29.0884 17.6982 29.1162 17.5679 29.1702C17.476 29.2083 17.3902 29.2587 17.3127 29.3198ZM17.6422 27.1069C17.354 27.1387 17.0712 27.2111 16.8023 27.3226C16.7145 27.3589 16.6287 27.3993 16.5449 27.4434C16.5301 27.4512 16.5154 27.4591 16.5007 27.4672C16.2454 27.6071 16.0108 27.7828 15.8041 27.9894L15.8086 27.9954L12.7046 31.0995H9.10402C8.28083 31.0995 7.49125 31.4265 6.90915 32.0086C6.32705 32.5907 6 33.3803 6 34.2035C6 35.0268 6.32705 35.8162 6.90915 36.3983C7.49125 36.9804 8.28083 37.3075 9.10402 37.3075H13.7548C13.7737 37.3075 13.7912 37.3052 13.8084 37.3029C13.8253 37.3007 13.842 37.2985 13.8598 37.2985C14.2799 37.3087 14.6976 37.232 15.0867 37.0733C15.4757 36.9146 15.8278 36.6771 16.1207 36.3758L20.1549 32.3402C20.4405 32.0545 20.6672 31.7153 20.8217 31.3422C20.9764 30.9689 21.0559 30.5688 21.0559 30.1648C21.0559 29.7608 20.9764 29.3608 20.8217 28.9875C20.6672 28.6143 20.4405 28.2751 20.1549 27.9894C19.8692 27.7038 19.5302 27.4772 19.1569 27.3226C18.7836 27.1679 18.3835 27.0884 17.9795 27.0884C17.8666 27.0884 17.754 27.0946 17.6422 27.1069Z" fill="#333333"/>
<path fill-rule="evenodd" clip-rule="evenodd" d="M39.1991 8.04434L35.792 9.66701L39.1991 11.2898C39.4978 11.4321 39.8427 11.2144 39.8427 10.8834V8.45061C39.8427 8.1198 39.4978 7.90197 39.1991 8.04434Z" fill="#333333"/>
<path fill-rule="evenodd" clip-rule="evenodd" d="M32.3849 8.04434C32.0862 7.90197 31.7413 8.1198 31.7413 8.45061V10.8834C31.7413 11.2144 32.0862 11.4321 32.3849 11.2898L35.792 9.66701L32.3849 8.04434Z" fill="#333333"/>
</svg>
