<svg width="48" height="48" viewBox="0 0 48 48" fill="none" xmlns="http://www.w3.org/2000/svg">
<path fill-rule="evenodd" clip-rule="evenodd" d="M37.2645 26.0759L37.0988 25.7227C36.3844 24.1993 36.1757 22.5852 36.1123 21.1533C36.0804 20.4317 36.0846 19.7185 36.0917 19.0628C36.0927 18.9727 36.0937 18.8839 36.0947 18.7964C36.1012 18.2306 36.1072 17.7167 36.0956 17.2218C36.0466 15.2721 35.433 13.3738 34.3231 11.7487C33.0589 10.18 31.4073 8.94698 29.5195 8.16855L29.4867 8.15502L29.4544 8.14032C26.8991 6.97888 24.1144 6.37922 21.2955 6.38467L21.2933 6.38468C17.7461 6.38758 14.3527 7.77372 11.8577 10.2266C9.36392 12.6782 7.97153 15.9936 7.97436 19.4413C7.97603 21.4856 8.57089 23.8168 9.60438 25.9735C10.6403 28.1353 12.0437 29.9699 13.5211 31.1065L14.3008 31.7063L14.3081 40.6218C14.6333 41.0238 15.2648 41.52 16.2118 41.9501C17.3706 42.4764 18.5353 42.6891 19.2092 42.6335L19.2904 42.6268L19.3719 42.6267C21.3282 42.6251 22.2432 42.0716 22.6369 41.735C22.7796 41.613 22.8788 41.4982 22.9453 41.4078L22.9408 35.8724L25.4383 36.5157L25.4395 36.5161L25.4405 36.5163L25.4418 36.5166L25.4539 36.5196C25.4694 36.5234 25.4961 36.5298 25.5332 36.5384C25.6074 36.5555 25.7229 36.581 25.8737 36.6112C26.176 36.6716 26.616 36.7494 27.1463 36.8144C28.223 36.9464 29.5965 37.0158 30.9225 36.8202C32.2599 36.6229 33.3743 36.1829 34.1403 35.4487C34.8538 34.7649 35.4814 33.62 35.4796 31.5238L35.4782 29.8139L37.1594 29.5479L37.1607 29.5477L37.1689 29.5463C37.1748 29.5452 37.1834 29.5437 37.1945 29.5416C37.2054 29.5396 37.2188 29.537 37.2345 29.5339C37.2977 29.5214 37.3956 29.5007 37.5171 29.4704C37.7659 29.4084 38.0839 29.3137 38.3937 29.1827C38.7155 29.0467 38.9469 28.9055 39.0833 28.7851C39.1108 28.7609 39.1301 28.7415 39.1433 28.727C39.1384 28.6733 39.1197 28.5633 39.0497 28.3854C38.9402 28.1072 38.7533 27.7857 38.514 27.4533C38.2801 27.1283 38.0313 26.8414 37.8376 26.6335C37.7422 26.5311 37.6638 26.4517 37.6121 26.4006C37.5989 26.3876 37.5876 26.3765 37.5782 26.3674C37.5692 26.3587 37.562 26.3517 37.5567 26.3467L37.5485 26.3389L37.5474 26.3379L37.2645 26.0759ZM24.9429 38.4534C24.9429 38.4534 25.7449 38.66 26.9432 38.8044C30.4842 39.2312 37.4859 39.1153 37.4796 31.5221C37.4796 31.5221 40.782 30.9997 41.115 29.1118C41.4479 27.224 38.9096 24.8735 38.9096 24.8735C38.0456 23.0311 38.0708 20.8607 38.0945 18.8232C38.1011 18.2599 38.1075 17.7067 38.095 17.1735C38.036 14.809 37.2842 12.5112 35.9295 10.5551C34.4463 8.69319 32.502 7.23504 30.282 6.31958C27.4647 5.03907 24.3963 4.37867 21.2916 4.38468C17.226 4.38801 13.3281 5.97637 10.4556 8.80034C7.58303 11.6243 5.97109 15.4526 5.97436 19.443C5.97829 24.2439 8.73175 29.9454 12.3016 32.6917L12.3086 41.1857C13.3226 43.3081 17.1426 44.8107 19.3736 44.6267C24.1118 44.6229 24.9457 41.8866 24.9457 41.8866L24.9429 38.4534Z" fill="#333333"/>
<path fill-rule="evenodd" clip-rule="evenodd" d="M26.0678 21.1982C26.8085 21.1982 27.5321 20.9704 28.1438 20.5444C28.765 20.9696 29.498 21.1924 30.246 21.1836L32.6221 20.3017C33.2917 19.7388 33.7513 18.9584 33.9241 18.0912C34.097 17.224 33.9725 16.3225 33.5715 15.5377C33.1705 14.7529 32.5174 14.1324 31.7214 13.78C31.5397 12.9404 31.0819 12.1894 30.424 11.6517L28.1047 10.8238L27.8435 10.8238C27.3277 10.0561 26.5531 9.50852 25.6672 9.28511L20.6945 9C19.868 9.07004 19.0886 9.42165 18.4817 9.99824C18.195 9.9293 17.9015 9.89356 17.6069 9.89172C16.8936 9.89321 16.1959 10.1052 15.5981 10.5022C15.0004 10.8992 14.5281 11.4641 14.2382 12.1288L12.3488 13.4938C11.8787 14.1434 11.6256 14.9299 11.6268 15.7374C11.6222 16.075 11.6661 16.4115 11.7574 16.7361C11.2617 17.3921 10.9951 18.1982 11.0001 19.0264C10.9989 19.9869 11.3587 20.9114 12.0055 21.6097C12.0576 22.2974 12.2933 22.9574 12.6868 23.5183C13.0804 24.0793 13.6168 24.5198 14.2382 24.7922C14.9541 25.2499 15.5604 25.8656 16.0123 26.5937C16.4642 27.3219 16.7503 28.1442 16.8496 29L21.7279 29L21.7279 25.0052C21.727 24.2959 21.921 23.6006 22.288 22.9981C22.6549 22.3955 23.1801 21.9099 23.804 21.5964C24.1548 21.4595 24.2411 21.2752 24.3468 21.0494C24.4173 20.899 24.4964 20.7301 24.6682 20.5444C24.8174 20.6483 24.9331 20.7404 25.0333 20.8203C25.3442 21.068 25.5077 21.1982 26.0678 21.1982ZM28.9093 19.3705C29.25 19.579 29.6428 19.7046 30.0533 19.7292L32.0053 19.0048C32.3617 18.6538 32.5881 18.2186 32.6777 17.7689C32.7782 17.2642 32.7089 16.7339 32.4653 16.2572C32.2194 15.7758 31.8014 15.3638 31.2558 15.1222L30.6381 14.8487L30.4804 14.1197C30.3879 13.6927 30.1661 13.2801 29.8211 12.9483L27.9079 12.2655L27.2099 12.2655L26.8264 11.6948C26.5224 11.2424 26.0536 10.8856 25.4845 10.7181L20.7175 10.4448C20.1734 10.5069 19.6787 10.7447 19.3034 11.1013L18.8259 11.5549L18.2161 11.4083C18.0163 11.3603 17.8111 11.335 17.6046 11.3334C17.1126 11.3353 16.6401 11.4825 16.2449 11.745C15.8492 12.0077 15.5569 12.3679 15.3841 12.7644L15.2263 13.1261L13.2294 14.5688C13.0113 14.9307 12.904 15.3331 12.9046 15.7306L12.9046 15.7432L12.9044 15.7557C12.9019 15.9357 12.9253 16.1166 12.9751 16.2936L13.1905 17.0601L12.7285 17.6715C12.4235 18.0752 12.275 18.5478 12.2778 19.0124L12.2779 19.0183L12.2778 19.0242C12.2772 19.5658 12.4789 20.1181 12.8875 20.5593L13.2372 20.9369L13.2785 21.4817C13.3084 21.8753 13.4439 22.2678 13.6876 22.6151C13.9323 22.964 14.2786 23.2551 14.6998 23.4397L14.7861 23.4776L14.8668 23.5291C14.9602 23.5888 15.0522 23.6509 15.1427 23.7151L15.1388 23.7185C16.8757 24.9176 17.6128 26.6628 17.8629 27.5552L18.2539 27.5552C18.8259 27.5552 19.3034 27.5552 19.5317 27.5552L20.4502 27.5552L20.4502 24.9772C20.4502 23.0239 21.4144 21.8251 21.941 21.2575C22.3623 20.8034 22.995 20.4206 23.2587 20.286C23.3111 20.1533 23.4898 19.8088 23.7853 19.4925C24.0808 19.1762 24.3876 18.8467 24.504 18.7216C25.295 19.233 25.9091 19.7467 25.9091 19.7467C25.9091 19.7467 26.7277 19.6958 27.0995 19.5264C27.397 19.3908 27.9156 19.0143 28.1377 18.843L28.9093 19.3705Z" fill="#333333" stroke="#333333" stroke-width="0.7"/>
<path d="M14.7816 20.4114L20.8972 19.4537L16.9276 15.0578L14.7816 20.4114Z" fill="#333333"/>
<path d="M22.0859 12.4729L20.2754 15.8372L23.703 17.6141L25.5136 14.2499L22.0859 12.4729Z" fill="#333333"/>
<path d="M33.978 23.9631C33.9787 24.7915 33.3077 25.4637 32.4793 25.4643C31.6508 25.465 30.9787 24.794 30.978 23.9656C30.9774 23.1371 31.6484 22.465 32.4768 22.4643C33.3052 22.4637 33.9774 23.1347 33.978 23.9631Z" fill="#333333"/>
<path fill-rule="evenodd" clip-rule="evenodd" d="M20.985 32.4738L16.985 32.4771L16.9834 30.4771L20.9834 30.4738L20.985 32.4738Z" fill="#333333"/>
<path fill-rule="evenodd" clip-rule="evenodd" d="M20.9883 36.4738L16.9883 36.4771L16.9867 34.4771L20.9867 34.4738L20.9883 36.4738Z" fill="#333333"/>
<path fill-rule="evenodd" clip-rule="evenodd" d="M20.9916 40.4738L16.9916 40.4771L16.99 38.4771L20.99 38.4738L20.9916 40.4738Z" fill="#333333"/>
</svg>
