<svg width="48" height="48" viewBox="0 0 48 48" fill="none" xmlns="http://www.w3.org/2000/svg">
<path fill-rule="evenodd" clip-rule="evenodd" d="M32 16C32 20.4204 28.4204 24 24 24C19.5796 24 16 20.4204 16 16C16 11.5796 19.5796 8 24 8C28.4204 8 32 11.5796 32 16ZM24 26C29.525 26 34 21.525 34 16C34 10.475 29.525 6 24 6C18.475 6 14 10.475 14 16C14 21.525 18.475 26 24 26ZM31.4438 29.2515C31.2012 29.1947 30.963 29.139 30.7307 29.0839L26.9095 40H40V34.5C40 33.4539 39.2959 32.3528 37.6431 31.2676C36.9089 30.7855 35.7125 30.3552 34.3107 29.9649C33.3494 29.6973 32.3655 29.4671 31.4448 29.2517L31.4448 29.2517L31.4438 29.2515ZM29.0351 27.8744L26 36.5449V36L25.4255 31.9786C25.7941 31.901 26.0951 31.6194 26.1894 31.2425L26.6894 29.2425C26.8471 28.6114 26.3698 28 25.7192 28H22.2808C21.6302 28 21.1528 28.6114 21.3106 29.2425L21.8106 31.2425C21.9048 31.6194 22.2059 31.901 22.5745 31.9786L22.0127 35.9108L18.9592 27.8627L18.9384 27.8205C18.634 27.201 17.9419 26.8629 17.263 27.0285C16.9217 27.1117 16.5462 27.1996 16.1495 27.2924L16.1491 27.2925C15.2115 27.512 14.1555 27.7591 13.1529 28.0382C11.7396 28.4317 10.2761 28.928 9.25912 29.5958C7.38654 30.8253 6 32.4531 6 34.5V42H42V34.5C42 32.4531 40.6135 30.8254 38.7409 29.5958C37.7239 28.928 36.2604 28.4317 34.8471 28.0382C33.8445 27.7591 32.7886 27.512 31.851 27.2925L31.851 27.2925L31.8508 27.2925C31.454 27.1996 31.0783 27.1117 30.7369 27.0284C30.058 26.8629 29.366 27.2009 29.0616 27.8204L29.0351 27.8744ZM17.2822 29.0808L21.4251 40H8V34.5C8 33.4539 8.70414 32.3528 10.3569 31.2676C11.0911 30.7855 12.2875 30.3552 13.6893 29.965C14.6506 29.6973 15.6345 29.4671 16.5551 29.2518C16.8026 29.1938 17.0455 29.137 17.2822 29.0808Z" fill="#333333"/>
</svg>
