<svg width="48" height="48" viewBox="0 0 48 48" fill="none" xmlns="http://www.w3.org/2000/svg">
<path fill-rule="evenodd" clip-rule="evenodd" d="M18 29.7767V25H20L20 29.7767C20.0474 29.8079 20.1365 29.8523 20.28 29.8941C20.4502 29.9438 20.6339 29.9718 20.7843 29.9864C20.8253 29.9904 20.8621 29.9932 20.8934 29.9952C20.8819 28.3854 20.9674 25.6492 23.2479 25.6492C26.5375 25.6492 28.8872 37.1316 27.4774 38.3033C26.0675 39.4749 23.2479 38.7719 21.838 37.3659C20.7627 36.2935 20.7912 33.8667 20.8572 31.9962C20.7885 31.9931 20.6974 31.9874 20.5907 31.977C20.3661 31.9552 20.0498 31.9103 19.72 31.8141C19.5042 31.7512 19.2486 31.6567 19 31.5094C18.7514 31.6567 18.4958 31.7512 18.28 31.8141C17.9502 31.9103 17.6339 31.9552 17.4093 31.977C17.2945 31.9882 17.1978 31.9939 17.1276 31.9968C17.0923 31.9983 17.0634 31.9991 17.0419 31.9995L17.0377 31.9995C17.1036 33.8696 17.1315 36.2941 16.0567 37.3659C14.6469 38.7719 11.8272 39.4749 10.4174 38.3033C9.00756 37.1316 11.3573 25.6492 14.6469 25.6492C16.9296 25.6492 17.013 28.3907 17.0014 29.9999L17.003 29.9999C17.0108 29.9997 17.0248 29.9994 17.0443 29.9985C17.0834 29.9969 17.143 29.9935 17.2157 29.9864C17.3661 29.9718 17.5498 29.9438 17.72 29.8941C17.8635 29.8523 17.9526 29.8079 18 29.7767ZM14.7284 27.7118L14.7224 27.6996C14.5742 27.8319 14.3618 28.0816 14.1122 28.4952C13.5829 29.372 13.0846 30.6499 12.6995 32.0628C12.3178 33.4629 12.0813 34.8701 12.0174 35.9499C11.9946 36.3347 11.996 36.6429 12.0112 36.874C12.199 36.9049 12.4752 36.9117 12.8563 36.8378C13.5773 36.698 14.258 36.3352 14.6445 35.9498C14.6454 35.9488 14.673 35.9201 14.7146 35.8389C14.7584 35.7535 14.809 35.6269 14.8576 35.4487C14.9572 35.083 15.0203 34.6052 15.0478 34.0284C15.0749 33.4592 15.0649 32.8594 15.0454 32.2601C15.0404 32.108 15.0346 31.9499 15.0286 31.7906C15.0128 31.3642 14.9966 30.928 14.9966 30.5702C14.9966 30.438 14.9976 30.305 14.9986 30.1718V30.1708C15.0041 29.4387 15.0096 28.7013 14.8511 28.0687C14.8106 27.9072 14.767 27.7909 14.7284 27.7118ZM14.83 27.6164C14.8321 27.6152 14.8332 27.6147 14.8331 27.6148L14.83 27.6164ZM22.8962 30.1701C22.8907 29.4381 22.8852 28.7013 23.0437 28.0687C23.0842 27.9072 23.1278 27.7909 23.1663 27.7118L23.1724 27.6996C23.3206 27.8319 23.5329 28.0816 23.7826 28.4952C24.3118 29.372 24.8102 30.6499 25.1953 32.0628C25.577 33.4629 25.8135 34.8701 25.8774 35.9499C25.9002 36.3347 25.8988 36.6429 25.8835 36.874C25.6957 36.9049 25.4196 36.9117 25.0385 36.8378C24.3175 36.698 23.6368 36.3352 23.2503 35.9498C23.2504 35.9498 23.2225 35.9216 23.1801 35.8389C23.1364 35.7535 23.0857 35.6269 23.0372 35.4487C22.9376 35.083 22.8745 34.6052 22.847 34.0284C22.8199 33.4592 22.8299 32.8594 22.8494 32.2601C22.8543 32.108 22.8602 31.9499 22.8661 31.7906C22.882 31.3642 22.8982 30.928 22.8982 30.5702C22.8982 30.4376 22.8972 30.3037 22.8962 30.1701ZM23.0648 27.6164C23.0627 27.6152 23.0616 27.6147 23.0616 27.6148L23.0648 27.6164Z" fill="#333333"/>
<path d="M22 18C22.5523 18 23 17.5523 23 17C23 16.4477 22.5523 16 22 16C21.4477 16 21 16.4477 21 17C21 17.5523 21.4477 18 22 18Z" fill="#333333"/>
<path d="M20 16C20 16.5523 19.5523 17 19 17C18.4477 17 18 16.5523 18 16C18 15.4477 18.4477 15 19 15C19.5523 15 20 15.4477 20 16Z" fill="#333333"/>
<path fill-rule="evenodd" clip-rule="evenodd" d="M26.7214 22.0726C26.4703 22.0422 26.2172 22.0244 25.9631 22.0194H22.7229V21.0728H23.7826C24.4967 21.0728 25.1818 20.8048 25.6882 20.3273C25.7887 20.2325 25.8804 20.1311 25.9631 20.0241L25.9667 20.0194C26.2247 19.6837 26.393 19.2932 26.4567 18.8817C26.4749 18.764 26.4845 18.6446 26.4852 18.5243V16.8495C26.4852 16.919 26.9226 16.8779 27.1324 16.8582C27.1863 16.8532 27.2251 16.8495 27.2377 16.8495C27.4248 16.821 27.5941 16.7279 27.7132 16.5881C27.8323 16.4483 27.8926 16.2717 27.8826 16.0922C27.8372 15.822 27.7438 15.561 27.6062 15.3204L27.2376 14.4318C26.9766 13.8203 26.7155 13.2087 26.4699 12.5825C26.4699 12.5825 26.317 11.113 26.1788 10.6179C25.7505 9.28597 24.8842 8.13171 23.7076 7.29874C22.5309 6.46577 21.1046 6.01077 19.6363 6.00001C18.2155 5.99757 16.8293 6.41615 15.6716 7.19726C14.5138 7.97837 13.6423 9.08298 13.1788 10.3567C12.7153 11.6305 12.683 13.0097 13.0864 14.3018C13.4897 15.5938 14.3087 16.734 15.4287 17.5631V22.0194H12.6032C10.8822 22.0151 9.22776 22.6496 7.99374 23.7872C6.75973 24.9248 6.04412 26.4752 6 28.1068V42H32.9963V29.0534C33.0269 28.1523 32.8688 27.2544 32.531 26.4116C32.1931 25.5689 31.6824 24.7981 31.0282 24.1439C30.3741 23.4896 29.5896 22.965 28.7201 22.6003C28.0831 22.3331 27.4097 22.1557 26.7214 22.0726ZM30.9963 40V29.0534C30.9963 29.0307 30.9966 29.008 30.9974 28.9854C31.0186 28.3639 30.9097 27.7425 30.6746 27.1558C30.4393 26.5688 30.0807 26.0248 29.6139 25.558C29.147 25.091 28.5812 24.7109 27.9466 24.4447C27.3173 24.1807 26.6359 24.0354 25.9418 24.0194H22.7229C21.6184 24.0194 20.7229 23.124 20.7229 22.0194V21.0728C20.7229 19.9683 21.6184 19.0728 22.7229 19.0728H23.7825C24.0013 19.0728 24.1914 18.9897 24.3161 18.8722C24.436 18.7591 24.4836 18.6288 24.4852 18.5158V16.8495C24.4852 16.1524 24.8419 15.5386 25.3826 15.1806C25.1281 14.5842 24.8611 13.958 24.608 13.313C24.5421 13.145 24.4992 12.9687 24.4806 12.7893L24.4792 12.7766L24.4746 12.7334C24.4705 12.6952 24.4643 12.6393 24.4565 12.5704C24.4409 12.4319 24.4187 12.2436 24.3927 12.0422C24.3664 11.839 24.3375 11.6326 24.3086 11.4551C24.2942 11.3666 24.281 11.2926 24.2694 11.2344L24.2635 11.2054L24.2574 11.1771C23.9624 10.2999 23.3774 9.51541 22.552 8.9311C21.7171 8.34009 20.6927 8.00894 19.6273 8C18.6008 7.99934 17.6089 8.30279 16.7901 8.85521C15.9711 9.40779 15.3727 10.1765 15.0582 11.0406C14.7444 11.9031 14.7229 12.8327 14.9955 13.7057C15.2685 14.5802 15.8287 15.3709 16.6187 15.9556C17.1282 16.3328 17.4287 16.9292 17.4287 17.5631V22.0194C17.4287 23.124 16.5333 24.0194 15.4287 24.0194H12.5981C11.3671 24.0163 10.2025 24.4712 9.34936 25.2577C8.50602 26.0351 8.03545 27.0702 8 28.1366V40H30.9963Z" fill="#333333"/>
<path d="M41 11C41.5523 11 42 10.5523 42 10C42 9.44772 41.5523 9 41 9C40.4477 9 40 9.44772 40 10C40 10.5523 40.4477 11 41 11Z" fill="#333333"/>
<path d="M32 14C32 14.5523 31.5523 15 31 15C30.4477 15 30 14.5523 30 14C30 13.4477 30.4477 13 31 13C31.5523 13 32 13.4477 32 14Z" fill="#333333"/>
<path d="M33 18C33.5523 18 34 17.5523 34 17C34 16.4477 33.5523 16 33 16C32.4477 16 32 16.4477 32 17C32 17.5523 32.4477 18 33 18Z" fill="#333333"/>
<path d="M36 20C36 20.5523 35.5523 21 35 21C34.4477 21 34 20.5523 34 20C34 19.4477 34.4477 19 35 19C35.5523 19 36 19.4477 36 20Z" fill="#333333"/>
<path d="M41 20C41.5523 20 42 19.5523 42 19C42 18.4477 41.5523 18 41 18C40.4477 18 40 18.4477 40 19C40 19.5523 40.4477 20 41 20Z" fill="#333333"/>
<path d="M42 14C42 14.5523 41.5523 15 41 15C40.4477 15 40 14.5523 40 14C40 13.4477 40.4477 13 41 13C41.5523 13 42 13.4477 42 14Z" fill="#333333"/>
<path d="M38 12C38 12.5523 37.5523 13 37 13C36.4477 13 36 12.5523 36 12C36 11.4477 36.4477 11 37 11C37.5523 11 38 11.4477 38 12Z" fill="#333333"/>
<path d="M37 17C37.5523 17 38 16.5523 38 16C38 15.4477 37.5523 15 37 15C36.4477 15 36 15.4477 36 16C36 16.5523 36.4477 17 37 17Z" fill="#333333"/>
<path d="M30 19C30 19.5523 29.5523 20 29 20C28.4477 20 28 19.5523 28 19C28 18.4477 28.4477 18 29 18C29.5523 18 30 18.4477 30 19Z" fill="#333333"/>
</svg>
