<svg width="48" height="48" viewBox="0 0 48 48" fill="none" xmlns="http://www.w3.org/2000/svg">
<path fill-rule="evenodd" clip-rule="evenodd" d="M15.3662 35.0755C14.8641 35.1031 14.3589 35.1309 13.8757 35.1443L13.776 35.1471L13.6788 35.1695C11.8565 35.5898 10.0125 35.9188 8.15439 36.1553C7.82416 36.1929 7.54088 36.2331 7.3094 36.2783C7.10307 36.3185 6.84511 36.3791 6.62822 36.4916C6.53007 36.5426 6.30345 36.6717 6.14782 36.9359C5.93882 37.2906 5.96585 37.6941 6.13776 38.0006C6.26793 38.2327 6.45295 38.3639 6.53872 38.4201C6.6432 38.4886 6.75071 38.5404 6.84041 38.5791C7.17656 38.7242 7.69036 38.8634 8.2587 39.003C8.76106 39.1264 9.3715 39.2651 10.0556 39.4206C10.1774 39.4483 10.3014 39.4765 10.4276 39.5052C11.9673 39.8559 12.6776 40.2865 13.2892 40.6844C13.3383 40.7163 13.3874 40.7485 13.4369 40.781C14.0723 41.198 14.7637 41.6518 16.0228 41.879C17.3287 42.1146 19.2739 41.9814 20.6464 41.691C20.9989 41.6164 21.3364 41.5269 21.6322 41.4213C21.9094 41.3223 22.2263 41.1831 22.4797 40.9775C22.7159 40.7858 23.1693 40.286 22.9404 39.5824C22.7678 39.0518 22.2935 38.788 22.0371 38.6651C21.9892 38.6421 21.9502 38.6215 21.9187 38.6036C21.9245 38.5858 21.931 38.5661 21.9383 38.5445C21.9424 38.5322 21.9472 38.5186 21.9524 38.5036C22.0235 38.2984 22.1824 37.8406 22.0966 37.3358C21.9908 36.7131 21.5803 36.2443 21.0175 35.8845C19.948 35.2007 18.767 35.0241 17.5939 35.0024C16.9216 34.9899 16.1476 35.0325 15.3662 35.0755ZM11.3854 37.6815C12.2716 37.5217 13.1538 37.3414 14.0313 37.1406C14.6126 37.1228 15.1299 37.0933 15.6104 37.0658C16.309 37.0259 16.9299 36.9904 17.5569 37.002C18.5708 37.0208 19.3208 37.1735 19.9401 37.5695C20.0254 37.6241 20.078 37.6664 20.1092 37.6954C20.0985 37.7338 20.0792 37.7989 20.0439 37.9032C20.0402 37.9141 20.0359 37.9263 20.0312 37.9399C19.9611 38.1416 19.79 38.6338 19.9302 39.1623C19.9883 39.3811 20.0862 39.5717 20.2126 39.7385C18.9973 39.9929 17.3412 40.0845 16.3779 39.9108C15.5251 39.7569 15.1242 39.4947 14.5204 39.0997C14.4748 39.0699 14.4281 39.0393 14.3799 39.0079C13.7005 38.5659 12.8793 38.0781 11.3854 37.6815ZM21.2511 40.5129C21.2511 40.5129 21.2454 40.5075 21.2288 40.4978C21.2419 40.5083 21.2511 40.5129 21.2511 40.5129ZM20.1501 37.7414C20.1501 37.7414 20.1488 37.7381 20.1438 37.7317C20.1472 37.7383 20.1501 37.7414 20.1501 37.7414Z" fill="#333333"/>
<path fill-rule="evenodd" clip-rule="evenodd" d="M19.9314 29.9296C19.933 29.9263 19.9347 29.923 19.9363 29.9196C19.9394 29.9132 19.9424 29.9067 19.9452 29.9002C19.975 29.8326 19.993 29.7601 19.9983 29.686C20.0043 29.6009 19.9936 29.5155 19.9667 29.4349C19.9397 29.3542 19.8972 29.28 19.8417 29.2167C19.7861 29.1535 19.7186 29.1024 19.6434 29.0667C19.4921 28.9907 19.3179 28.9792 19.1584 29.0346C19.0006 29.0895 18.87 29.2056 18.7943 29.3581L18.7919 29.3629L17.064 33.0723C17.0631 33.0742 17.0622 33.0761 17.0613 33.078C17.0576 33.086 17.0541 33.094 17.0507 33.102C17.0225 33.1697 17.0057 33.242 17.0011 33.3157C16.996 33.4003 17.0071 33.4851 17.0338 33.5653C17.0606 33.6454 17.1025 33.7194 17.1571 33.7829C17.2117 33.8464 17.2779 33.8981 17.352 33.9352C17.4368 33.981 17.5318 34.0032 17.6275 33.9996C17.7466 34.0008 17.8637 33.9676 17.9655 33.9039C18.0673 33.8402 18.1497 33.7484 18.2034 33.639L19.9314 29.9296Z" fill="#333333"/>
<path fill-rule="evenodd" clip-rule="evenodd" d="M17.9412 27.9776C17.9483 27.9617 17.9547 27.9456 17.9605 27.9294C17.9859 27.8582 17.9992 27.7835 17.9999 27.7081C18.0007 27.6154 17.9824 27.5234 17.9461 27.4376C17.9097 27.3518 17.8561 27.2738 17.7882 27.2082C17.7203 27.1427 17.6396 27.0908 17.5508 27.0557C17.4601 27.018 17.3623 26.9991 17.2636 27C17.1649 27.001 17.0675 27.0219 16.9776 27.0614C16.8878 27.1008 16.8075 27.158 16.7418 27.2291C16.699 27.2755 16.6631 27.3271 16.6349 27.3826C16.6329 27.3865 16.631 27.3904 16.6291 27.3943C16.6164 27.4204 16.6055 27.4472 16.5963 27.4747L14.0656 33.0623C14.0253 33.1464 14.003 33.2375 14.0002 33.3301C13.9974 33.4227 14.0141 33.5149 14.0492 33.6011C14.0844 33.6873 14.1373 33.7657 14.2047 33.8316C14.2722 33.8974 14.3528 33.9494 14.4416 33.9843C14.5368 34.0052 14.6357 34.0052 14.7308 33.9843C14.872 33.9848 15.0101 33.9453 15.1283 33.8709C15.2112 33.8187 15.2817 33.7509 15.3359 33.6719C15.3419 33.6633 15.3476 33.6544 15.3532 33.6455C15.3692 33.6197 15.3835 33.5929 15.3961 33.5652L17.9412 27.9776Z" fill="#333333"/>
<path d="M30.4902 39.1839L31.4801 39.0421H31.4801L30.4902 39.1839ZM34.1557 39.0374L33.1562 39.005V39.005L34.1557 39.0374ZM34.5547 28.7151L33.562 28.594C33.5587 28.6209 33.5566 28.6478 33.5555 28.6748L34.5547 28.7151ZM33.6745 27.4708L34.0989 26.5653L33.6745 27.4708ZM27.4904 23.9416L26.619 23.451C26.3519 23.9255 26.5134 24.5264 26.9824 24.8029L27.4904 23.9416ZM29.5671 20.2527L30.5513 20.4293C30.6375 19.9491 30.3645 19.4768 29.9054 19.3117C29.4462 19.1466 28.935 19.337 28.6956 19.7622L29.5671 20.2527ZM29.4688 24.647L28.6488 25.2193H28.6488L29.4688 24.647ZM36.3259 29.1217L36.7868 28.2343V28.2343L36.3259 29.1217ZM33.0135 22.3772L32.0166 22.2984C31.9904 22.6295 32.1304 22.9521 32.3901 23.1592L33.0135 22.3772ZM31.8639 12.2315L32.3723 11.3704L31.8639 12.2315ZM26.615 12.8454L27.1122 13.713L26.615 12.8454ZM19.9357 23.6006L20.9311 23.6963L19.9357 23.6006ZM24.4249 29.1578L24.7829 28.2241C24.775 28.2211 24.7671 28.2182 24.7591 28.2153L24.4249 29.1578ZM29.7442 31.198L30.7414 31.1226C30.7123 30.737 30.4634 30.4027 30.1023 30.2643L29.7442 31.198ZM29.5003 39.3258C29.7414 41.0086 31.1997 41.7533 32.4445 41.7102C33.7012 41.6668 35.099 40.8044 35.1552 39.0697L33.1562 39.005C33.1477 39.269 33.0518 39.4163 32.9418 39.5114C32.8145 39.6215 32.6149 39.7032 32.3754 39.7114C31.8804 39.7285 31.5409 39.4666 31.4801 39.0421L29.5003 39.3258ZM35.1552 39.0697C35.19 37.9942 35.2896 35.4177 35.3806 33.1057C35.4261 31.9506 35.4694 30.863 35.5013 30.0642C35.5173 29.6647 35.5304 29.3375 35.5396 29.1102C35.5441 28.9965 35.5477 28.9078 35.5501 28.8475C35.5513 28.8173 35.5523 28.7943 35.5529 28.7788C35.5532 28.7711 35.5534 28.7652 35.5536 28.7613C35.5537 28.7593 35.5537 28.7578 35.5538 28.7568C35.5538 28.7564 35.5538 28.756 35.5538 28.7557C35.5538 28.7556 35.5538 28.7555 35.5538 28.7555C35.5538 28.7554 35.5538 28.7554 34.5547 28.7151C33.5555 28.6748 33.5555 28.6748 33.5555 28.6749C33.5555 28.675 33.5555 28.6751 33.5554 28.6752C33.5554 28.6754 33.5554 28.6758 33.5554 28.6763C33.5554 28.6773 33.5553 28.6788 33.5552 28.6807C33.5551 28.6847 33.5548 28.6906 33.5545 28.6983C33.5539 28.7138 33.553 28.7369 33.5517 28.7671C33.5493 28.8274 33.5458 28.9162 33.5412 29.0299C33.532 29.2574 33.5189 29.5847 33.5029 29.9843C33.471 30.7834 33.4277 31.8714 33.3822 33.027C33.2912 35.3361 33.1913 37.9208 33.1562 39.005L35.1552 39.0697ZM34.5547 28.7151C35.5473 28.8361 35.5474 28.8357 35.5474 28.8353C35.5474 28.8351 35.5475 28.8347 35.5475 28.8344C35.5476 28.8338 35.5477 28.8332 35.5477 28.8326C35.5479 28.8314 35.548 28.8301 35.5482 28.8289C35.5485 28.8263 35.5487 28.8237 35.549 28.8209C35.5496 28.8154 35.5502 28.8094 35.5508 28.803C35.552 28.7902 35.5532 28.7756 35.5542 28.7594C35.5562 28.727 35.5575 28.6877 35.5572 28.6424C35.5565 28.5522 35.549 28.4357 35.5249 28.3013C35.4763 28.0308 35.3593 27.6831 35.0952 27.3413L33.5124 28.5639C33.5453 28.6065 33.5537 28.64 33.5563 28.6546C33.5578 28.6628 33.5573 28.6649 33.5572 28.6576C33.5572 28.6538 33.5573 28.647 33.5579 28.6368C33.5583 28.6317 33.5587 28.6256 33.5594 28.6185C33.5597 28.615 33.5601 28.6112 33.5605 28.6071C33.5607 28.605 33.561 28.6029 33.5612 28.6008C33.5613 28.5997 33.5615 28.5986 33.5616 28.5974C33.5617 28.5969 33.5617 28.5963 33.5618 28.5957C33.5618 28.5955 33.5619 28.595 33.5619 28.5949C33.562 28.5945 33.562 28.594 34.5547 28.7151ZM35.0952 27.3413C34.8602 27.037 34.5325 26.7686 34.0989 26.5653L33.25 28.3762C33.4153 28.4537 33.4847 28.5279 33.5124 28.5639L35.0952 27.3413ZM34.0989 26.5653C33.9208 26.4818 33.5276 26.2699 32.9892 25.9685L32.0122 27.7136C32.536 28.0069 32.9944 28.2564 33.25 28.3762L34.0989 26.5653ZM32.9892 25.9685C32.0677 25.4525 30.8215 24.7314 29.8019 24.137C29.2929 23.8403 28.8419 23.576 28.5181 23.3859C28.3562 23.2908 28.2262 23.2143 28.1367 23.1617C28.0919 23.1353 28.0573 23.1149 28.0339 23.1011C28.0222 23.0942 28.0133 23.089 28.0073 23.0855C28.0044 23.0837 28.0021 23.0824 28.0006 23.0815C27.9999 23.0811 27.9993 23.0808 27.999 23.0805C27.9988 23.0804 27.9986 23.0804 27.9985 23.0803C27.9985 23.0803 27.9985 23.0803 27.9984 23.0803C27.9984 23.0802 27.9984 23.0802 27.4904 23.9416C26.9824 24.8029 26.9824 24.8029 26.9824 24.803C26.9825 24.803 26.9825 24.803 26.9826 24.803C26.9827 24.8031 26.9828 24.8032 26.983 24.8033C26.9834 24.8035 26.984 24.8039 26.9848 24.8043C26.9863 24.8053 26.9886 24.8066 26.9917 24.8084C26.9978 24.812 27.0068 24.8173 27.0186 24.8243C27.0423 24.8382 27.0772 24.8588 27.1222 24.8853C27.2123 24.9383 27.3429 25.0151 27.5055 25.1106C27.8306 25.3014 28.2835 25.5668 28.7946 25.8648C29.8153 26.4598 31.0743 27.1884 32.0122 27.7136L32.9892 25.9685ZM28.3618 24.4321L30.4385 20.7433L28.6956 19.7622L26.619 23.451L28.3618 24.4321ZM29.5671 20.2527C28.5828 20.0761 28.5827 20.0762 28.5827 20.0764C28.5827 20.0764 28.5827 20.0765 28.5827 20.0767C28.5826 20.0769 28.5826 20.0772 28.5825 20.0775C28.5824 20.0782 28.5822 20.0791 28.582 20.0802C28.5816 20.0824 28.5811 20.0855 28.5804 20.0894C28.579 20.0973 28.5771 20.1085 28.5746 20.1229C28.5696 20.1516 28.5625 20.1931 28.5538 20.2456C28.5364 20.3505 28.5124 20.5001 28.4854 20.6817C28.4316 21.0435 28.3652 21.5382 28.3164 22.0621C28.2681 22.5807 28.2344 23.1541 28.2532 23.6653C28.2626 23.9206 28.2858 24.1838 28.3349 24.4288C28.3807 24.6571 28.465 24.956 28.6488 25.2193L30.2889 24.0747C30.3354 24.1414 30.3199 24.1555 30.2959 24.0359C30.2753 23.933 30.259 23.7853 30.2519 23.5917C30.2377 23.2053 30.2629 22.7293 30.3077 22.2476C30.3521 21.7713 30.4132 21.3149 30.4636 20.9757C30.4887 20.8068 30.511 20.6684 30.5268 20.573C30.5347 20.5253 30.541 20.4885 30.5453 20.464C30.5474 20.4517 30.549 20.4426 30.55 20.4367C30.5505 20.4338 30.5509 20.4317 30.5511 20.4305C30.5512 20.4299 30.5513 20.4294 30.5513 20.4293C30.5514 20.4292 30.5514 20.4291 30.5514 20.4291C30.5514 20.4291 30.5514 20.4292 30.5514 20.4292C30.5514 20.4292 30.5513 20.4293 29.5671 20.2527ZM28.6488 25.2193C28.7995 25.4352 29.028 25.6371 29.2137 25.7906C29.424 25.9642 29.6816 26.157 29.9643 26.3581C30.5312 26.7612 31.241 27.2271 31.9659 27.686L33.0356 25.9961C32.3239 25.5456 31.6481 25.1013 31.1234 24.7282C30.8602 24.541 30.6456 24.3792 30.4874 24.2485C30.3047 24.0977 30.2685 24.0456 30.2889 24.0747L28.6488 25.2193ZM31.9659 27.686C32.5806 28.0751 33.2127 28.4632 33.7884 28.8095L34.8193 27.0957C34.2544 26.7559 33.6354 26.3758 33.0356 25.9961L31.9659 27.686ZM33.7884 28.8095C34.7091 29.3633 35.5106 29.8251 35.865 30.0092L36.7868 28.2343C36.4942 28.0823 35.7412 27.6502 34.8193 27.0957L33.7884 28.8095ZM35.865 30.0092C36.4432 30.3095 37.0649 30.2389 37.5304 30.0748C38.0088 29.9062 38.4557 29.5978 38.7956 29.2112C39.1344 28.8259 39.4197 28.3004 39.4544 27.6852C39.491 27.0358 39.2402 26.4105 38.7226 25.902L37.321 27.3287C37.4658 27.4709 37.4589 27.5491 37.4575 27.5726C37.4543 27.6303 37.4198 27.7471 37.2937 27.8905C37.1687 28.0326 37.0056 28.1392 36.8655 28.1886C36.7125 28.2425 36.7072 28.193 36.7868 28.2343L35.865 30.0092ZM38.7226 25.902C38.0242 25.2158 36.7381 24.129 35.6575 23.237C35.1108 22.7857 34.606 22.3757 34.2381 22.0785C34.054 21.9298 33.9041 21.8093 33.7999 21.7258C33.7479 21.684 33.7073 21.6515 33.6796 21.6294C33.6658 21.6184 33.6552 21.6099 33.648 21.6042C33.6444 21.6013 33.6416 21.5991 33.6398 21.5976C33.6389 21.5969 33.6381 21.5963 33.6377 21.5959C33.6374 21.5957 33.6372 21.5956 33.6371 21.5955C33.637 21.5954 33.637 21.5954 33.6369 21.5954C33.6369 21.5953 33.6369 21.5953 33.0135 22.3772C32.3901 23.1592 32.3901 23.1592 32.3901 23.1592C32.3902 23.1592 32.3902 23.1592 32.3902 23.1592C32.3903 23.1593 32.3905 23.1594 32.3907 23.1596C32.3911 23.1599 32.3917 23.1604 32.3926 23.1611C32.3942 23.1624 32.3968 23.1645 32.4002 23.1672C32.4071 23.1727 32.4173 23.1809 32.4308 23.1916C32.4577 23.2132 32.4975 23.245 32.5488 23.2861C32.6513 23.3683 32.7994 23.4874 32.9814 23.6344C33.3456 23.9285 33.8445 24.3339 34.3843 24.7794C35.4767 25.6811 36.6947 26.7134 37.321 27.3287L38.7226 25.902ZM33.0135 22.3772C34.0104 22.4561 34.0104 22.456 34.0104 22.4558C34.0104 22.4557 34.0104 22.4555 34.0104 22.4553C34.0105 22.4548 34.0105 22.4543 34.0106 22.4536C34.0107 22.4522 34.0108 22.4503 34.011 22.4478C34.0114 22.4429 34.0119 22.4358 34.0126 22.4267C34.014 22.4083 34.016 22.3817 34.0185 22.3471C34.0235 22.2781 34.0304 22.1777 34.0386 22.0501C34.0548 21.795 34.0759 21.4307 34.0952 20.9906C34.1337 20.1121 34.1657 18.9235 34.1379 17.6947C34.1103 16.4744 34.0231 15.1751 33.812 14.0903C33.7066 13.5492 33.5633 13.0228 33.3605 12.5728C33.1657 12.1405 32.8637 11.6605 32.3723 11.3704L31.3555 13.0926C31.3304 13.0778 31.414 13.1213 31.5371 13.3944C31.6522 13.6498 31.7589 14.0107 31.8488 14.4724C32.028 15.3931 32.1117 16.5614 32.1384 17.7399C32.1648 18.9099 32.1345 20.0512 32.0971 20.903C32.0785 21.328 32.0582 21.6789 32.0426 21.9227C32.0348 22.0446 32.0283 22.1396 32.0236 22.2036C32.0213 22.2356 32.0195 22.2599 32.0183 22.2758C32.0177 22.2838 32.0173 22.2897 32.017 22.2935C32.0168 22.2954 32.0167 22.2967 32.0167 22.2976C32.0166 22.298 32.0166 22.2982 32.0166 22.2984C32.0166 22.2984 32.0166 22.2984 32.0166 22.2985C32.0166 22.2984 32.0166 22.2984 33.0135 22.3772ZM32.3723 11.3704C31.4509 10.8264 30.6119 10.3767 29.5351 10.4975C29.0292 10.5543 28.5296 10.7291 28 10.9726C27.4707 11.216 26.8561 11.5547 26.1177 11.9778L27.1122 13.713C27.8493 13.2906 28.3955 12.9921 28.8355 12.7897C29.2753 12.5875 29.5539 12.508 29.7582 12.4851C30.1019 12.4465 30.4119 12.5355 31.3555 13.0926L32.3723 11.3704ZM26.1177 11.9778C25.2185 12.4932 24.3504 13.3706 23.5719 14.3432C22.7808 15.3312 22.027 16.488 21.37 17.6376C20.7124 18.7886 20.1414 19.9509 19.7201 20.9581C19.3134 21.9304 19.0024 22.8594 18.9403 23.5049L20.9311 23.6963C20.9618 23.3771 21.1632 22.6908 21.5652 21.7299C21.9525 20.804 22.4864 19.7152 23.1065 18.6299C23.7274 17.5433 24.4241 16.4787 25.1331 15.5931C25.8546 14.6919 26.536 14.0433 27.1122 13.713L26.1177 11.9778ZM18.9403 23.5049C18.7082 25.9194 20.1428 27.6053 21.4276 28.606C22.0806 29.1146 22.739 29.4841 23.2298 29.7258C23.4768 29.8475 23.6853 29.9387 23.8349 30.0005C23.9098 30.0314 23.9702 30.0551 24.0136 30.0717C24.0353 30.08 24.0528 30.0865 24.0657 30.0913C24.0722 30.0937 24.0775 30.0956 24.0817 30.0971C24.0837 30.0979 24.0855 30.0985 24.087 30.099C24.0878 30.0993 24.0884 30.0995 24.089 30.0997C24.0893 30.0999 24.0897 30.1 24.0899 30.1C24.0902 30.1002 24.0906 30.1003 24.4249 29.1578C24.7591 28.2153 24.7594 28.2155 24.7597 28.2156C24.7598 28.2156 24.7601 28.2157 24.7602 28.2157C24.7605 28.2159 24.7608 28.2159 24.7609 28.216C24.7612 28.2161 24.7613 28.2161 24.761 28.216C24.7605 28.2158 24.7589 28.2152 24.7562 28.2142C24.7507 28.2123 24.741 28.2086 24.7272 28.2034C24.6996 28.1928 24.656 28.1758 24.5988 28.1521C24.4842 28.1048 24.3161 28.0314 24.1134 27.9316C23.7049 27.7305 23.172 27.4296 22.6566 27.0282C21.6047 26.2089 20.7947 25.1162 20.9311 23.6963L18.9403 23.5049ZM24.0668 30.0915L29.3862 32.1316L30.1023 30.2643L24.7829 28.2241L24.0668 30.0915ZM29.7442 31.198C28.7471 31.2733 28.7471 31.2733 28.7471 31.2733C28.7471 31.2734 28.7471 31.2735 28.7471 31.2736C28.7471 31.2738 28.7471 31.2741 28.7472 31.2744C28.7472 31.2752 28.7473 31.2763 28.7474 31.2777C28.7476 31.2806 28.748 31.2849 28.7484 31.2906C28.7493 31.3019 28.7505 31.3187 28.7522 31.3406C28.7556 31.3844 28.7605 31.4489 28.7669 31.5316C28.7797 31.6971 28.7982 31.9357 28.8215 32.2285C28.8679 32.814 28.933 33.6169 29.0076 34.4862C29.1558 36.2128 29.3445 38.2388 29.5003 39.3258L31.4801 39.0421C31.3339 38.0217 31.1496 36.0548 31.0003 34.3152C30.9262 33.4514 30.8614 32.6529 30.8152 32.0703C30.7921 31.7791 30.7736 31.5419 30.7609 31.3777C30.7546 31.2956 30.7497 31.2317 30.7464 31.1884C30.7448 31.1667 30.7435 31.1502 30.7427 31.1392C30.7422 31.1337 30.7419 31.1295 30.7417 31.1267C30.7416 31.1253 30.7415 31.1243 30.7415 31.1236C30.7415 31.1233 30.7414 31.123 30.7414 31.1229C30.7414 31.1228 30.7414 31.1227 30.7414 31.1227C30.7414 31.1227 30.7414 31.1226 29.7442 31.198ZM37.8541 11.2752C37.2996 12.458 35.9085 12.9585 34.756 12.4182L33.907 14.229C36.0749 15.2454 38.6488 14.2917 39.665 12.1242L37.8541 11.2752ZM34.756 12.4182C33.6034 11.8778 33.0983 10.4884 33.6528 9.30564L31.8419 8.45668C30.8258 10.6242 31.7391 13.2127 33.907 14.229L34.756 12.4182ZM33.6528 9.30564C34.2073 8.12286 35.5984 7.6224 36.7509 8.16271L37.5999 6.35184C35.432 5.3355 32.8581 6.28913 31.8419 8.45668L33.6528 9.30564ZM36.7509 8.16271C37.9035 8.70302 38.4086 10.0925 37.8541 11.2752L39.665 12.1242C40.6811 9.95663 39.7678 7.36817 37.5999 6.35184L36.7509 8.16271Z" fill="#333333"/>
</svg>
