<svg width="48" height="48" viewBox="0 0 48 48" fill="none" xmlns="http://www.w3.org/2000/svg">
<path d="M16 29.1389H15V30.1389V33.6757C14.8382 33.621 14.6632 33.559 14.4771 33.4889C13.412 33.0883 11.9963 32.4321 10.5861 31.412C7.79147 29.3904 5 25.9367 5 20.0694C5 15.0605 9.06053 11 14.0694 11H21.9306C26.9395 11 31 15.0605 31 20.0694C31 25.0784 26.9395 29.1389 21.9306 29.1389H16Z" stroke="#333333" stroke-width="2"/>
<mask id="path-2-inside-1" fill="white">
<path fill-rule="evenodd" clip-rule="evenodd" d="M22.4844 28.8122C23.6102 31.9036 26.5752 34.1111 30.0559 34.1111H33.0004V38C33.0004 38 44.0004 36.0556 44.0004 26.0556C44.0004 21.6066 40.3938 18 35.9448 18H30.0559C30.0185 18 29.9812 18.0003 29.944 18.0008C29.981 18.3519 30 18.7085 30 19.0694C30 23.7483 26.8089 27.6818 22.4844 28.8122Z"/>
</mask>
<path d="M22.4844 28.8122L21.9786 26.8772L19.8535 27.4327L20.6051 29.4966L22.4844 28.8122ZM33.0004 34.1111H35.0004V32.1111H33.0004V34.1111ZM33.0004 38H31.0004V40.3845L33.3485 39.9695L33.0004 38ZM29.944 18.0008L29.9167 16.0009L27.7251 16.0308L27.955 18.2106L29.944 18.0008ZM20.6051 29.4966C22.0093 33.3525 25.7079 36.1111 30.0559 36.1111V32.1111C27.4425 32.1111 25.211 30.4546 24.3636 28.1278L20.6051 29.4966ZM30.0559 36.1111H33.0004V32.1111H30.0559V36.1111ZM31.0004 34.1111V38H35.0004V34.1111H31.0004ZM33.0004 38C33.3485 39.9695 33.3494 39.9693 33.3503 39.9691C33.3507 39.9691 33.3517 39.9689 33.3524 39.9688C33.3539 39.9685 33.3555 39.9682 33.3573 39.9679C33.361 39.9672 33.3653 39.9665 33.3702 39.9655C33.3802 39.9637 33.3928 39.9614 33.4079 39.9584C33.4383 39.9526 33.479 39.9446 33.5294 39.9342C33.6302 39.9133 33.7698 39.8828 33.9429 39.8409C34.2885 39.7574 34.7701 39.6282 35.3429 39.4402C36.4816 39.0663 38.0168 38.4483 39.568 37.469C42.7012 35.491 46.0004 31.9466 46.0004 26.0556H42.0004C42.0004 30.1645 39.7995 32.5924 37.4327 34.0866C36.2339 34.8434 35.0191 35.3364 34.0953 35.6397C33.6368 35.7902 33.2591 35.891 33.0031 35.9529C32.8754 35.9838 32.7787 36.0048 32.7184 36.0173C32.6882 36.0235 32.6671 36.0276 32.6559 36.0298C32.6503 36.0309 32.6471 36.0314 32.6464 36.0316C32.6461 36.0316 32.6464 36.0316 32.6474 36.0314C32.6479 36.0313 32.6485 36.0312 32.6493 36.031C32.6497 36.031 32.6504 36.0308 32.6506 36.0308C32.6514 36.0307 32.6522 36.0305 33.0004 38ZM46.0004 26.0556C46.0004 20.502 41.4983 16 35.9448 16V20C39.2892 20 42.0004 22.7112 42.0004 26.0556H46.0004ZM35.9448 16H30.0559V20H35.9448V16ZM30.0559 16C30.0095 16 29.9631 16.0003 29.9167 16.0009L29.9712 20.0006C29.9994 20.0002 30.0276 20 30.0559 20V16ZM27.955 18.2106C27.9847 18.4922 28 18.7787 28 19.0694H32C32 18.6383 31.9773 18.2117 31.9329 17.7909L27.955 18.2106ZM28 19.0694C28 22.8162 25.4447 25.9712 21.9786 26.8772L22.9902 30.7472C28.1731 29.3924 32 24.6803 32 19.0694H28Z" fill="#333333" mask="url(#path-2-inside-1)"/>
</svg>
