<svg width="48" height="48" viewBox="0 0 48 48" fill="none" xmlns="http://www.w3.org/2000/svg">
<path d="M14.5547 20.8321C16.0354 19.8449 17.9645 19.8449 19.4453 20.8321C19.9048 21.1384 20.5257 21.0142 20.832 20.5547C21.1384 20.0952 21.0142 19.4743 20.5547 19.168C18.4021 17.7329 15.5978 17.7329 13.4453 19.168C12.9858 19.4743 12.8616 20.0952 13.1679 20.5547C13.4743 21.0142 14.0952 21.1384 14.5547 20.8321Z" fill="#333333"/>
<path d="M28.5547 20.8321C30.0354 19.8449 31.9645 19.8449 33.4453 20.8321C33.9048 21.1384 34.5257 21.0142 34.832 20.5547C35.1384 20.0952 35.0142 19.4743 34.5547 19.168C32.4021 17.7329 29.5978 17.7329 27.4453 19.168C26.9858 19.4743 26.8616 20.0952 27.1679 20.5547C27.4743 21.0142 28.0952 21.1384 28.5547 20.8321Z" fill="#333333"/>
<path fill-rule="evenodd" clip-rule="evenodd" d="M33.2581 30C33.5641 29.3664 33.8137 28.6973 34 28H14C14.1863 28.6973 14.4359 29.3664 14.7419 30C16.4618 33.5617 19.9619 36 24 36C28.0381 36 31.5382 33.5617 33.2581 30ZM24 34C21.1303 34 18.5475 32.4447 17.0222 30H30.9778C29.4525 32.4447 26.8697 34 24 34Z" fill="#333333"/>
<path fill-rule="evenodd" clip-rule="evenodd" d="M24 44C35.0457 44 44 35.0457 44 24C44 12.9543 35.0457 4 24 4C12.9543 4 4 12.9543 4 24C4 35.0457 12.9543 44 24 44ZM24 42C33.9411 42 42 33.9411 42 24C42 14.0589 33.9411 6 24 6C14.0589 6 6 14.0589 6 24C6 33.9411 14.0589 42 24 42Z" fill="#333333"/>
</svg>
