<svg width="48" height="48" viewBox="0 0 48 48" fill="none" xmlns="http://www.w3.org/2000/svg">
<path fill-rule="evenodd" clip-rule="evenodd" d="M24 27C29.525 27 34 22.525 34 17C34 11.475 29.525 7 24 7C18.475 7 14 11.475 14 17C14 22.525 18.475 27 24 27ZM32 17C32 21.4204 28.4204 25 24 25C19.5796 25 16 21.4204 16 17C16 12.5796 19.5796 9 24 9C28.4204 9 32 12.5796 32 17Z" fill="#333333"/>
<path d="M32 34V32H34V34H36V36H34V38H32V36H30V34H32Z" fill="#333333"/>
<path fill-rule="evenodd" clip-rule="evenodd" d="M17 28.0127C17.5028 27.8982 19 30 19 30L23.5528 30.0001C24.1411 30.0002 24.5692 30.0003 25.6851 30H29C29 30 30.4972 27.8982 31 28.0127C36.4042 29.2435 42 32.7947 42 36.57V42.0001H6V36.57C6 32.7947 11.5958 29.2435 17 28.0127ZM23.551 32.0001C24.1396 32.0002 24.569 32.0003 25.6851 32H30.0309L30.629 31.1604L30.6298 31.1592L30.6388 31.1468L30.6789 31.0916C30.7151 31.0422 30.7686 30.9699 30.8348 30.8827C30.9691 30.7057 31.1466 30.4795 31.3314 30.2634C31.357 30.2334 31.382 30.2046 31.4062 30.177C33.5908 30.7797 35.7297 31.7723 37.3477 32.9528C39.2703 34.3555 40 35.667 40 36.57V40.0001H8V36.57C8 35.667 8.72972 34.3555 10.6523 32.9528C12.2703 31.7723 14.4092 30.7797 16.5938 30.177C16.618 30.2046 16.643 30.2334 16.6686 30.2634C16.8534 30.4795 17.0309 30.7057 17.1652 30.8827C17.2314 30.9699 17.2849 31.0422 17.3211 31.0916L17.3612 31.1468L17.371 31.1604L17.9691 32L23.551 32.0001Z" fill="#333333"/>
</svg>
