<svg width="47" height="48" viewBox="0 0 47 48" fill="none" xmlns="http://www.w3.org/2000/svg">
<path d="M34 25.5C34 26.3284 33.3284 27 32.5 27C31.6716 27 31 26.3284 31 25.5C31 24.6716 31.6716 24 32.5 24C33.3284 24 34 24.6716 34 25.5Z" fill="#333333"/>
<path d="M17 34H21V32H17V34Z" fill="#333333"/>
<path d="M21 38H17V36H21V38Z" fill="#333333"/>
<path fill-rule="evenodd" clip-rule="evenodd" d="M26.7229 22.1457C27.2123 22.1457 27.2936 22.0547 27.4495 21.8803C27.5398 21.7793 27.6551 21.6502 27.8892 21.4947C28.5374 21.918 29.3023 22.1399 30.0828 22.1311L32.5622 21.2531C33.2609 20.6926 33.7405 19.9155 33.9208 19.0521C34.1012 18.1886 33.9713 17.291 33.5529 16.5096C33.1345 15.7281 32.4529 15.1103 31.6224 14.7594C31.4328 13.9234 30.9551 13.1756 30.2686 12.6402L27.8484 11.816H27.5759C27.0375 11.0516 26.2294 10.5063 25.305 10.2839L21.116 10C20.2535 10.0697 19.4402 10.4198 18.807 10.9939C18.5078 10.9253 18.2016 10.8897 17.8941 10.8879C17.1498 10.8894 16.4218 11.1005 15.7981 11.4957C15.1743 11.891 14.6815 12.4535 14.379 13.1153L12.4074 14.4744C11.9169 15.1213 11.6528 15.9044 11.6541 16.7084C11.6492 17.0445 11.6951 17.3796 11.7903 17.7028C11.273 18.3559 10.9949 19.1586 11.0001 19.9832C10.9988 20.9396 11.3743 21.8601 12.0492 22.5554C12.1036 23.2401 12.3495 23.8973 12.7601 24.4558C13.1708 25.0143 13.7306 25.4529 14.379 25.7242C15.1261 26.1799 15.7587 26.7929 16.2302 27.518C16.7018 28.243 16.8964 29.0617 17 29.9138H21.116V25.9363C21.1151 25.2301 21.3176 24.5377 21.7005 23.9378C21.7586 23.8467 21.8128 23.7583 21.8653 23.6728C22.1586 23.195 22.3967 22.8069 22.9489 22.5421C23.5588 22.315 24.1084 21.9569 24.5566 21.4947C25.195 21.9188 25.95 22.1457 26.7229 22.1457ZM28.2264 19.3205L28.9829 19.8146C29.2215 19.9704 29.4961 20.0717 29.7847 20.1093L31.5162 19.4961C31.7445 19.2498 31.8973 18.9526 31.9631 18.6375C32.0469 18.2363 31.9875 17.8175 31.7897 17.448C31.5912 17.0773 31.2612 16.7723 30.844 16.596L29.8989 16.1967L29.6719 15.1961C29.6054 14.903 29.4592 14.627 29.2437 14.3984L27.5171 13.8103H26.5382L25.9407 12.9619C25.7124 12.6378 25.3736 12.3877 24.9718 12.2602L21.1551 12.0016C20.7736 12.0567 20.4235 12.2224 20.1503 12.47L19.3771 13.1711L18.3597 12.9376C18.2062 12.9024 18.0487 12.8838 17.8903 12.8823C17.5232 12.8845 17.1685 12.9894 16.8686 13.1795C16.5671 13.3705 16.3369 13.6371 16.198 13.941L15.9686 14.443L13.8587 15.8975C13.7231 16.1469 13.6536 16.4222 13.6541 16.6995L13.6541 16.7155L13.6538 16.7316C13.6519 16.8664 13.6703 17.0012 13.7088 17.132L14.0016 18.1262L13.3582 18.9387C13.1203 19.2392 12.9977 19.6006 13 19.9651L13.0001 19.9726L13.0001 19.9801C12.9995 20.4079 13.1669 20.8298 13.4842 21.1567L13.9858 21.6734L14.0429 22.3911C14.0675 22.7013 14.1791 23.0038 14.3715 23.2654C14.5642 23.5276 14.8321 23.7401 15.1508 23.8734L15.2909 23.932L15.4206 24.0112C15.7179 24.1926 16.0021 24.3928 16.2714 24.6105C16.6189 24.8827 17.0523 25.2821 17.6133 25.9983C18.2008 26.7483 18.5222 27.5868 18.6094 27.9123H19.1211V27.0373C19.1211 26.95 19.1192 26.8454 19.1171 26.7283C19.1066 26.1536 19.0905 25.2707 19.2657 24.5764C19.4766 23.7404 19.9102 22.924 20.4532 22.1467C20.9961 21.3694 21.8165 20.8264 22.125 20.7092C22.4336 20.592 22.7461 20.4709 23.0508 20.1662C23.2946 19.9225 23.9701 19.2209 24.2774 18.9006C24.625 19.1337 25.386 19.6436 25.6485 19.8186C25.911 19.9936 26.2579 20.092 26.3985 20.1194C26.4362 20.0881 26.5547 19.9936 26.7266 19.8654C26.8985 19.7373 27.5743 19.2886 27.8907 19.0803L28.2264 19.3205Z" fill="#333333"/>
<path fill-rule="evenodd" clip-rule="evenodd" d="M39.7146 25.3658C39.7146 25.3658 42.3113 27.7019 41.9689 29.5761C41.6265 31.4504 38.245 31.9665 38.245 31.9665C38.245 39.5393 31.0135 39.0572 27.4041 38.345C26.2038 38.1081 25.4041 37.8458 25.4041 37.8458V39.2689C25.4041 39.2689 25.3289 39.5073 25.097 39.8429C24.5461 40.64 23.1108 41.9852 19.697 41.9852C17.4128 42.1661 13.5031 40.6709 12.4667 38.5626V32.1144C8.81421 29.3845 6 25.7069 6 20.9397C6 16.9775 7.65352 13.1775 10.5968 10.3758C13.5401 7.57402 17.532 6.00001 21.6945 6.00001C24.8731 5.99658 28.014 6.65481 30.8971 7.9286C33.1693 8.83941 35.1586 10.2889 36.6756 12.1389C38.0608 14.0823 38.8286 16.3645 38.8871 18.7124C38.8997 19.2519 38.8921 19.7635 38.8848 20.2585C38.859 22.0061 38.8362 23.5454 39.7146 25.3658ZM38.0844 26.5895L37.9133 26.235C36.8081 23.9444 36.8475 21.8187 36.881 20.0178C36.8891 19.5787 36.8969 19.159 36.8876 18.7608C36.8396 16.8411 36.2184 14.966 35.0858 13.3546C33.7929 11.7962 32.0982 10.5648 30.153 9.785L30.1207 9.77206L30.0889 9.75801C27.4632 8.59798 24.5986 7.99688 21.6966 8.00001L21.6945 8.00001C18.0315 8.00001 14.5373 9.38606 11.9758 11.8244C9.4176 14.2595 8 17.5406 8 20.9397C8 24.8224 10.2713 27.9767 13.6641 30.5124L14.4667 31.1123V37.9825C14.801 38.3791 15.4485 38.8731 16.4216 39.3027C17.6149 39.8294 18.8249 40.048 19.5391 39.9914L19.6179 39.9852H19.697C21.7253 39.9852 22.682 39.4277 23.0944 39.0864C23.2365 38.9687 23.3363 38.8584 23.4041 38.7708V35.085L26.0244 35.9445L26.026 35.945L26.0274 35.9454L26.0424 35.9502C26.0591 35.9554 26.0873 35.9642 26.1262 35.9759C26.2039 35.9994 26.3241 36.0346 26.4805 36.0771C26.7941 36.1624 27.2491 36.276 27.7971 36.384C28.9101 36.6032 30.3279 36.7833 31.695 36.6945C33.0838 36.6043 34.1987 36.2519 34.9426 35.619C35.6113 35.0501 36.245 34.03 36.245 31.9665V30.2486L37.9362 29.9905L37.9469 29.9887C37.9596 29.9865 37.9832 29.9824 38.0161 29.9761C38.0822 29.9635 38.1841 29.9426 38.3102 29.9122C38.5684 29.85 38.8988 29.755 39.2213 29.623C39.5565 29.486 39.7995 29.3427 39.9435 29.2197C39.9654 29.2009 39.9824 29.1851 39.9953 29.1721C39.9874 29.1188 39.966 29.0232 39.9072 28.8778C39.7973 28.6063 39.608 28.2892 39.3633 27.9589C39.1243 27.6365 38.8699 27.3513 38.6714 27.1444C38.5737 27.0425 38.4933 26.9635 38.4403 26.9125C38.4138 26.8871 38.3945 26.869 38.3834 26.8587L38.377 26.8527L38.3757 26.8516L38.3747 26.8507L38.3734 26.8495L38.0844 26.5895ZM40.0316 29.1302C40.0316 29.1302 40.0314 29.1307 40.0307 29.1317L40.0288 29.1344C40.0304 29.1316 40.0314 29.1302 40.0316 29.1302Z" fill="#333333"/>
</svg>
