<svg width="48" height="48" viewBox="0 0 48 48" fill="none" xmlns="http://www.w3.org/2000/svg">
<path fill-rule="evenodd" clip-rule="evenodd" d="M24 42C33.9411 42 42 33.9411 42 24C42 14.0589 33.9411 6 24 6C14.0589 6 6 14.0589 6 24C6 33.9411 14.0589 42 24 42ZM24 44C35.0457 44 44 35.0457 44 24C44 12.9543 35.0457 4 24 4C12.9543 4 4 12.9543 4 24C4 35.0457 12.9543 44 24 44Z" fill="#333333"/>
<path d="M19 21C19 22.1046 18.1046 23 17 23C15.8954 23 15 22.1046 15 21C15 19.8954 15.8954 19 17 19C18.1046 19 19 19.8954 19 21Z" fill="#333333"/>
<path d="M33 21C33 22.1046 32.1046 23 31 23C29.8954 23 29 22.1046 29 21C29 19.8954 29.8954 19 31 19C32.1046 19 33 19.8954 33 21Z" fill="#333333"/>
<path fill-rule="evenodd" clip-rule="evenodd" d="M30 31L30.7071 31.7071C31.0976 31.3166 31.0976 30.6834 30.7071 30.2929C30.3183 29.904 29.6889 29.9024 29.2979 30.2879L29.2926 30.2929C29.2851 30.3 29.2701 30.3138 29.2477 30.3334C29.203 30.3725 29.1287 30.4347 29.025 30.5125C28.8175 30.6682 28.4933 30.8853 28.0528 31.1056C27.1751 31.5444 25.8272 32 24 32C22.1728 32 20.8249 31.5444 19.9472 31.1056C19.5067 30.8853 19.1825 30.6682 18.975 30.5125C18.8713 30.4347 18.797 30.3725 18.7523 30.3334C18.7299 30.3138 18.7149 30.3 18.7074 30.2929L18.7021 30.2879C18.3111 29.9024 17.6817 29.904 17.2929 30.2929C16.9024 30.6834 16.9024 31.3166 17.2929 31.7071L18 31C17.2929 31.7071 17.2936 31.7078 17.2936 31.7078L17.2944 31.7086L17.296 31.7102L17.2999 31.7141L17.3101 31.724C17.3178 31.7315 17.3276 31.7409 17.3395 31.752C17.3632 31.7742 17.3951 31.8034 17.4352 31.8385C17.5155 31.9087 17.6287 32.0028 17.775 32.1125C18.0675 32.3318 18.4933 32.6147 19.0528 32.8944C20.1751 33.4556 21.8272 34 24 34C26.1728 34 27.8249 33.4556 28.9472 32.8944C29.5067 32.6147 29.9325 32.3318 30.225 32.1125C30.3713 32.0028 30.4845 31.9087 30.5648 31.8385C30.6049 31.8034 30.6368 31.7742 30.6605 31.752C30.6724 31.7409 30.6822 31.7315 30.6899 31.724L30.7001 31.7141L30.704 31.7102L30.7056 31.7086L30.7064 31.7078C30.7064 31.7078 30.7071 31.7071 30 31Z" fill="#333333"/>
</svg>
