<svg width="48" height="48" viewBox="0 0 48 48" fill="none" xmlns="http://www.w3.org/2000/svg">
<path fill-rule="evenodd" clip-rule="evenodd" d="M24 26C29.525 26 34 21.525 34 16C34 10.475 29.525 6 24 6C18.475 6 14 10.475 14 16C14 21.525 18.475 26 24 26ZM32 16C32 20.4204 28.4204 24 24 24C19.5796 24 16 20.4204 16 16C16 11.5796 19.5796 8 24 8C28.4204 8 32 11.5796 32 16Z" fill="#333333"/>
<path fill-rule="evenodd" clip-rule="evenodd" d="M6 36C6 31.0347 17.9925 28 24 28C30.0075 28 42 31.0347 42 36V42H6V36ZM8 36C8 35.6291 8.22038 35.0211 9.22348 34.2119C10.2042 33.4207 11.6659 32.6669 13.4378 32.015C16.9801 30.7117 21.2468 30 24 30C26.7532 30 31.0199 30.7117 34.5622 32.015C36.3341 32.6669 37.7958 33.4207 38.7765 34.2119C39.7796 35.0211 40 35.6291 40 36V40H8V36Z" fill="#333333"/>
</svg>
