<svg width="48" height="48" viewBox="0 0 48 48" fill="none" xmlns="http://www.w3.org/2000/svg">
<path fill-rule="evenodd" clip-rule="evenodd" d="M19.5 5C17.8431 5 16.5 6.34315 16.5 8C16.5 9.65685 17.8431 11 19.5 11C21.1569 11 22.5 9.65685 22.5 8C22.5 6.34315 21.1569 5 19.5 5ZM14.5 8C14.5 5.23858 16.7386 3 19.5 3C22.2614 3 24.5 5.23858 24.5 8C24.5 9.98624 23.3418 11.702 21.664 12.5087H24.8905C25.3525 12.5087 25.8649 12.6954 26.3086 12.9282C26.7835 13.1774 27.2966 13.5407 27.772 14.0156C28.7278 14.9705 29.5656 16.4162 29.5656 18.3192C29.5656 20.6603 28.7892 22.3707 27.8291 23.5071C27.354 24.0695 26.8357 24.4893 26.3491 24.774C26.2019 24.8601 26.0478 24.9395 25.8905 25.0077V42.3928C25.8905 43.8441 24.7073 45.0273 23.256 45.0273C21.8047 45.0273 20.6214 43.8441 20.6214 42.3928V31.2199H18.3522V42.3928C18.3522 43.8441 17.169 45.0273 15.7177 45.0273C14.2664 45.0273 13.0831 43.8441 13.0831 42.3928V17.5107H8.14288V34.8348C9.11076 35.0327 9.98061 35.5588 10.6053 36.3241C11.2301 37.0894 11.5713 38.0469 11.5715 39.0349V44.1777H9.85717V38.1777H8.14288V44.1777H6.42859V38.1777H4.71429V44.1777H3V39.0349C3.00012 38.0469 3.3414 37.0894 3.96613 36.3241C4.59086 35.5588 5.4607 35.0327 6.42859 34.8348V17.5107H5.5C4.11929 17.5107 3 16.3914 3 15.0107C3 13.63 4.11929 12.5107 5.5 12.5107H6.42859V9.00046H8.14288V12.5107H14.9999H16.9379C16.9798 12.5094 17.0217 12.5087 17.0638 12.5087H17.336C15.6582 11.702 14.5 9.98624 14.5 8ZM14.0831 15.5107H8.14288V14.5107H14.9999H16.9546H16.9725L16.9904 14.51C17.0147 14.5092 17.0391 14.5087 17.0638 14.5087H24.8905C24.8898 14.5087 24.8897 14.5088 24.8903 14.509L24.8951 14.51C24.9258 14.516 25.093 14.549 25.3795 14.6993C25.678 14.8559 26.0274 15.0997 26.3584 15.4305C27.0154 16.0868 27.5656 17.0463 27.5656 18.3192C27.5656 20.1918 26.954 21.4439 26.3013 22.2164C26.1652 22.3775 26.027 22.5182 25.8914 22.6397V17H23.8914V23.2441H23.8905V24.2441V42.3928C23.8905 42.7395 23.6027 43.0273 23.256 43.0273C22.9092 43.0273 22.6214 42.7395 22.6214 42.3928V30.2199V29.2199H21.6214H17.3522H16.3522V30.2199V42.3928C16.3522 42.7395 16.0644 43.0273 15.7177 43.0273C15.3709 43.0273 15.0831 42.7395 15.0831 42.3928V16.5107V15.5107H14.0831ZM5.5 14.5107H6.42859V15.5107H5.5C5.22386 15.5107 5 15.2868 5 15.0107C5 14.7345 5.22386 14.5107 5.5 14.5107Z" fill="#333333"/>
<path fill-rule="evenodd" clip-rule="evenodd" d="M37 20C37.5523 20 38 20.4477 38 21V43.9999C38 44.5522 37.5523 44.9999 37 44.9999C36.4477 44.9999 36 44.5522 36 43.9999V21C36 20.4477 36.4477 20 37 20Z" fill="#333333"/>
<path fill-rule="evenodd" clip-rule="evenodd" d="M39.1787 39.8191C39.291 39.8471 39.4102 39.8741 39.5336 39.8982C39.8638 39.9628 40.1971 40.0013 40.493 39.9928C40.7973 39.9842 40.9906 39.9277 41.0981 39.8657C41.2056 39.8036 41.3512 39.6644 41.5108 39.4052C41.6661 39.1532 41.7994 38.8453 41.9086 38.527C41.9494 38.4082 41.9856 38.2914 42.0175 38.1801C41.9052 38.1521 41.786 38.1251 41.6626 38.101C41.3324 38.0365 40.9991 37.998 40.7033 38.0064C40.399 38.0151 40.2056 38.0716 40.0981 38.1336C39.9906 38.1957 39.8451 38.3349 39.6854 38.5941C39.5302 38.8461 39.3969 39.154 39.2877 39.4722C39.2469 39.5911 39.2106 39.7079 39.1787 39.8191ZM43.1962 37.4996C43.5624 36.5691 43.5622 36.569 43.562 36.5689L43.5604 36.5683L43.5575 36.5672L43.5491 36.5639L43.5221 36.5536C43.4997 36.5452 43.4686 36.5337 43.4297 36.5197C43.3519 36.4917 43.2422 36.4538 43.1077 36.4111C42.8406 36.3264 42.4671 36.2204 42.0463 36.1382C41.6293 36.0567 41.1394 35.9932 40.6463 36.0072C40.1616 36.0211 39.6003 36.1116 39.0981 36.4016C38.5959 36.6915 38.2368 37.1323 37.9826 37.5451C37.7238 37.9651 37.5338 38.4212 37.3959 38.823C37.2568 39.2286 37.1618 39.6051 37.1016 39.8788C37.0713 40.0165 37.0493 40.1305 37.0346 40.2119C37.0273 40.2526 37.0217 40.2853 37.0178 40.3089L37.0132 40.3374L37.0119 40.3463L37.0114 40.3494L37.0112 40.3505C37.0112 40.3508 37.0111 40.3515 38 40.4996L37.0112 40.3505C36.9422 40.8113 37.2003 41.2596 37.6338 41.4302L38 40.4996C37.6338 41.4302 37.6336 41.4301 37.6338 41.4302L37.6359 41.431L37.6388 41.4321L37.6472 41.4353L37.6741 41.4456C37.6965 41.4541 37.7276 41.4656 37.7666 41.4796C37.8444 41.5075 37.954 41.5455 38.0885 41.5881C38.3556 41.6728 38.7292 41.7788 39.15 41.8611C39.5669 41.9426 40.0569 42.0061 40.55 41.992C41.0346 41.9782 41.5959 41.8877 42.0981 41.5977C42.6003 41.3077 42.9594 40.867 43.2137 40.4541C43.4724 40.0341 43.6624 39.5781 43.8003 39.1762C43.9395 38.7707 44.0344 38.3942 44.0946 38.1205C44.1249 37.9827 44.1469 37.8688 44.1616 37.7874C44.169 37.7467 44.1745 37.714 44.1784 37.6904L44.183 37.6619L44.1844 37.653L44.1848 37.6499L44.185 37.6487C44.1851 37.6485 44.1852 37.6478 43.1962 37.4996ZM43.1962 37.4996L44.185 37.6487C44.254 37.188 43.9955 36.7395 43.562 36.5689L43.1962 37.4996Z" fill="#333333"/>
<path fill-rule="evenodd" clip-rule="evenodd" d="M32.1787 38.1801C32.2106 38.2914 32.2469 38.4081 32.2877 38.527C32.3969 38.8452 32.5302 39.1532 32.6854 39.4052C32.8451 39.6644 32.9906 39.8036 33.0981 39.8657C33.2056 39.9277 33.399 39.9842 33.7033 39.9928C33.9991 40.0013 34.3324 39.9628 34.6626 39.8982C34.786 39.8741 34.9052 39.8471 35.0175 39.8191C34.9856 39.7079 34.9494 39.5911 34.9086 39.4722C34.7994 39.154 34.6661 38.8461 34.5108 38.5941C34.3512 38.3349 34.2056 38.1957 34.0981 38.1336C33.9906 38.0715 33.7973 38.0151 33.493 38.0064C33.1971 37.998 32.8638 38.0365 32.5336 38.101C32.4102 38.1251 32.291 38.1521 32.1787 38.1801ZM36.1962 40.4996C37.1852 40.3515 37.1851 40.3513 37.1851 40.351L37.1848 40.3494L37.1844 40.3463L37.183 40.3374L37.1784 40.3089C37.1745 40.2853 37.169 40.2526 37.1616 40.2119C37.1469 40.1305 37.1249 40.0165 37.0946 39.8788C37.0344 39.6051 36.9395 39.2286 36.8003 38.823C36.6624 38.4212 36.4724 37.9651 36.2137 37.5451C35.9594 37.1323 35.6003 36.6915 35.0981 36.4016C34.5959 36.1116 34.0346 36.021 33.55 36.0072C33.0569 35.9932 32.5669 36.0567 32.15 36.1382C31.7292 36.2204 31.3556 36.3264 31.0885 36.4111C30.954 36.4538 30.8444 36.4917 30.7666 36.5197C30.7276 36.5337 30.6965 36.5452 30.6741 36.5536L30.6472 36.5639L30.6388 36.5672L30.6359 36.5683L30.6347 36.5687C30.6345 36.5688 30.6338 36.5691 31 37.4996L30.6347 36.5687C30.2012 36.7393 29.9421 37.187 30.0111 37.6478L31 37.4996C30.0111 37.6478 30.011 37.6475 30.0111 37.6478L30.0114 37.6499L30.0119 37.653L30.0132 37.6619L30.0178 37.6904C30.0217 37.714 30.0273 37.7467 30.0346 37.7874C30.0493 37.8688 30.0713 37.9827 30.1016 38.1205C30.1618 38.3942 30.2568 38.7707 30.3959 39.1762C30.5338 39.578 30.7238 40.0341 30.9826 40.4541C31.2368 40.867 31.5959 41.3077 32.0981 41.5977C32.6003 41.8877 33.1616 41.9782 33.6463 41.992C34.1394 42.0061 34.6293 41.9426 35.0463 41.8611C35.4671 41.7788 35.8406 41.6728 36.1077 41.5881C36.2422 41.5455 36.3519 41.5075 36.4297 41.4796C36.4686 41.4656 36.4997 41.4541 36.5221 41.4456L36.5491 41.4353L36.5575 41.4321L36.5604 41.431L36.5615 41.4305C36.5617 41.4304 36.5624 41.4302 36.1962 40.4996ZM36.1962 40.4996L36.5615 41.4305C36.995 41.2599 37.2541 40.8118 37.1851 40.351L36.1962 40.4996Z" fill="#333333"/>
<path fill-rule="evenodd" clip-rule="evenodd" d="M39.1787 32.8191C39.291 32.8471 39.4102 32.8741 39.5336 32.8982C39.8638 32.9628 40.1971 33.0013 40.493 32.9928C40.7973 32.9842 40.9906 32.9277 41.0981 32.8657C41.2056 32.8036 41.3512 32.6644 41.5108 32.4052C41.6661 32.1532 41.7994 31.8453 41.9086 31.527C41.9494 31.4082 41.9856 31.2914 42.0175 31.1801C41.9052 31.1521 41.786 31.1251 41.6626 31.101C41.3324 31.0365 40.9991 30.998 40.7033 31.0064C40.399 31.0151 40.2056 31.0716 40.0981 31.1336C39.9906 31.1957 39.8451 31.3349 39.6854 31.5941C39.5302 31.8461 39.3969 32.154 39.2877 32.4722C39.2469 32.5911 39.2106 32.7079 39.1787 32.8191ZM43.1962 30.4996C43.5624 29.5691 43.5622 29.569 43.562 29.5689L43.5604 29.5683L43.5575 29.5672L43.5491 29.5639L43.5221 29.5536C43.4997 29.5452 43.4686 29.5337 43.4297 29.5197C43.3519 29.4917 43.2422 29.4538 43.1077 29.4111C42.8406 29.3264 42.4671 29.2204 42.0463 29.1382C41.6293 29.0567 41.1394 28.9932 40.6463 29.0072C40.1616 29.0211 39.6003 29.1116 39.0981 29.4016C38.5959 29.6915 38.2368 30.1323 37.9826 30.5451C37.7238 30.9651 37.5338 31.4212 37.3959 31.823C37.2568 32.2286 37.1618 32.6051 37.1016 32.8788C37.0713 33.0165 37.0493 33.1305 37.0346 33.2119C37.0273 33.2526 37.0217 33.2853 37.0178 33.3089L37.0132 33.3374L37.0119 33.3463L37.0114 33.3494L37.0112 33.3505C37.0112 33.3508 37.0111 33.3515 38 33.4996L37.0112 33.3505C36.9422 33.8113 37.2003 34.2596 37.6338 34.4302L38 33.4996C37.6338 34.4302 37.6336 34.4301 37.6338 34.4302L37.6359 34.431L37.6388 34.4321L37.6472 34.4353L37.6741 34.4456C37.6965 34.4541 37.7276 34.4656 37.7666 34.4796C37.8444 34.5075 37.954 34.5455 38.0885 34.5881C38.3556 34.6728 38.7292 34.7788 39.15 34.8611C39.5669 34.9426 40.0569 35.0061 40.55 34.992C41.0346 34.9782 41.5959 34.8877 42.0981 34.5977C42.6003 34.3077 42.9594 33.867 43.2137 33.4541C43.4724 33.0341 43.6624 32.5781 43.8003 32.1762C43.9395 31.7707 44.0344 31.3942 44.0946 31.1205C44.1249 30.9827 44.1469 30.8688 44.1616 30.7874C44.169 30.7467 44.1745 30.714 44.1784 30.6904L44.183 30.6619L44.1844 30.653L44.1848 30.6499L44.185 30.6487C44.1851 30.6485 44.1852 30.6478 43.1962 30.4996ZM43.1962 30.4996L44.185 30.6487C44.254 30.188 43.9955 29.7395 43.562 29.5689L43.1962 30.4996Z" fill="#333333"/>
<path fill-rule="evenodd" clip-rule="evenodd" d="M37 19.639C37.0804 19.5557 37.1634 19.466 37.246 19.3712C37.4669 19.1175 37.667 18.8481 37.8076 18.5877C37.9522 18.3198 38 18.1241 38 18C38 17.8759 37.9522 17.6802 37.8076 17.4123C37.667 17.1519 37.4669 16.8825 37.246 16.6288C37.1634 16.534 37.0804 16.4443 37 16.361C36.9196 16.4443 36.8366 16.534 36.754 16.6288C36.5331 16.8825 36.333 17.1519 36.1924 17.4123C36.0478 17.6802 36 17.8759 36 18C36 18.1241 36.0478 18.3198 36.1924 18.5877C36.333 18.8481 36.5331 19.1175 36.754 19.3712C36.8366 19.466 36.9196 19.5557 37 19.639ZM37 15C36.3772 14.2176 36.3771 14.2177 36.3769 14.2179L36.3755 14.2189L36.3731 14.2209L36.3661 14.2265L36.3437 14.2447C36.3252 14.2599 36.2997 14.2811 36.2681 14.3078C36.205 14.3612 36.1173 14.4372 36.0131 14.5324C35.8062 14.7214 35.5276 14.9918 35.246 15.3151C34.9669 15.6355 34.667 16.028 34.4326 16.4621C34.2022 16.8887 34 17.4201 34 18C34 18.5799 34.2022 19.1113 34.4326 19.5379C34.667 19.972 34.9669 20.3645 35.246 20.6849C35.5276 21.0082 35.8062 21.2786 36.0131 21.4676C36.1173 21.5628 36.205 21.6388 36.2681 21.6922C36.2997 21.7189 36.3252 21.7401 36.3437 21.7553L36.3661 21.7735L36.3731 21.7791L36.3755 21.7811L36.3765 21.7818C36.3767 21.7819 36.3772 21.7824 37 21L36.3765 21.7818C36.741 22.0719 37.2583 22.0725 37.6228 21.7824L37 21C37.6228 21.7824 37.6226 21.7825 37.6228 21.7824L37.6245 21.7811L37.6269 21.7791L37.6339 21.7735L37.6563 21.7553C37.6748 21.7401 37.7003 21.7189 37.7319 21.6922C37.795 21.6388 37.8827 21.5628 37.9869 21.4676C38.1938 21.2786 38.4724 21.0082 38.754 20.6849C39.0331 20.3645 39.333 19.972 39.5674 19.5379C39.7978 19.1113 40 18.5799 40 18C40 17.4201 39.7978 16.8887 39.5674 16.4621C39.333 16.028 39.0331 15.6355 38.754 15.3151C38.4724 14.9918 38.1938 14.7214 37.9869 14.5324C37.8827 14.4372 37.795 14.3612 37.7319 14.3078C37.7003 14.2811 37.6748 14.2599 37.6563 14.2447L37.6339 14.2265L37.6269 14.2209L37.6245 14.2189L37.6235 14.2182C37.6233 14.2181 37.6228 14.2176 37 15ZM37 15L37.6235 14.2182C37.259 13.9281 36.7414 13.9277 36.3769 14.2179L37 15Z" fill="#333333"/>
<path fill-rule="evenodd" clip-rule="evenodd" d="M32.1787 31.1801C32.2106 31.2914 32.2469 31.4081 32.2877 31.527C32.3969 31.8452 32.5302 32.1532 32.6854 32.4052C32.8451 32.6644 32.9906 32.8036 33.0981 32.8657C33.2056 32.9277 33.399 32.9842 33.7033 32.9928C33.9991 33.0013 34.3324 32.9628 34.6626 32.8982C34.786 32.8741 34.9052 32.8471 35.0175 32.8191C34.9856 32.7079 34.9494 32.5911 34.9086 32.4722C34.7994 32.154 34.6661 31.8461 34.5108 31.5941C34.3512 31.3349 34.2056 31.1957 34.0981 31.1336C33.9906 31.0715 33.7973 31.0151 33.493 31.0064C33.1971 30.998 32.8638 31.0365 32.5336 31.101C32.4102 31.1251 32.291 31.1521 32.1787 31.1801ZM36.1962 33.4996C37.1852 33.3515 37.1851 33.3513 37.1851 33.351L37.1848 33.3494L37.1844 33.3463L37.183 33.3374L37.1784 33.3089C37.1745 33.2853 37.169 33.2526 37.1616 33.2119C37.1469 33.1305 37.1249 33.0165 37.0946 32.8788C37.0344 32.6051 36.9395 32.2286 36.8003 31.823C36.6624 31.4212 36.4724 30.9651 36.2137 30.5451C35.9594 30.1323 35.6003 29.6915 35.0981 29.4016C34.5959 29.1116 34.0346 29.021 33.55 29.0072C33.0569 28.9932 32.5669 29.0567 32.15 29.1382C31.7292 29.2204 31.3556 29.3264 31.0885 29.4111C30.954 29.4538 30.8444 29.4917 30.7666 29.5197C30.7276 29.5337 30.6965 29.5452 30.6741 29.5536L30.6472 29.5639L30.6388 29.5672L30.6359 29.5683L30.6347 29.5687C30.6345 29.5688 30.6338 29.5691 31 30.4996L30.6347 29.5687C30.2012 29.7393 29.9421 30.187 30.0111 30.6478L31 30.4996C30.0111 30.6478 30.011 30.6475 30.0111 30.6478L30.0114 30.6499L30.0119 30.653L30.0132 30.6619L30.0178 30.6904C30.0217 30.714 30.0273 30.7467 30.0346 30.7874C30.0493 30.8688 30.0713 30.9827 30.1016 31.1205C30.1618 31.3942 30.2568 31.7707 30.3959 32.1762C30.5338 32.578 30.7238 33.0341 30.9826 33.4541C31.2368 33.867 31.5959 34.3077 32.0981 34.5977C32.6003 34.8877 33.1616 34.9782 33.6463 34.992C34.1394 35.0061 34.6293 34.9426 35.0463 34.8611C35.4671 34.7788 35.8406 34.6728 36.1077 34.5881C36.2422 34.5455 36.3519 34.5075 36.4297 34.4796C36.4686 34.4656 36.4997 34.4541 36.5221 34.4456L36.5491 34.4353L36.5575 34.4321L36.5604 34.431L36.5615 34.4305C36.5617 34.4304 36.5624 34.4302 36.1962 33.4996ZM36.1962 33.4996L36.5615 34.4305C36.995 34.2599 37.2541 33.8118 37.1851 33.351L36.1962 33.4996Z" fill="#333333"/>
<path fill-rule="evenodd" clip-rule="evenodd" d="M39.1787 25.8191C39.291 25.8471 39.4102 25.8741 39.5336 25.8982C39.8638 25.9628 40.1971 26.0013 40.493 25.9928C40.7973 25.9842 40.9906 25.9277 41.0981 25.8657C41.2056 25.8036 41.3512 25.6644 41.5108 25.4052C41.6661 25.1532 41.7994 24.8453 41.9086 24.527C41.9494 24.4082 41.9856 24.2914 42.0175 24.1801C41.9052 24.1521 41.786 24.1251 41.6626 24.101C41.3324 24.0365 40.9991 23.998 40.7033 24.0064C40.399 24.0151 40.2056 24.0716 40.0981 24.1336C39.9906 24.1957 39.8451 24.3349 39.6854 24.5941C39.5302 24.8461 39.3969 25.154 39.2877 25.4722C39.2469 25.5911 39.2106 25.7079 39.1787 25.8191ZM43.1962 23.4996C43.5624 22.5691 43.5622 22.569 43.562 22.5689L43.5604 22.5683L43.5575 22.5672L43.5491 22.5639L43.5221 22.5536C43.4997 22.5452 43.4686 22.5337 43.4297 22.5197C43.3519 22.4917 43.2422 22.4538 43.1077 22.4111C42.8406 22.3264 42.4671 22.2204 42.0463 22.1382C41.6293 22.0567 41.1394 21.9932 40.6463 22.0072C40.1616 22.0211 39.6003 22.1116 39.0981 22.4016C38.5959 22.6915 38.2368 23.1323 37.9826 23.5451C37.7238 23.9651 37.5338 24.4212 37.3959 24.823C37.2568 25.2286 37.1618 25.6051 37.1016 25.8788C37.0713 26.0165 37.0493 26.1305 37.0346 26.2119C37.0273 26.2526 37.0217 26.2853 37.0178 26.3089L37.0132 26.3374L37.0119 26.3463L37.0114 26.3494L37.0112 26.3505C37.0112 26.3508 37.0111 26.3515 38 26.4996L37.0112 26.3505C36.9422 26.8113 37.2003 27.2596 37.6338 27.4302L38 26.4996C37.6338 27.4302 37.6336 27.4301 37.6338 27.4302L37.6359 27.431L37.6388 27.4321L37.6472 27.4353L37.6741 27.4456C37.6965 27.4541 37.7276 27.4656 37.7666 27.4796C37.8444 27.5075 37.954 27.5455 38.0885 27.5881C38.3556 27.6728 38.7292 27.7788 39.15 27.8611C39.5669 27.9426 40.0569 28.0061 40.55 27.992C41.0346 27.9782 41.5959 27.8877 42.0981 27.5977C42.6003 27.3077 42.9594 26.867 43.2137 26.4541C43.4724 26.0341 43.6624 25.5781 43.8003 25.1762C43.9395 24.7707 44.0344 24.3942 44.0946 24.1205C44.1249 23.9827 44.1469 23.8688 44.1616 23.7874C44.169 23.7467 44.1745 23.714 44.1784 23.6904L44.183 23.6619L44.1844 23.653L44.1848 23.6499L44.185 23.6487C44.1851 23.6485 44.1852 23.6478 43.1962 23.4996ZM43.1962 23.4996L44.185 23.6487C44.254 23.188 43.9955 22.7395 43.562 22.5689L43.1962 23.4996Z" fill="#333333"/>
<path fill-rule="evenodd" clip-rule="evenodd" d="M32.1787 24.1801C32.2106 24.2914 32.2469 24.4081 32.2877 24.527C32.3969 24.8452 32.5302 25.1532 32.6854 25.4052C32.8451 25.6644 32.9906 25.8036 33.0981 25.8657C33.2056 25.9277 33.399 25.9842 33.7033 25.9928C33.9991 26.0013 34.3324 25.9628 34.6626 25.8982C34.786 25.8741 34.9052 25.8471 35.0175 25.8191C34.9856 25.7079 34.9494 25.5911 34.9086 25.4722C34.7994 25.154 34.6661 24.8461 34.5108 24.5941C34.3512 24.3349 34.2056 24.1957 34.0981 24.1336C33.9906 24.0715 33.7973 24.0151 33.493 24.0064C33.1971 23.998 32.8638 24.0365 32.5336 24.101C32.4102 24.1251 32.291 24.1521 32.1787 24.1801ZM36.1962 26.4996C37.1852 26.3515 37.1851 26.3513 37.1851 26.351L37.1848 26.3494L37.1844 26.3463L37.183 26.3374L37.1784 26.3089C37.1745 26.2853 37.169 26.2526 37.1616 26.2119C37.1469 26.1305 37.1249 26.0165 37.0946 25.8788C37.0344 25.6051 36.9395 25.2286 36.8003 24.823C36.6624 24.4212 36.4724 23.9651 36.2137 23.5451C35.9594 23.1323 35.6003 22.6915 35.0981 22.4016C34.5959 22.1116 34.0346 22.021 33.55 22.0072C33.0569 21.9932 32.5669 22.0567 32.15 22.1382C31.7292 22.2204 31.3556 22.3264 31.0885 22.4111C30.954 22.4538 30.8444 22.4917 30.7666 22.5197C30.7276 22.5337 30.6965 22.5452 30.6741 22.5536L30.6472 22.5639L30.6388 22.5672L30.6359 22.5683L30.6347 22.5687C30.6345 22.5688 30.6338 22.5691 31 23.4996L30.6347 22.5687C30.2012 22.7393 29.9421 23.187 30.0111 23.6478L31 23.4996C30.0111 23.6478 30.011 23.6475 30.0111 23.6478L30.0114 23.6499L30.0119 23.653L30.0132 23.6619L30.0178 23.6904C30.0217 23.714 30.0273 23.7467 30.0346 23.7874C30.0493 23.8688 30.0713 23.9827 30.1016 24.1205C30.1618 24.3942 30.2568 24.7707 30.3959 25.1762C30.5338 25.578 30.7238 26.0341 30.9826 26.4541C31.2368 26.867 31.5959 27.3077 32.0981 27.5977C32.6003 27.8877 33.1616 27.9782 33.6463 27.992C34.1394 28.0061 34.6293 27.9426 35.0463 27.8611C35.4671 27.7788 35.8406 27.6728 36.1077 27.5881C36.2422 27.5455 36.3519 27.5075 36.4297 27.4796C36.4686 27.4656 36.4997 27.4541 36.5221 27.4456L36.5491 27.4353L36.5575 27.4321L36.5604 27.431L36.5615 27.4305C36.5617 27.4304 36.5624 27.4302 36.1962 26.4996ZM36.1962 26.4996L36.5615 27.4305C36.995 27.2599 37.2541 26.8118 37.1851 26.351L36.1962 26.4996Z" fill="#333333"/>
</svg>
