<svg width="48" height="48" viewBox="0 0 48 48" fill="none" xmlns="http://www.w3.org/2000/svg">
<path d="M33.974 18.9998C33.9749 20.1044 33.0802 21.0006 31.9757 21.0015C30.8711 21.0024 29.9749 20.1077 29.974 19.0031C29.9731 17.8985 30.8678 17.0024 31.9724 17.0015C33.0769 17.0006 33.9731 17.8952 33.974 18.9998Z" fill="#333333"/>
<path d="M36.9896 37.9973C38.0941 37.9964 38.9888 37.1002 38.9879 35.9957C38.987 34.8911 38.0909 33.9964 36.9863 33.9973C35.8817 33.9982 34.987 34.8944 34.9879 35.9989C34.9888 37.1035 35.885 37.9982 36.9896 37.9973Z" fill="#333333"/>
<path d="M33.986 33.9998C33.9869 35.1044 33.0922 36.0006 31.9876 36.0015C30.883 36.0024 29.9869 35.1077 29.986 34.0031C29.9851 32.8985 30.8798 32.0024 31.9843 32.0015C33.0889 32.0006 33.9851 32.8953 33.986 33.9998Z" fill="#333333"/>
<path d="M35.9837 30.9983C37.0883 30.9974 37.983 30.1012 37.9821 28.9966C37.9812 27.8921 37.085 26.9974 35.9804 26.9983C34.8759 26.9992 33.9812 27.8954 33.9821 28.9999C33.983 30.1045 34.8791 30.9992 35.9837 30.9983Z" fill="#333333"/>
<path d="M33.9786 24.9998C33.9795 26.1044 33.0848 27.0006 31.9802 27.0015C30.8756 27.0024 29.9795 26.1077 29.9786 25.0031C29.9777 23.8985 30.8724 23.0024 31.9769 23.0015C33.0815 23.0006 33.9777 23.8953 33.9786 24.9998Z" fill="#333333"/>
<path d="M15.9754 21.0146C14.8708 21.0155 13.9747 20.1208 13.9738 19.0162C13.9729 17.9116 14.8676 17.0155 15.9721 17.0146C17.0767 17.0137 17.9729 17.9084 17.9738 19.0129C17.9747 20.1175 17.08 21.0137 15.9754 21.0146Z" fill="#333333"/>
<path d="M8.98793 36.0203C8.98884 37.1249 9.885 38.0196 10.9896 38.0187C12.0941 38.0178 12.9888 37.1216 12.9879 36.0171C12.987 34.9125 12.0909 34.0178 10.9863 34.0187C9.88172 34.0196 8.98703 34.9158 8.98793 36.0203Z" fill="#333333"/>
<path d="M15.9876 36.0146C14.883 36.0155 13.9869 35.1208 13.986 34.0162C13.9851 32.9116 14.8798 32.0155 15.9843 32.0146C17.0889 32.0137 17.9851 32.9084 17.986 34.0129C17.9869 35.1175 17.0922 36.0137 15.9876 36.0146Z" fill="#333333"/>
<path d="M9.98207 29.0194C9.98298 30.1239 10.8791 31.0186 11.9837 31.0177C13.0883 31.0168 13.983 30.1207 13.9821 29.0161C13.9812 27.9115 13.085 27.0168 11.9804 27.0177C10.8759 27.0186 9.98117 27.9148 9.98207 29.0194Z" fill="#333333"/>
<path d="M15.9803 27.0146C14.8757 27.0155 13.9796 26.1208 13.9787 25.0162C13.9778 23.9116 14.8724 23.0155 15.977 23.0146C17.0816 23.0137 17.9777 23.9084 17.9787 25.0129C17.9796 26.1175 17.0849 27.0137 15.9803 27.0146Z" fill="#333333"/>
<path fill-rule="evenodd" clip-rule="evenodd" d="M24 6.00114C25 6.00114 25 6.00118 25 6.00126L25.0003 20.4972C25.0003 21.8943 25.5642 22.4385 26.0041 22.695C26.0531 22.7236 26.1024 22.7495 26.1515 22.7731C26.1505 22.6536 26.1492 22.5291 26.1478 22.4002C26.11 18.8716 26.0364 11.9999 31.4752 11.9999C38.9258 11.9999 44.2477 38.0064 41.0546 40.6601C37.8614 43.3138 31.4752 41.7216 28.2821 38.5371C25.7041 35.9662 25.9271 29.9585 26.0873 25.6459C26.0971 25.3816 26.1066 25.1237 26.1153 24.8733C25.7901 24.7924 25.3962 24.6557 24.9966 24.4227C24.6406 24.2151 24.2986 23.9413 24.0014 23.5896C23.7036 23.9425 23.3609 24.2171 23.0041 24.4251C22.6045 24.6582 22.2106 24.7949 21.8854 24.8757C21.8941 25.1253 21.9036 25.3823 21.9134 25.6457C22.0738 29.9583 22.2972 35.9662 19.7193 38.5371C16.5264 41.7216 10.1402 43.3138 6.94693 40.6601C3.75364 38.0064 9.07407 11.9999 16.5247 11.9999C21.9635 11.9999 21.8903 18.8716 21.8527 22.4002C21.8525 22.4165 21.8524 22.4326 21.8522 22.4487C21.851 22.5613 21.8499 22.6704 21.849 22.7756C21.8982 22.752 21.9475 22.726 21.9966 22.6974C22.4364 22.4409 23.0003 21.8968 23.0003 20.4996L23 6.00126C23 6.00118 23 6.00114 24 6.00114ZM31.4752 13.9999C30.5211 13.9999 29.9842 14.3005 29.6085 14.6872C29.1751 15.1334 28.8131 15.851 28.559 16.8649C28.114 18.6398 28.1329 20.6822 28.1482 22.3295C28.1508 22.6145 28.1533 22.8877 28.1533 23.1456C28.1533 23.9056 28.1196 24.8156 28.0844 25.7624L28.0844 25.7637C28.0705 26.136 28.0565 26.514 28.0442 26.8908C27.9995 28.2659 27.974 29.7057 28.0404 31.0984C28.1071 32.4988 28.2641 33.7837 28.5572 34.8598C28.8537 35.9485 29.2508 36.6786 29.6943 37.121C30.9725 38.3957 32.9907 39.4254 35.0491 39.8245C37.0841 40.2192 38.7223 39.9271 39.6817 39.1971C39.6867 39.1859 39.6922 39.1728 39.6983 39.1576C39.7575 39.0097 39.8293 38.7556 39.8877 38.3685C40.0046 37.5935 40.0349 36.5125 39.9562 35.1805C39.7994 32.5307 39.2285 29.1691 38.3267 25.8609C37.4215 22.5399 36.2172 19.4001 34.852 17.1385C34.1687 16.0065 33.495 15.1788 32.8702 14.6537C32.2517 14.1339 31.7934 13.9999 31.4752 13.9999ZM16.5248 13.9999C17.4789 13.9999 18.0158 14.3005 18.3915 14.6872C18.825 15.1334 19.187 15.851 19.4412 16.8649C19.8862 18.6398 19.8675 20.6822 19.8523 22.3295C19.8497 22.6145 19.8472 22.8877 19.8472 23.1456C19.8472 23.9056 19.8811 24.8156 19.9163 25.7624C19.9301 26.1351 19.9442 26.5135 19.9565 26.8908C20.0014 28.2659 20.0269 29.7057 19.9606 31.0984C19.894 32.4988 19.737 33.7837 19.444 34.8598C19.1475 35.9485 18.7505 36.6786 18.307 37.121C17.0289 38.3957 15.0108 39.4254 12.9524 39.8245C10.9174 40.2191 9.27921 39.9271 8.31972 39.1971C8.31475 39.1859 8.30919 39.1728 8.30311 39.1576C8.24389 39.0097 8.17207 38.7556 8.11369 38.3685C7.99679 37.5935 7.96634 36.5125 8.04506 35.1805C8.20167 32.5307 8.77238 29.1691 9.67397 25.8609C10.579 22.5399 11.7831 19.4001 13.1482 17.1385C13.8314 16.0065 14.505 15.1788 15.1298 14.6537C15.7483 14.1339 16.2066 13.9999 16.5248 13.9999Z" fill="#333333"/>
</svg>
