<svg width="48" height="48" viewBox="0 0 48 48" fill="none" xmlns="http://www.w3.org/2000/svg">
<path fill-rule="evenodd" clip-rule="evenodd" d="M23.0074 7.08878C22.9742 6.56387 23.0528 6.03796 23.2384 5.54341C23.424 5.04887 23.7127 4.59615 24.0867 4.21313C24.4607 3.83011 24.9121 3.52489 25.4131 3.31626C25.9141 3.10763 26.4542 3 27 3C27.5458 3 28.0859 3.10763 28.5869 3.31626C29.0879 3.52489 29.5393 3.83011 29.9133 4.21313C30.2873 4.59615 30.576 5.04887 30.7616 5.54341C30.9472 6.03796 31.0258 6.56387 30.9926 7.08878C30.9966 8.11737 30.5783 9.10577 29.829 9.83845C29.0797 10.5711 28.0601 10.9887 26.9926 11C25.9264 10.9887 24.9083 10.5707 24.1614 9.83757C23.4145 9.10448 22.9995 8.11605 23.0074 7.08878ZM26.9926 8.99978C27.5475 8.98854 28.0622 8.76883 28.4307 8.40846C28.8015 8.04591 28.9944 7.57285 28.9926 7.09654L28.9923 7.02935L28.9966 6.96229C29.0119 6.72067 28.9759 6.4773 28.8892 6.24615C28.8023 6.0148 28.6653 5.79778 28.4824 5.61041C28.2992 5.42285 28.0739 5.26912 27.8181 5.16258C27.5621 5.05599 27.2835 5 27 5C26.7165 5 26.4379 5.05599 26.1819 5.16258C25.9261 5.26912 25.7008 5.42285 25.5176 5.61041C25.3347 5.79777 25.1977 6.01479 25.1108 6.24615C25.0241 6.4773 24.9881 6.72067 25.0034 6.96229L25.0079 7.03319L25.0074 7.10423C25.0037 7.57785 25.1942 8.04889 25.5623 8.41018C25.9282 8.76933 26.4403 8.98856 26.9926 8.99978Z" fill="#333333"/>
<path fill-rule="evenodd" clip-rule="evenodd" d="M25.5693 10.9393C24.3747 10.2201 22.9602 9.9712 21.5949 10.2423L21.5851 10.2443L21.5752 10.2464C20.43 10.4979 19.6122 11.3172 19.0296 12.069C18.7294 12.4564 18.4624 12.8652 18.2272 13.2372C18.1569 13.3484 18.0906 13.4544 18.0272 13.5557L18.0271 13.556L18.027 13.556L18.027 13.5561C17.8722 13.8035 17.7345 14.0236 17.5969 14.2264L14.8625 18.0154L14.8552 18.0256L14.8481 18.0359C14.5117 18.5275 14.3701 19.127 14.4478 19.7164C14.5255 20.306 14.818 20.8487 15.2729 21.2351L15.2728 21.2351L15.2806 21.2416L20.2176 25.3495L20.224 25.3548L20.2304 25.3601C20.4774 25.5587 20.7603 25.7048 21.0618 25.791C20.5667 27.3076 19.725 29.7936 18.8823 32.2603C18.19 34.2871 17.5012 36.2892 17.0331 37.6499C16.6848 38.6622 16.4587 39.3196 16.444 39.368L16.0547 40.6571H17.4013H21.8106L21.9555 43.6527C21.9625 44.2727 22.2072 44.8694 22.6434 45.3138C23.0866 45.7653 23.6917 46.0225 24.3268 46.0225C24.9618 46.0225 25.5669 45.7653 26.0101 45.3138C26.4457 44.87 26.6903 44.2744 26.6979 43.6553L26.8523 40.7409H30.7585H31.7585V39.7409C31.7585 39.5932 31.7 38.6685 31.6271 37.5163L31.627 37.5153L31.627 37.515C31.5935 36.9859 31.557 36.4088 31.5217 35.837C31.4644 34.9067 31.4085 33.966 31.3695 33.2094C31.3289 32.4198 31.3114 31.9064 31.3183 31.7723C31.3199 31.7424 31.3344 31.6476 31.5479 31.4341C31.6512 31.3307 31.7715 31.2283 31.922 31.1023L31.9525 31.0768C32.0844 30.9664 32.2497 30.8283 32.3945 30.6849L32.4025 30.677L32.4103 30.6689C33.0426 30.0143 33.5667 29.261 33.9632 28.4382L33.9717 28.4207L33.9794 28.4029C34.313 27.636 34.5077 26.8146 34.5545 25.9781L34.5565 25.9433L34.556 25.9083C34.5332 24.2678 34.1019 22.6592 33.3013 21.2333L33.0373 20.7053L33.0358 20.7022C32.055 18.7067 31.1487 17.3829 29.8126 15.6823C28.7171 13.8877 27.3154 12.3054 25.6726 11.0106L25.6232 10.9717L25.5693 10.9393ZM20.6106 13.294C21.1046 12.6564 21.5526 12.3025 21.9952 12.2019C22.8473 12.0354 23.7302 12.1839 24.4861 12.6222C25.9332 13.7727 27.1688 15.1774 28.1341 16.7713L28.1658 16.8237L28.2036 16.8718C29.5035 18.5231 30.3315 19.7336 31.2422 21.5873L31.2422 21.5873L31.2453 21.5935L31.5234 22.1497L31.5347 22.1723L31.5472 22.1944C32.1844 23.3223 32.5317 24.5974 32.5556 25.9006C32.519 26.483 32.3827 27.054 32.153 27.5876C31.8513 28.209 31.4553 28.777 30.9801 29.2708C30.8979 29.3512 30.794 29.4383 30.6407 29.5666L30.6406 29.5667L30.6405 29.5667L30.6381 29.5688C30.4929 29.6903 30.308 29.8455 30.1337 30.0199C29.7918 30.3618 29.3606 30.9027 29.321 31.6692C29.3073 31.9333 29.3344 32.5779 29.3722 33.3122C29.4117 34.0794 29.4681 35.0285 29.5255 35.9601C29.5647 36.5948 29.6045 37.2239 29.6399 37.7831L29.64 37.7852L29.64 37.7853L29.6861 38.5151L29.7002 38.7409H25.9038H24.9554L24.9052 39.6881L24.6995 43.5724L24.6981 43.5988V43.6253C24.6981 43.7366 24.6545 43.8397 24.5828 43.9128C24.5116 43.9853 24.4192 44.0225 24.3268 44.0225C24.2344 44.0225 24.1419 43.9853 24.0707 43.9128C23.999 43.8397 23.9554 43.7366 23.9554 43.6253V43.6011L23.9542 43.577L23.7622 39.6088L23.7162 38.6571H22.7634H18.8016L19.1145 37.7477C19.5658 36.4359 20.1661 34.6894 20.775 32.9068C21.8048 29.892 22.8861 26.6978 23.2893 25.386C23.2918 25.3745 23.2946 25.3628 23.2978 25.351C23.4657 24.7292 23.698 23.6223 23.7344 22.5378C23.7122 21.1709 23.5239 19.8119 23.1735 18.4918C23.084 18.0788 22.9954 17.6859 22.9085 17.3006C22.7895 16.7733 22.6738 16.26 22.563 15.7281L22.1489 13.7392L20.8254 15.2804L17.9455 18.6338L17.279 19.4098L18.07 20.0585L21.8566 23.1641C21.9898 23.2214 22.0831 23.3538 22.0831 23.5081C22.0831 23.6665 21.9847 23.802 21.8456 23.8566C21.8288 23.8649 21.8155 23.8694 21.8047 23.8723C21.7899 23.8763 21.7684 23.8803 21.736 23.8814C21.7271 23.882 21.718 23.8824 21.7088 23.8824C21.5959 23.8824 21.4946 23.8323 21.4259 23.7532L16.565 19.7085C16.4939 19.647 16.4441 19.5574 16.4306 19.455C16.4173 19.3542 16.441 19.2536 16.4939 19.1726L19.227 15.3853L19.2351 15.3741L19.2429 15.3626C19.4062 15.1226 19.5772 14.8493 19.7428 14.5846L19.7428 14.5846L19.7429 14.5845C19.8021 14.4899 19.8605 14.3964 19.9177 14.306C20.1449 13.9466 20.3708 13.6035 20.6106 13.294ZM21.235 18.9843C21.3512 19.4199 21.4475 19.8604 21.5235 20.3043L20.1292 19.1608L21.0387 18.1018C21.102 18.3838 21.1644 18.6636 21.2238 18.938L21.2288 18.9613L21.235 18.9843Z" fill="#333333"/>
</svg>
