<svg width="48" height="48" viewBox="0 0 48 48" fill="none" xmlns="http://www.w3.org/2000/svg">
<path fill-rule="evenodd" clip-rule="evenodd" d="M35.2929 15.7071L34 14.4142L30.9142 17.5L31.7071 18.2929L32.4142 19L33.7071 20.2929L32.2929 21.7071L31 20.4142L25.1213 26.2929C24.166 27.2483 22.7265 27.4246 21.5925 26.8218L19.5149 28.8994C19.6494 28.9648 19.7986 29 19.9519 29H29H30.2837H30.5858L33.2929 26.2929L33.5858 26H34H38C38.8885 26 39.6868 26.3863 40.2361 27H41C42.6569 27 44 28.3432 44 30V36C44 37.6569 42.6569 39 41 39H39H34C32.5194 39 31.2267 38.1956 30.5351 37H16.2544C14.5588 37 12.9209 36.3846 11.6449 35.2681L8.69718 32.6888L8.22701 33.1866L6.77299 31.8134L7.19094 31.3709L5.3415 29.7526L5 29.4538V29V14V11.1834L6.77611 13.3694L14.8302 23.2822L15.273 22.8134L16.727 24.1866L16.1024 24.848L18.1804 27.4055L20.1783 25.4076C19.5754 24.2736 19.7517 22.8341 20.7071 21.8787L26.5858 16L25.2929 14.7071L26.7071 13.2929L28 14.5858L28.7071 15.2929L29.5 16.0858L32.5858 13L31.2929 11.7071L32.7071 10.2929L36.7071 14.2929L35.2929 15.7071ZM16.7587 28.8272L14.7172 26.3147L10.0714 31.2337L12.9619 33.7629C13.8733 34.5604 15.0433 35 16.2544 35H30H32C32 36.1046 32.8954 37 34 37H34.9996C34.3719 36.1644 34 35.1256 34 34V32H35.1707C35.0602 31.6872 35 31.3507 35 31V30H37V31C37 31.5523 37.4477 32 38 32H39V29C39 28.4477 38.5523 28 38 28H34.4142L31.7071 30.7071L31.4142 31H31H30.2837H29H19.9519C19.263 31 18.6021 30.7633 18.0744 30.3399L16.4142 32.0001H13.5858L16.7587 28.8272ZM28 17.4142L29.5858 19L27.5 21.0858L25.9142 19.5L28 17.4142ZM13.445 24.7489L8.56518 29.9158L7 28.5462V16.8166L13.445 24.7489ZM42 36C42 36.5523 41.5523 37 41 37H39C37.3431 37 36 35.6569 36 34V33.2361C36.5308 33.7112 37.2316 34 38 34H40H41V33V29C41.5523 29 42 29.4477 42 30V36ZM24.5 20.9142L22.1213 23.2929C21.7308 23.6834 21.7308 24.3166 22.1213 24.7071L22.2929 24.8787C22.6834 25.2692 23.3166 25.2692 23.7071 24.8787L26.0858 22.5L24.5 20.9142Z" fill="#333333"/>
</svg>
