<svg width="48" height="48" viewBox="0 0 48 48" fill="none" xmlns="http://www.w3.org/2000/svg">
<path d="M16.8011 33.5987L16.8001 33.6C16.4686 34.0413 15.8417 34.1312 15.4001 33.8C14.9582 33.4686 14.8687 32.8418 15.2001 32.4L16.0001 33C15.2001 32.4 15.1998 32.4003 15.2001 32.4L15.2011 32.3986L15.2025 32.3968L15.2061 32.3921L15.2165 32.3784C15.225 32.3673 15.2365 32.3526 15.2509 32.3344C15.2798 32.2979 15.3205 32.2476 15.3728 32.1853C15.4773 32.0607 15.6287 31.8879 15.8249 31.6831C16.2167 31.2743 16.7922 30.7328 17.5369 30.1913C19.0223 29.1109 21.2245 28 24.0001 28C26.7756 28 28.9778 29.1109 30.4632 30.1913C31.2079 30.7328 31.7834 31.2743 32.1752 31.6831C32.3715 31.8879 32.5228 32.0607 32.6274 32.1853C32.6797 32.2476 32.7204 32.2979 32.7492 32.3344L32.7679 32.3582L32.7836 32.3784L32.7941 32.3921L32.7976 32.3968L32.799 32.3986C32.7992 32.3989 32.8001 32.4 32.0354 32.9735L32.8001 32.4C33.1314 32.8418 33.0419 33.4686 32.6001 33.8C32.1589 34.1309 31.5333 34.0421 31.2016 33.602L31.2009 33.6011C31.2007 33.6008 31.2001 33.6 32.0001 33L31.2001 33.6L31.199 33.5987L31.1811 33.5758C31.1636 33.5536 31.1349 33.5181 31.0954 33.471C31.0164 33.3768 30.8943 33.2371 30.7312 33.0669C30.4042 32.7257 29.9172 32.2672 29.2869 31.8087C28.0223 30.8891 26.2245 30 24.0001 30C21.7756 30 19.9778 30.8891 18.7132 31.8087C18.0829 32.2672 17.5959 32.7257 17.2689 33.0669C17.1058 33.2371 16.9838 33.3768 16.9047 33.471C16.8652 33.5181 16.8366 33.5536 16.819 33.5758L16.8011 33.5987Z" fill="#333333"/>
<path d="M17.6286 20.0715C18.1414 19.8664 18.7234 20.1158 18.9285 20.6286C19.1336 21.1414 18.8842 21.7234 18.3714 21.9285L15.872 22.9283L15.8711 22.9286L13.3714 23.9285C12.8586 24.1336 12.2767 23.8842 12.0715 23.3714C11.8664 22.8586 12.1158 22.2767 12.6286 22.0715L17.6286 20.0715Z" fill="#333333"/>
<path d="M29.0715 20.6286C29.2766 20.1158 29.8586 19.8664 30.3714 20.0715L35.3714 22.0715C35.8842 22.2767 36.1336 22.8586 35.9285 23.3714C35.7233 23.8842 35.1414 24.1336 34.6286 23.9285L29.6286 21.9285C29.1158 21.7234 28.8664 21.1414 29.0715 20.6286Z" fill="#333333"/>
<path fill-rule="evenodd" clip-rule="evenodd" d="M44 24C44 35.0457 35.0457 44 24 44C12.9543 44 4 35.0457 4 24C4 12.9543 12.9543 4 24 4C35.0457 4 44 12.9543 44 24ZM42 24C42 33.9411 33.9411 42 24 42C14.0589 42 6 33.9411 6 24C6 14.0589 14.0589 6 24 6C33.9411 6 42 14.0589 42 24Z" fill="#333333"/>
</svg>
