<svg width="48" height="48" viewBox="0 0 48 48" fill="none" xmlns="http://www.w3.org/2000/svg">
<path fill-rule="evenodd" clip-rule="evenodd" d="M27.5357 13.2714L27.5418 13.2744C27.808 13.4062 28.0981 13.4848 28.3955 13.5052C28.6929 13.5256 28.9913 13.4876 29.2735 13.3933C29.5558 13.299 29.816 13.1505 30.0395 12.9567C30.2629 12.763 30.4453 12.5278 30.5766 12.265L30.5796 12.2589C30.7801 11.8609 30.857 11.4134 30.8013 10.9728C30.7456 10.5322 30.5595 10.1167 30.2653 9.77949C29.9709 9.44213 29.5814 9.19808 29.1453 9.07986L29.6685 7.14953C30.4852 7.37091 31.2174 7.82861 31.7723 8.4646C32.3272 9.10059 32.6798 9.88624 32.7855 10.7219C32.8912 11.5576 32.7451 12.4057 32.3658 13.1587C32.1168 13.6572 31.7715 14.1021 31.3496 14.4678C30.9278 14.8336 30.4376 15.113 29.9072 15.2902C29.3768 15.4674 28.8165 15.5389 28.2584 15.5005C27.7002 15.4621 27.1551 15.3147 26.6542 15.0667C26.159 14.8235 25.7184 14.4884 25.3546 14.0822C25.1608 13.8658 24.9888 13.6292 24.842 13.3755C24.4195 12.6457 24.2244 11.8074 24.2812 10.967C24.2832 10.9375 24.2855 10.9079 24.2882 10.8785C24.3423 10.2683 24.5282 9.67902 24.8306 9.15001C24.9287 8.97825 25.0392 8.81285 25.1615 8.65515C25.6785 7.98826 26.3828 7.48916 27.1852 7.22111C27.9876 6.95306 28.8519 6.92815 29.6685 7.14953L29.1453 9.07986C28.7091 8.96161 28.2473 8.97495 27.8189 9.11806C27.3906 9.26114 27.0161 9.52705 26.7421 9.88052C26.4682 10.2339 26.3067 10.6591 26.2767 11.1021C26.2467 11.5451 26.3495 11.9876 26.5729 12.3736C26.7964 12.7598 27.1311 13.0727 27.5357 13.2714ZM23.6358 26.4644C23.6147 26.2929 23.5781 26.1231 23.5258 25.9572C23.3552 25.4151 23.0263 24.9408 22.5828 24.597L16.0701 19.9399C16.1929 19.8245 16.3004 19.7249 16.3959 19.6373C16.5306 19.5139 16.6415 19.4144 16.7378 19.3282C16.7496 19.3177 16.7612 19.3073 16.7726 19.2971C17.0658 19.0349 17.2256 18.8921 17.5425 18.5341C17.6656 18.3951 17.8124 18.2236 17.9999 18C18.1138 18.2848 18.1961 18.606 18.2799 18.933C18.2933 18.9853 18.3068 19.0378 18.3204 19.0904C18.422 19.482 18.5333 19.875 18.7104 20.2174C18.8548 20.4964 19.0428 20.7418 19.305 20.9256L25.8601 25.593C26.0555 25.7308 26.2741 25.831 26.5055 25.8889C26.9503 25.9962 27.4199 25.9412 27.8331 25.7332C28.2462 25.5253 29.6746 23.7228 29.8656 23.2955C30.0566 22.8682 30.0958 22.3881 29.9766 21.9384C29.8574 21.4887 29.5871 21.0977 29.2127 20.8329L23.5385 16.8405C23.51 16.3471 23.4753 15.8663 23.4395 15.3718C23.4267 15.1939 23.4137 15.0143 23.4008 14.8317C23.387 14.6361 23.3734 14.4372 23.3602 14.2332C23.2984 13.28 23.2463 12.2188 23.2347 10.8962C23.2347 10.8933 23.2347 10.8904 23.2347 10.8875C23.2309 10.4496 23.0854 10.027 22.8207 9.68534C22.7404 9.58164 22.6504 9.48715 22.5524 9.40293C22.3276 9.20972 22.0607 9.07055 21.7709 8.99812C20.2319 8.43603 18.5306 8.51383 17.0316 9.21485C12.9491 10.71 7.85462 16.8405 7.85462 16.8405C7.23308 17.5422 6.71891 18.3351 6.32982 19.1918C6.049 19.8907 6.03757 20.669 6.29783 21.3692C6.5581 22.0695 7.07065 22.6395 7.73195 22.9643L16.4999 29L17.0654 38.1861C16.973 38.895 17.1562 39.6091 17.5757 40.1754C17.9953 40.7418 18.6178 41.1152 19.31 41.2159C19.6431 41.2476 19.98 41.2104 20.3004 41.1064C20.6208 41.0024 20.9181 40.8339 21.1746 40.6109C21.431 40.3878 21.6413 40.1149 21.7929 39.8084C21.9444 39.5019 22.0341 39.1681 22.0566 38.8271L23.5385 27.6325C23.6512 27.2515 23.6836 26.8535 23.6358 26.4644ZM21.378 26.1942C21.4855 26.284 21.5711 26.4083 21.6181 26.5578C21.6683 26.7172 21.6711 26.8948 21.6207 27.0651C21.5911 27.1649 21.5694 27.2668 21.5558 27.37L20.0739 38.5646C20.0682 38.6081 20.0638 38.6518 20.0609 38.6956C20.0558 38.7739 20.0351 38.8511 20.0001 38.9218C19.9651 38.9925 19.9176 39.0535 19.8621 39.1017C19.8067 39.1499 19.7453 39.1839 19.6831 39.204C19.637 39.219 19.5907 39.2263 19.5457 39.2268C19.4053 39.1938 19.2764 39.1113 19.1828 38.9849C19.0764 38.8413 19.0221 38.6483 19.0486 38.4446C19.0651 38.3182 19.0695 38.1905 19.0616 38.0632L18.4961 28.8771C18.4584 28.2634 18.1404 27.7012 17.634 27.3526L8.86599 21.3169C8.78556 21.2615 8.70119 21.2121 8.61355 21.1691C8.41874 21.0734 8.25728 20.9004 8.17254 20.6724C8.09107 20.4533 8.08866 20.2027 8.17306 19.9703C8.47724 19.3131 8.8747 18.7052 9.35181 18.1665C9.36563 18.1509 9.37921 18.1351 9.39254 18.1191L9.39376 18.1176L9.40194 18.1078L9.43947 18.0633C9.47372 18.0228 9.52613 17.9613 9.59522 17.8813C9.73347 17.7212 9.93806 17.4877 10.1972 17.2014C10.7166 16.6275 11.4489 15.8488 12.3001 15.0283C14.0761 13.3165 16.1085 11.6828 17.7194 11.0929C17.7734 11.0731 17.8266 11.0509 17.8788 11.0265C18.9014 10.5483 20.0511 10.4992 21.0847 10.8767C21.1342 10.8948 21.1843 10.9109 21.2349 10.925C21.2521 12.8524 21.353 14.2481 21.4442 15.5087L21.4447 15.516C21.4807 16.0128 21.5143 16.4792 21.5418 16.9557C21.577 17.565 21.8885 18.1249 22.3876 18.4762L28.0433 22.4556C28.0104 22.5058 27.9635 22.574 27.9023 22.659C27.7622 22.8536 27.5781 23.0933 27.3832 23.332C27.2115 23.5423 27.0459 23.7344 26.9077 23.8837L20.4986 19.3203C20.4898 19.3049 20.4768 19.28 20.4604 19.2427C20.4285 19.1704 20.3924 19.0711 20.3503 18.9305C20.3074 18.7868 20.2677 18.6333 20.2173 18.4365C20.2138 18.4226 20.2101 18.4084 20.2064 18.3939C20.1303 18.0964 20.02 17.6653 19.857 17.2575C19.5959 16.6044 19.0108 16.1364 18.3163 16.0252C17.6217 15.9139 16.9198 16.1757 16.4677 16.7146C16.1384 17.1071 15.9692 17.2973 15.8464 17.4249C15.733 17.5428 15.6464 17.6212 15.4395 17.8062C15.2654 17.9619 15.0354 18.1675 14.7001 18.4828C14.264 18.8928 14.0345 19.4765 14.0745 20.0736C14.1146 20.6708 14.4199 21.2187 14.9067 21.5668L21.378 26.1942ZM20.5114 19.3408C20.5114 19.3408 20.5111 19.3403 20.5104 19.3393L20.5114 19.3408ZM26.7043 24.0899C26.6839 24.106 26.6834 24.1084 26.7043 24.0899C26.7045 24.0897 26.7041 24.0901 26.7043 24.0899Z" fill="#333333"/>
<path fill-rule="evenodd" clip-rule="evenodd" d="M40.2384 37.819C40.2388 37.819 40.2349 37.8231 40.2253 37.8312C40.2333 37.823 40.238 37.819 40.2384 37.819ZM38.5601 38.5C37.3832 38.1999 35.7956 38 34 38C32.2044 38 30.6168 38.1999 29.4399 38.5C30.6168 38.8001 32.2044 39 34 39C35.7956 39 37.3832 38.8001 38.5601 38.5ZM27.7616 37.819C27.762 37.819 27.7667 37.8231 27.7747 37.8313C27.7651 37.8232 27.7612 37.819 27.7616 37.819ZM27.7616 39.181C27.7612 39.181 27.7651 39.1768 27.7747 39.1687C27.7667 39.1769 27.762 39.181 27.7616 39.181ZM40.2253 39.1688C40.2349 39.1769 40.2388 39.181 40.2384 39.181C40.238 39.181 40.2333 39.177 40.2253 39.1688ZM34 41C38.4183 41 42 39.8807 42 38.5C42 37.1193 38.4183 36 34 36C29.5817 36 26 37.1193 26 38.5C26 39.8807 29.5817 41 34 41Z" fill="#333333"/>
<path d="M31.738 18.7932C31.738 19.3749 31.264 19.8466 30.6794 19.8466C30.0948 19.8466 29.6208 19.3749 29.6208 18.7932C29.6208 18.2114 30.0948 17.7397 30.6794 17.7397C31.264 17.7397 31.738 18.2114 31.738 18.7932Z" fill="#333333"/>
<path d="M33.8551 25.6403C33.8551 26.513 33.1442 27.2204 32.2673 27.2204C31.3903 27.2204 30.6794 26.513 30.6794 25.6403C30.6794 24.7676 31.3903 24.0602 32.2673 24.0602C33.1442 24.0602 33.8551 24.7676 33.8551 25.6403Z" fill="#333333"/>
<path d="M37.0308 28.2737C37.0308 28.8555 36.5569 29.3271 35.9723 29.3271C35.3876 29.3271 34.9137 28.8555 34.9137 28.2737C34.9137 27.692 35.3876 27.2203 35.9723 27.2203C36.5569 27.2203 37.0308 27.692 37.0308 28.2737Z" fill="#333333"/>
<path d="M32.7966 32.4874C32.7966 33.0691 32.3226 33.5408 31.738 33.5408C31.1534 33.5408 30.6794 33.0691 30.6794 32.4874C30.6794 31.9056 31.1534 31.434 31.738 31.434C32.3226 31.434 32.7966 31.9056 32.7966 32.4874Z" fill="#333333"/>
<path d="M39.148 35.1743C39.148 36.047 38.4371 36.7545 37.5601 36.7545C36.6832 36.7545 35.9723 36.047 35.9723 35.1743C35.9723 34.3017 36.6832 33.5942 37.5601 33.5942C38.4371 33.5942 39.148 34.3017 39.148 35.1743Z" fill="#333333"/>
</svg>
