<svg width="48" height="48" viewBox="0 0 48 48" fill="none" xmlns="http://www.w3.org/2000/svg">
<path d="M11.6292 18V23.8918C11.6292 24.5812 11.2741 25.222 10.6896 25.5876L9.12 26.569" stroke="#333333" stroke-width="2"/>
<path d="M15.6292 18V23.9139C15.6292 24.5913 15.972 25.2226 16.5402 25.5914L18.0736 26.5869" stroke="#333333" stroke-width="2"/>
<path d="M9.45794 19.063L10.2388 19.6877H10.2388L9.45794 19.063ZM10.6431 18.5L10.6345 19.5H10.6431V18.5ZM5.47782 24.0381L6.24471 24.6799L6.2518 24.6714L6.25869 24.6628L5.47782 24.0381ZM5.28293 24.3379L6.17986 24.78L6.18063 24.7785L5.28293 24.3379ZM5.12935 24.9766L6.12922 24.9929L6.12924 24.9915L5.12935 24.9766ZM5.26291 25.6198L6.17393 25.2074L6.17321 25.2058L5.26291 25.6198ZM5.44834 25.9255L6.24834 25.3255L6.24172 25.3166L6.2349 25.308L5.44834 25.9255ZM8.42924 29.9L7.62924 30.5H7.62924L8.42924 29.9ZM9.12927 30.4144H10.1293V29.7066L9.46168 29.4713L9.12927 30.4144ZM12.1293 33V32H11.1293V33H12.1293ZM15.1293 33H16.1293V32H15.1293V33ZM18.1293 30.4144L17.7968 29.4713L17.1293 29.7066V30.4144H18.1293ZM18.8292 29.9L18.0292 29.3L18.0292 29.3L18.8292 29.9ZM21.8102 25.9254L21.0236 25.3079L21.0168 25.3166L21.0102 25.3254L21.8102 25.9254ZM21.9956 25.6198L21.0853 25.2058L21.0845 25.2074L21.9956 25.6198ZM22.1291 24.9766L21.1292 24.9915L21.1293 24.9929L22.1291 24.9766ZM21.9755 24.3379L21.0778 24.7785L21.0786 24.78L21.9755 24.3379ZM21.7806 24.0381L20.9998 24.6628L21.0067 24.6714L21.0138 24.6799L21.7806 24.0381ZM17.8092 19.0738L17.023 19.6918L17.0284 19.6985L17.8092 19.0738ZM17.7605 19.015L17.0059 19.6711L17.0066 19.672L17.7605 19.015ZM17.2792 18.6477L16.8453 19.5487L16.8466 19.5493L17.2792 18.6477ZM16.6917 18.5013L16.6496 19.5004L16.6508 19.5004L16.6917 18.5013ZM16.6154 18.5V19.5L16.6239 19.5L16.6154 18.5ZM18.732 25.0296L19.532 25.6296L19.9968 25.0099L19.5129 24.4049L18.732 25.0296ZM18.1293 24.2762L18.9101 23.6515L17.1293 21.4254V24.2762H18.1293ZM18.1293 25.8333H17.1293V28.8333L18.9293 26.4333L18.1293 25.8333ZM8.52647 25.0296L7.7456 24.4049L7.26165 25.0099L7.72647 25.6296L8.52647 25.0296ZM9.12927 25.8334L8.32927 26.4334L10.1293 28.8334V25.8334H9.12927ZM9.12927 24.2761H10.1293V21.4254L8.3484 23.6514L9.12927 24.2761ZM16.6292 13C16.6292 14.6569 15.2861 16 13.6292 16V18C16.3907 18 18.6292 15.7614 18.6292 13H16.6292ZM13.6292 10C15.2861 10 16.6292 11.3431 16.6292 13H18.6292C18.6292 10.2386 16.3907 8 13.6292 8V10ZM10.6292 13C10.6292 11.3431 11.9724 10 13.6292 10V8C10.8678 8 8.62924 10.2386 8.62924 13H10.6292ZM13.6292 16C11.9724 16 10.6292 14.6569 10.6292 13H8.62924C8.62924 15.7614 10.8678 18 13.6292 18V16ZM10.2388 19.6877C10.3382 19.5634 10.4837 19.4987 10.6345 19.5L10.6517 17.5C9.91373 17.4937 9.17597 17.8146 8.67707 18.4383L10.2388 19.6877ZM6.25869 24.6628L10.2388 19.6877L8.67707 18.4383L4.69696 23.4134L6.25869 24.6628ZM6.18063 24.7785C6.19785 24.7434 6.21924 24.7103 6.24471 24.6799L4.71094 23.3963C4.58098 23.5516 4.4722 23.7201 4.38524 23.8973L6.18063 24.7785ZM6.12924 24.9915C6.13033 24.9182 6.14727 24.8462 6.17986 24.78L4.38601 23.8957C4.2191 24.2342 4.13487 24.599 4.12946 24.9617L6.12924 24.9915ZM6.17321 25.2058C6.1427 25.1387 6.12802 25.0662 6.12922 24.9929L4.12948 24.9602C4.12356 25.3229 4.19636 25.6901 4.35261 26.0337L6.17321 25.2058ZM6.2349 25.308C6.21038 25.2767 6.19004 25.243 6.17393 25.2074L4.35189 26.0321C4.43328 26.2119 4.53675 26.3837 4.66179 26.543L6.2349 25.308ZM9.22924 29.3L6.24834 25.3255L4.64834 26.5255L7.62924 30.5L9.22924 29.3ZM9.46168 29.4713C9.37238 29.4398 9.29161 29.3832 9.22924 29.3L7.62924 30.5C7.93597 30.909 8.34647 31.1988 8.79686 31.3575L9.46168 29.4713ZM10.1293 41V30.4144H8.12927V41H10.1293ZM10.6293 41.5C10.3531 41.5 10.1293 41.2761 10.1293 41H8.12927C8.12927 42.3807 9.24856 43.5 10.6293 43.5V41.5ZM11.1293 41C11.1293 41.2761 10.9054 41.5 10.6293 41.5V43.5C12.01 43.5 13.1293 42.3807 13.1293 41H11.1293ZM11.1293 33V41H13.1293V33H11.1293ZM15.1293 32H12.1293V34H15.1293V32ZM16.1293 41V33H14.1293V41H16.1293ZM16.6293 41.5C16.3531 41.5 16.1293 41.2761 16.1293 41H14.1293C14.1293 42.3807 15.2486 43.5 16.6293 43.5V41.5ZM17.1293 41C17.1293 41.2761 16.9054 41.5 16.6293 41.5V43.5C18.01 43.5 19.1293 42.3807 19.1293 41H17.1293ZM17.1293 30.4144V41H19.1293V30.4144H17.1293ZM18.4617 31.3575C18.9121 31.1987 19.3225 30.9089 19.6292 30.5L18.0292 29.3C17.9669 29.3832 17.8861 29.4398 17.7968 29.4713L18.4617 31.3575ZM19.6292 30.5L22.6102 26.5254L21.0102 25.3254L18.0292 29.3L19.6292 30.5ZM21.0845 25.2074C21.0684 25.243 21.0481 25.2767 21.0236 25.3079L22.5967 26.5429C22.7218 26.3837 22.8252 26.2119 22.9066 26.0321L21.0845 25.2074ZM22.9059 26.0337C23.0621 25.6901 23.1349 25.3229 23.129 24.9602L21.1293 24.9929C21.1305 25.0662 21.1158 25.1387 21.0853 25.2058L22.9059 26.0337ZM21.0786 24.78C21.1112 24.8461 21.1281 24.9182 21.1292 24.9915L23.129 24.9617C23.1236 24.599 23.0394 24.2342 22.8725 23.8957L21.0786 24.78ZM22.8732 23.8973C22.7863 23.7201 22.6775 23.5516 22.5475 23.3963L21.0138 24.6799C21.0392 24.7103 21.0606 24.7434 21.0778 24.7785L22.8732 23.8973ZM17.0284 19.6985L20.9998 24.6628L22.5615 23.4134L18.5901 18.4491L17.0284 19.6985ZM17.0066 19.672C17.0122 19.6784 17.0177 19.685 17.023 19.6918L18.5955 18.4559C18.5693 18.4226 18.5422 18.3899 18.5144 18.358L17.0066 19.672ZM16.8466 19.5493C16.9053 19.5775 16.9594 19.6177 17.0059 19.6711L18.5151 18.3588C18.286 18.0953 18.0112 17.8898 17.7117 17.7461L16.8466 19.5493ZM16.6508 19.5004C16.7215 19.5033 16.7867 19.5205 16.8453 19.5487L17.713 17.7467C17.4137 17.6026 17.0815 17.5164 16.7327 17.5021L16.6508 19.5004ZM16.6239 19.5C16.6325 19.4999 16.6411 19.5 16.6496 19.5004L16.7338 17.5022C16.6915 17.5004 16.6492 17.4997 16.6068 17.5L16.6239 19.5ZM10.6431 19.5H16.6154V17.5H10.6431V19.5ZM19.5129 24.4049L18.9101 23.6515L17.3484 24.9009L17.9511 25.6543L19.5129 24.4049ZM17.1293 24.2762V25.8333H19.1293V24.2762H17.1293ZM17.932 24.4296L17.3293 25.2333L18.9293 26.4333L19.532 25.6296L17.932 24.4296ZM7.72647 25.6296L8.32927 26.4334L9.92927 25.2334L9.32647 24.4296L7.72647 25.6296ZM8.3484 23.6514L7.7456 24.4049L9.30733 25.6543L9.91014 24.9008L8.3484 23.6514ZM10.1293 25.8334V24.2761H8.12927V25.8334H10.1293Z" fill="#333333"/>
<path fill-rule="evenodd" clip-rule="evenodd" d="M17.6292 24.834L15.6292 27.5006C14.8007 28.6052 15.0246 30.1722 16.1292 31.0006C17.2337 31.8291 18.8007 31.6052 19.6292 30.5006L22.2542 27.0006H19.7542L18.0292 29.3006C17.8635 29.5216 17.5501 29.5663 17.3292 29.4006C17.1083 29.235 17.0635 28.9216 17.2292 28.7006L18.5042 27.0006H17.6292V24.834Z" fill="#333333"/>
<path fill-rule="evenodd" clip-rule="evenodd" d="M9.6251 24.834L11.6251 27.5006C12.4535 28.6052 12.2297 30.1722 11.1251 31.0006C10.0205 31.8291 8.45352 31.6052 7.6251 30.5006L5.00003 27.0006H7.50003L9.2251 29.3006C9.39078 29.5216 9.70418 29.5663 9.9251 29.4006C10.146 29.235 10.1908 28.9216 10.0251 28.7006L8.75003 27.0006H9.6251V24.834Z" fill="#333333"/>
<path d="M8.62915 20V18C8.62915 16.8954 9.52458 16 10.6292 16V16" stroke="#333333" stroke-width="2"/>
<path d="M18.6292 20V18C18.6292 16.8954 17.7337 16 16.6292 16V16" stroke="#333333" stroke-width="2"/>
<path d="M32.6292 18V23.8918C32.6292 24.5812 32.2741 25.222 31.6896 25.5876L30.12 26.569" stroke="#333333" stroke-width="2"/>
<path d="M36.6292 18V23.9139C36.6292 24.5913 36.972 25.2226 37.5402 25.5914L39.0736 26.5869" stroke="#333333" stroke-width="2"/>
<path d="M30.4579 19.063L31.2388 19.6877H31.2388L30.4579 19.063ZM31.6431 18.5L31.6345 19.5H31.6431V18.5ZM26.4778 24.0381L27.2447 24.6799L27.2518 24.6714L27.2587 24.6628L26.4778 24.0381ZM26.2829 24.3379L27.1799 24.78L27.1806 24.7785L26.2829 24.3379ZM26.1294 24.9766L27.1292 24.9929L27.1292 24.9915L26.1294 24.9766ZM26.2629 25.6198L27.1739 25.2074L27.1732 25.2058L26.2629 25.6198ZM26.4483 25.9255L27.2483 25.3255L27.2417 25.3166L27.2349 25.308L26.4483 25.9255ZM29.3782 29.8319L30.3444 30.0896L30.4695 29.6204L30.1782 29.2319L29.3782 29.8319ZM28 35L27.0338 34.7423L26.6984 36H28V35ZM30.1293 35H31.1293V34H30.1293V35ZM33.1293 35V34H32.1293V35H33.1293ZM36.1293 35H37.1293V34H36.1293V35ZM39.1293 35V34H38.1293V35H39.1293ZM41 35V36H42.477L41.9285 34.6286L41 35ZM39.1611 30.4027L38.8075 29.4674L37.8541 29.8278L38.2326 30.7741L39.1611 30.4027ZM39.8292 29.9L39.0292 29.3L39.0292 29.3L39.8292 29.9ZM42.8102 25.9254L42.0236 25.3079L42.0168 25.3166L42.0102 25.3254L42.8102 25.9254ZM42.9956 25.6198L42.0853 25.2058L42.0845 25.2074L42.9956 25.6198ZM43.1291 24.9766L42.1292 24.9915L42.1293 24.9929L43.1291 24.9766ZM42.9755 24.3379L42.0778 24.7785L42.0786 24.78L42.9755 24.3379ZM42.7806 24.0381L41.9998 24.6628L42.0067 24.6714L42.0138 24.6799L42.7806 24.0381ZM38.8092 19.0738L38.023 19.6918L38.0284 19.6985L38.8092 19.0738ZM38.7605 19.015L38.0059 19.6711L38.0066 19.672L38.7605 19.015ZM38.2792 18.6477L37.8453 19.5487L37.8466 19.5493L38.2792 18.6477ZM37.6917 18.5013L37.6496 19.5004L37.6508 19.5004L37.6917 18.5013ZM37.6154 18.5V19.5L37.6239 19.5L37.6154 18.5ZM39.732 25.0296L40.532 25.6296L40.9968 25.0099L40.5129 24.4049L39.732 25.0296ZM39.1293 24.2762L39.9101 23.6515L38.1293 21.4254V24.2762H39.1293ZM39.1293 25.8333H38.1293V28.8333L39.9293 26.4333L39.1293 25.8333ZM29.5265 25.0296L28.7456 24.4049L28.2616 25.0099L28.7265 25.6296L29.5265 25.0296ZM30.1293 25.8334L29.3293 26.4334L31.1293 28.8334V25.8334H30.1293ZM30.1293 24.2761H31.1293V21.4254L29.3484 23.6514L30.1293 24.2761ZM37.6292 13C37.6292 14.6569 36.2861 16 34.6292 16V18C37.3907 18 39.6292 15.7614 39.6292 13H37.6292ZM34.6292 10C36.2861 10 37.6292 11.3431 37.6292 13H39.6292C39.6292 10.2386 37.3907 8 34.6292 8V10ZM31.6292 13C31.6292 11.3431 32.9724 10 34.6292 10V8C31.8678 8 29.6292 10.2386 29.6292 13H31.6292ZM34.6292 16C32.9724 16 31.6292 14.6569 31.6292 13H29.6292C29.6292 15.7614 31.8678 18 34.6292 18V16ZM31.2388 19.6877C31.3382 19.5634 31.4837 19.4987 31.6345 19.5L31.6517 17.5C30.9137 17.4937 30.176 17.8146 29.6771 18.4383L31.2388 19.6877ZM27.2587 24.6628L31.2388 19.6877L29.6771 18.4383L25.697 23.4134L27.2587 24.6628ZM27.1806 24.7785C27.1979 24.7434 27.2192 24.7103 27.2447 24.6799L25.7109 23.3963C25.581 23.5516 25.4722 23.7201 25.3852 23.8973L27.1806 24.7785ZM27.1292 24.9915C27.1303 24.9182 27.1473 24.8462 27.1799 24.78L25.386 23.8957C25.2191 24.2342 25.1349 24.599 25.1295 24.9617L27.1292 24.9915ZM27.1732 25.2058C27.1427 25.1387 27.128 25.0662 27.1292 24.9929L25.1295 24.9602C25.1236 25.3229 25.1964 25.6901 25.3526 26.0337L27.1732 25.2058ZM27.2349 25.308C27.2104 25.2767 27.19 25.243 27.1739 25.2074L25.3519 26.0321C25.4333 26.2119 25.5367 26.3837 25.6618 26.543L27.2349 25.308ZM30.1782 29.2319L27.2483 25.3255L25.6483 26.5255L28.5782 30.4319L30.1782 29.2319ZM28.9662 35.2577L30.3444 30.0896L28.4119 29.5742L27.0338 34.7423L28.9662 35.2577ZM30.1293 34H28V36H30.1293V34ZM31.1293 41V35H29.1293V41H31.1293ZM31.6293 41.5C31.3531 41.5 31.1293 41.2761 31.1293 41H29.1293C29.1293 42.3807 30.2486 43.5 31.6293 43.5V41.5ZM32.1293 41C32.1293 41.2761 31.9054 41.5 31.6293 41.5V43.5C33.01 43.5 34.1293 42.3807 34.1293 41H32.1293ZM32.1293 35V41H34.1293V35H32.1293ZM36.1293 34H33.1293V36H36.1293V34ZM37.1293 41V35H35.1293V41H37.1293ZM37.6293 41.5C37.3531 41.5 37.1293 41.2761 37.1293 41H35.1293C35.1293 42.3807 36.2486 43.5 37.6293 43.5V41.5ZM38.1293 41C38.1293 41.2761 37.9054 41.5 37.6293 41.5V43.5C39.01 43.5 40.1293 42.3807 40.1293 41H38.1293ZM38.1293 35V41H40.1293V35H38.1293ZM41 34H39.1293V36H41V34ZM38.2326 30.7741L40.0715 35.3714L41.9285 34.6286L40.0896 30.0314L38.2326 30.7741ZM39.5147 31.3381C39.9444 31.1757 40.3347 30.8927 40.6292 30.5L39.0292 29.3C38.9692 29.38 38.8924 29.4353 38.8075 29.4674L39.5147 31.3381ZM40.6292 30.5L43.6102 26.5254L42.0102 25.3254L39.0292 29.3L40.6292 30.5ZM42.0845 25.2074C42.0684 25.243 42.0481 25.2767 42.0236 25.3079L43.5967 26.5429C43.7218 26.3837 43.8252 26.2119 43.9066 26.0321L42.0845 25.2074ZM43.9059 26.0337C44.0621 25.6901 44.1349 25.3229 44.129 24.9602L42.1293 24.9929C42.1305 25.0662 42.1158 25.1387 42.0853 25.2058L43.9059 26.0337ZM42.0786 24.78C42.1112 24.8461 42.1281 24.9182 42.1292 24.9915L44.129 24.9617C44.1236 24.599 44.0394 24.2342 43.8725 23.8957L42.0786 24.78ZM43.8732 23.8973C43.7863 23.7201 43.6775 23.5516 43.5475 23.3963L42.0138 24.6799C42.0392 24.7103 42.0606 24.7434 42.0778 24.7785L43.8732 23.8973ZM38.0284 19.6985L41.9998 24.6628L43.5615 23.4134L39.5901 18.4491L38.0284 19.6985ZM38.0066 19.672C38.0122 19.6784 38.0177 19.685 38.023 19.6918L39.5955 18.4559C39.5693 18.4226 39.5422 18.3899 39.5144 18.358L38.0066 19.672ZM37.8466 19.5493C37.9053 19.5775 37.9594 19.6177 38.0059 19.6711L39.5151 18.3588C39.286 18.0953 39.0112 17.8898 38.7117 17.7461L37.8466 19.5493ZM37.6508 19.5004C37.7215 19.5033 37.7867 19.5205 37.8453 19.5487L38.713 17.7467C38.4137 17.6026 38.0815 17.5164 37.7327 17.5021L37.6508 19.5004ZM37.6239 19.5C37.6325 19.4999 37.6411 19.5 37.6496 19.5004L37.7338 17.5022C37.6915 17.5004 37.6492 17.4997 37.6068 17.5L37.6239 19.5ZM31.6431 19.5H37.6154V17.5H31.6431V19.5ZM40.5129 24.4049L39.9101 23.6515L38.3484 24.9009L38.9511 25.6543L40.5129 24.4049ZM38.1293 24.2762V25.8333H40.1293V24.2762H38.1293ZM38.932 24.4296L38.3293 25.2333L39.9293 26.4333L40.532 25.6296L38.932 24.4296ZM28.7265 25.6296L29.3293 26.4334L30.9293 25.2334L30.3265 24.4296L28.7265 25.6296ZM29.3484 23.6514L28.7456 24.4049L30.3073 25.6543L30.9101 24.9008L29.3484 23.6514ZM31.1293 25.8334V24.2761H29.1293V25.8334H31.1293Z" fill="#333333"/>
<path fill-rule="evenodd" clip-rule="evenodd" d="M38.6292 24.834L36.6292 27.5006C35.8007 28.6052 36.0246 30.1722 37.1292 31.0006C38.2337 31.8291 39.8007 31.6052 40.6292 30.5006L43.2542 27.0006H40.7542L39.0292 29.3006C38.8635 29.5216 38.5501 29.5663 38.3292 29.4006C38.1083 29.235 38.0635 28.9216 38.2292 28.7006L39.5042 27.0006H38.6292V24.834Z" fill="#333333"/>
<path fill-rule="evenodd" clip-rule="evenodd" d="M30.6251 24.834L32.6251 27.5006C33.4535 28.6052 33.2297 30.1722 32.1251 31.0006C31.0205 31.8291 29.4535 31.6052 28.6251 30.5006L26 27.0006H28.5L30.2251 29.3006C30.3908 29.5216 30.7042 29.5663 30.9251 29.4006C31.146 29.235 31.1908 28.9216 31.0251 28.7006L29.75 27.0006H30.6251V24.834Z" fill="#333333"/>
<path d="M29.6292 20V18C29.6292 16.8954 30.5246 16 31.6292 16V16" stroke="#333333" stroke-width="2"/>
<path d="M39.6292 20V18C39.6292 16.8954 38.7337 16 37.6292 16V16" stroke="#333333" stroke-width="2"/>
<path d="M38.6271 5.40545C38.6271 5.1078 38.2865 4.91179 37.9915 5.0399L34.6271 6.49996L37.9915 7.96016C38.2865 8.08813 38.6271 7.89226 38.6271 7.59447V5.40545Z" fill="#333333"/>
<path d="M31.2626 5.0399C30.9677 4.91179 30.6271 5.1078 30.6271 5.40545V7.59447C30.6271 7.89226 30.9677 8.08813 31.2626 7.96016L34.6271 6.49996L31.2626 5.0399Z" fill="#333333"/>
</svg>
