<svg width="48" height="48" viewBox="0 0 48 48" fill="none" xmlns="http://www.w3.org/2000/svg">
<path fill-rule="evenodd" clip-rule="evenodd" d="M12.488 17C11.1632 17 9.99521 17.869 9.61452 19.138L4.81452 35.138C4.23707 37.0628 5.67841 39 7.688 39H29.5119C30.8367 39 32.0047 38.131 32.3854 36.862L37.1053 21.1289L42.0636 34.3511C42.2575 34.8682 42.8339 35.1302 43.3511 34.9363C43.8682 34.7424 44.1302 34.166 43.9363 33.6489L37.6929 17H12.488ZM19.7574 32.9699C19.2216 32.8359 18.8959 32.293 19.0298 31.7572L19.7192 28.9995H16.9999C16.4477 28.9995 15.9999 28.5518 15.9999 27.9995C15.9999 27.4472 16.4477 26.9995 16.9999 26.9995H20.2192L21.0298 23.7572C21.1638 23.2214 21.7067 22.8957 22.2425 23.0296C22.7783 23.1636 23.104 23.7065 22.9701 24.2423L22.2808 26.9995H24.9999C25.5522 26.9995 25.9999 27.4472 25.9999 27.9995C25.9999 28.5518 25.5522 28.9995 24.9999 28.9995H21.7808L20.9701 32.2423C20.8361 32.7781 20.2932 33.1038 19.7574 32.9699Z" fill="#333333"/>
<path fill-rule="evenodd" clip-rule="evenodd" d="M37 19C36.4477 19 36 18.5523 36 18V11C36 10.4477 36.4477 10 37 10C37.5523 10 38 10.4477 38 11V18C38 18.5523 37.5523 19 37 19Z" fill="#333333"/>
<path d="M28 10C28 8.89543 28.8954 8 30 8H36C37.1046 8 38 8.89543 38 10V13C38 14.1046 37.1046 15 36 15H30C28.8954 15 28 14.1046 28 13V10Z" fill="#333333"/>
</svg>
