<svg width="48" height="48" viewBox="0 0 48 48" fill="none" xmlns="http://www.w3.org/2000/svg">
<path d="M18.8831 4.69719C19.2736 4.30667 19.9068 4.30667 20.2973 4.69719L23.8879 8.28778L27.4689 4.7068C27.8594 4.31628 28.4926 4.31628 28.8831 4.7068C29.2736 5.09733 29.2736 5.73049 28.8831 6.12102L25.3021 9.702L28.7826 13.1825C29.1731 13.573 29.1731 14.2062 28.7826 14.5967C28.3921 14.9872 27.7589 14.9872 27.3684 14.5967L23.8879 11.1162L20.3978 14.6063C20.0073 14.9968 19.3741 14.9968 18.9836 14.6063C18.5931 14.2158 18.5931 13.5826 18.9836 13.1921L22.4737 9.702L18.8831 6.1114C18.4926 5.72088 18.4926 5.08771 18.8831 4.69719Z" fill="#333333"/>
<path fill-rule="evenodd" clip-rule="evenodd" d="M23.8599 15.0513C24.0651 14.9829 24.287 14.9829 24.4922 15.0513L39.2704 19.9765C39.469 20.0336 39.6498 20.1521 39.7829 20.323L43.786 25.4612C43.9856 25.7173 44.0483 26.0544 43.9544 26.3652C43.8901 26.5779 43.7578 26.7602 43.582 26.887L28.1826 32.0159L24.9649 27.8858C24.7752 27.6424 24.4838 27.5001 24.1752 27.5004C23.8666 27.5007 23.5754 27.6434 23.3862 27.8871L20.1859 32.0093L4.74224 26.8577C4.58565 26.7329 4.46793 26.5621 4.40841 26.3652C4.31444 26.0544 4.37721 25.7173 4.57676 25.4612L8.50787 20.4154C8.62814 20.2191 8.81542 20.0652 9.04454 19.9889L23.8599 15.0513ZM35.8286 20.9376L24.1801 24.8197L12.5275 20.9362L24.176 17.0541L35.8286 20.9376Z" fill="#333333"/>
<path d="M28.1441 34.1368L39.9909 30.1911L39.9904 36.7628C39.9903 38.054 39.1641 39.2003 37.9391 39.6086L25.1761 43.863V31.4111L27.0392 33.8026C27.2995 34.1368 27.7422 34.2706 28.1441 34.1368Z" fill="#333333"/>
<path d="M23.1761 31.4191V43.863L10.4129 39.6086C9.18798 39.2003 8.36171 38.054 8.36162 36.7628L8.36119 30.1732L20.225 34.1306C20.6276 34.2649 21.0711 34.1305 21.3313 33.7953L23.1761 31.4191Z" fill="#333333"/>
</svg>
