<svg width="48" height="48" viewBox="0 0 48 48" fill="none" xmlns="http://www.w3.org/2000/svg">
<path fill-rule="evenodd" clip-rule="evenodd" d="M48 0H0V48H48V0ZM29 7C29 5.89543 29.8954 5 31 5H38C39.1046 5 40 5.89543 40 7V11H39V14.3431C39 15.1388 39.3161 15.9019 39.8787 16.4645L41.5355 18.1213C42.4732 19.059 43 20.3308 43 21.6569V37C43 39.7614 40.7614 42 38 42H31C30.4886 42 29.9951 41.9232 29.5304 41.7805C28.0938 43.1554 26.1455 44 24 44C21.4736 44 19.2207 42.8289 17.7546 41H7.14286H6V35H7V33.7071C7 32.9891 7.28521 32.3006 7.79289 31.7929C7.9255 31.6603 8 31.4804 8 31.2929V15.7071C8 15.5196 7.9255 15.3397 7.79289 15.2071C7.28521 14.6994 7 14.0109 7 13.2929V12H6V6H22V12H21V13.2929C21 14.0109 20.7148 14.6994 20.2071 15.2071C20.0745 15.3397 20 15.5196 20 15.7071V29.0703C21.1767 28.3896 22.5429 28 24 28C24.6906 28 25.3608 28.0875 26 28.252V21.6569C26 20.3308 26.5268 19.059 27.4645 18.1213L29.1213 16.4645C29.6839 15.9019 30 15.1388 30 14.3431V11H29V7ZM30.9611 39.9998C30.9508 39.9996 30.9405 39.9994 30.9302 39.9992C31.5919 38.855 31.9784 37.5317 31.9991 36.1198L33.4472 33.2236C33.5065 33.105 33.5163 32.9677 33.4743 32.8419L32.5721 30.135L33.1223 29.5848C33.3525 31.0056 33.8827 32 34.5 32C35.1173 32 35.6475 31.0056 35.8777 29.5848L36.4279 30.135L35.5257 32.8419C35.4837 32.9677 35.4935 33.105 35.5528 33.2236L37.0528 36.2236C37.1763 36.4706 37.4766 36.5707 37.7236 36.4472C37.9706 36.3237 38.0707 36.0234 37.9472 35.7764L36.5398 32.9616L37.4743 30.1581C37.4992 30.0836 37.5057 30.006 37.4952 29.9311L37.9295 30.2206L37.5149 31.8787C37.4637 32.0837 37.5468 32.2988 37.7227 32.416L39.2227 33.416C39.4524 33.5692 39.7629 33.5071 39.916 33.2774C40.0692 33.0476 40.0071 32.7372 39.7774 32.584L38.5705 31.7794L38.9851 30.1213C39.0363 29.9163 38.9532 29.7012 38.7774 29.584L37.8958 28.9963C39.8876 28.9157 40.1098 27.5502 39.9639 26.8571L36.4557 26.2514L37.3536 25.3536C37.4473 25.2598 37.5 25.1326 37.5 25V23.7071L38.8536 22.3536C39.0488 22.1583 39.0488 21.8417 38.8536 21.6464C38.6583 21.4512 38.3417 21.4512 38.1465 21.6464L36.6465 23.1464C36.5527 23.2402 36.5 23.3674 36.5 23.5V24.7929L35.6985 25.5944C35.5228 24.9726 35.2805 24.492 35 24.2276V21.5C35 21.2239 34.7761 21 34.5 21C34.2239 21 34 21.2239 34 21.5V24.2276C33.7195 24.492 33.4773 24.9726 33.3015 25.5944L32.5 24.7929V23.5C32.5 23.3674 32.4473 23.2402 32.3536 23.1464L30.8536 21.6464C30.6583 21.4512 30.3417 21.4512 30.1465 21.6464C29.9512 21.8417 29.9512 22.1583 30.1465 22.3536L31.5 23.7071V25C31.5 25.1326 31.5527 25.2598 31.6465 25.3536L32.5443 26.2514L29.0361 26.8571C28.8902 27.5502 29.1124 28.9156 31.1042 28.9963L30.2227 29.584C30.0468 29.7012 29.9637 29.9163 30.0149 30.1213L30.2298 30.9806C29.6121 30.215 28.8562 29.5656 28 29.0703V21.6569C28 20.8612 28.3161 20.0981 28.8787 19.5355L30.5355 17.8787C31.4732 16.941 32 15.6692 32 14.3431V11H37V14.3431C37 15.6692 37.5268 16.941 38.4645 17.8787L40.1213 19.5355C40.6839 20.0981 41 20.8612 41 21.6569V37C41 38.6569 39.6569 40 38 40H31C30.987 40 30.9741 39.9999 30.9611 39.9998ZM32.4602 32.9616L31.8105 34.261C31.6719 33.6359 31.4602 33.0383 31.1849 32.4777L31.2774 32.416C31.4532 32.2988 31.5363 32.0837 31.4851 31.8787L31.0705 30.2206L31.5048 29.9311C31.4943 30.006 31.5008 30.0836 31.5257 30.1581L32.4602 32.9616ZM18 30.7084C16.963 31.8832 16.2658 33.365 16.0619 35H15V37C15 37.5523 14.5523 38 14 38C13.4477 38 13 37.5523 13 37V35H12V37C12 37.5523 11.5523 38 11 38C10.4477 38 10 37.5523 10 37V35H9V33.7071C9 33.5196 9.0745 33.3397 9.20711 33.2071C9.71479 32.6994 10 32.0109 10 31.2929V15.7071C10 14.9891 9.71479 14.3006 9.20711 13.7929C9.0745 13.6603 9 13.4804 9 13.2929V12H10V10C10 9.44772 10.4477 9 11 9C11.5523 9 12 9.44772 12 10V12H13V10C13 9.44772 13.4477 9 14 9C14.5523 9 15 9.44772 15 10V12H16V10C16 9.44772 16.4477 9 17 9C17.5523 9 18 9.44772 18 10V12H19V13.2929C19 13.4804 18.9255 13.6603 18.7929 13.7929C18.2852 14.3006 18 14.9891 18 15.7071V30.7084ZM22 40V38H20V40H22ZM25 35V40H23V35H25ZM26 40H28V32H26V40Z" fill="#333333"/>
</svg>
