<svg width="48" height="48" viewBox="0 0 48 48" fill="none" xmlns="http://www.w3.org/2000/svg">
<g clip-path="url(#clip0)">
<path fill-rule="evenodd" clip-rule="evenodd" d="M48 -0.300781H0V47.6992H48V-0.300781ZM44.0523 23.3145C44.0523 34.3601 35.098 43.3145 24.0523 43.3145C13.0066 43.3145 4.05228 34.3601 4.05228 23.3145C4.05228 12.2688 13.0066 3.31445 24.0523 3.31445C35.098 3.31445 44.0523 12.2688 44.0523 23.3145ZM17.4437 19.7756C14.372 22.1494 10.9252 22.8358 9.74504 21.3086C8.5649 19.7815 10.0983 16.6192 13.1701 14.2454C16.2418 11.8716 19.6886 11.1852 20.8687 12.7124C22.0489 14.2395 20.5154 17.4018 17.4437 19.7756ZM35.6039 33.4016C36.5904 31.7677 34.7259 28.8344 31.4393 26.85C28.1527 24.8655 24.6886 24.5814 23.702 26.2153C22.7155 27.8493 24.58 30.7825 27.8666 32.767C31.1532 34.7514 34.6173 35.0356 35.6039 33.4016ZM32.4578 15.0031C34.1036 18.5215 34.0198 22.0369 32.2707 22.8552C30.5215 23.6734 27.7694 21.4845 26.1236 17.9662C24.4778 14.4479 24.5615 10.9324 26.3107 10.1142C28.0598 9.29595 30.812 11.4848 32.4578 15.0031ZM20.6556 37.9651C22.4201 37.0781 22.4041 33.482 20.62 29.9329C18.8359 26.3838 15.9592 24.2258 14.1948 25.1127C12.4304 25.9997 12.4463 29.5958 14.2304 33.1449C16.0145 36.694 18.8912 38.8521 20.6556 37.9651ZM14.6216 18.3906C14.6216 18.9429 14.1738 19.3906 13.6216 19.3906C13.0693 19.3906 12.6216 18.9429 12.6216 18.3906C12.6216 17.8383 13.0693 17.3906 13.6216 17.3906C14.1738 17.3906 14.6216 17.8383 14.6216 18.3906ZM15.9154 16.4844C16.1915 16.4844 16.4154 16.2605 16.4154 15.9844C16.4154 15.7082 16.1915 15.4844 15.9154 15.4844C15.6393 15.4844 15.4154 15.7082 15.4154 15.9844C15.4154 16.2605 15.6393 16.4844 15.9154 16.4844ZM16.1894 17.3906C16.1894 17.6668 15.9655 17.8906 15.6894 17.8906C15.4132 17.8906 15.1894 17.6668 15.1894 17.3906C15.1894 17.1145 15.4132 16.8906 15.6894 16.8906C15.9655 16.8906 16.1894 17.1145 16.1894 17.3906ZM17.7 15.777C18.0866 15.777 18.4 15.4636 18.4 15.077C18.4 14.6904 18.0866 14.377 17.7 14.377C17.3134 14.377 17 14.6904 17 15.077C17 15.4636 17.3134 15.777 17.7 15.777ZM32.4707 30.8984C32.4707 31.4507 32.023 31.8984 31.4707 31.8984C30.9184 31.8984 30.4707 31.4507 30.4707 30.8984C30.4707 30.3462 30.9184 29.8984 31.4707 29.8984C32.023 29.8984 32.4707 30.3462 32.4707 30.8984ZM30.0176 30.166C30.2679 30.166 30.4707 29.9631 30.4707 29.7129C30.4707 29.4626 30.2679 29.2598 30.0176 29.2598C29.7674 29.2598 29.5645 29.4626 29.5645 29.7129C29.5645 29.9631 29.7674 30.166 30.0176 30.166ZM27.3263 28.039C27.3263 28.2859 27.1261 28.4861 26.8792 28.4861C26.6322 28.4861 26.432 28.2859 26.432 28.039C26.432 27.792 26.6322 27.5918 26.8792 27.5918C27.1261 27.5918 27.3263 27.792 27.3263 28.039ZM28.3686 29.7121C28.7928 29.7121 29.1367 29.3682 29.1367 28.944C29.1367 28.5197 28.7928 28.1758 28.3686 28.1758C27.9443 28.1758 27.6004 28.5197 27.6004 28.944C27.6004 29.3682 27.9443 29.7121 28.3686 29.7121ZM30.353 16.0762C30.353 16.6285 29.9053 17.0762 29.353 17.0762C28.8007 17.0762 28.353 16.6285 28.353 16.0762C28.353 15.5239 28.8007 15.0762 29.353 15.0762C29.9053 15.0762 30.353 15.5239 30.353 16.0762ZM27.853 14.5957C28.1291 14.5957 28.353 14.3718 28.353 14.0957C28.353 13.8196 28.1291 13.5957 27.853 13.5957C27.5768 13.5957 27.353 13.8196 27.353 14.0957C27.353 14.3718 27.5768 14.5957 27.853 14.5957ZM30.9291 18.5496C30.9291 18.9362 30.6157 19.2496 30.2291 19.2496C29.8425 19.2496 29.5291 18.9362 29.5291 18.5496C29.5291 18.163 29.8425 17.8496 30.2291 17.8496C30.6157 17.8496 30.9291 18.163 30.9291 18.5496ZM17.5097 33.0195C18.062 33.0195 18.5097 32.5718 18.5097 32.0195C18.5097 31.4672 18.062 31.0195 17.5097 31.0195C16.9575 31.0195 16.5097 31.4672 16.5097 32.0195C16.5097 32.5718 16.9575 33.0195 17.5097 33.0195ZM17.8783 29.6699C17.8783 29.9202 17.6755 30.123 17.4252 30.123C17.175 30.123 16.9721 29.9202 16.9721 29.6699C16.9721 29.4197 17.175 29.2168 17.4252 29.2168C17.6755 29.2168 17.8783 29.4197 17.8783 29.6699ZM15.7198 29.127C15.9959 29.127 16.2198 28.9031 16.2198 28.627C16.2198 28.3508 15.9959 28.127 15.7198 28.127C15.4436 28.127 15.2198 28.3508 15.2198 28.627C15.2198 28.9031 15.4436 29.127 15.7198 29.127ZM19.6198 34.1355C19.6198 34.5221 19.3064 34.8355 18.9198 34.8355C18.5332 34.8355 18.2198 34.5221 18.2198 34.1355C18.2198 33.7489 18.5332 33.4355 18.9198 33.4355C19.3064 33.4355 19.6198 33.7489 19.6198 34.1355Z" fill="#333333"/>
</g>
<defs>
<clipPath id="clip0">
<rect width="48" height="48" fill="white"/>
</clipPath>
</defs>
</svg>
