<svg width="48" height="48" viewBox="0 0 48 48" fill="none" xmlns="http://www.w3.org/2000/svg">
<path fill-rule="evenodd" clip-rule="evenodd" d="M0 0H48V48H0V0ZM25.0001 5.96608C25.0001 5.41379 24.5524 4.96608 24.0001 4.96608C23.4478 4.96608 23.0001 5.41379 23.0001 5.96608V10.5556C22.677 10.9603 22.3933 11.5551 22.1689 12.2866L21.0432 11.1497V9.16307C21.0432 8.89958 20.9392 8.64673 20.7538 8.45949L18.3796 6.06158C17.991 5.66912 17.3579 5.66597 16.9654 6.05455C16.573 6.44313 16.5698 7.07629 16.9584 7.46875L19.0432 9.57438V11.561C19.0432 11.8245 19.1472 12.0773 19.3326 12.2646L20.0865 13.026L13.0691 14.2498C12.7813 15.6299 13.2417 18.3901 17.3855 18.3901C17.4625 18.3901 17.5385 18.3888 17.6133 18.3862L17.1105 18.7248C16.7922 18.9391 16.6246 19.3167 16.6792 19.6965L17.1647 23.0751L15.3111 24.3232C14.853 24.6316 14.7317 25.2531 15.0401 25.7112C15.3486 26.1693 15.97 26.2906 16.4281 25.9822L18.8023 24.3836C19.1207 24.1692 19.2882 23.7917 19.2337 23.4118L18.7481 20.0332L19.0769 19.8118C19.0819 19.8305 19.0875 19.8491 19.0936 19.8677L20.5528 24.2891L18.95 27.7632C16.9251 27.5659 15.1212 27.2544 13.6511 26.8623C12.3394 26.5126 11.35 26.1134 10.7121 25.7112C10.0242 25.2775 10 25.0121 10 25.0002V25V25C9.99998 24.9929 9.99972 24.9045 10.1637 24.7249C10.3344 24.5378 10.6326 24.3116 11.0965 24.0694C12.0224 23.5861 13.4189 23.1364 15.1964 22.7804L14.8036 20.8193C12.9377 21.1931 11.3343 21.6892 10.171 22.2964C9.59029 22.5996 9.0716 22.9547 8.68664 23.3764C8.29653 23.8037 8.00005 24.3513 8 25V25.0002V29.667C8 30.4684 8.43861 31.1053 9 31.5945V39.3078C9 40.3634 9.79461 41.1094 10.5711 41.5936C11.4003 42.1106 12.5337 42.5396 13.8455 42.8855C16.4838 43.5813 20.0736 44 24 44C27.9264 44 31.5162 43.5813 34.1545 42.8855C35.4663 42.5396 36.5997 42.1106 37.4289 41.5936C38.2054 41.1094 39 40.3634 39 39.3078V31.5945C39.5614 31.1053 40 30.4684 40 29.667V25.0002V25C40 24.3513 39.7035 23.8037 39.3134 23.3764C38.9284 22.9547 38.4097 22.5996 37.829 22.2964C36.6657 21.6892 35.0623 21.1931 33.1964 20.8193L32.8036 22.7804C34.5811 23.1364 35.9776 23.5861 36.9035 24.0694C37.3674 24.3116 37.6656 24.5378 37.8363 24.7249C38.0003 24.9045 38 24.9929 38 25V25V25.0002C38 25.0121 37.9758 25.2775 37.2879 25.7112C36.65 26.1134 35.6606 26.5126 34.3489 26.8623C32.8788 27.2544 31.075 27.5659 29.05 27.7632L27.4474 24.2892L28.9067 19.8677C28.9128 19.8491 28.9183 19.8305 28.9233 19.8118L29.2521 20.0332L28.7664 23.4118C28.7117 23.7916 28.8793 24.1692 29.1977 24.3836L31.5719 25.9822C32.03 26.2906 32.6514 26.1693 32.9599 25.7112C33.2683 25.2531 33.147 24.6316 32.6889 24.3232L30.8353 23.0751L31.3211 19.6966C31.3757 19.3167 31.2081 18.9391 30.8898 18.7248L30.3869 18.3862C30.4617 18.3888 30.5376 18.3901 30.6145 18.3901C34.7583 18.3901 35.2187 15.6299 34.9309 14.2498L27.9137 13.026L28.6676 12.2646C28.853 12.0773 28.957 11.8245 28.957 11.561V9.57438L31.0418 7.46875C31.4304 7.07629 31.4273 6.44313 31.0348 6.05455C30.6424 5.66597 30.0092 5.66912 29.6206 6.06158L27.2464 8.45949C27.061 8.64673 26.957 8.89958 26.957 9.16307V11.1497L25.8313 12.2867C25.6069 11.5552 25.3232 10.9604 25.0001 10.5557V5.96608ZM26.9212 27.9229L25.4662 24.769C25.3601 24.539 25.3452 24.2772 25.4246 24.0367L26.8154 19.8226L26.1384 19.1388C25.7543 21.2768 24.9411 22.7513 24.0001 22.7513C23.059 22.7513 22.2459 21.2768 21.8617 19.1389L21.1848 19.8226L22.5756 24.0367C22.655 24.2772 22.6401 24.539 22.534 24.769L21.0789 27.9229C22.021 27.9735 22.9978 28.0002 24 28.0002C25.0023 28.0002 25.9791 27.9735 26.9212 27.9229ZM34.8643 28.7948C36.0872 28.4687 37.1614 28.0752 38 27.612V29.667C38 29.6789 37.9758 29.9444 37.2879 30.3781C36.65 30.7802 35.6606 31.1794 34.3489 31.5292C31.7403 32.2248 28.081 32.667 24 32.667C19.919 32.667 16.2597 32.2248 13.6511 31.5292C12.3394 31.1794 11.35 30.7802 10.7121 30.3781C10.0242 29.9444 10 29.6789 10 29.667V27.612C10.8386 28.0752 11.9128 28.4687 13.1357 28.7948C15.956 29.5469 19.7967 30.0002 24 30.0002C28.2033 30.0002 32.044 29.5469 34.8643 28.7948ZM34.8643 33.4617C35.6441 33.2537 36.3636 33.0183 37 32.7549V39.3044L36.9999 39.3041L36.9994 39.3059C36.9934 39.3279 36.9349 39.5446 36.3707 39.8964C35.7831 40.2628 34.8662 40.6294 33.6445 40.9516C31.2158 41.5922 27.8056 42 24 42C20.1944 42 16.7842 41.5922 14.3555 40.9516C13.1338 40.6294 12.2169 40.2628 11.6293 39.8964C11.065 39.5446 11.0066 39.3279 11.0006 39.3059L11.0001 39.3041L11 39.3044V32.7549C11.6364 33.0183 12.3558 33.2537 13.1357 33.4617C15.956 34.2137 19.7967 34.667 24 34.667C28.2033 34.667 32.044 34.2137 34.8643 33.4617Z" fill="#333333"/>
</svg>
