<svg width="48" height="48" viewBox="0 0 48 48" fill="none" xmlns="http://www.w3.org/2000/svg">
<g clip-path="url(#clip0)">
<path d="M40 22.1532C41.1046 22.1532 42 23.0486 42 24.1532C42 25.2578 41.1046 26.1532 40 26.1532C38.8954 26.1532 38 25.2578 38 24.1532C38 23.0486 38.8954 22.1532 40 22.1532Z" fill="#333333"/>
<path d="M36 23.2743C36.5523 23.2743 37 23.722 37 24.2743C37 24.8266 36.5523 25.2743 36 25.2743C35.4477 25.2743 35 24.8266 35 24.2743C35 23.722 35.4477 23.2743 36 23.2743Z" fill="#333333"/>
<path fill-rule="evenodd" clip-rule="evenodd" d="M29.5524 22.1532L10 22.1532C8.89543 22.1532 8 23.0486 8 24.1532C8 25.2578 8.89543 26.1532 10 26.1532L29.5524 26.1532C30.6569 26.1532 31.5524 25.2578 31.5524 24.1532C31.5524 23.0486 30.6569 22.1532 29.5524 22.1532ZM6 24.1532C6 26.3623 7.79086 28.1532 10 28.1532L29.5524 28.1532C31.7615 28.1532 33.5524 26.3623 33.5524 24.1532C33.5524 21.9441 31.7615 20.1532 29.5524 20.1532L10 20.1532C7.79086 20.1532 6 21.9441 6 24.1532Z" fill="#333333"/>
<path fill-rule="evenodd" clip-rule="evenodd" d="M20.8037 22.1532L20.8037 26.1532L18.8037 26.1532L18.8037 22.1532L20.8037 22.1532Z" fill="#333333"/>
<path fill-rule="evenodd" clip-rule="evenodd" d="M0 0.000854492H48V48.0009H0V0.000854492ZM2.49759 18.1512C2.49759 17.0467 3.39302 16.1512 4.49759 16.1512H43.5024C44.607 16.1512 45.5024 17.0467 45.5024 18.1512V30.1512C45.5024 31.2558 44.607 32.1512 43.5024 32.1512H4.49759C3.39302 32.1512 2.49759 31.2558 2.49759 30.1512V18.1512ZM12.2524 14.0702C11.6539 14.5927 10.9509 14.9062 9.88691 14.9062C7.92991 14.9062 6.47641 13.3957 6.47641 11.4862V11.4672C6.47641 9.5767 7.90141 8.0282 9.94391 8.0282C10.9414 8.0282 11.6159 8.2942 12.1669 8.7027C12.3189 8.8167 12.4519 9.0257 12.4519 9.2822C12.4519 9.6812 12.1289 9.9947 11.7299 9.9947C11.5304 9.9947 11.3974 9.9187 11.2929 9.8522C10.8844 9.5482 10.4569 9.3772 9.93441 9.3772C8.81341 9.3772 8.00591 10.3082 8.00591 11.4482V11.4672C8.00591 12.6072 8.79441 13.5572 9.93441 13.5572C10.5519 13.5572 10.9604 13.3672 11.3784 13.0347C11.4924 12.9397 11.6444 12.8732 11.8154 12.8732C12.1859 12.8732 12.4994 13.1772 12.4994 13.5477C12.4994 13.7757 12.3854 13.9562 12.2524 14.0702ZM33.632 14.1245C33.632 14.5235 33.955 14.8465 34.354 14.8465C34.753 14.8465 35.076 14.5235 35.076 14.1245V10.9325H35.684C36.0165 10.9325 36.2825 10.676 36.2825 10.3435C36.2825 10.011 36.0165 9.75446 35.684 9.75446H35.057V9.55496C35.057 9.17496 35.247 9.00396 35.5795 9.00396H35.703C36.026 9.00396 36.292 8.72846 36.292 8.40546C36.292 8.08246 36.045 7.86396 35.798 7.82596C35.6365 7.79746 35.437 7.78796 35.209 7.78796C34.696 7.78796 34.3065 7.92096 34.0405 8.18696C33.7745 8.45296 33.632 8.86146 33.632 9.42196V9.74496H33.575C33.2425 9.74496 32.9765 10.011 32.9765 10.3435C32.9765 10.676 33.2425 10.9325 33.575 10.9325H33.632V14.1245ZM27.3371 14.115C27.3371 14.5235 27.6601 14.8465 28.0686 14.8465C28.4771 14.8465 28.8001 14.5235 28.8001 14.115V12.7945H29.9116C31.4031 12.7945 32.6001 11.9965 32.6001 10.4575V10.4385C32.6001 9.07996 31.6406 8.13946 30.0541 8.13946H28.0686C27.6601 8.13946 27.3371 8.46246 27.3371 8.87096V14.115ZM28.8001 11.493V9.45996H29.9306C30.6621 9.45996 31.1181 9.81146 31.1181 10.467V10.486C31.1181 11.056 30.6906 11.493 29.9591 11.493H28.8001ZM15.1184 40.1629C14.7099 40.1629 14.3869 39.8399 14.3869 39.4314V34.1874C14.3869 33.7789 14.7099 33.4559 15.1184 33.4559H17.1039C18.6904 33.4559 19.6499 34.3964 19.6499 35.7549V35.7739C19.6499 37.3129 18.4529 38.1109 16.9614 38.1109H15.8499V39.4314C15.8499 39.8399 15.5269 40.1629 15.1184 40.1629ZM15.8499 34.7764V36.8094H17.0089C17.7404 36.8094 18.1679 36.3724 18.1679 35.8024V35.7834C18.1679 35.1279 17.7119 34.7764 16.9804 34.7764H15.8499ZM24.9484 35.9829L23.3904 39.5834C23.2289 39.9539 22.9629 40.2104 22.5734 40.2104H22.4974C22.1079 40.2104 21.8419 39.9634 21.6804 39.5834L20.1224 35.9829C20.0844 35.8879 20.0464 35.7644 20.0464 35.6314C20.0464 35.2894 20.3599 34.9569 20.7494 34.9569C21.1389 34.9569 21.3479 35.1754 21.4524 35.4699L22.5449 38.4244L23.6564 35.4509C23.7514 35.2039 23.9509 34.9569 24.3309 34.9569C24.7109 34.9569 25.0244 35.2514 25.0244 35.6409C25.0244 35.7644 24.9769 35.9164 24.9484 35.9829Z" fill="#333333"/>
</g>
<defs>
<clipPath id="clip0">
<rect width="48" height="48" fill="white"/>
</clipPath>
</defs>
</svg>
