<svg width="48" height="48" viewBox="0 0 48 48" fill="none" xmlns="http://www.w3.org/2000/svg">
<path d="M40 22.1536C41.1046 22.1536 42 23.049 42 24.1536C42 25.2581 41.1046 26.1536 40 26.1536C38.8954 26.1536 38 25.2581 38 24.1536C38 23.049 38.8954 22.1536 40 22.1536Z" fill="#333333"/>
<path d="M36 23.2747C36.5523 23.2747 37 23.7224 37 24.2747C37 24.8269 36.5523 25.2747 36 25.2747C35.4477 25.2747 35 24.8269 35 24.2747C35 23.7224 35.4477 23.2747 36 23.2747Z" fill="#333333"/>
<path fill-rule="evenodd" clip-rule="evenodd" d="M29.5524 22.1536L10 22.1536C8.89543 22.1536 8 23.049 8 24.1536C8 25.2581 8.89543 26.1536 10 26.1536L29.5524 26.1536C30.6569 26.1536 31.5524 25.2581 31.5524 24.1536C31.5524 23.049 30.6569 22.1536 29.5524 22.1536ZM6 24.1536C6 26.3627 7.79086 28.1536 10 28.1536L29.5524 28.1536C31.7615 28.1536 33.5524 26.3627 33.5524 24.1536C33.5524 21.9444 31.7615 20.1536 29.5524 20.1536L10 20.1536C7.79086 20.1536 6 21.9444 6 24.1536Z" fill="#333333"/>
<path fill-rule="evenodd" clip-rule="evenodd" d="M28.6074 22.1536L28.6074 26.1536L26.6074 26.1536L26.6074 22.1536L28.6074 22.1536Z" fill="#333333"/>
<path fill-rule="evenodd" clip-rule="evenodd" d="M20.8037 22.1536L20.8037 26.1536L18.8037 26.1536L18.8037 22.1536L20.8037 22.1536Z" fill="#333333"/>
<path fill-rule="evenodd" clip-rule="evenodd" d="M12.9922 22.1536L12.9922 26.1536L10.9922 26.1536L10.9922 22.1536L12.9922 22.1536Z" fill="#333333"/>
<path fill-rule="evenodd" clip-rule="evenodd" d="M0 0H48V48H0V0ZM2.49759 24.1523C2.49759 19.7341 6.07931 16.1523 10.4976 16.1523H37.5024C41.9207 16.1523 45.5024 19.7341 45.5024 24.1523C45.5024 28.5706 41.9207 32.1523 37.5024 32.1523H10.4976C6.0793 32.1523 2.49759 28.5706 2.49759 24.1523ZM12.2524 14.0693C11.6539 14.5918 10.9509 14.9053 9.88691 14.9053C7.92991 14.9053 6.47641 13.3948 6.47641 11.4853V11.4663C6.47641 9.57584 7.90141 8.02734 9.94391 8.02734C10.9414 8.02734 11.6159 8.29334 12.1669 8.70184C12.3189 8.81584 12.4519 9.02484 12.4519 9.28134C12.4519 9.68034 12.1289 9.99384 11.7299 9.99384C11.5304 9.99384 11.3974 9.91784 11.2929 9.85134C10.8844 9.54734 10.4569 9.37634 9.93441 9.37634C8.81341 9.37634 8.00591 10.3073 8.00591 11.4473V11.4663C8.00591 12.6063 8.79441 13.5563 9.93441 13.5563C10.5519 13.5563 10.9604 13.3663 11.3784 13.0338C11.4924 12.9388 11.6444 12.8723 11.8154 12.8723C12.1859 12.8723 12.4994 13.1763 12.4994 13.5468C12.4994 13.7748 12.3854 13.9553 12.2524 14.0693ZM33.632 14.1236C33.632 14.5226 33.955 14.8456 34.354 14.8456C34.753 14.8456 35.076 14.5226 35.076 14.1236V10.9316H35.684C36.0165 10.9316 36.2825 10.6751 36.2825 10.3426C36.2825 10.0101 36.0165 9.75361 35.684 9.75361H35.057V9.55411C35.057 9.17411 35.247 9.00311 35.5795 9.00311H35.703C36.026 9.00311 36.292 8.72761 36.292 8.40461C36.292 8.08161 36.045 7.86311 35.798 7.82511C35.6365 7.79661 35.437 7.78711 35.209 7.78711C34.696 7.78711 34.3065 7.92011 34.0405 8.18611C33.7745 8.45211 33.632 8.86061 33.632 9.42111V9.74411H33.575C33.2425 9.74411 32.9765 10.0101 32.9765 10.3426C32.9765 10.6751 33.2425 10.9316 33.575 10.9316H33.632V14.1236ZM27.3371 14.1141C27.3371 14.5226 27.6601 14.8456 28.0686 14.8456C28.4771 14.8456 28.8001 14.5226 28.8001 14.1141V12.7936H29.9116C31.4031 12.7936 32.6001 11.9956 32.6001 10.4566V10.4376C32.6001 9.07911 31.6406 8.13861 30.0541 8.13861H28.0686C27.6601 8.13861 27.3371 8.46161 27.3371 8.87011V14.1141ZM28.8001 11.4921V9.45911H29.9306C30.6621 9.45911 31.1181 9.81061 31.1181 10.4661V10.4851C31.1181 11.0551 30.6906 11.4921 29.9591 11.4921H28.8001ZM15.1184 40.164C14.7099 40.164 14.3869 39.841 14.3869 39.4325V34.1885C14.3869 33.78 14.7099 33.457 15.1184 33.457H17.1039C18.6904 33.457 19.6499 34.3975 19.6499 35.756V35.775C19.6499 37.314 18.4529 38.112 16.9614 38.112H15.8499V39.4325C15.8499 39.841 15.5269 40.164 15.1184 40.164ZM15.8499 34.7775V36.8105H17.0089C17.7404 36.8105 18.1679 36.3735 18.1679 35.8035V35.7845C18.1679 35.129 17.7119 34.7775 16.9804 34.7775H15.8499ZM24.9484 35.984L23.3904 39.5845C23.2289 39.955 22.9629 40.2115 22.5734 40.2115H22.4974C22.1079 40.2115 21.8419 39.9645 21.6804 39.5845L20.1224 35.984C20.0844 35.889 20.0464 35.7655 20.0464 35.6325C20.0464 35.2905 20.3599 34.958 20.7494 34.958C21.1389 34.958 21.3479 35.1765 21.4524 35.471L22.5449 38.4255L23.6564 35.452C23.7514 35.205 23.9509 34.958 24.3309 34.958C24.7109 34.958 25.0244 35.2525 25.0244 35.642C25.0244 35.7655 24.9769 35.9175 24.9484 35.984Z" fill="#333333"/>
</svg>
