<svg width="48" height="48" viewBox="0 0 48 48" fill="none" xmlns="http://www.w3.org/2000/svg">
<path fill-rule="evenodd" clip-rule="evenodd" d="M48 0H0V48H48V0ZM12.485 3C11.3805 3 10.485 3.89543 10.485 5V43C10.485 44.1046 11.3805 45 12.485 45H24.485C25.5896 45 26.485 44.1046 26.485 43V5C26.485 3.89543 25.5896 3 24.485 3H12.485ZM32.1935 34.6806C33.5941 34.6806 34.5774 33.9569 34.5774 32.6671V32.6486C34.5774 31.5166 33.8353 31.0434 32.5182 30.7001C31.3958 30.4124 31.1176 30.2733 31.1176 29.8464V29.8279C31.1176 29.5124 31.4051 29.2619 31.9524 29.2619C32.3976 29.2619 32.8428 29.4196 33.3159 29.698C33.4272 29.7629 33.5385 29.8 33.6776 29.8C34.0487 29.8 34.3455 29.5124 34.3455 29.1413C34.3455 28.8629 34.1878 28.6681 34.0301 28.5753C33.4457 28.2041 32.7593 28 31.9709 28C30.6445 28 29.6984 28.7794 29.6984 29.9578V29.9763C29.6984 31.2661 30.5425 31.6279 31.8503 31.962C32.9356 32.2403 33.1582 32.4259 33.1582 32.7878V32.8063C33.1582 33.1867 32.8057 33.4187 32.2214 33.4187C31.5906 33.4187 31.0526 33.196 30.561 32.8342C30.4683 32.7692 30.3384 32.7043 30.1529 32.7043C29.7819 32.7043 29.485 32.9919 29.485 33.363C29.485 33.5857 29.5964 33.7898 29.754 33.9012C30.4775 34.4208 31.3402 34.6806 32.1935 34.6806ZM37.0082 34.3672C36.7282 34.3672 36.5016 34.1298 36.5016 33.8365V30.4566L36.1416 30.5543C36.0882 30.5683 36.0149 30.5823 35.9616 30.5823C35.7216 30.5823 35.5149 30.3728 35.5149 30.1214C35.5149 29.9049 35.6482 29.7233 35.8549 29.6605L36.5149 29.458C36.7082 29.4021 36.8549 29.3672 36.9949 29.3672H37.0082C37.2882 29.3672 37.5149 29.6046 37.5149 29.8979V33.8365C37.5149 34.1298 37.2882 34.3672 37.0082 34.3672ZM32.1935 43.3603C33.5941 43.3603 34.5774 42.6366 34.5774 41.3468V41.3283C34.5774 40.1963 33.8353 39.7231 32.5182 39.3798C31.3958 39.0921 31.1176 38.9529 31.1176 38.5261V38.5076C31.1176 38.1921 31.4051 37.9416 31.9524 37.9416C32.3976 37.9416 32.8428 38.0993 33.3159 38.3777C33.4272 38.4426 33.5385 38.4797 33.6776 38.4797C34.0487 38.4797 34.3455 38.1921 34.3455 37.821C34.3455 37.5426 34.1878 37.3477 34.0301 37.255C33.4457 36.8838 32.7593 36.6797 31.9709 36.6797C30.6445 36.6797 29.6984 37.4591 29.6984 38.6375V38.656C29.6984 39.9458 30.5425 40.3076 31.8503 40.6417C32.9356 40.92 33.1582 41.1056 33.1582 41.4674V41.486C33.1582 41.8664 32.8057 42.0984 32.2214 42.0984C31.5906 42.0984 31.0526 41.8757 30.561 41.5138C30.4683 41.4489 30.3384 41.3839 30.1529 41.3839C29.7819 41.3839 29.485 41.6716 29.485 42.0427C29.485 42.2654 29.5964 42.4695 29.754 42.5809C30.4775 43.1005 31.3402 43.3603 32.1935 43.3603ZM32.2306 24.121C31.8318 24.121 31.5164 23.8055 31.5164 23.4066V18.8879H30.1436C29.7819 18.8879 29.485 18.591 29.485 18.2291C29.485 17.8672 29.7819 17.5703 30.1436 17.5703H34.3176C34.6794 17.5703 34.9762 17.8672 34.9762 18.2291C34.9762 18.591 34.6794 18.8879 34.3176 18.8879H32.9449V23.4066C32.9449 23.8055 32.6295 24.121 32.2306 24.121ZM32.815 15.5712C33.8539 15.5712 34.5403 15.265 35.1246 14.7547C35.2545 14.6434 35.3658 14.4671 35.3658 14.2444C35.3658 13.8825 35.0597 13.5856 34.6979 13.5856C34.531 13.5856 34.3826 13.6506 34.2713 13.7433C33.8631 14.0681 33.4643 14.2537 32.8614 14.2537C31.7483 14.2537 30.9784 13.3258 30.9784 12.2124V12.1938C30.9784 11.0804 31.7668 10.1711 32.8614 10.1711C33.3715 10.1711 33.7889 10.3381 34.1878 10.635C34.2898 10.7 34.4197 10.7742 34.6145 10.7742C35.004 10.7742 35.3194 10.468 35.3194 10.0783C35.3194 9.82777 35.1896 9.62364 35.0411 9.5123C34.5032 9.11332 33.8446 8.85352 32.8706 8.85352C30.8764 8.85352 29.485 10.3659 29.485 12.2124V12.2309C29.485 14.0959 30.9042 15.5712 32.815 15.5712ZM20.485 13V11C20.485 9.89543 19.5896 9 18.485 9C17.3805 9 16.485 9.89543 16.485 11V13H20.485ZM22.485 13V15V21V23V25C22.485 27.2091 20.6942 29 18.485 29C16.2759 29 14.485 27.2091 14.485 25V23V21V15V13V11C14.485 8.79086 16.2759 7 18.485 7C20.6942 7 22.485 8.79086 22.485 11V13ZM20.485 15V21H16.485V15H20.485ZM16.485 25V23H20.485V25C20.485 26.1046 19.5896 27 18.485 27C17.3805 27 16.485 26.1046 16.485 25ZM18.485 30.1133C17.3805 30.1133 16.485 31.0087 16.485 32.1133C16.485 33.2178 17.3805 34.1133 18.485 34.1133C19.5896 34.1133 20.485 33.2178 20.485 32.1133C20.485 31.0087 19.5896 30.1133 18.485 30.1133ZM18.485 41.0195C20.1419 41.0195 21.485 39.6764 21.485 38.0195C21.485 36.3627 20.1419 35.0195 18.485 35.0195C16.8282 35.0195 15.485 36.3627 15.485 38.0195C15.485 39.6764 16.8282 41.0195 18.485 41.0195Z" fill="#333333"/>
</svg>
