<svg width="48" height="48" viewBox="0 0 48 48" fill="none" xmlns="http://www.w3.org/2000/svg">
<path fill-rule="evenodd" clip-rule="evenodd" d="M48 0H0V48H48V0ZM7.31429 10.9429H7V7H17.5143V10.9429H17.2V11.7925C17.2 12.3552 16.9765 12.8949 16.5785 13.2928C16.5557 13.3157 16.5429 13.3466 16.5429 13.379V23.621C16.5429 23.6534 16.5557 23.6843 16.5785 23.7072C16.9765 24.1051 17.2 24.6448 17.2 25.2075V26.0571H17.5143V30H16.7633H7.75102H7V26.0571H7.31429V25.2075C7.31429 24.6448 7.53783 24.1051 7.93575 23.7072C7.95859 23.6843 7.97143 23.6534 7.97143 23.621V13.379C7.97143 13.3466 7.95859 13.3157 7.93575 13.2928C7.53783 12.8949 7.31429 12.3552 7.31429 11.7925V10.9429ZM15.2 25.2075V26.0571H9.31429V25.2075C9.31429 25.1752 9.32712 25.1442 9.34996 25.1214C9.74788 24.7235 9.97143 24.1838 9.97143 23.621V13.379C9.97143 12.8162 9.74788 12.2765 9.34996 11.8786C9.32712 11.8558 9.31429 11.8248 9.31429 11.7925V10.9429H15.2V11.7925C15.2 11.8248 15.1872 11.8558 15.1643 11.8786C14.7664 12.2765 14.5429 12.8162 14.5429 13.379V23.621C14.5429 24.1838 14.7664 24.7235 15.1643 25.1214C15.1872 25.1442 15.2 25.1752 15.2 25.2075ZM31 11V10H32C32.5523 10 33 9.55228 33 9V7C33 6.44772 32.5523 6 32 6H28C27.4477 6 27 6.44772 27 7V9C27 9.55228 27.4477 10 28 10H29V11H25.5C25.2239 11 25 11.2239 25 11.5C25 11.7761 25.2239 12 25.5 12H26.2269C25.8254 12 25.5 12.3254 25.5 12.7269C25.5 12.903 25.4361 13.073 25.3202 13.2055L22.4948 16.4345C22.1758 16.799 22 17.267 22 17.7515V40C22 40.5523 22.4477 41 23 41H37C37.5523 41 38 40.5523 38 40V17.7515C38 17.267 37.8242 16.799 37.5052 16.4345L34.6798 13.2055C34.5639 13.073 34.5 12.903 34.5 12.7269C34.5 12.3254 34.1746 12 33.7731 12H34.5C34.7761 12 35 11.7761 35 11.5C35 11.2239 34.7761 11 34.5 11H31ZM31 8C31 8.55228 30.5523 9 30 9C29.4477 9 29 8.55228 29 8C29 7.44772 29.4477 7 30 7C30.5523 7 31 7.44772 31 8ZM36 27C36 23.6863 33.3137 21 30 21C26.6863 21 24 23.6863 24 27C24 30.3137 26.6863 33 30 33C33.3137 33 36 30.3137 36 27ZM34.5 27C34.5 24.5147 32.4853 22.5 30 22.5C29.0281 22.5 28.1282 22.8081 27.3926 23.3319L33.6681 29.6074C34.1919 28.8718 34.5 27.9719 34.5 27ZM25.5 27C25.5 26.0281 25.8081 25.1282 26.3319 24.3926L32.6074 30.6681C31.8718 31.1919 30.9719 31.5 30 31.5C27.5147 31.5 25.5 29.4853 25.5 27ZM16 41C19.5 41 20 40.3284 20 39.5C20 39.2168 19.4253 38.773 18.5254 38.4416C18.7296 38.1048 18.6868 37.658 18.3924 37.3664L17.7214 36.702L19.9713 36.8746C20.1778 36.8905 20.3581 36.7359 20.3739 36.5294C20.3897 36.3229 20.2352 36.1427 20.0287 36.1268L17.4395 35.9282C16.8595 35.8837 16.5385 36.5861 16.9519 36.9954L17.8647 37.8993C17.9153 37.9495 17.9138 38.0317 17.8615 38.08L17.7287 38.2026C17.2055 38.0786 16.6192 38 16 38C15.9355 38 15.8713 38.0009 15.8075 38.0025L15.8379 37.496C15.8577 37.1652 15.689 36.8515 15.4019 36.6858L14.7023 36.2819C14.6181 36.2333 14.6192 36.1115 14.7041 36.0643L16.481 35.0779C16.6621 34.9773 16.7274 34.7491 16.6269 34.568C16.5264 34.3869 16.2981 34.3216 16.117 34.4221L14.3401 35.4086C13.7454 35.7387 13.7383 36.5913 14.3273 36.9314L15.0269 37.3353C15.0679 37.359 15.092 37.4038 15.0892 37.4511L15.0526 38.0607C14.6122 38.117 14.2002 38.209 13.8303 38.322L13.4736 37.6087C13.3254 37.3123 13.0224 37.125 12.691 37.125H11.6623L12.8216 35.1929C12.9281 35.0153 12.8705 34.785 12.6929 34.6784C12.5153 34.5719 12.285 34.6295 12.1784 34.8071L10.9056 36.9284C10.6557 37.345 10.9557 37.875 11.4415 37.875H12.691C12.7383 37.875 12.7816 37.9017 12.8028 37.9441L13.1227 38.5839C12.7818 38.735 12.5053 38.8994 12.312 39.0566C12.0201 38.9602 11.6596 38.9417 11.2869 39.023C10.7645 39.1369 10.3457 39.4191 10.146 39.75H10.1447H10.1393H10.1339H10.1285H10.1231H10.1177H10.1122H10.1067H10.1012H10.0957H10.0902H10.0846H10.079H10.0734H10.0678H10.0622H10.0565H10.0509H10.0452H10.0394H10.0337H10.028H10.0222H10.0164H10.0106H10.0047H9.99889H9.99301H9.98712H9.98121H9.97528H9.96932H9.96335H9.95736H9.95135H9.94531H9.93926H9.93319H9.9271H9.92098H9.91485H9.9087H9.90252H9.89633H9.89012H9.88388H9.87763H9.87135H9.86506H9.85874H9.85241H9.84605H9.83968H9.83328H9.82687H9.82043H9.81397H9.80749H9.80099H9.79447H9.78793H9.78137H9.77479H9.76819H9.76157H9.75492H9.74826H9.74158H9.73487H9.72815H9.7214H9.71463H9.70784H9.70103H9.6942H9.68735H9.68048H9.67359H9.66667H9.65974H9.65278H9.64581H9.63881H9.63179H9.62475H9.61769H9.61061H9.6035H9.59638H9.58923H9.58207H9.57488H9.56767H9.56044H9.55318H9.54591H9.53862H9.5313H9.52396H9.5166H9.50922H9.50182H9.4944H9.48695H9.47948H9.47199H9.46449H9.45695H9.4494H9.44182H9.43423H9.42661H9.41897H9.41131H9.40363H9.39592H9.38819H9.38044H9.37267H9.36488H9.35707H9.34923H9.34137H9.33349H9.32559H9.31766H9.30972H9.30175H9.29376H9.28575H9.27771H9.26965H9.26157H9.25347H9.24535H9.2372H9.22904H9.22085H9.21263H9.2044H9.19614H9.18786H9.17956H9.17123H9.16289H9.15452H9.14612H9.13771H9.12927H9.12081H9.11233H9.10383H9.0953H9.08675H9.07818H9.06958H9.06096H9.05232H9.04366H9.03497H9.02626H9.01753H9.00878H9C8.31073 39.75 7.86504 39.5219 7.59367 39.3048C7.4564 39.195 7.36133 39.0859 7.30156 39.0062C7.27172 38.9665 7.25086 38.9342 7.23811 38.9132L7.23056 38.9005L7.22504 38.8908L7.22291 38.8868C7.16073 38.7643 7.01123 38.7149 6.8882 38.7764C6.7647 38.8381 6.71465 38.9883 6.77639 39.1118L7 39C6.77639 39.1118 6.77646 39.1119 6.77653 39.1121L6.77668 39.1124L6.77701 39.113L6.77783 39.1146L6.78006 39.1189L6.78693 39.1317C6.7926 39.142 6.80048 39.1559 6.81072 39.1727C6.83117 39.2064 6.86109 39.2523 6.90156 39.3063C6.98242 39.4141 7.1061 39.555 7.28133 39.6952C7.63496 39.9781 8.18927 40.25 9 40.25H9.00878H9.01753H9.02626H9.03497H9.04366H9.05232H9.06096H9.06958H9.07818H9.08675H9.0953H9.10383H9.11233H9.12081H9.12927H9.13771H9.14612H9.15452H9.16289H9.17123H9.17956H9.18786H9.19614H9.2044H9.21263H9.22085H9.22904H9.2372H9.24535H9.25347H9.26157H9.26965H9.27771H9.28575H9.29376H9.30175H9.30972H9.31766H9.32559H9.33349H9.34137H9.34923H9.35707H9.36488H9.37267H9.38044H9.3869L7.22291 40.8868C7.16073 40.7643 7.01123 40.7149 6.8882 40.7764C6.7647 40.8381 6.71465 40.9883 6.77639 41.1118L7 41C6.77639 41.1118 6.77646 41.1119 6.77653 41.1121L6.77668 41.1124L6.77701 41.113L6.77783 41.1146L6.78006 41.1189L6.78693 41.1317C6.7926 41.142 6.80048 41.1559 6.81072 41.1727C6.83117 41.2064 6.86109 41.2523 6.90156 41.3063C6.98242 41.4141 7.1061 41.555 7.28133 41.6952C7.63496 41.9781 8.18927 42.25 9 42.25C9.87767 42.25 10.4438 41.6617 10.7745 41.1325C10.8044 41.0846 10.8327 41.0367 10.8595 40.9893C11.1158 41.0432 11.4104 41.043 11.7131 40.977C12.081 40.8968 12.3975 40.7331 12.6223 40.5277C13.1715 40.8185 14.1802 41 16 41ZM10.3901 40.8024C10.3772 40.8241 10.3641 40.8458 10.3505 40.8675C10.0562 41.3383 9.62233 41.75 9 41.75C8.31073 41.75 7.86504 41.5219 7.59367 41.3048C7.4564 41.195 7.36133 41.0859 7.30156 41.0062C7.27172 40.9665 7.25086 40.9342 7.23811 40.9132C7.23174 40.9027 7.22742 40.8951 7.22504 40.8908L7.22291 40.8868L9.5986 40.25H9.6035H9.61061H9.61769H9.62475H9.63179H9.63881H9.64581H9.65278H9.65974H9.66667H9.67359H9.68048H9.68735H9.6942H9.70103H9.70784H9.71463H9.7214H9.72815H9.73487H9.74158H9.74826H9.75492H9.76157H9.76819H9.77479H9.78137H9.78793H9.79447H9.80099H9.80749H9.81397H9.82043H9.82687H9.83328H9.83968H9.84605H9.85241H9.85874H9.86506H9.87135H9.87763H9.88388H9.89012H9.89633H9.90252H9.9087H9.91485H9.92098H9.9271H9.93319H9.93926H9.94531H9.95135H9.95736H9.96335H9.96932H9.97528H9.98121H9.98712H9.99301H9.99889H10.0047H10.0106H10.0164H10.0222H10.023C10.0256 40.2733 10.0294 40.2965 10.0345 40.3196C10.0775 40.5171 10.2055 40.6817 10.3901 40.8024Z" fill="#333333"/>
</svg>
