<svg width="48" height="48" viewBox="0 0 48 48" fill="none" xmlns="http://www.w3.org/2000/svg">
<path fill-rule="evenodd" clip-rule="evenodd" d="M31.3692 25.9151L24.874 29.6651L28.374 35.7273L34.8692 31.9773C36.5432 31.0108 37.1168 28.8703 36.1503 27.1962C35.1838 25.5222 33.0432 24.9486 31.3692 25.9151ZM29.374 37.4594L35.8692 33.7094C38.4998 32.1906 39.4011 28.8268 37.8823 26.1962C36.3635 23.5656 32.9998 22.6643 30.3692 24.1831L23.874 27.9331C23.7359 27.6939 23.4301 27.612 23.191 27.7501L15.8298 32.0001C12.96 33.6569 11.9768 37.3265 13.6336 40.1962C15.2905 43.066 18.96 44.0492 21.8298 42.3924L29.191 38.1424C29.4301 38.0043 29.5121 37.6985 29.374 37.4594ZM19.9767 31.7207L16.2326 33.8602C14.7263 34.721 14.0573 36.4751 14.4724 38.0734C14.6113 38.6079 15.2375 38.7748 15.717 38.5008C15.9568 38.3638 16.0338 38.0587 15.9523 37.7949C15.6456 36.8026 16.0505 35.6919 16.9768 35.1626L20.7209 33.0231C21.0805 32.8176 21.2055 32.3595 21 31.9998C20.7945 31.6402 20.3363 31.5152 19.9767 31.7207Z" fill="#333333"/>
<path fill-rule="evenodd" clip-rule="evenodd" d="M23.258 28.8661L20.2077 30.6272C20.8629 30.5746 21.5205 30.8952 21.8682 31.5037C22.3477 32.3428 22.0562 33.4118 21.217 33.8913L17.473 36.0308C16.9698 36.3184 16.7337 36.9365 16.9077 37.4996C17.0872 38.0805 16.9674 38.938 16.2132 39.369C15.7396 39.6396 15.1742 39.7054 14.6643 39.5434C14.5543 39.5084 14.447 39.4627 14.3446 39.4064C14.3928 39.504 14.4444 39.6006 14.4996 39.6962C15.8804 42.0877 18.9383 42.9071 21.3298 41.5264L28.258 37.5264L23.258 28.8661ZM24.874 29.6651L31.3692 25.9151C33.0432 24.9486 35.1838 25.5222 36.1503 27.1962C37.1168 28.8703 36.5432 31.0108 34.8692 31.9773L28.374 35.7273L24.874 29.6651ZM29.374 37.4594L35.8692 33.7094C38.4998 32.1906 39.4011 28.8268 37.8823 26.1962C36.3635 23.5656 32.9998 22.6643 30.3692 24.1831L23.874 27.9331C23.874 27.9332 23.874 27.933 23.874 27.9331C23.7359 27.6941 23.4301 27.612 23.191 27.7501L15.8298 32.0001C12.96 33.6569 11.9768 37.3265 13.6336 40.1962C15.2905 43.066 18.96 44.0492 21.8298 42.3924L29.191 38.1424C29.4301 38.0043 29.5121 37.6985 29.374 37.4594ZM16.2326 33.8602L19.9767 31.7207C20.3363 31.5152 20.7945 31.6402 21 31.9998C21.2055 32.3595 21.0805 32.8176 20.7209 33.0231L16.9768 35.1626C16.0505 35.6919 15.6456 36.8026 15.9523 37.7949C16.0338 38.0587 15.9568 38.3638 15.717 38.5008C15.2375 38.7748 14.6113 38.6079 14.4724 38.0734C14.0573 36.4751 14.7263 34.721 16.2326 33.8602Z" fill="#333333"/>
<path d="M39.4047 17.7141C39.6129 17.9223 39.9565 17.9068 40.1285 17.6678C42.38 14.5414 42.0994 10.1557 39.2869 7.34315C36.4743 4.53059 32.0886 4.25004 28.9622 6.50148C28.7232 6.67353 28.7077 7.01714 28.9159 7.22532L39.4047 17.7141Z" fill="#333333"/>
<path d="M27.8553 8.28599C27.6471 8.0778 27.3035 8.09331 27.1314 8.33224C24.88 11.4586 25.1606 15.8443 27.9732 18.6569C30.7857 21.4694 35.1714 21.75 38.2978 19.4986C38.5367 19.3265 38.5522 18.9829 38.344 18.7747L27.8553 8.28599Z" fill="#333333"/>
<path d="M13.2458 9.4613C14.0886 8.045 16.1865 8.19873 16.8139 9.72274L21.72 21.641C22.286 23.0158 21.2072 24.5056 19.7245 24.397L8.22741 23.5546C6.74462 23.4459 5.89455 21.8148 6.65485 20.5372L13.2458 9.4613Z" fill="#333333"/>
</svg>
