<svg width="48" height="48" viewBox="0 0 48 48" fill="none" xmlns="http://www.w3.org/2000/svg">
<mask id="path-1-inside-1" fill="white">
<path fill-rule="evenodd" clip-rule="evenodd" d="M24 23C28.6944 23 32.5 19.1944 32.5 14.5C32.5 9.80558 28.6944 6 24 6C19.3056 6 15.5 9.80558 15.5 14.5C15.5 19.1944 19.3056 23 24 23ZM25.2976 10.9901C25.3437 10.4397 24.9349 9.95618 24.3845 9.91008C23.8342 9.86398 23.3507 10.2728 23.3046 10.8231L22.7025 18.0104C22.6564 18.5608 23.0652 19.0443 23.6155 19.0904C24.1659 19.1365 24.6494 18.7277 24.6955 18.1774L25.2976 10.9901ZM14.5 42C19.1944 42 23 38.1944 23 33.5C23 28.8056 19.1944 25 14.5 25C9.80558 25 6 28.8056 6 33.5C6 38.1944 9.80558 42 14.5 42ZM16.3429 36.7573C16.7335 37.1478 17.3666 37.1478 17.7572 36.7573C18.1477 36.3668 18.1477 35.7336 17.7572 35.3431L12.6572 30.2431C12.2666 29.8526 11.6335 29.8526 11.2429 30.2431C10.8524 30.6336 10.8524 31.2668 11.2429 31.6573L16.3429 36.7573ZM42 31.5C42 36.1944 38.1944 40 33.5 40C28.8056 40 25 36.1944 25 31.5C25 26.8056 28.8056 23 33.5 23C38.1944 23 42 26.8056 42 31.5ZM37.7588 29.7451C37.9692 30.2558 37.7259 30.8403 37.2153 31.0507L30.5469 33.7989C30.0362 34.0093 29.4517 33.7659 29.2413 33.2553C29.0308 32.7447 29.2742 32.1602 29.7848 31.9497L36.4532 29.2016C36.9638 28.9912 37.5484 29.2345 37.7588 29.7451Z"/>
</mask>
<path fill-rule="evenodd" clip-rule="evenodd" d="M24 23C28.6944 23 32.5 19.1944 32.5 14.5C32.5 9.80558 28.6944 6 24 6C19.3056 6 15.5 9.80558 15.5 14.5C15.5 19.1944 19.3056 23 24 23ZM25.2976 10.9901C25.3437 10.4397 24.9349 9.95618 24.3845 9.91008C23.8342 9.86398 23.3507 10.2728 23.3046 10.8231L22.7025 18.0104C22.6564 18.5608 23.0652 19.0443 23.6155 19.0904C24.1659 19.1365 24.6494 18.7277 24.6955 18.1774L25.2976 10.9901ZM14.5 42C19.1944 42 23 38.1944 23 33.5C23 28.8056 19.1944 25 14.5 25C9.80558 25 6 28.8056 6 33.5C6 38.1944 9.80558 42 14.5 42ZM16.3429 36.7573C16.7335 37.1478 17.3666 37.1478 17.7572 36.7573C18.1477 36.3668 18.1477 35.7336 17.7572 35.3431L12.6572 30.2431C12.2666 29.8526 11.6335 29.8526 11.2429 30.2431C10.8524 30.6336 10.8524 31.2668 11.2429 31.6573L16.3429 36.7573ZM42 31.5C42 36.1944 38.1944 40 33.5 40C28.8056 40 25 36.1944 25 31.5C25 26.8056 28.8056 23 33.5 23C38.1944 23 42 26.8056 42 31.5ZM37.7588 29.7451C37.9692 30.2558 37.7259 30.8403 37.2153 31.0507L30.5469 33.7989C30.0362 34.0093 29.4517 33.7659 29.2413 33.2553C29.0308 32.7447 29.2742 32.1602 29.7848 31.9497L36.4532 29.2016C36.9638 28.9912 37.5484 29.2345 37.7588 29.7451Z" fill="#333333"/>
<path d="M24.3845 9.91008L24.2176 11.9031H24.2176L24.3845 9.91008ZM25.2976 10.9901L23.3046 10.8231V10.8231L25.2976 10.9901ZM23.3046 10.8231L21.3115 10.6562L21.3115 10.6562L23.3046 10.8231ZM22.7025 18.0104L24.6955 18.1774V18.1774L22.7025 18.0104ZM23.6155 19.0904L23.7825 17.0974L23.6155 19.0904ZM24.6955 18.1774L22.7025 18.0104L22.7025 18.0104L24.6955 18.1774ZM17.7572 36.7573L16.3429 35.3431L16.3429 35.3431L17.7572 36.7573ZM16.3429 36.7573L17.7572 35.3431L17.7572 35.3431L16.3429 36.7573ZM17.7572 35.3431L16.3429 36.7573L16.3429 36.7573L17.7572 35.3431ZM12.6572 30.2431L14.0714 28.8289H14.0714L12.6572 30.2431ZM11.2429 30.2431L9.82873 28.8289L9.82873 28.8289L11.2429 30.2431ZM11.2429 31.6573L9.82873 33.0715L9.82873 33.0715L11.2429 31.6573ZM37.2153 31.0507L37.9773 32.8999L37.9773 32.8999L37.2153 31.0507ZM37.7588 29.7451L39.6079 28.9831L39.6079 28.9831L37.7588 29.7451ZM30.5469 33.7989L31.3089 35.648L31.3089 35.648L30.5469 33.7989ZM29.7848 31.9497L29.0228 30.1006H29.0228L29.7848 31.9497ZM36.4532 29.2016L37.2153 31.0507L37.2153 31.0507L36.4532 29.2016ZM30.5 14.5C30.5 18.0899 27.5899 21 24 21V25C29.799 25 34.5 20.299 34.5 14.5H30.5ZM24 8C27.5899 8 30.5 10.9101 30.5 14.5H34.5C34.5 8.70101 29.799 4 24 4V8ZM17.5 14.5C17.5 10.9101 20.4101 8 24 8V4C18.201 4 13.5 8.70101 13.5 14.5H17.5ZM24 21C20.4101 21 17.5 18.0899 17.5 14.5H13.5C13.5 20.299 18.201 25 24 25V21ZM24.2176 11.9031C23.6672 11.857 23.2584 11.3735 23.3046 10.8231L27.2906 11.157C27.4289 9.50594 26.2026 8.05537 24.5515 7.91706L24.2176 11.9031ZM25.2976 10.9901C25.2515 11.5404 24.7679 11.9492 24.2176 11.9031L24.5515 7.91706C22.9004 7.77875 21.4498 9.00509 21.3115 10.6562L25.2976 10.9901ZM24.6955 18.1774L25.2976 10.9901L21.3115 10.6562L20.7095 17.8435L24.6955 18.1774ZM23.7825 17.0974C24.3328 17.1435 24.7416 17.627 24.6955 18.1774L20.7095 17.8435C20.5712 19.4946 21.7975 20.9451 23.4486 21.0834L23.7825 17.0974ZM22.7025 18.0104C22.7486 17.4601 23.2321 17.0513 23.7825 17.0974L23.4486 21.0834C25.0996 21.2217 26.5502 19.9954 26.6885 18.3443L22.7025 18.0104ZM23.3046 10.8231L22.7025 18.0104L26.6885 18.3443L27.2906 11.157L23.3046 10.8231ZM21 33.5C21 37.0899 18.0899 40 14.5 40V44C20.299 44 25 39.299 25 33.5H21ZM14.5 27C18.0899 27 21 29.9101 21 33.5H25C25 27.701 20.299 23 14.5 23V27ZM8 33.5C8 29.9101 10.9101 27 14.5 27V23C8.70101 23 4 27.701 4 33.5H8ZM14.5 40C10.9101 40 8 37.0899 8 33.5H4C4 39.299 8.70101 44 14.5 44V40ZM16.3429 35.3431C16.7335 34.9526 17.3666 34.9526 17.7572 35.3431L14.9287 38.1715C16.1003 39.3431 17.9998 39.3431 19.1714 38.1715L16.3429 35.3431ZM16.3429 36.7573C15.9524 36.3668 15.9524 35.7336 16.3429 35.3431L19.1714 38.1715C20.3429 36.9999 20.3429 35.1004 19.1714 33.9289L16.3429 36.7573ZM11.2429 31.6573L16.3429 36.7573L19.1714 33.9289L14.0714 28.8289L11.2429 31.6573ZM12.6572 31.6573C12.2666 32.0478 11.6335 32.0478 11.2429 31.6573L14.0714 28.8289C12.8998 27.6573 11.0003 27.6573 9.82873 28.8289L12.6572 31.6573ZM12.6572 30.2431C13.0477 30.6336 13.0477 31.2668 12.6572 31.6573L9.82873 28.8289C8.65716 30.0005 8.65716 31.8999 9.82873 33.0715L12.6572 30.2431ZM17.7572 35.3431L12.6572 30.2431L9.82873 33.0715L14.9287 38.1715L17.7572 35.3431ZM33.5 42C39.299 42 44 37.299 44 31.5H40C40 35.0898 37.0898 38 33.5 38V42ZM23 31.5C23 37.299 27.701 42 33.5 42V38C29.9102 38 27 35.0898 27 31.5H23ZM33.5 21C27.701 21 23 25.701 23 31.5H27C27 27.9102 29.9102 25 33.5 25V21ZM44 31.5C44 25.701 39.299 21 33.5 21V25C37.0898 25 40 27.9102 40 31.5H44ZM37.9773 32.8999C39.5092 32.2686 40.2392 30.515 39.6079 28.9831L35.9097 30.5072C35.6993 29.9966 35.9426 29.412 36.4532 29.2016L37.9773 32.8999ZM31.3089 35.648L37.9773 32.8999L36.4532 29.2016L29.7848 31.9497L31.3089 35.648ZM27.3921 34.0174C28.0234 35.5492 29.777 36.2793 31.3089 35.648L29.7848 31.9497C30.2954 31.7393 30.88 31.9826 31.0904 32.4933L27.3921 34.0174ZM29.0228 30.1006C27.4909 30.7319 26.7608 32.4855 27.3921 34.0174L31.0904 32.4933C31.3008 33.0039 31.0575 33.5884 30.5469 33.7989L29.0228 30.1006ZM35.6912 27.3525L29.0228 30.1006L30.5469 33.7989L37.2153 31.0507L35.6912 27.3525ZM39.6079 28.9831C38.9766 27.4512 37.223 26.7212 35.6912 27.3525L37.2153 31.0507C36.7046 31.2612 36.1201 31.0178 35.9097 30.5072L39.6079 28.9831Z" fill="#333333" mask="url(#path-1-inside-1)"/>
</svg>
