<svg width="48" height="48" viewBox="0 0 48 48" fill="none" xmlns="http://www.w3.org/2000/svg">
<rect width="48" height="48" fill="white"/>
<path d="M20 13.8617L22.25 19.2617H17.75L20 13.8617Z" fill="#333333"/>
<path fill-rule="evenodd" clip-rule="evenodd" d="M26.566 7.77026C26.9426 8.15747 27.4598 8.3761 28 8.3761H34C35.1046 8.3761 36 9.27148 36 10.3761V27.8007C35.7222 27.5852 35.4135 27.3722 35.0748 27.175C33.2501 26.1132 30.6105 25.5605 27.4918 27.4005C24.924 28.9155 22.5089 29.3254 19.8818 29.3813C18.7111 29.4062 17.5142 29.361 16.2308 29.3123L15.7004 29.2924C14.5325 29.2493 13.3017 29.2117 12 29.2328V10.3761C12 9.27148 12.8954 8.3761 14 8.3761H20C20.5402 8.3761 21.0574 8.15747 21.434 7.77026L22.566 6.60583C23.3514 5.7981 24.6486 5.7981 25.434 6.60583L26.566 7.77026ZM20 10.2617C20.4037 10.2617 20.7678 10.5045 20.9231 10.8771L25.9231 22.8771C26.1355 23.387 25.8944 23.9724 25.3846 24.1848C24.8748 24.3972 24.2894 24.1561 24.077 23.6464L23.0834 21.2617H16.9167L15.9231 23.6464C15.7107 24.1561 15.1252 24.3972 14.6154 24.1848C14.1056 23.9724 13.8645 23.387 14.077 22.8771L19.077 10.8771C19.2322 10.5045 19.5963 10.2617 20 10.2617ZM30 13C30.5523 13 31 13.4478 31 14V16H33C33.5523 16 34 16.4478 34 17C34 17.5522 33.5523 18 33 18H31V20C31 20.5522 30.5523 21 30 21C29.4477 21 29 20.5522 29 20V18H27C26.4477 18 26 17.5522 26 17C26 16.4478 26.4477 16 27 16H29V14C29 13.4478 29.4477 13 30 13Z" fill="#333333"/>
<path fill-rule="evenodd" clip-rule="evenodd" d="M48 0H0V48H48V0ZM38 34.2617V10.3761C38 8.16687 36.2092 6.3761 34 6.3761H28L26.868 5.21167C25.2973 3.59607 22.7027 3.59607 21.132 5.21167L20 6.3761H14C11.7908 6.3761 10 8.16687 10 10.3761V34.2617C10 36.4709 11.7908 38.2617 14 38.2617H18V40.2617H23V44.2617H25V40.2617H30V38.2617H34C36.2092 38.2617 38 36.4709 38 34.2617Z" fill="#333333"/>
</svg>
