<svg width="48" height="48" viewBox="0 0 48 48" fill="none" xmlns="http://www.w3.org/2000/svg">
<rect width="48" height="48" fill="white"/>
<path d="M18.4508 19.003L17.2174 15.714L15.984 19.003H18.4508Z" fill="#333333"/>
<path d="M26.3478 13.7856C27.1566 13.7856 27.7436 14.4068 27.7436 15.0899C27.7436 15.7731 27.1566 16.3943 26.3478 16.3943H25.0435V13.7856H26.3478Z" fill="#333333"/>
<path d="M25.0435 18.4812H26.3478C27.1566 18.4812 27.7436 19.1025 27.7436 19.7856C27.7436 20.4687 27.1566 21.0899 26.3478 21.0899H25.0435V18.4812Z" fill="#333333"/>
<path fill-rule="evenodd" clip-rule="evenodd" d="M48 0H0V48H48V0ZM26.728 4.74265C24.6732 2.59303 21.2399 2.59303 19.185 4.74265L18.6347 5.3184H13.5652C10.6837 5.3184 8.34783 7.65438 8.34783 10.5358V33.6117C8.34783 36.4931 10.6837 38.8291 13.5652 38.8291H16.6957V40.916H21.913V45.0899H24V40.916H29.2174V38.8291H32.3478C35.2293 38.8291 37.5652 36.4931 37.5652 33.6117V22.1334H35.4783V26.8696C35.1884 26.6447 34.8663 26.4225 34.5129 26.2168C32.6088 25.1087 29.8545 24.5321 26.6002 26.452C23.9207 28.0329 21.4006 28.4606 18.6593 28.519C17.4404 28.545 16.194 28.4976 14.8584 28.4469H14.8491L14.2961 28.4261C13.0775 28.3812 11.7931 28.3419 10.4348 28.364V10.5358C10.4348 8.8069 11.8363 7.40536 13.5652 7.40536H19.0807C19.3656 7.40536 19.6382 7.28894 19.835 7.08297L20.6936 6.1847C21.9265 4.895 23.9865 4.895 25.2194 6.1847L26.078 7.08297C26.2749 7.28894 26.5474 7.40536 26.8323 7.40536H32.6924C34.231 7.40536 35.4783 8.65264 35.4783 10.1914V13.7856H37.5652V10.1914C37.5652 7.50013 35.3836 5.3184 32.6924 5.3184H27.2784L26.728 4.74265ZM18.1944 12.3758C18.0417 11.9684 17.6524 11.6986 17.2174 11.6986C16.7824 11.6986 16.3931 11.9684 16.2403 12.3758L12.5882 22.1148C12.3858 22.6544 12.6592 23.2559 13.1988 23.4583C13.7384 23.6607 14.3399 23.3872 14.5423 22.8476L15.2014 21.0899H19.2334L19.8925 22.8476C20.0949 23.3872 20.6963 23.6607 21.236 23.4583C21.7755 23.2559 22.049 22.6544 21.8466 22.1148L18.1944 12.3758ZM33.3913 16.916C32.815 16.916 32.3478 17.3832 32.3478 17.9595C32.3478 18.5358 32.815 19.003 33.3913 19.003H39.6522C40.2285 19.003 40.6957 18.5358 40.6957 17.9595C40.6957 17.3832 40.2285 16.916 39.6522 16.916H33.3913ZM22.9565 11.6986H26.3478C28.2333 11.6986 29.8306 13.1798 29.8306 15.0899C29.8306 16.0119 29.4585 16.834 28.8614 17.4378C29.4585 18.0415 29.8306 18.8636 29.8306 19.7856C29.8306 21.6957 28.2333 23.1769 26.3478 23.1769H22.9565V11.6986Z" fill="#333333"/>
</svg>
