<svg width="48" height="48" viewBox="0 0 48 48" fill="none" xmlns="http://www.w3.org/2000/svg">
<rect width="48" height="48" fill="white"/>
<path d="M17 18H15.0092L15 18V14H17C18.1046 14 19 14.8954 19 16C19 17.1046 18.1046 18 17 18Z" fill="#333333"/>
<path fill-rule="evenodd" clip-rule="evenodd" d="M48 0H0V48H48V0ZM26.6144 5.33391C24.6451 3.27379 21.3549 3.27379 19.3856 5.33391L18.8582 5.88566H14C11.2386 5.88566 9 8.12425 9 10.8857V33C9 35.7614 11.2386 38 14 38L17 38V40H22V44H24V40H29V38L32 38C34.7614 38 37 35.7614 37 33V22H35V26.5391C34.7222 26.3236 34.4135 26.1106 34.0748 25.9135C32.2501 24.8516 29.6105 24.2989 26.4918 26.1389C23.924 27.6539 21.5089 28.0638 18.8818 28.1197C17.7111 28.1446 16.5139 28.0993 15.2306 28.0507C15.0556 28.0441 14.8788 28.0374 14.7005 28.0308C13.5325 27.9877 12.3017 27.95 11 27.9712V10.8857C11 9.22881 12.3431 7.88566 14 7.88566H19.2857C19.5588 7.88566 19.8199 7.77402 20.0086 7.57665L20.8314 6.71587C22.0129 5.4798 23.9871 5.4798 25.1686 6.71587L25.9914 7.57665C26.1801 7.77402 26.4412 7.88566 26.7143 7.88566H32.3302C33.8047 7.88566 35 9.08099 35 10.5555V14H37V10.5555C37 7.97642 34.9092 5.88566 32.3302 5.88566H27.1418L26.6144 5.33391ZM33 17C32.4477 17 32 17.4477 32 18C32 18.5523 32.4477 19 33 19H39C39.5523 19 40 18.5523 40 18C40 17.4477 39.5523 17 39 17H33ZM23 12C23.5523 12 24 12.4477 24 13V17H28V13C28 12.4477 28.4477 12 29 12C29.5523 12 30 12.4477 30 13V23C30 23.5523 29.5523 24 29 24C28.4477 24 28 23.5523 28 23V19H24V23C24 23.5523 23.5523 24 23 24C22.4477 24 22 23.5523 22 23V13C22 12.4477 22.4477 12 23 12ZM17 12H14C13.4477 12 13 12.4477 13 13V23C13 23.5523 13.4477 24 14 24C14.5523 24 15 23.5523 15 23V20.2806L19.3753 23.7809C19.8065 24.1259 20.4358 24.056 20.7808 23.6247C21.1258 23.1934 21.0559 22.5641 20.6247 22.2191L17.7605 19.9278C19.6059 19.5726 21 17.9491 21 16C21 13.7909 19.2091 12 17 12Z" fill="#333333"/>
</svg>
