<svg width="48" height="48" viewBox="0 0 48 48" fill="none" xmlns="http://www.w3.org/2000/svg">
<rect width="48" height="48" fill="white"/>
<path d="M16 18H14.0092L14 18V14H16C17.1046 14 18 14.8954 18 16C18 17.1046 17.1046 18 16 18Z" fill="#333333"/>
<path fill-rule="evenodd" clip-rule="evenodd" d="M48 0H0V48H48V0ZM25.6144 5.33391C23.6451 3.27379 20.3549 3.27379 18.3856 5.33391L17.8582 5.88566H13C10.2386 5.88566 8 8.12425 8 10.8857V33C8 35.7614 10.2386 38 13 38L16 38V40H21V44H23V40H28V38L31 38C33.7614 38 36 35.7614 36 33V24H34V26.539C33.7222 26.3236 33.4135 26.1105 33.0748 25.9135C31.2501 24.8516 28.6105 24.2989 25.4919 26.1389C22.924 27.6539 20.5089 28.0638 17.8818 28.1197C16.7111 28.1446 15.5134 28.0993 14.2301 28.0507L14.2289 28.0506C14.0544 28.044 13.8783 28.0374 13.7005 28.0308C12.5326 27.9877 11.3017 27.95 10 27.9712V10.8857C10 9.22881 11.3431 7.88566 13 7.88566H18.2857C18.5588 7.88566 18.8199 7.77402 19.0086 7.57665L19.8314 6.71587C21.0129 5.4798 22.9871 5.4798 24.1686 6.71587L24.9914 7.57665C25.1801 7.77402 25.4412 7.88566 25.7143 7.88566H31.3302C32.8047 7.88566 34 9.08099 34 10.5555V12H36V10.5555C36 7.97642 33.9092 5.88566 31.3302 5.88566H26.1418L25.6144 5.33391ZM35 22C34.4477 22 34 21.5523 34 21V19H32C31.4477 19 31 18.5523 31 18C31 17.4477 31.4477 17 32 17H34V15C34 14.4477 34.4477 14 35 14C35.5523 14 36 14.4477 36 15V17H38C38.5523 17 39 17.4477 39 18C39 18.5523 38.5523 19 38 19H36V21C36 21.5523 35.5523 22 35 22ZM22 12C22.5523 12 23 12.4477 23 13V17H27V13C27 12.4477 27.4477 12 28 12C28.5523 12 29 12.4477 29 13V23C29 23.5523 28.5523 24 28 24C27.4477 24 27 23.5523 27 23V19H23V23C23 23.5523 22.5523 24 22 24C21.4477 24 21 23.5523 21 23V13C21 12.4477 21.4477 12 22 12ZM16 12H13C12.4477 12 12 12.4477 12 13V23C12 23.5523 12.4477 24 13 24C13.5523 24 14 23.5523 14 23V20.2806L18.3753 23.7809C18.8066 24.1259 19.4359 24.056 19.7809 23.6247C20.1259 23.1934 20.056 22.5641 19.6247 22.2191L16.7605 19.9278C18.6059 19.5726 20 17.9491 20 16C20 13.7909 18.2091 12 16 12Z" fill="#333333"/>
</svg>
