<svg width="48" height="48" viewBox="0 0 48 48" fill="none" xmlns="http://www.w3.org/2000/svg">
<rect width="48" height="48" fill="white"/>
<path fill-rule="evenodd" clip-rule="evenodd" d="M48 0H0V48H48V0ZM26.6144 5.54509C24.6451 3.48497 21.3549 3.48497 19.3856 5.54509L18.8582 6.09685H14C11.2386 6.09685 9 8.33543 9 11.0968V33.2111C9 35.9726 11.2386 38.2111 14 38.2111L17 38.2112V40.2112H22V44.2112H24V40.2112H29V38.2112L32 38.2111C34.7614 38.2111 37 35.9726 37 33.2111V24.2111H35V26.75C34.7222 26.5346 34.4135 26.3215 34.0748 26.1244C32.2501 25.0625 29.6105 24.5099 26.4918 26.3499C23.924 27.8649 21.5089 28.2748 18.8818 28.3307C17.711 28.3556 16.5137 28.3102 15.2304 28.2616L15.2302 28.2616C15.0553 28.255 14.8788 28.2483 14.7005 28.2417C13.5325 28.1987 12.3017 28.161 11 28.1821V11.0968C11 9.43999 12.3431 8.09685 14 8.09685H19.2857C19.5588 8.09685 19.8199 7.9852 20.0086 7.78783L20.8314 6.92706C22.0129 5.69098 23.9871 5.69098 25.1686 6.92706L25.9914 7.78783C26.1801 7.9852 26.4412 8.09685 26.7143 8.09685H32.3302C33.8047 8.09685 35 9.29217 35 10.7667V12.2111H37V10.7667C37 8.18761 34.9092 6.09685 32.3302 6.09685H27.1418L26.6144 5.54509ZM17.5 12.2112C17.9168 12.2112 18.29 12.4698 18.4363 12.8601L21.9363 22.1934C22.1302 22.7105 21.8682 23.2869 21.3511 23.4808C20.834 23.6748 20.2576 23.4128 20.0637 22.8956L19.432 21.2112H15.568L14.9363 22.8956C14.7424 23.4128 14.166 23.6748 13.6489 23.4808C13.1318 23.2869 12.8697 22.7105 13.0637 22.1934L16.5637 12.8601C16.71 12.4698 17.0832 12.2112 17.5 12.2112ZM17.5 16.0592L18.682 19.2112H16.318L17.5 16.0592ZM32 18.2112C32 17.6589 32.4477 17.2112 33 17.2112H35V15.2112C35 14.6589 35.4477 14.2112 36 14.2112C36.5523 14.2112 37 14.6589 37 15.2112V17.2112H39C39.5523 17.2112 40 17.6589 40 18.2112C40 18.7635 39.5523 19.2112 39 19.2112H37V21.2112C37 21.7635 36.5523 22.2112 36 22.2112C35.4477 22.2112 35 21.7635 35 21.2112V19.2112H33C32.4477 19.2112 32 18.7635 32 18.2112ZM23 12.2112H26.25C28.0569 12.2112 29.5876 13.6306 29.5876 15.4612C29.5876 16.3448 29.231 17.1326 28.6588 17.7112C29.231 18.2898 29.5876 19.0776 29.5876 19.9612C29.5876 21.7918 28.0569 23.2112 26.25 23.2112H23V12.2112ZM26.25 14.2112C27.0251 14.2112 27.5876 14.8065 27.5876 15.4612C27.5876 16.1159 27.0251 16.7112 26.25 16.7112H25V14.2112H26.25ZM25 18.7112H26.25C27.0251 18.7112 27.5876 19.3065 27.5876 19.9612C27.5876 20.6158 27.0251 21.2112 26.25 21.2112H25V18.7112Z" fill="#333333"/>
</svg>
