<svg width="48" height="48" viewBox="0 0 48 48" fill="none" xmlns="http://www.w3.org/2000/svg">
<path d="M16.542 11.991C22.3921 11.9958 21.8536 19.9527 21.8511 23.1357C21.8478 27.198 22.8451 35.3972 19.7112 38.5181C16.5177 41.6984 10.1346 43.2846 6.94587 40.6296C3.75713 37.9745 9.09662 11.9849 16.542 11.991Z" fill="#333333"/>
<path d="M31.4826 12.0033C25.6326 11.9986 26.158 19.9563 26.1554 23.1393C26.152 27.2016 25.1413 35.3992 28.27 38.5252C31.4583 41.7107 37.8388 43.3074 41.0319 40.6576C44.2249 38.0078 38.928 12.0094 31.4826 12.0033Z" fill="#333333"/>
<path d="M24.0174 6.00002C24.0174 6.00002 24.0084 16.9947 24.0056 20.493C24.0027 23.9914 21.0048 23.9889 21.0048 23.9889" stroke="#333333" stroke-width="2"/>
<path d="M24.0175 5.99998C24.0175 5.99998 24.0085 16.9947 24.0056 20.493C24.0028 23.9913 27.0007 23.9938 27.0007 23.9938" stroke="#333333" stroke-width="2"/>
</svg>
