<svg width="48" height="48" viewBox="0 0 48 48" fill="none" xmlns="http://www.w3.org/2000/svg">
<path fill-rule="evenodd" clip-rule="evenodd" d="M48 0H0V48H48V0ZM13.2698 8.78947C14.3341 6.549 16.6177 5 19.2632 5C21.9086 5 24.1922 6.549 25.2566 8.78947H42V10.6842L38.2105 12.5789V37.2105H42V41H38.2105H34.4211V23H25.8947V41H9.78947H6V37.2105H9.78947V12.5789L6 10.6842V8.78947H13.2698ZM20.555 7.8421H17.9713V11.2871H14.5263V13.8708H17.9713V17.3158H20.555V13.8708H24V11.2871H20.555V7.8421ZM21.1579 23H14.5263V29.6316H21.1579V23Z" fill="#333333"/>
</svg>
