<svg width="48" height="48" viewBox="0 0 48 48" fill="none" xmlns="http://www.w3.org/2000/svg">
<path fill-rule="evenodd" clip-rule="evenodd" d="M22 19V42H8V19C8 18.4478 8.44772 18 9 18H21C21.5523 18 22 18.4478 22 19ZM11 20C10.4477 20 10 20.4478 10 21V23C10 23.5522 10.4477 24 11 24H13C13.5523 24 14 23.5522 14 23V21C14 20.4478 13.5523 20 13 20H11ZM17 20C16.4477 20 16 20.4478 16 21V23C16 23.5522 16.4477 24 17 24H19C19.5523 24 20 23.5522 20 23V21C20 20.4478 19.5523 20 19 20H17ZM11 26C10.4477 26 10 26.4478 10 27V29C10 29.5522 10.4477 30 11 30H13C13.5523 30 14 29.5522 14 29V27C14 26.4478 13.5523 26 13 26H11ZM11 32C10.4477 32 10 32.4478 10 33V35C10 35.5522 10.4477 36 11 36H13C13.5523 36 14 35.5522 14 35V33C14 32.4478 13.5523 32 13 32H11ZM17 26C16.4477 26 16 26.4478 16 27V29C16 29.5522 16.4477 30 17 30H19C19.5523 30 20 29.5522 20 29V27C20 26.4478 19.5523 26 19 26H17ZM17 32C16.4477 32 16 32.4478 16 33V35C16 35.5522 16.4477 36 17 36H19C19.5523 36 20 35.5522 20 35V33C20 32.4478 19.5523 32 19 32H17Z" fill="#333333"/>
<path fill-rule="evenodd" clip-rule="evenodd" d="M40 21V42H33V20H39C39.5523 20 40 20.4478 40 21ZM35 22C34.4477 22 34 22.4478 34 23V25C34 25.5522 34.4477 26 35 26H37C37.5523 26 38 25.5522 38 25V23C38 22.4478 37.5523 22 37 22H35ZM35 28C34.4477 28 34 28.4478 34 29V31C34 31.5522 34.4477 32 35 32H37C37.5523 32 38 31.5522 38 31V29C38 28.4478 37.5523 28 37 28H35ZM35 34C34.4477 34 34 34.4478 34 35V37C34 37.5522 34.4477 38 35 38H37C37.5523 38 38 37.5522 38 37V35C38 34.4478 37.5523 34 37 34H35Z" fill="#333333"/>
<path d="M19 9C19 8.44775 19.4477 8 20 8H22C22.5523 8 23 8.44775 23 9V11C23 11.5522 22.5523 12 22 12H20C19.4477 12 19 11.5522 19 11V9Z" fill="#333333"/>
<path d="M19 15C19 14.4478 19.4477 14 20 14H22C22.5523 14 23 14.4478 23 15V16.7637C22.4692 16.2891 21.7684 16 21 16H19V15Z" fill="#333333"/>
<path d="M25 9C25 8.44775 25.4477 8 26 8H28C28.5523 8 29 8.44775 29 9V11C29 11.5522 28.5523 12 28 12H26C25.4477 12 25 11.5522 25 11V9Z" fill="#333333"/>
<path d="M26 14C25.4477 14 25 14.4478 25 15V17C25 17.5522 25.4477 18 26 18H28C28.5523 18 29 17.5522 29 17V15C29 14.4478 28.5523 14 28 14H26Z" fill="#333333"/>
<path d="M25 21C25 20.4478 25.4477 20 26 20H28C28.5523 20 29 20.4478 29 21V23C29 23.5522 28.5523 24 28 24H26C25.4477 24 25 23.5522 25 23V21Z" fill="#333333"/>
<path d="M26 26C25.4477 26 25 26.4478 25 27V29C25 29.5522 25.4477 30 26 30H28C28.5523 30 29 29.5522 29 29V27C29 26.4478 28.5523 26 28 26H26Z" fill="#333333"/>
<path d="M25 33C25 32.4478 25.4477 32 26 32H28C28.5523 32 29 32.4478 29 33V35C29 35.5522 28.5523 36 28 36H26C25.4477 36 25 35.5522 25 35V33Z" fill="#333333"/>
<path fill-rule="evenodd" clip-rule="evenodd" d="M48 0H0V48H48V0ZM4 42H6V19C6 17.3433 7.34314 16 9 16H15V7C15 5.34326 16.3431 4 18 4H30C31.6569 4 33 5.34326 33 7V18H39C40.6569 18 42 19.3433 42 21V42H44V44H4V42Z" fill="#333333"/>
</svg>
