<svg width="48" height="48" viewBox="0 0 48 48" fill="none" xmlns="http://www.w3.org/2000/svg">
<path fill-rule="evenodd" clip-rule="evenodd" d="M48 0H0V48H48V0ZM9.61458 19.138C9.99527 17.869 11.1632 17 12.4881 17H36V15H30C28.8954 15 28 14.1046 28 13V10C28 8.89543 28.8954 8 30 8H36C37.1046 8 38 8.89543 38 10V11V13V17.8187L43.9363 33.6489C44.1303 34.166 43.8682 34.7424 43.3511 34.9363C42.834 35.1302 42.2576 34.8682 42.0637 34.3511L37.1054 21.1289L32.3854 36.862C32.0047 38.131 30.8368 39 29.5119 39H7.68806C5.67847 39 4.23713 37.0628 4.81458 35.138L9.61458 19.138ZM19.0299 31.7572C18.8959 32.293 19.2217 32.8359 19.7575 32.9699C20.2933 33.1038 20.8362 32.7781 20.9701 32.2423L21.7808 28.9995H25C25.5523 28.9995 26 28.5518 26 27.9995C26 27.4472 25.5523 26.9995 25 26.9995H22.2808L22.9701 24.2423C23.1041 23.7065 22.7783 23.1636 22.2425 23.0296C21.7067 22.8957 21.1638 23.2214 21.0299 23.7572L20.2193 26.9995H17C16.4477 26.9995 16 27.4472 16 27.9995C16 28.5518 16.4477 28.9995 17 28.9995H19.7193L19.0299 31.7572Z" fill="#333333"/>
</svg>
