<svg width="48" height="48" viewBox="0 0 48 48" fill="none" xmlns="http://www.w3.org/2000/svg">
<path fill-rule="evenodd" clip-rule="evenodd" d="M0 0H48V48H0V0ZM16 27H22C24.2091 27 26 25.2091 26 23C26 21.436 25.1024 20.0817 23.7943 19.424C23.9281 18.9727 24 18.4948 24 18C24 15.891 22.6942 14.0869 20.847 13.3522C20.9471 12.9176 21 12.465 21 12C21 8.68629 18.3137 6 15 6C11.6863 6 9 8.68629 9 12C9 12.465 9.05289 12.9176 9.15299 13.3522C7.30578 14.0869 6 15.891 6 18C6 18.4948 6.07186 18.9727 6.20571 19.424C4.89758 20.0817 4 21.436 4 23C4 25.2091 5.79086 27 8 27H14V39H7.5C6.67157 39 6 39.6716 6 40.5C6 41.3284 6.67157 42 7.5 42H40.5C41.3284 42 42 41.3284 42 40.5C42 39.7117 41.3919 39.0655 40.6193 39.0047L38.0219 32.0765L35.5453 30.0583L36.3828 25.4445C37.1714 26.3747 38.1625 27.1237 39.285 27.6375C40.4075 28.1513 41.3734 28.4158 42.8743 28.4158C44.3752 28.4158 44.3752 26.0826 42.8743 26.0826C41.4485 26.0826 41.0604 25.8934 40.3102 25.5276L40.1884 25.4683C39.3545 25.0637 38.6292 24.476 38.07 23.7517C37.8849 23.5126 37.6806 23.053 37.4571 22.3728C37.2585 21.7686 36.871 21.2395 36.3483 20.8589C35.8256 20.4784 35.1938 20.2655 34.5407 20.2497C34.0052 20.2327 33.4793 20.3905 33.047 20.6976L29.4336 23.2187L28.9951 23.6207C28.9951 23.6207 27.5293 25.6795 26.35 27.1745C25.1707 28.6695 27.2656 29.8638 28.2943 28.5464C29.323 27.2291 30.8503 25.1307 30.8503 25.1307L31.6638 24.5567L31.0522 27.9223C30.9774 28.3331 31.0175 28.7558 31.1682 29.1465C31.3188 29.5371 31.5747 29.8814 31.909 30.1435L35.9827 33.4624L38.0591 39H29.2733L32.6937 35.0432L33.6154 33.0821L31.4631 31.3322L30.5667 33.8754L26.35 38.9151L26.7035 39H16V27ZM36.2651 19.6664C35.6277 19.6664 35.0164 19.4205 34.5656 18.983C34.1149 18.5454 33.8617 17.952 33.8617 17.3332C33.8617 16.7144 34.1149 16.1209 34.5656 15.6834C35.0164 15.2458 35.6277 15 36.2651 15C36.9025 15 37.5138 15.2458 37.9645 15.6834C38.4152 16.1209 38.6684 16.7144 38.6684 17.3332C38.6684 17.952 38.4152 18.5454 37.9645 18.983C37.5138 19.4205 36.9025 19.6664 36.2651 19.6664Z" fill="#333333"/>
</svg>
