<svg width="48" height="48" viewBox="0 0 48 48" fill="none" xmlns="http://www.w3.org/2000/svg">
<path fill-rule="evenodd" clip-rule="evenodd" d="M20 42H11V17C11 16.4477 11.4477 16 12 16H17.1707C17.5825 17.1652 18.6938 18 20 18H28C29.3062 18 30.4175 17.1652 30.8293 16H36C36.5523 16 37 16.4477 37 17V42H28V36C28 33.7909 26.2091 32 24 32C21.7909 32 20 33.7909 20 36V42ZM18 24V20H14V24H18ZM18 26V30H14V26H18ZM26 20V24H22V20H26ZM26 26V30H22V26H26ZM34 20V24H30V20H34ZM34 26V30H30V26H34Z" fill="#333333"/>
<path d="M24 7C24.5523 7 25 7.44771 25 8V10L27 10C27.5523 10 28 10.4477 28 11C28 11.5523 27.5523 12 27 12H25V14C25 14.5523 24.5523 15 24 15C23.4477 15 23 14.5523 23 14V12H21C20.4477 12 20 11.5523 20 11C20 10.4477 20.4477 10 21 10H23V8C23 7.44772 23.4477 7 24 7Z" fill="#333333"/>
<path fill-rule="evenodd" clip-rule="evenodd" d="M48 0H0V48H48V0ZM28 4H20C18.3431 4 17 5.34315 17 7V14H12C10.3431 14 9 15.3431 9 17V42H5V44H43V42H39V17C39 15.3431 37.6569 14 36 14H31V7C31 5.34315 29.6569 4 28 4Z" fill="#333333"/>
</svg>
