<svg width="48" height="48" viewBox="0 0 48 48" fill="none" xmlns="http://www.w3.org/2000/svg">
<path fill-rule="evenodd" clip-rule="evenodd" d="M48 0H0V48H48V0ZM8.41801 6.65642C8.54782 6.26219 8.88541 6 9.26322 6H38.7368C39.1146 6 39.4522 6.26218 39.582 6.65642L41.8904 13.6672C41.9629 13.8874 42 14.1199 42 14.3544V17.1429C42 18.7208 40.8487 20 39.4286 20C39.2825 20 39.1394 19.9865 39 19.9605C38.5887 19.8838 38.2105 19.6987 37.89 19.4324C37.8573 19.4052 37.8253 19.3772 37.7938 19.3484C37.6823 19.2463 37.5787 19.1339 37.4842 19.0126C37.0935 18.5115 36.8571 17.8579 36.8571 17.1429C36.8571 18.7208 35.7059 20 34.2857 20C32.8663 20 31.7154 18.7221 31.7143 17.1452C31.7131 18.7221 30.5623 20 29.1429 20C27.7227 20 26.5714 18.7208 26.5714 17.1429C26.5714 18.7208 25.4202 20 24 20C22.5805 20 21.4297 18.7221 21.4286 17.1452C21.4274 18.7221 20.2766 20 18.8571 20C17.437 20 16.2857 18.7208 16.2857 17.1429C16.2857 18.7208 15.1344 20 13.7143 20C12.2941 20 11.1429 18.7208 11.1429 17.1429C11.1429 17.8519 10.9104 18.5006 10.5256 19C10.4287 19.1258 10.3221 19.2421 10.2071 19.3476L10.2062 19.3484C9.88889 19.6391 9.50775 19.8469 9.08966 19.942C9.05996 19.9487 9.03007 19.9549 9 19.9605C8.86063 19.9865 8.71745 20 8.57143 20C7.15127 20 6 18.7208 6 17.1429V14.3544C6 14.1199 6.03709 13.8874 6.10958 13.6672L8.41801 6.65642ZM9 21.4771V28H7.5C7.22386 28 7 28.2239 7 28.5V29.5C7 29.7761 7.22386 30 7.5 30H40.5C40.7761 30 41 29.7761 41 29.5V28.5C41 28.2239 40.7761 28 40.5 28H39V21.4771C38.2366 21.3947 37.5582 21.0941 37 20.6466V28H20.5C21.3284 28 22 27.3284 22 26.5C22 25.6716 21.3284 25 20.5 25C19.6716 25 19 25.6716 19 26.5C19 27.3284 19.6716 28 20.5 28H17.5C17.7761 28 18 27.7761 18 27.5V26.5C18 26.2239 17.7761 26 17.5 26H16V25.5C16 25.2239 15.7761 25 15.5 25H12.5C12.2239 25 12 25.2239 12 25.5V27.5C12 27.7761 12.2239 28 12.5 28H11V20.6466C10.4418 21.0941 9.7634 21.3947 9 21.4771ZM8.5 32C8.22386 32 8 32.2239 8 32.5V41C8 41.5523 8.44772 42 9 42H39C39.5523 42 40 41.5523 40 41V32.5C40 32.2239 39.7761 32 39.5 32H8.5Z" fill="#333333"/>
</svg>
