<svg width="48" height="48" viewBox="0 0 48 48" fill="none" xmlns="http://www.w3.org/2000/svg">
<path fill-rule="evenodd" clip-rule="evenodd" d="M48 0H0V48H48V0ZM24.6652 7.01768L25.9576 4.27565C26.1871 3.78871 26.7838 3.60194 27.25 3.87109C27.7162 4.14025 27.8528 4.75037 27.5458 5.19261L25.3454 8.36287C25.3712 8.38634 25.3965 8.4106 25.4213 8.43566L41.1512 24.3245C41.6469 24.8251 41.627 25.5273 40.9746 25.7932C39.2895 26.48 34.9446 27.5 24 27.5C13.0554 27.5 8.71046 26.48 7.02537 25.7932C6.373 25.5273 6.35313 24.8251 6.84876 24.3245L22.5787 8.43566C22.6035 8.4106 22.6288 8.38634 22.6546 8.36287L20.4542 5.19261C20.1472 4.75037 20.2838 4.14025 20.75 3.87109C21.2162 3.60194 21.8129 3.78871 22.0424 4.27565L23.3348 7.01768L23.083 3.99655C23.0383 3.46009 23.4617 3 24 3C24.5383 3 24.9617 3.46009 24.917 3.99655L24.6652 7.01768ZM11.5732 28.3542C11.2707 28.3136 11 28.5476 11 28.8528V41.9992C11 42.887 14.76 43.6397 19.9638 43.9009C20.5296 43.9293 21 43.4752 21 42.9087V38.0004C21 36.3436 22.3431 35.0004 24 35.0004C25.6569 35.0004 27 36.3436 27 38.0004V42.9087C27 43.4752 27.4704 43.9293 28.0362 43.9009C33.24 43.6397 37 42.887 37 41.9992V28.8528C37 28.5476 36.7293 28.3136 36.4268 28.3542C33.6449 28.7271 29.6761 28.9984 24 28.9984C18.3239 28.9984 14.3551 28.7271 11.5732 28.3542Z" fill="#333333"/>
</svg>
