<svg width="48" height="48" viewBox="0 0 48 48" fill="none" xmlns="http://www.w3.org/2000/svg">
<path fill-rule="evenodd" clip-rule="evenodd" d="M0 0H48V48H0V0ZM25.4213 6.43566C24.6387 5.64511 23.3613 5.64511 22.5787 6.43566L17.4825 11.5833C17.5047 11.6351 17.523 11.6888 17.5373 11.7436C17.7849 12.6951 18.4913 13.2512 19.1289 13.2512C19.7665 13.2512 20.4729 12.6951 20.7206 11.7436C20.8249 11.3426 21.1491 11.001 21.5645 11.001C21.9799 11.001 22.304 11.3426 22.4084 11.7436C22.656 12.6951 23.3624 13.2512 24 13.2512C24.6376 13.2512 25.344 12.6951 25.5917 11.7436C25.696 11.3426 26.0202 11.001 26.4356 11.001C26.851 11.001 27.1751 11.3426 27.2795 11.7436C27.5271 12.6951 28.2335 13.2512 28.8711 13.2512C29.5087 13.2512 30.2151 12.6951 30.4627 11.7436C30.477 11.6888 30.4954 11.6352 30.5175 11.5833L25.4213 6.43566ZM33.6525 14.75C32.6667 14.7198 31.8526 14.1936 31.3067 13.4236C30.7443 14.2168 29.8972 14.7513 28.8711 14.7513C27.845 14.7513 26.9979 14.2168 26.4356 13.4236C25.8732 14.2168 25.0261 14.7513 24 14.7513C22.9739 14.7513 22.1268 14.2168 21.5645 13.4236C21.0021 14.2168 20.155 14.7513 19.1289 14.7513C18.1028 14.7513 17.2558 14.2168 16.6934 13.4236C16.1475 14.1936 15.3333 14.7198 14.3475 14.75L12.0229 17.0981C12.2594 17.2289 12.4325 17.4775 12.4975 17.7555C12.7401 18.7934 13.4661 19.4012 14.1206 19.4012C14.7751 19.4012 15.5011 18.7934 15.7437 17.7555C15.8393 17.3464 16.1692 17.001 16.5905 17.001C17.0117 17.001 17.3416 17.3464 17.4372 17.7555C17.6798 18.7934 18.4058 19.4012 19.0603 19.4012C19.7148 19.4012 20.4408 18.7934 20.6834 17.7555C20.779 17.3464 21.1089 17.001 21.5302 17.001C21.9514 17.001 22.2813 17.3464 22.3769 17.7555C22.6195 18.7934 23.3455 19.4012 24 19.4012C24.6545 19.4012 25.3805 18.7934 25.6231 17.7555C25.7187 17.3464 26.0486 17.001 26.4699 17.001C26.8911 17.001 27.221 17.3464 27.3166 17.7555C27.5592 18.7934 28.2852 19.4012 28.9397 19.4012C29.5942 19.4012 30.3202 18.7934 30.5628 17.7555C30.6584 17.3464 30.9883 17.001 31.4096 17.001C31.8308 17.001 32.1607 17.3464 32.2563 17.7555C32.4989 18.7934 33.2249 19.4012 33.8794 19.4012C34.5339 19.4012 35.2599 18.7934 35.5025 17.7555C35.5675 17.4775 35.7406 17.2289 35.9771 17.0981L33.6525 14.75ZM39.6986 20.8571C39.4234 20.9507 39.1293 21.0014 38.8191 21.0014C37.7785 21.0014 36.9195 20.4312 36.3493 19.5851C35.779 20.4312 34.92 21.0014 33.8794 21.0014C32.8388 21.0014 31.9799 20.4312 31.4096 19.5851C30.8393 20.4312 29.9803 21.0014 28.9397 21.0014C27.8991 21.0014 27.0402 20.4312 26.4699 19.5851C25.8996 20.4312 25.0406 21.0014 24 21.0014C22.9594 21.0014 22.1005 20.4312 21.5302 19.5851C20.9599 20.4312 20.1009 21.0014 19.0603 21.0014C18.0197 21.0014 17.1608 20.4312 16.5905 19.5851C16.0202 20.4312 15.1612 21.0014 14.1206 21.0014C13.0801 21.0014 12.2211 20.4312 11.6508 19.5851C11.0805 20.4312 10.2215 21.0014 9.18093 21.0014C8.87068 21.0014 8.57657 20.9507 8.30145 20.8571L6.84876 22.3245C6.35313 22.8251 6.373 23.5273 7.02537 23.7932C8.71046 24.48 13.0554 25.5 24 25.5C34.9446 25.5 39.2895 24.48 40.9746 23.7932C41.627 23.5273 41.6469 22.8251 41.1512 22.3245L39.6986 20.8571ZM11.5732 26.3542C11.2707 26.3136 11 26.5476 11 26.8528V39.9992C11 40.887 14.76 41.6397 19.9638 41.9009C20.5296 41.9293 21 41.4752 21 40.9087V36.0004C21 34.3436 22.3431 33.0004 24 33.0004C25.6569 33.0004 27 34.3436 27 36.0004V40.9087C27 41.4752 27.4704 41.9293 28.0362 41.9009C33.24 41.6397 37 40.887 37 39.9992V26.8528C37 26.5476 36.7293 26.3136 36.4268 26.3542C33.6449 26.7271 29.6761 26.9984 24 26.9984C18.3239 26.9984 14.3551 26.7271 11.5732 26.3542Z" fill="#333333"/>
</svg>
