<svg width="48" height="48" viewBox="0 0 48 48" fill="none" xmlns="http://www.w3.org/2000/svg">
<path d="M23.9999 16C22.8953 16 21.9999 16.8954 21.9999 18V30C21.9999 31.1046 22.8953 32 23.9999 32C25.1044 32 25.9999 31.1046 25.9999 30V18C25.9999 16.8954 25.1044 16 23.9999 16Z" fill="#333333"/>
<path d="M21.9999 36.9664C21.9999 35.8805 22.8802 35.0001 23.9662 35.0001H24.0336C25.1195 35.0001 25.9999 35.8805 25.9999 36.9664C25.9999 38.0524 25.1195 38.9327 24.0336 38.9327H23.9662C22.8802 38.9327 21.9999 38.0524 21.9999 36.9664Z" fill="#333333"/>
<path fill-rule="evenodd" clip-rule="evenodd" d="M48 0H0V48H48V0ZM24.8991 6.84867C24.5342 6.09862 23.4655 6.09862 23.1006 6.84867L6.69918 40.5628C6.37606 41.227 6.85978 42.0002 7.59842 42.0002H40.4013C41.14 42.0002 41.6237 41.227 41.3006 40.5628L24.8991 6.84867Z" fill="#333333"/>
</svg>
