<svg width="48" height="48" viewBox="0 0 48 48" fill="none" xmlns="http://www.w3.org/2000/svg">
<path fill-rule="evenodd" clip-rule="evenodd" d="M0 0H48V48H0V0ZM30.3056 35.7306C36.217 34.3299 39.977 28.838 38.7037 23.4639C37.9079 20.1052 35.3344 17.5875 32.073 16.5134C32.2853 15.9829 32.5555 15.3834 32.89 14.7708C33.9238 12.8776 35.4625 11.0528 37.6275 10.4984C39.6509 10.4472 41.5057 9.1777 42.848 7.03C43.1407 6.56166 42.9983 5.94471 42.53 5.652C42.0617 5.35929 41.4447 5.50166 41.152 5.97C40.0285 7.76762 38.6915 8.49224 37.5189 8.49994C37.5068 8.49972 37.4946 8.49972 37.4824 8.49995C36.3095 8.49276 34.9719 7.76826 33.848 5.97C33.6653 5.67762 33.3448 5.5 33 5.5C32.6552 5.5 32.3347 5.67762 32.152 5.97001C31.0426 7.745 29.5826 8.50002 28.3125 8.50002C27.0634 8.50001 25.7534 7.7708 24.8944 6.05279C24.7327 5.72925 24.4088 5.51829 24.0475 5.50113C23.6861 5.48396 23.3437 5.66326 23.152 5.97C22.0225 7.77728 20.6771 8.5 19.5 8.5C18.3229 8.5 16.9775 7.77728 15.848 5.97C15.6563 5.66326 15.3139 5.48396 14.9525 5.50113C14.5912 5.51829 14.2673 5.72925 14.1056 6.05279C13.2793 7.70538 11.756 8.5 10.3125 8.5C8.87928 8.5 7.5272 7.72454 6.93633 6.14888C6.74241 5.63176 6.166 5.36975 5.64888 5.56367C5.13176 5.75759 4.86975 6.334 5.06367 6.85112C5.9728 9.27546 8.12072 10.5 10.3125 10.5C12.0463 10.5 13.8087 9.73861 15.0482 8.24762C16.3016 9.68808 17.8473 10.5 19.5 10.5C21.1462 10.5 22.6863 9.69445 23.937 8.26458C25.081 9.71267 26.6392 10.5 28.3125 10.5C30.0196 10.5 31.684 9.68113 32.994 8.18465C33.5136 8.79352 34.0846 9.29333 34.6936 9.67075C33.068 10.7752 31.9153 12.3826 31.1347 13.8123C30.6944 14.6186 30.3557 15.3984 30.1046 16.0556C28.6888 15.8562 27.1944 15.914 25.6945 16.2694C24.8734 16.4639 24.0939 16.7374 23.3636 17.0785C23.3569 15.3269 21.9349 13.9091 20.1818 13.9091C19.494 13.9091 18.8572 14.1273 18.3368 14.4983C17.7747 13.5986 16.7754 13 15.6364 13C14.0209 13 12.6866 14.2039 12.4818 15.7635C12.3247 15.7396 12.1638 15.7273 12 15.7273C10.2427 15.7273 8.81818 17.1518 8.81818 18.9091C8.81818 19.4585 8.95741 19.9753 9.20251 20.4263C7.92442 20.8393 7 22.039 7 23.4545C7 24.5936 7.59856 25.5929 8.49831 26.155C8.12732 26.6754 7.90909 27.3122 7.90909 28C7.90909 29.7081 9.255 31.1018 10.9441 31.1785C10.7468 31.5926 10.6364 32.0561 10.6364 32.5455C10.6364 34.018 11.6367 35.2569 12.9949 35.6197C12.6579 36.0162 12.4545 36.5298 12.4545 37.0909C12.4545 38.3461 13.4721 39.3636 14.7273 39.3636C15.9825 39.3636 17 38.3461 17 37.0909C17 36.2077 16.4962 35.4422 15.7603 35.066C16.5143 34.4841 17 33.5715 17 32.5455C17 31.3631 16.3552 30.3315 15.398 29.7829C14.5824 27.6642 13.9254 21.3216 18.6327 21.1665C17.2362 23.3378 16.6838 25.9506 17.2964 28.5361C18.5697 33.9102 24.3941 37.1312 30.3056 35.7306ZM13.9715 29.3532L13.9649 29.367L13.9909 29.3682L13.9715 29.3532ZM32.5 30.9998C33.8807 30.9998 35 29.8806 35 28.4998C35 27.1191 33.8807 25.9998 32.5 25.9998C31.1193 25.9998 30 27.1191 30 28.4998C30 29.8806 31.1193 30.9998 32.5 30.9998ZM12.4545 41.1818C12.4545 40.1777 13.2686 39.3636 14.2727 39.3636C15.2769 39.3636 16.0909 40.1777 16.0909 41.1818C16.0909 42.186 15.2769 43 14.2727 43C13.2686 43 12.4545 42.186 12.4545 41.1818Z" fill="#333333"/>
</svg>
