<svg width="48" height="48" viewBox="0 0 48 48" fill="none" xmlns="http://www.w3.org/2000/svg">
<path fill-rule="evenodd" clip-rule="evenodd" d="M48 0H0V48H48V0ZM4 20.5C4 12.4919 10.4919 6 18.5 6H29.5C37.5081 6 44 12.4919 44 20.5C44 28.5081 37.5081 35 29.5 35H28V42C28 42 4 38.5 4 20.5ZM24.072 24.4319C24.768 24.4319 25.272 23.8799 25.368 23.2559L25.44 22.8239C28.056 22.2959 30.168 21.0479 30.168 17.9999V17.9519C30.168 14.7599 27.816 12.9839 24.36 12.9839C22.248 12.9839 20.64 13.6559 19.368 14.7119C18.936 15.0719 18.744 15.5519 18.744 16.0079C18.744 16.9199 19.512 17.6879 20.424 17.6879C20.832 17.6879 21.216 17.5199 21.504 17.3039C22.368 16.6559 23.256 16.3439 24.288 16.3439C25.68 16.3439 26.496 16.9679 26.496 18.0479V18.0959C26.496 19.2719 25.536 19.9199 23.448 20.1839C22.68 20.2799 22.224 20.8319 22.344 21.6239L22.584 23.2559C22.68 23.9039 23.184 24.4319 23.88 24.4319H24.072ZM21.792 28.0559V28.1039C21.792 29.2559 22.68 30.1439 23.88 30.1439C25.08 30.1439 25.968 29.2559 25.968 28.1039V28.0559C25.968 26.9039 25.08 26.0159 23.88 26.0159C22.68 26.0159 21.792 26.9039 21.792 28.0559Z" fill="#333333"/>
</svg>
