<svg width="48" height="48" viewBox="0 0 48 48" fill="none" xmlns="http://www.w3.org/2000/svg">
<path fill-rule="evenodd" clip-rule="evenodd" d="M0 0H48V48H0V0ZM12.8231 35.6633C12.916 35.667 13.0256 35.6693 13.1539 35.6693C14.1951 35.6693 15.1561 35.9197 15.9609 36.4829C16.7605 37.0425 17.2401 37.7948 17.5256 38.5141C17.9489 39.5806 18.0148 40.7849 18.0244 41.6376C18.1953 41.6884 18.4396 41.7454 18.7763 41.7968C20.0728 41.9948 21.8909 42 24.0001 42C26.1092 42 27.9273 41.9948 29.2238 41.7968C29.5605 41.7454 29.8048 41.6884 29.9757 41.6376C29.9853 40.7849 30.0512 39.5806 30.4745 38.5141C30.76 37.7948 31.2396 37.0425 32.0392 36.4829C32.844 35.9197 33.805 35.6693 34.8462 35.6693C34.9745 35.6693 35.0841 35.667 35.177 35.6633C35.179 35.5385 35.1785 35.393 35.1758 35.221C35.1729 35.0374 35.1669 34.8162 35.1601 34.5663L35.16 34.5622L35.16 34.5615C35.1458 34.0368 35.1283 33.3867 35.1283 32.6952C35.1283 30.4917 35.8857 29.2295 36.4609 28.2709C36.5842 28.0654 36.6991 27.8739 36.7965 27.69C37.3203 26.7001 38 25.0101 38.0001 20.486C38.0001 16.2734 36.2827 13.2209 33.7462 11.1796C31.1595 9.09792 27.6244 8.00001 24.0001 8.00001C20.3757 8.00001 16.8406 9.09792 14.254 11.1796C11.7175 13.2209 10 16.2734 10.0001 20.486C10.0001 25.0101 10.6798 26.7001 11.2037 27.69C11.301 27.8739 11.4159 28.0654 11.5392 28.2709C12.1145 29.2295 12.8718 30.4917 12.8719 32.6952C12.8719 33.3867 12.8543 34.0368 12.8401 34.5616L12.8401 34.5619C12.8333 34.8135 12.8273 35.0363 12.8243 35.221C12.8216 35.393 12.8211 35.5385 12.8231 35.6633ZM10.842 34.456C10.7715 37.0379 10.7543 37.6693 13.1539 37.6693C16.0257 37.6693 16.0257 40.3825 16.0257 42.1912C16.0257 44 19.8976 44 24.0001 44C28.1026 44 31.9744 44 31.9744 42.1912C31.9744 40.3825 31.9744 37.6693 34.8462 37.6693C37.2458 37.6693 37.2286 37.0379 37.1581 34.456V34.4559V34.4558V34.4557V34.4556C37.1442 33.9476 37.1283 33.3642 37.1283 32.6952C37.1283 31.0851 37.5778 30.3243 38.1212 29.4048C38.9511 28.0001 40 26.225 40.0001 20.4861C40.0001 1.17133 7.99997 1.17133 8.00006 20.4861C8.00008 26.225 9.04897 28.0001 9.87895 29.4048C10.4223 30.3243 10.8718 31.0851 10.8719 32.6952C10.8719 33.3644 10.8559 33.948 10.842 34.456ZM17.5016 32.5C19.9869 32.5 22.0013 30.3734 22.001 27.75C22.0007 25.1266 19.9858 23 17.5005 23C15.0152 23 13.0007 25.1266 13.001 27.75C13.0013 30.3734 15.0163 32.5 17.5016 32.5ZM35.0001 27.75C34.9999 30.3734 32.985 32.5 30.4997 32.5C28.0145 32.5 25.9999 30.3734 26.0001 27.75C26.0003 25.1266 28.0152 23 30.5005 23C32.9858 23 35.0003 25.1266 35.0001 27.75ZM25.4063 38C26.3274 38 27.0001 37.1705 27.0001 36.2759C27.0001 34.2788 24.0001 33 24.0001 33C24.0001 33 21.0001 34.3611 21.0001 36.2759C21.0001 37.1703 21.6726 38 22.5938 38C23.233 38 23.7073 37.6278 24.0001 37.0998C24.2928 37.6278 24.7671 38 25.4063 38Z" fill="#333333"/>
</svg>
