<svg width="48" height="48" viewBox="0 0 48 48" fill="none" xmlns="http://www.w3.org/2000/svg">
<path fill-rule="evenodd" clip-rule="evenodd" d="M48 0H0V48H48V0ZM14 4C11.7909 4 10 5.79086 10 8V38C10 40.2091 11.7909 42 14 42H25.5155C24.5583 40.5699 24 38.8501 24 37C24 32.0294 28.0294 28 33 28C34.8501 28 36.5699 28.5583 38 29.5155V8C38 5.79086 36.2091 4 34 4H14ZM15 11C14.4477 11 14 11.4477 14 12C14 12.5523 14.4477 13 15 13H33C33.5523 13 34 12.5523 34 12C34 11.4477 33.5523 11 33 11H15ZM14 16C14 15.4477 14.4477 15 15 15H33C33.5523 15 34 15.4477 34 16C34 16.5523 33.5523 17 33 17H15C14.4477 17 14 16.5523 14 16ZM15 23C14.4477 23 14 23.4477 14 24C14 24.5523 14.4477 25 15 25H33C33.5523 25 34 24.5523 34 24C34 23.4477 33.5523 23 33 23H15ZM14 20C14 19.4477 14.4477 19 15 19H33C33.5523 19 34 19.4477 34 20C34 20.5523 33.5523 21 33 21H15C14.4477 21 14 20.5523 14 20ZM15 27C14.4477 27 14 27.4477 14 28C14 28.5523 14.4477 29 15 29H24C24.5523 29 25 28.5523 25 28C25 27.4477 24.5523 27 24 27H15ZM33 44C36.866 44 40 40.866 40 37C40 33.134 36.866 30 33 30C29.134 30 26 33.134 26 37C26 40.866 29.134 44 33 44ZM36.9812 33.0142C36.5907 32.6236 35.9575 32.6236 35.567 33.0142L34.776 33.8051L36.1902 35.2193L36.9812 34.4284C37.3717 34.0379 37.3717 33.4047 36.9812 33.0142ZM35.4831 35.9264L34.0689 34.5122L29 39.581L29.0001 40.9953H30.4143L35.4831 35.9264Z" fill="#333333"/>
</svg>
