<svg width="48" height="48" viewBox="0 0 48 48" fill="none" xmlns="http://www.w3.org/2000/svg">
<path fill-rule="evenodd" clip-rule="evenodd" d="M48 0H0V48H48V0ZM41.8489 24.8573L40.7463 23.0423C39.16 20.4309 36.5105 18.8752 33.6529 18.8752H20.3999L15.8322 13.8624C14.1865 13.6006 13.5251 11.9429 12.7794 10.0739C12.2417 8.72641 11.6602 7.26907 10.6344 6.14593C10.4319 5.92369 10.0944 5.96073 9.9369 6.22001C9.245 7.36826 9.35751 11.9363 10.28 12.9488C10.4459 13.1308 10.6433 13.2488 10.844 13.3687C10.8679 13.383 10.8918 13.3973 10.9157 13.4118C10.8836 13.4389 10.8505 13.4649 10.8172 13.4909C10.7221 13.5652 10.6265 13.6399 10.5557 13.7451L6.35925 19.8753C5.94861 20.4741 5.88673 21.2767 6.1905 21.9434L6.9949 23.709C7.29867 24.3757 7.92307 24.8017 8.60372 24.8017H10.3475C10.8257 24.8017 11.2813 24.5918 11.6189 24.2214L14 20.9167L16.7997 28.7527L17.7997 35.4597L16.7997 40.1667C16.7997 40.1667 15 39.5 15 42H16.7997H19.9714C19.9714 42 20.4658 40.7022 20.3999 39C20.3796 38.4762 20.3439 37.9142 20.3074 37.3399C20.1498 34.8589 19.9776 32.1492 20.9714 31.3099C23.1579 33.7333 25.5 33.5 27.8516 32C28.2449 31.8912 28.8252 31.4925 29.449 31.064C30.734 30.1813 32.2032 29.172 32.6003 30.3099C32.9039 31.1799 33.5698 31.5583 34.1291 31.8762C34.6564 32.1758 35.0891 32.4217 35.0343 32.9749C36.1445 35.8279 35.0105 37.377 34.0743 38.6558C33.6897 39.1811 33.3385 39.6609 33.1901 40.1667L33.1759 40.182C33.1473 40.196 33.0799 40.1885 32.9878 40.1782C32.5383 40.1281 31.5 40.0125 31.5 42H33.6003H36.6005L38.8563 32.9749L36.6005 22.9498C36.6898 23.0235 36.7775 23.0949 36.8644 23.1656C37.665 23.8167 38.3913 24.4073 39.4975 26.2284C39.8934 26.8845 40.5986 26.6121 41.2084 26.3765C41.3458 26.3234 41.4783 26.2722 41.6014 26.2339C42.012 25.9253 42.1245 25.3141 41.8489 24.8573Z" fill="#333333"/>
</svg>
