<svg width="48" height="48" viewBox="0 0 48 48" fill="none" xmlns="http://www.w3.org/2000/svg">
<path fill-rule="evenodd" clip-rule="evenodd" d="M48 0H0V48H48V0ZM20 4C18.3431 4 17 5.34315 17 7H14C11.7909 7 10 8.79086 10 11V39C10 41.2091 11.7909 43 14 43H34C36.2091 43 38 41.2091 38 39V11C38 8.79086 36.2091 7 34 7H31C31 5.34315 29.6569 4 28 4H20ZM19 7C19 6.44772 19.4477 6 20 6H28C28.5523 6 29 6.44772 29 7V9C29 9.55228 28.5523 10 28 10H20C19.4477 10 19 9.55228 19 9V7ZM15 21C15 20.4477 15.4477 20 16 20H23C23.5523 20 24 20.4477 24 21C24 21.5523 23.5523 22 23 22H16C15.4477 22 15 21.5523 15 21ZM16 15C15.4477 15 15 15.4477 15 16C15 16.5523 15.4477 17 16 17H31.5C32.0523 17 32.5 16.5523 32.5 16C32.5 15.4477 32.0523 15 31.5 15H16ZM27.696 22C26.777 22 26.0251 22.7385 26.0251 23.641C26.0251 24.5436 26.777 25.2821 27.696 25.2821C28.6151 25.2821 29.367 24.5436 29.367 23.641C29.367 22.7385 28.6151 22 27.696 22ZM20.8355 27.6565H25.5898L22.7052 37.5027C22.7052 37.954 23.0812 38.3232 23.5407 38.3232C24.5482 38.3232 25.2996 35.9143 25.7721 34.3993C25.9064 33.9688 26.0182 33.6105 26.1069 33.4001H28.8931C28.9818 33.6105 29.0936 33.9688 29.2279 34.3993C29.7004 35.9143 30.4518 38.3232 31.4593 38.3232C31.9188 38.3232 32.2948 37.954 32.2948 37.5027L29.4102 27.6565H34.1645C34.624 27.6565 35 27.2873 35 26.836C35 26.3847 34.624 26.0155 34.1645 26.0155H20.8355C20.376 26.0155 20 26.3847 20 26.836C20 27.2873 20.376 27.6565 20.8355 27.6565ZM17 32V34H19V32H17ZM16 30C15.4477 30 15 30.4477 15 31V35C15 35.5523 15.4477 36 16 36H20C20.5523 36 21 35.5523 21 35V31C21 30.4477 20.5523 30 20 30H16Z" fill="#333333"/>
</svg>
