<svg width="48" height="48" viewBox="0 0 48 48" fill="none" xmlns="http://www.w3.org/2000/svg">
<path fill-rule="evenodd" clip-rule="evenodd" d="M48 0H0V48H48V0ZM17.6307 28.7073L23.1938 35.8964L17.6307 43L10.6127 37.6081L17.6307 28.7073ZM17.374 7.22522L14.3785 11.1621C11.9821 14.3288 11.9821 18.6936 14.3785 21.7747L31.0676 42.9998L38 37.608L31.3244 29.0494L23.2793 18.7792L19.8559 14.4144C20.455 14.072 21.1397 13.8153 21.8244 13.8153H21.91H26.8739C27.5586 13.8153 28.2433 13.9864 28.8424 14.3288C28.8424 14.4144 28.928 14.4144 28.928 14.4144L25.5046 18.7792L31.0676 25.9684L34.3198 21.8603C36.7162 18.7792 36.7162 14.4144 34.3198 11.2477L31.2388 7.22522C30.7253 6.54053 30.0406 5.94144 29.2703 5.5991C28.5 5.17117 27.6442 5 26.7883 5H21.8244C20.1127 5 18.4866 5.85585 17.374 7.22522ZM18.6577 12.9166C18.6363 12.8738 18.615 12.831 18.5722 12.7883C17.6307 11.4189 17.8019 9.53602 18.7433 8.25224C19.5136 7.3108 20.6262 6.7117 21.8244 6.7117H26.7883C27.3874 6.7117 27.9865 6.88287 28.5 7.13963C29.0136 7.39639 29.5271 7.82431 29.8694 8.25224C30.2973 8.76575 30.5541 9.36485 30.6397 9.96394C30.8964 10.991 30.5541 12.1892 29.955 13.045C29.8694 13.0022 29.7625 12.9381 29.6555 12.8739L29.6555 12.8739L29.6554 12.8738C29.5485 12.8096 29.4415 12.7455 29.3559 12.7027C28.5856 12.2747 27.7298 12.1036 26.8739 12.1036H21.91C21.0541 12.1036 20.1983 12.3603 19.428 12.7027C19.1713 12.7883 18.9145 12.8738 18.7433 13.045C18.7005 13.0022 18.6791 12.9594 18.6577 12.9166ZM40 21C40.5523 21 41 21.4477 41 22V26H45C45.5523 26 46 26.4477 46 27C46 27.5523 45.5523 28 45 28H41V32C41 32.5523 40.5523 33 40 33C39.4477 33 39 32.5523 39 32V28H35C34.4477 28 34 27.5523 34 27C34 26.4477 34.4477 26 35 26H39V22C39 21.4477 39.4477 21 40 21Z" fill="#333333"/>
</svg>
