<svg width="48" height="48" viewBox="0 0 48 48" fill="none" xmlns="http://www.w3.org/2000/svg">
<path fill-rule="evenodd" clip-rule="evenodd" d="M48 0H0V48H48V0ZM18.018 28.7073L23.581 35.8964L18.018 43L11 37.6081L18.018 28.7073ZM17.7612 7.22522L14.7657 11.1621C12.3694 14.3288 12.3694 18.6936 14.7657 21.7747L31.4549 42.9998L38.3873 37.608L31.7116 29.0494L23.6666 18.7792L20.2432 14.4144C20.8423 14.072 21.527 13.8153 22.2117 13.8153H22.2972H27.2612C27.9459 13.8153 28.6306 13.9864 29.2296 14.3288C29.2296 14.4144 29.3152 14.4144 29.3152 14.4144L25.8918 18.7792L31.4549 25.9684L34.7071 21.8603C37.1035 18.7792 37.1035 14.4144 34.7071 11.2477L31.626 7.22522C31.1125 6.54053 30.4278 5.94144 29.6576 5.5991C28.8873 5.17117 28.0315 5 27.1756 5H22.2117C20.5 5 18.8738 5.85585 17.7612 7.22522ZM19.045 12.9166C19.0236 12.8738 19.0022 12.831 18.9594 12.7883C18.018 11.4189 18.1892 9.53602 19.1306 8.25224C19.9009 7.3108 21.0135 6.7117 22.2117 6.7117H27.1756C27.7747 6.7117 28.3738 6.88287 28.8873 7.13963C29.4008 7.39639 29.9143 7.82431 30.2567 8.25224C30.6846 8.76575 30.9414 9.36485 31.0269 9.96394C31.2837 10.991 30.9414 12.1892 30.3423 13.045C30.2567 13.0022 30.1497 12.9381 30.0428 12.8739L30.0427 12.8739L30.0427 12.8738C29.9357 12.8096 29.8287 12.7455 29.7432 12.7027C28.9729 12.2747 28.117 12.1036 27.2612 12.1036H22.2972C21.4414 12.1036 20.5855 12.3603 19.8153 12.7027C19.5585 12.7883 19.3018 12.8738 19.1306 13.045C19.0878 13.0022 19.0664 12.9594 19.045 12.9166ZM42.6588 32.6986C42.6588 33.4173 42.0762 34 41.3574 34C40.6386 34 40.0559 33.4173 40.0559 32.6986C40.0559 31.9798 40.6386 31.3971 41.3574 31.3971C42.0762 31.3971 42.6588 31.9798 42.6588 32.6986ZM38.0085 22.5659C37.8193 22.9421 37.7563 23.1536 37.7197 23.6071C37.6817 24.0772 37.7665 24.4713 38.2098 24.6605C38.3775 24.732 38.5492 24.7489 38.7609 24.6727C39.0643 24.5635 39.1915 24.3681 39.2672 24.0972C39.2835 23.9893 39.2806 23.9075 39.2779 23.8313C39.2751 23.7552 39.2726 23.6845 39.2896 23.5989C39.3974 23.0552 39.7863 22.8008 40.2921 22.6615C40.9973 22.4673 42.1151 22.5996 42.3745 22.7184C42.9173 22.9137 43.4157 23.2157 43.4421 24.1216C43.4646 24.8929 43.2659 25.2678 42.3745 25.8094C42.2667 25.8835 42.1569 25.9513 42.0457 26.02C41.7476 26.2041 41.4388 26.3948 41.1286 26.7306C40.8349 27.0647 40.6395 27.393 40.5968 27.753V28.2797C40.5968 28.4931 40.5943 28.7067 40.5919 28.9149C40.5881 29.2398 40.5845 29.5516 40.5907 29.8292C40.6009 30.2847 41.0253 30.36 41.3574 30.36C41.7225 30.36 42.0813 30.2156 42.0813 29.8475C42.0813 29.5814 42.0818 29.33 42.0823 29.0762C42.0828 28.8176 42.0833 28.5567 42.0833 28.2756C42.0833 28.022 42.1745 27.9121 42.2814 27.7831C42.2885 27.7745 42.2957 27.7659 42.303 27.757C42.5353 27.5383 42.8067 27.3737 43.1009 27.1953C43.2033 27.1332 43.3085 27.0694 43.4157 27.0011C43.9424 26.6656 44.2494 26.3504 44.4528 26.0657C44.7538 25.6793 44.921 25.2315 44.9795 24.6483C45.0425 24.0199 44.9998 23.2736 44.5972 22.5659C44.025 21.598 43.0334 21.1546 41.8478 21.0286C41.2418 20.9757 40.892 21.0001 40.2921 21.0704C39.8701 21.1532 39.6301 21.2046 39.251 21.3844C38.7304 21.6508 38.3277 21.9538 38.0085 22.5659Z" fill="#333333"/>
</svg>
