<svg width="48" height="48" viewBox="0 0 48 48" fill="none" xmlns="http://www.w3.org/2000/svg">
<path fill-rule="evenodd" clip-rule="evenodd" d="M0 0H48V48H0V0ZM35 26H43C43.5523 26 44 26.4477 44 27C44 27.5523 43.5523 28 43 28H35C34.4477 28 34 27.5523 34 27C34 26.4477 34.4477 26 35 26ZM17.6308 28.7073L23.1938 35.8964L17.6308 43L10.6128 37.6081L17.6308 28.7073ZM17.374 7.22522L14.3786 11.1621C11.9822 14.3288 11.9822 18.6936 14.3786 21.7747L31.0677 42.9998L38.0001 37.608L31.3244 29.0494L23.2794 18.7792L19.856 14.4144C20.4551 14.072 21.1398 13.8153 21.8245 13.8153H21.9101H26.874C27.5587 13.8153 28.2434 13.9864 28.8425 14.3288C28.8425 14.4144 28.928 14.4144 28.928 14.4144L25.5046 18.7792L31.0677 25.9684L34.3199 21.8603C36.7163 18.7792 36.7163 14.4144 34.3199 11.2477L31.2388 7.22522C30.7253 6.54053 30.0407 5.94144 29.2704 5.5991C28.5001 5.17117 27.6443 5 26.7884 5H21.8245C20.1128 5 18.4867 5.85585 17.374 7.22522ZM18.6578 12.9166C18.6364 12.8738 18.615 12.831 18.5722 12.7883C17.6308 11.4189 17.802 9.53602 18.7434 8.25224C19.5137 7.3108 20.6263 6.7117 21.8245 6.7117H26.7884C27.3875 6.7117 27.9866 6.88287 28.5001 7.13963C29.0136 7.39639 29.5271 7.82431 29.8695 8.25224C30.2974 8.76575 30.5542 9.36485 30.6398 9.96394C30.8965 10.991 30.5542 12.1892 29.9551 13.045C29.8695 13.0022 29.7625 12.938 29.6555 12.8738C29.5485 12.8096 29.4416 12.7455 29.356 12.7027C28.5857 12.2747 27.7299 12.1036 26.874 12.1036H21.9101C21.0542 12.1036 20.1984 12.3603 19.4281 12.7027C19.1713 12.7883 18.9146 12.8738 18.7434 13.045C18.7006 13.0022 18.6792 12.9594 18.6578 12.9166Z" fill="#333333"/>
</svg>
