<svg width="48" height="48" viewBox="0 0 48 48" fill="none" xmlns="http://www.w3.org/2000/svg">
<path fill-rule="evenodd" clip-rule="evenodd" d="M48 0H0V48H48V0ZM22 4C21.4477 4 21 4.44772 21 5C21 5.55228 21.4477 6 22 6H23V8C23 8.55228 23.4477 9 24 9C24.5523 9 25 8.55228 25 8V6H26C26.5523 6 27 5.55228 27 5C27 4.44772 26.5523 4 26 4H24H22ZM25 40C25 39.4477 24.5523 39 24 39C23.4477 39 23 39.4477 23 40V42H22C21.4477 42 21 42.4477 21 43C21 43.5523 21.4477 44 22 44H24H26C26.5523 44 27 43.5523 27 43C27 42.4477 26.5523 42 26 42H25V40ZM11.2721 39.5567L9.85787 38.1425L8.44365 36.7283C8.05313 36.3378 8.05313 35.7046 8.44365 35.3141C8.83418 34.9236 9.46734 34.9236 9.85787 35.3141L10.565 36.0212L11.9792 34.607C12.3697 34.2164 13.0029 34.2164 13.3934 34.607C13.7839 34.9975 13.7839 35.6307 13.3934 36.0212L11.9792 37.4354L12.6863 38.1425C13.0768 38.533 13.0768 39.1662 12.6863 39.5567C12.2958 39.9472 11.6626 39.9472 11.2721 39.5567ZM34.6066 11.9793C34.2161 12.3698 34.2161 13.003 34.6066 13.3935C34.9971 13.784 35.6303 13.784 36.0208 13.3935L37.435 11.9793L38.1421 12.6864C38.5326 13.0769 39.1658 13.0769 39.5563 12.6864C39.9469 12.2958 39.9469 11.6627 39.5563 11.2722L38.1421 9.85795L36.7279 8.44373C36.3374 8.05321 35.7042 8.05321 35.3137 8.44373C34.9232 8.83426 34.9232 9.46742 35.3137 9.85795L36.0208 10.5651L34.6066 11.9793ZM5 27C4.44772 27 4 26.5523 4 26V24V22C4 21.4477 4.44772 21 5 21C5.55228 21 6 21.4477 6 22V23H8C8.55228 23 9 23.4477 9 24C9 24.5523 8.55228 25 8 25H6V26C6 26.5523 5.55228 27 5 27ZM40 23C39.4477 23 39 23.4477 39 24C39 24.5523 39.4477 25 40 25H42V26C42 26.5523 42.4477 27 43 27C43.5523 27 44 26.5523 44 26V24V22C44 21.4477 43.5523 21 43 21C42.4477 21 42 21.4477 42 22V23H40ZM8.44365 12.6866C8.05313 12.2961 8.05313 11.6629 8.44365 11.2724L9.85786 9.85817L11.2721 8.44396C11.6626 8.05343 12.2958 8.05343 12.6863 8.44396C13.0768 8.83448 13.0768 9.46765 12.6863 9.85817L11.9792 10.5653L13.3934 11.9795C13.7839 12.37 13.7839 13.0032 13.3934 13.3937C13.0029 13.7842 12.3697 13.7842 11.9792 13.3937L10.565 11.9795L9.85786 12.6866C9.46734 13.0771 8.83417 13.0771 8.44365 12.6866ZM37.435 36.0214L36.0208 34.6072C35.6303 34.2167 34.9971 34.2167 34.6066 34.6072C34.2161 34.9977 34.2161 35.6309 34.6066 36.0214L36.0208 37.4356L35.3137 38.1427C34.9232 38.5333 34.9232 39.1664 35.3137 39.5569C35.7042 39.9475 36.3374 39.9475 36.7279 39.5569L38.1421 38.1427L39.5563 36.7285C39.9469 36.338 39.9469 35.7048 39.5563 35.3143C39.1658 34.9238 38.5326 34.9238 38.1421 35.3143L37.435 36.0214ZM14.8326 13.4187C17.0532 11.4931 19.886 10.2549 23 10.0352V12C23 12.5523 23.4477 13 24 13C24.5523 13 25 12.5523 25 12V10.0352C28.1139 10.2549 30.9466 11.493 33.1671 13.4184L31.7782 14.8074C31.3877 15.1979 31.3877 15.8311 31.7782 16.2216C32.1687 16.6121 32.8019 16.6121 33.1924 16.2216L34.5814 14.8326C36.5069 17.0532 37.7451 19.886 37.9648 23H36C35.4477 23 35 23.4477 35 24C35 24.5523 35.4477 25 36 25H37.9648C37.7451 28.1139 36.507 30.9466 34.5815 33.1672L33.1924 31.7781C32.8019 31.3876 32.1687 31.3876 31.7782 31.7781C31.3876 32.1686 31.3876 32.8018 31.7782 33.1923L33.1673 34.5814C30.9467 36.5069 28.1139 37.7451 25 37.9648V36C25 35.4477 24.5523 35 24 35C23.4477 35 23 35.4477 23 36V37.9648C19.8862 37.7451 17.0535 36.507 14.8329 34.5816L16.2218 33.1927C16.6123 32.8022 16.6123 32.1691 16.2218 31.7785C15.8313 31.388 15.1981 31.388 14.8076 31.7785L13.4187 33.1674C11.4931 30.9468 10.2549 28.114 10.0352 25H12C12.5523 25 13 24.5523 13 24C13 23.4477 12.5523 23 12 23H10.0352C10.2549 19.8861 11.493 17.0535 13.4184 14.8329L14.8076 16.2221C15.1981 16.6126 15.8313 16.6126 16.2218 16.2221C16.6123 15.8316 16.6123 15.1984 16.2218 14.8079L14.8326 13.4187ZM17 21.5C17 20.9477 16.5523 20.5 16 20.5C15.4477 20.5 15 20.9477 15 21.5V24V26.5C15 27.0523 15.4477 27.5 16 27.5C16.5523 27.5 17 27.0523 17 26.5V25H19V26.5C19 27.0523 19.4477 27.5 20 27.5C20.5523 27.5 21 27.0523 21 26.5V24V21.5C21 20.9477 20.5523 20.5 20 20.5C19.4477 20.5 19 20.9477 19 21.5V23H17V21.5ZM22 21.5C22 20.9477 22.4477 20.5 23 20.5H25C26.3807 20.5 27.5 21.6193 27.5 23C27.5 24.3807 26.3807 25.5 25 25.5H24V26.5C24 27.0523 23.5523 27.5 23 27.5C22.4477 27.5 22 27.0523 22 26.5V24.5V21.5ZM24 23.5H25C25.2761 23.5 25.5 23.2761 25.5 23C25.5 22.7239 25.2761 22.5 25 22.5H24V23.5ZM29.9285 21.1286C29.7234 20.6158 29.1414 20.3664 28.6286 20.5715C28.1158 20.7766 27.8664 21.3586 28.0715 21.8714L30.0715 26.8714C30.2234 27.251 30.5911 27.5 31 27.5C31.4089 27.5 31.7766 27.251 31.9285 26.8714L33.9285 21.8714C34.1336 21.3586 33.8842 20.7766 33.3714 20.5715C32.8586 20.3664 32.2766 20.6158 32.0715 21.1286L31 23.8074L29.9285 21.1286Z" fill="#333333"/>
</svg>
