<svg width="48" height="48" viewBox="0 0 48 48" fill="none" xmlns="http://www.w3.org/2000/svg">
<path d="M19 10C18.4477 10 18 10.4477 18 11C18 11.5523 18.4477 12 19 12L29 12C29.5523 12 30 11.5523 30 11C30 10.4477 29.5523 10 29 10L19 10Z" fill="#333333"/>
<path d="M14 17C14 16.4477 14.4477 16 15 16H33C33.5523 16 34 16.4477 34 17C34 17.5523 33.5523 18 33 18H15C14.4477 18 14 17.5523 14 17Z" fill="#333333"/>
<path d="M15 20C14.4477 20 14 20.4477 14 21C14 21.5523 14.4477 22 15 22H33C33.5523 22 34 21.5523 34 21C34 20.4477 33.5523 20 33 20H15Z" fill="#333333"/>
<path d="M14 25C14 24.4477 14.4477 24 15 24H33C33.5523 24 34 24.4477 34 25C34 25.5523 33.5523 26 33 26H15C14.4477 26 14 25.5523 14 25Z" fill="#333333"/>
<path fill-rule="evenodd" clip-rule="evenodd" d="M48 0H0V48H48V0ZM15 40C12.2386 40 10 37.7614 10 35V9C10 6.23858 12.2386 4 15 4H33C35.7614 4 38 6.23858 38 9V35C38 37.7614 35.7614 40 33 40H30V37.4649C31.1956 36.7733 32 35.4806 32 34C32 31.7909 30.2091 30 28 30C25.7909 30 24 31.7909 24 34C24 35.4806 24.8044 36.7733 26 37.4649V40H15ZM26 40H30V44L28 42.6667L26 44V40ZM28 36C29.1046 36 30 35.1046 30 34C30 32.8954 29.1046 32 28 32C26.8954 32 26 32.8954 26 34C26 35.1046 26.8954 36 28 36Z" fill="#333333"/>
</svg>
