<svg width="48" height="48" viewBox="0 0 48 48" fill="none" xmlns="http://www.w3.org/2000/svg">
<path d="M19 12C18.4477 12 18 12.4477 18 13C18 13.5523 18.4477 14 19 14H31C31.5523 14 32 13.5523 32 13C32 12.4477 31.5523 12 31 12H19Z" fill="#333333"/>
<path d="M18 17C18 16.4477 18.4477 16 19 16H31C31.5523 16 32 16.4477 32 17C32 17.5523 31.5523 18 31 18H19C18.4477 18 18 17.5523 18 17Z" fill="#333333"/>
<path d="M15.7071 13.7071C16.0976 13.3166 16.0976 12.6834 15.7071 12.2929C15.3166 11.9024 14.6834 11.9024 14.2929 12.2929L11 15.5858L9.70711 14.2929C9.31658 13.9024 8.68342 13.9024 8.29289 14.2929C7.90237 14.6834 7.90237 15.3166 8.29289 15.7071L11 18.4142L15.7071 13.7071Z" fill="#333333"/>
<path d="M18 25C18 24.4477 18.4477 24 19 24H31C31.5523 24 32 24.4477 32 25C32 25.5523 31.5523 26 31 26H19C18.4477 26 18 25.5523 18 25Z" fill="#333333"/>
<path d="M19 28C18.4477 28 18 28.4477 18 29C18 29.5523 18.4477 30 19 30H31C31.5523 30 32 29.5523 32 29C32 28.4477 31.5523 28 31 28H19Z" fill="#333333"/>
<path fill-rule="evenodd" clip-rule="evenodd" d="M9 24H14C14.5523 24 15 24.4477 15 25V30C15 30.5523 14.5523 31 14 31H9C8.44772 31 8 30.5523 8 30V25C8 24.4477 8.44772 24 9 24ZM10 26V29H13V26H10Z" fill="#333333"/>
<path fill-rule="evenodd" clip-rule="evenodd" d="M48 0H0V48H48V0ZM8 44H32C34.2091 44 36 42.2091 36 40V8C36 5.79086 34.2091 4 32 4H8C5.79086 4 4 5.79086 4 8V40C4 42.2091 5.79086 44 8 44ZM44 40L41 44L38 40V23H44V40ZM42 15H40C38.8954 15 38 15.8954 38 17V21H44V17C44 15.8954 43.1046 15 42 15Z" fill="#333333"/>
</svg>
