<svg width="48" height="48" viewBox="0 0 48 48" fill="none" xmlns="http://www.w3.org/2000/svg">
<path fill-rule="evenodd" clip-rule="evenodd" d="M0 0H48V48H0V0ZM12 5C12 4.44772 12.4477 4 13 4C13.5523 4 14 4.44772 14 5V8V11C14 11.5523 14.4477 12 15 12C15.5523 12 16 11.5523 16 11V8H28V5C28 4.44772 28.4477 4 29 4C29.5523 4 30 4.44772 30 5V8V11C30 11.5523 30.4477 12 31 12C31.5523 12 32 11.5523 32 11V8H33C35.2091 8 37 9.79086 37 12V18V19V28.252C40.4505 29.1401 43 32.2723 43 36C43 40.4183 39.4183 44 35 44C32.0389 44 29.4535 42.3912 28.0703 40H9C6.79086 40 5 38.2091 5 36V19V18V12C5 9.79086 6.79086 8 9 8H12V5ZM35 19V28C30.5817 28 27 31.5817 27 36C27 36.6906 27.0875 37.3608 27.252 38H9C7.89543 38 7 37.1046 7 36V19H35ZM12 23V25H14V23H12ZM12 21C10.8954 21 10 21.8954 10 23V25C10 26.1046 10.8954 27 12 27H14C15.1046 27 16 26.1046 16 25V23C16 21.8954 15.1046 21 14 21H12ZM20 23H22V25H20V23ZM18 23C18 21.8954 18.8954 21 20 21H22C23.1046 21 24 21.8954 24 23V25C24 26.1046 23.1046 27 22 27H20C18.8954 27 18 26.1046 18 25V23ZM28 23V25H30V23H28ZM28 21C26.8954 21 26 21.8954 26 23V25C26 26.1046 26.8954 27 28 27H30C31.1046 27 32 26.1046 32 25V23C32 21.8954 31.1046 21 30 21H28ZM12 33V31H14V33H12ZM10 31C10 29.8954 10.8954 29 12 29H14C15.1046 29 16 29.8954 16 31V33C16 34.1046 15.1046 35 14 35H12C10.8954 35 10 34.1046 10 33V31ZM22 31H20V33H22V31ZM20 29C18.8954 29 18 29.8954 18 31V33C18 34.1046 18.8954 35 20 35H22C23.1046 35 24 34.1046 24 33V31C24 29.8954 23.1046 29 22 29H20ZM35 42C38.3137 42 41 39.3137 41 36C41 32.6863 38.3137 30 35 30C31.6863 30 29 32.6863 29 36C29 39.3137 31.6863 42 35 42ZM36 32.1787C36 31.6264 35.5523 31.1787 35 31.1787C34.4477 31.1787 34 31.6264 34 32.1787V37V37.5232L34.4298 37.8215L37.311 39.8215C37.7647 40.1364 38.3878 40.0239 38.7027 39.5702C39.0177 39.1165 38.9052 38.4934 38.4515 38.1785L36 36.4768V32.1787Z" fill="#333333"/>
</svg>
