<svg width="48" height="48" viewBox="0 0 48 48" fill="none" xmlns="http://www.w3.org/2000/svg">
<path fill-rule="evenodd" clip-rule="evenodd" d="M48 0H0V48H48V0ZM21.7448 5.17723C20.4411 3.31487 17.6204 3.52266 16.6038 5.55598L16.5724 5.6188C15.1628 5.14855 13.5156 5.73346 12.7896 7.18541C12.1887 8.38708 12.4243 9.83841 13.3743 10.7884L15.7126 13.1267C16.1914 13.6055 16.7624 13.9821 17.3911 14.2336L18.9757 14.8674C17.0006 14.9494 14.6581 15.2048 12.532 15.8107C11.3876 16.1368 10.5045 16.9591 10.2503 18.0038C9.97867 19.1203 10.4886 20.2362 11.6308 20.8637C12.3415 21.2542 13.2415 21.6497 14.3823 22.0391C14.4766 22.0713 14.5719 22.1002 14.6679 22.126C13.5482 23.2289 11.9434 24.2982 9.68359 25.0514L10.316 26.9488C13.5626 25.8666 15.7007 24.1681 17.0443 22.467C18.0747 22.5618 19.0815 22.5889 20.0162 22.5075C21.506 22.3777 22.9482 21.9608 23.9804 20.9597C24.0371 20.9047 24.0902 20.8484 24.1399 20.7908C24.569 20.9267 25.0259 21 25.5 21C25.8088 21 26.1103 20.9689 26.4015 20.9097C26.204 21.4505 26.061 22.0166 26.0156 22.6112C25.8618 24.6213 26.8374 26.5696 29.343 28.7538L30.6572 27.2462C28.3829 25.2636 27.9245 23.8786 28.0097 22.7637C28.0465 22.2825 28.188 21.7876 28.4192 21.2458C28.5387 21.6092 28.6876 21.9744 28.8707 22.3334C29.7051 23.9697 31.2383 25.445 33.7956 25.9788L34.2043 24.021C32.2902 23.6215 31.2359 22.569 30.6524 21.4248C30.3635 20.8582 30.1879 20.2624 30.0928 19.7056C30.5234 19.8949 30.9994 20 31.5 20C32.8962 20 34.1015 19.1825 34.6632 18H40V16H34.9646C34.7219 14.3039 33.2632 13 31.5 13C30.6037 13 29.7861 13.3369 29.1669 13.891C28.5594 13.0386 27.6621 12.4071 26.6188 12.1402L21.7448 5.17723ZM24.2106 12.1875L20.1063 6.32416C19.6717 5.70337 18.7315 5.77264 18.3926 6.4504L18.2166 6.80237L23.7073 12.2931L23.5636 12.4368C23.771 12.3378 23.9872 12.2542 24.2106 12.1875ZM16.3743 7.78841L22.1176 13.5318C22.0242 13.6382 21.9357 13.7491 21.8525 13.864L18.1339 12.3766C17.7567 12.2257 17.4141 11.9998 17.1268 11.7125L14.7885 9.3742C14.4472 9.03292 14.3626 8.51153 14.5784 8.07984C14.9207 7.39527 15.8331 7.24722 16.3743 7.78841ZM28.5859 35H25V33H32V40H30V36.4144L24.4144 42H36V44H12V42H21.5858L14.293 34.7072L15.7072 33.293L23.0001 40.5859L28.5859 35Z" fill="#333333"/>
</svg>
