<svg width="48" height="48" viewBox="0 0 48 48" fill="none" xmlns="http://www.w3.org/2000/svg">
<path fill-rule="evenodd" clip-rule="evenodd" d="M48 0H0V48H48V0ZM24 4.00854C24.5523 4.00854 25 4.45626 25 5.00854V12.3308C25.9223 12.9539 26.7158 14.4187 27.2547 16.3947L27.7335 16.4782L30.1735 14.0138V10.3893C30.1735 10.1258 30.2775 9.87298 30.4629 9.68574L34.4588 5.64993C34.8474 5.25747 35.4805 5.25432 35.873 5.6429C36.2655 6.03148 36.2686 6.66464 35.88 7.0571L32.1735 10.8006V14.4251C32.1735 14.6886 32.0695 14.9415 31.8841 15.1287L30.1336 16.8967L41.9108 18.9507C42.3951 21.2735 41.6202 25.9191 34.6461 25.9191C34.434 25.9191 34.2268 25.9131 34.0243 25.9013L35.7279 27.0484C36.0463 27.2628 36.2138 27.6404 36.1592 28.0202L35.2807 34.1308L38.756 36.4708C39.2141 36.7793 39.3354 37.4007 39.027 37.8588C38.7185 38.317 38.0971 38.4383 37.6389 38.1298L33.643 35.4393C33.3247 35.2249 33.1571 34.8473 33.2117 34.4675L34.0903 28.3568L30.9843 26.2655L31.8841 27.1743C32.1486 27.4415 32.2409 27.8343 32.1231 28.1913L29.5827 35.8886L32.666 42.5723C32.8973 43.0738 32.6783 43.6679 32.1768 43.8992C31.6753 44.1305 31.0813 43.9115 30.8499 43.41L27.6015 36.3684C27.4954 36.1384 27.4806 35.8767 27.56 35.6361L30.0319 28.1462L27.7882 25.8801C27.2522 30.0208 25.7586 33 24 33C22.2448 33 20.7537 30.0326 20.215 25.9047L17.9956 28.1463L20.4675 35.6362C20.5469 35.8768 20.5321 36.1385 20.4259 36.3685L17.1772 43.4102C16.9458 43.9116 16.3517 44.1306 15.8502 43.8993C15.3487 43.6679 15.1297 43.0738 15.3611 42.5723L18.4447 35.8886L15.9044 28.1914C15.7865 27.8344 15.8789 27.4415 16.1434 27.1744L17.0432 26.2656L13.9372 28.3569L14.8154 34.4676C14.8699 34.8474 14.7024 35.225 14.384 35.4393L10.3882 38.1299C9.93003 38.4383 9.3086 38.317 9.00014 37.8589C8.69168 37.4008 8.813 36.7794 9.27111 36.4709L12.7464 34.1309L11.8682 28.0202C11.8137 27.6404 11.9812 27.2628 12.2996 27.0485L14.0034 25.9013C13.8007 25.913 13.5933 25.9191 13.381 25.9191C6.40687 25.9191 5.63196 21.2735 6.11628 18.9507L17.8939 16.8967L16.1434 15.1286C15.958 14.9414 15.854 14.6885 15.854 14.425V10.8005L12.1475 7.05699C11.7589 6.66453 11.762 6.03137 12.1545 5.64279C12.5469 5.25421 13.1801 5.25736 13.5687 5.64982L17.5646 9.68563C17.75 9.87287 17.854 10.1257 17.854 10.3892V14.0137L20.294 16.4781L20.744 16.3996C21.2829 14.4212 22.077 12.9544 23 12.3308V5.00854C23 4.45626 23.4477 4.00854 24 4.00854Z" fill="#333333"/>
</svg>
