<svg width="49" height="49" viewBox="0 0 49 49" fill="none" xmlns="http://www.w3.org/2000/svg">
<rect width="48" height="48" transform="translate(0 1) rotate(-0.0469255)" fill="#333333"/>
<path fill-rule="evenodd" clip-rule="evenodd" d="M15 6.96021C13.8954 6.96021 13 7.85564 13 8.96021L13 40.9602C13 42.0648 13.8954 42.9602 15 42.9602L33 42.9602C34.1046 42.9602 35 42.0648 35 40.9602L35 8.96021C35 7.85564 34.1046 6.96021 33 6.96021L15 6.96021ZM23.0198 11.9803C23.0198 11.428 23.4675 10.9803 24.0198 10.9803C24.572 10.9803 25.0198 11.428 25.0198 11.9803L25.0198 15.9803C25.0198 16.5326 24.572 16.9803 24.0198 16.9803C23.4675 16.9803 23.0198 16.5326 23.0198 15.9803L23.0198 11.9803ZM23.0198 22.9803C23.0198 22.428 23.4675 21.9803 24.0198 21.9803C24.572 21.9803 25.0198 22.428 25.0198 22.9803L25.0198 26.9803C25.0198 27.5326 24.572 27.9803 24.0198 27.9803C23.4675 27.9803 23.0198 27.5326 23.0198 26.9803L23.0198 22.9803ZM24.0198 32.9803C23.4675 32.9803 23.0198 33.428 23.0198 33.9803L23.0198 37.9803C23.0198 38.5326 23.4675 38.9803 24.0198 38.9803C24.572 38.9803 25.0198 38.5326 25.0198 37.9803L25.0198 33.9803C25.0198 33.428 24.572 32.9803 24.0198 32.9803Z" fill="white"/>
</svg>
