<svg width="48" height="48" viewBox="0 0 48 48" fill="none" xmlns="http://www.w3.org/2000/svg">
<path fill-rule="evenodd" clip-rule="evenodd" d="M48 0H0V48H48V0ZM18.018 28.7073L23.581 35.8964L18.018 43L11 37.6081L18.018 28.7073ZM17.7612 7.22522L14.7657 11.1621C12.3694 14.3288 12.3694 18.6936 14.7657 21.7747L31.4549 42.9998L38.3873 37.608L31.7116 29.0494L23.6666 18.7792L20.2432 14.4144C20.8423 14.072 21.527 13.8153 22.2117 13.8153H22.2972H27.2612C27.9459 13.8153 28.6306 13.9864 29.2296 14.3288C29.2296 14.4144 29.3152 14.4144 29.3152 14.4144L25.8918 18.7792L31.4549 25.9684L34.7071 21.8603C37.1035 18.7792 37.1035 14.4144 34.7071 11.2477L31.626 7.22522C31.1125 6.54053 30.4278 5.94144 29.6576 5.5991C28.8873 5.17117 28.0315 5 27.1756 5H22.2117C20.5 5 18.8738 5.85585 17.7612 7.22522ZM19.045 12.9166C19.0236 12.8738 19.0022 12.831 18.9594 12.7883C18.018 11.4189 18.1892 9.53602 19.1306 8.25224C19.9009 7.3108 21.0135 6.7117 22.2117 6.7117H27.1756C27.7747 6.7117 28.3738 6.88287 28.8873 7.13963C29.4008 7.39639 29.9143 7.82431 30.2567 8.25224C30.6846 8.76575 30.9414 9.36485 31.0269 9.96394C31.2837 10.991 30.9414 12.1892 30.3423 13.045C30.2567 13.0022 30.1497 12.938 30.0427 12.8738C29.9357 12.8096 29.8287 12.7455 29.7432 12.7027C28.9729 12.2747 28.117 12.1036 27.2612 12.1036H22.2972C21.4414 12.1036 20.5855 12.3603 19.8153 12.7027C19.5585 12.7883 19.3018 12.8738 19.1306 13.045C19.0878 13.0022 19.0664 12.9594 19.045 12.9166Z" fill="#333333"/>
</svg>
