<svg width="49" height="49" viewBox="0 0 49 49" fill="none" xmlns="http://www.w3.org/2000/svg">
<g clip-path="url(#clip0)">
<rect width="48" height="48" transform="translate(0 1) rotate(-0.0469255)" fill="white"/>
<path fill-rule="evenodd" clip-rule="evenodd" d="M48 0.960693L0 0.960693L4.50778e-10 48.9607L48 48.9607L48 0.960693ZM24 10.9607C25.1046 10.9607 26 11.8561 26 12.9607L26 20.9607L26 24.9607L22 24.9607L22 20.9607L22 12.9607C22 11.8561 22.8954 10.9607 24 10.9607ZM28 12.9607L28 20.9607L34 20.9607L34 19.9607L32 19.9607L30 19.9607L30 17.9607L30 14.9607C30 13.8561 30.8954 12.9607 32 12.9607L39 12.9607C40.1046 12.9607 41 13.8561 41 14.9607L41 17.9607L41 19.9607L39 19.9607L37 19.9607L37 20.9607L41 20.9607C42.1046 20.9607 43 21.8561 43 22.9607L43 25.9607L44 25.9607L44 27.9607L43 27.9607L29 27.9607L29 28.9607L29 30.9607L27 30.9607L21 30.9607L19 30.9607L19 28.9607L19 27.9607L5 27.9607L4 27.9607L4 25.9607L5 25.9607L5 22.9607C5 21.8561 5.89543 20.9607 7 20.9607L11 20.9607L11 19.9607L9 19.9607L7 19.9607L7 17.9607L7 14.9607C7 13.8561 7.89543 12.9607 9 12.9607L16 12.9607C17.1046 12.9607 18 13.8561 18 14.9607L18 17.9607L18 19.9607L16 19.9607L14 19.9607L14 20.9607L20 20.9607L20 12.9607C20 10.7516 21.7909 8.96069 24 8.96069C26.2091 8.96069 28 10.7516 28 12.9607ZM27 26.9607L27 27.9607L27 28.9607L21 28.9607L21 27.9607L21 26.9607L22 26.9607L26 26.9607L27 26.9607ZM24 42.9607C26.2091 42.9607 28 41.1698 28 38.9607C28 35.4607 24 31.9607 24 31.9607C24 31.9607 20 35.4607 20 38.9607C20 41.1698 21.7909 42.9607 24 42.9607ZM12 17.9607L13 17.9607L13 15.9607L15 15.9607L15 17.9607L16 17.9607L16 14.9607L9 14.9607L9 17.9607L10 17.9607L10 15.9607L12 15.9607L12 17.9607ZM36 17.9607L35 17.9607L35 15.9607L33 15.9607L33 17.9607L32 17.9607L32 14.9607L39 14.9607L39 17.9607L38 17.9607L38 15.9607L36 15.9607L36 17.9607Z" fill="#333333"/>
</g>
<defs>
<clipPath id="clip0">
<rect width="48" height="48" fill="white" transform="translate(0 1) rotate(-0.0469255)"/>
</clipPath>
</defs>
</svg>
