<svg width="48" height="48" viewBox="0 0 48 48" fill="none" xmlns="http://www.w3.org/2000/svg">
<path fill-rule="evenodd" clip-rule="evenodd" d="M48 0H0V48H48V0ZM40.9286 9.16469C41.4547 9.26923 41.8381 9.72449 41.8515 10.2607L41.9996 16.1467C42.0156 16.7799 41.5152 17.3061 40.882 17.3221C40.2488 17.338 39.7225 16.8376 39.7066 16.2044L39.6233 12.8929L36.4914 15.5209C37.139 16.5828 37.594 17.7609 37.8255 19.0015C38.2609 21.3353 37.8785 23.7479 36.7428 25.8327C35.607 27.9175 33.7872 29.547 31.5902 30.4467C29.3932 31.3464 26.9532 31.4612 24.6814 30.7717C24.0752 30.5878 23.733 29.9474 23.9169 29.3412C24.1009 28.7351 24.7413 28.3929 25.3474 28.5768C27.1144 29.113 29.0122 29.0238 30.721 28.324C32.4298 27.6243 33.8451 26.3568 34.7285 24.7353C35.6119 23.1138 35.9093 21.2374 35.5706 19.4222C35.232 17.607 34.2779 15.964 32.8692 14.7701C31.4605 13.5763 29.6834 12.9045 27.8372 12.8681C25.991 12.8316 24.1887 13.4327 22.734 14.57C21.2793 15.7073 20.2611 17.3113 19.8511 19.1118C19.441 20.9122 19.6641 22.7989 20.4828 24.454C20.7636 25.0218 20.531 25.7097 19.9633 25.9905C19.3955 26.2713 18.7076 26.0387 18.4268 25.471C17.3742 23.343 17.0873 20.9172 17.6146 18.6024C18.1418 16.2875 19.4509 14.2252 21.3213 12.763C23.1916 11.3007 25.5089 10.5279 27.8825 10.5748C30.2561 10.6217 32.5411 11.4853 34.3522 13.0203C34.6087 13.2376 34.8534 13.4665 35.0858 13.706L38.327 10.9863L34.732 10.272C34.1108 10.1485 33.7072 9.54483 33.8307 8.92357C33.9541 8.30232 34.5578 7.89876 35.1791 8.02221L40.9286 9.16469ZM13.6522 12.8865C11.9108 13.5005 10.4343 14.6961 9.47146 16.2717C8.50865 17.8474 8.11845 19.7068 8.36659 21.5366C8.61473 23.3663 9.48605 25.0546 10.8337 26.317C12.1814 27.5793 13.923 28.3384 15.7651 28.4665C15.9341 28.4783 16.103 28.4846 16.2716 28.4857C16.2883 28.485 16.305 28.4846 16.3219 28.4846C16.3387 28.4846 16.3554 28.485 16.372 28.4857C18.0058 28.4755 19.6031 27.9667 20.9465 27.02C22.4559 25.9564 23.5524 24.4049 24.0514 22.627C24.5503 20.8492 24.4212 18.9537 23.6857 17.26C23.4334 16.679 23.6998 16.0035 24.2808 15.7512C24.8618 15.4989 25.5373 15.7653 25.7896 16.3463C26.7353 18.524 26.9013 20.961 26.2598 23.2468C25.6183 25.5326 24.2084 27.5274 22.2678 28.895C20.8388 29.902 19.1864 30.5236 17.4688 30.7157V33.0716L20.9092 33.0713C21.5426 33.0712 22.0561 33.5847 22.0562 34.2181C22.0562 34.8515 21.5428 35.365 20.9094 35.365L17.4688 35.3653V38.8065C17.4688 39.4399 16.9553 39.9534 16.3219 39.9534C15.6885 39.9534 15.175 39.4399 15.175 38.8065V35.3655L11.7344 35.3658C11.101 35.3658 10.5875 34.8524 10.5874 34.219C10.5874 33.5856 11.1008 33.0721 11.7342 33.072L15.175 33.0717V30.7157C12.9669 30.4688 10.8929 29.5152 9.26567 27.991C7.53296 26.368 6.41268 24.1974 6.09364 21.8448C5.7746 19.4922 6.2763 17.1016 7.51419 15.0758C8.75208 13.0499 10.6505 11.5127 12.8895 10.7233C15.1285 9.93377 17.5712 9.94025 19.8059 10.7416C20.4022 10.9554 20.7122 11.6121 20.4984 12.2083C20.2846 12.8045 19.6279 13.1145 19.0317 12.9007C17.2935 12.2775 15.3937 12.2724 13.6522 12.8865Z" fill="#333333"/>
</svg>
