<svg width="48" height="48" viewBox="0 0 48 48" fill="none" xmlns="http://www.w3.org/2000/svg">
<path fill-rule="evenodd" clip-rule="evenodd" d="M0 0H48V48H0V0ZM29.7071 26.8182C29.7071 30.2323 27.0208 33 23.7071 33C20.3934 33 17.7071 30.2323 17.7071 26.8182C17.7071 21.4091 23.7071 15 23.7071 15C23.7071 15 29.7071 21.4091 29.7071 26.8182ZM13.8076 14.1005C19.275 8.63317 28.1393 8.63317 33.6066 14.1005C36.3288 16.8227 37.6954 20.385 37.707 23.9541L37.707 23.9557L37.707 27.5854L34.4142 24.2926L33 25.7068L38 30.7068L38.7071 31.4139L39.4142 30.7068L44.4142 25.7068L43 24.2926L39.707 27.5855L39.707 23.9526L39.707 23.9494C39.6942 19.8731 38.1319 15.7974 35.0208 12.6863C28.7724 6.4379 18.6418 6.4379 12.3934 12.6863L13.8076 14.1005ZM33.6066 33.8995C28.1393 39.3668 19.275 39.3668 13.8076 33.8995C11.0745 31.1664 9.70788 27.5865 9.70711 24.003L9.70711 24.0028L9.70711 20.4139L13 23.7068L14.4142 22.2926L9.41421 17.2926L8.70711 16.5855L8 17.2926L3 22.2926L4.41421 23.7068L7.70711 20.4139V24.003L7.70711 24.0032C7.70793 28.0954 9.27022 32.1905 12.3934 35.3137C18.6418 41.5621 28.7724 41.5621 35.0208 35.3137L33.6066 33.8995Z" fill="#333333"/>
</svg>
