<svg width="48" height="48" viewBox="0 0 48 48" fill="none" xmlns="http://www.w3.org/2000/svg">
<path fill-rule="evenodd" clip-rule="evenodd" d="M48 0H0V48H48V0ZM24.874 29.6651L31.3692 25.9151C33.0432 24.9486 35.1838 25.5222 36.1503 27.1962C37.1168 28.8703 36.5432 31.0108 34.8692 31.9773L28.374 35.7273L24.874 29.6651ZM35.8692 33.7094L29.374 37.4594C29.5121 37.6985 29.4301 38.0043 29.191 38.1424L21.8298 42.3924C18.96 44.0492 15.2905 43.066 13.6336 40.1962C11.9768 37.3265 12.96 33.6569 15.8298 32.0001L23.191 27.7501C23.4301 27.612 23.7359 27.6939 23.874 27.9331L30.3692 24.1831C32.9998 22.6643 36.3636 23.5656 37.8823 26.1962C39.4011 28.8268 38.4998 32.1906 35.8692 33.7094ZM16.2326 33.8602L19.9767 31.7207C20.3363 31.5152 20.7945 31.6402 21 31.9998C21.2055 32.3595 21.0806 32.8176 20.7209 33.0231L16.9768 35.1626C16.0505 35.6919 15.6456 36.8026 15.9523 37.7949C16.0338 38.0587 15.9568 38.3638 15.7171 38.5008C15.2375 38.7748 14.6113 38.6079 14.4724 38.0734C14.0573 36.4751 14.7263 34.721 16.2326 33.8602ZM39.4047 17.7141C39.6129 17.9223 39.9565 17.9068 40.1285 17.6678C42.38 14.5414 42.0994 10.1557 39.2869 7.34315C36.4743 4.53059 32.0886 4.25004 28.9622 6.50148C28.7233 6.67353 28.7077 7.01714 28.9159 7.22532L39.4047 17.7141ZM27.8553 8.28599C27.6471 8.0778 27.3035 8.09331 27.1314 8.33224C24.8801 11.4586 25.1606 15.8443 27.9732 18.6569C30.7857 21.4694 35.1714 21.75 38.2978 19.4986C38.5367 19.3265 38.5522 18.9829 38.344 18.7747L27.8553 8.28599ZM16.8139 9.72274C16.1866 8.19872 14.0886 8.045 13.2458 9.4613L6.65487 20.5372C5.89457 21.8148 6.74464 23.4459 8.22743 23.5546L19.7245 24.3969C21.2073 24.5056 22.286 23.0158 21.7201 21.641L16.8139 9.72274Z" fill="#333333"/>
</svg>
