<svg width="48" height="48" viewBox="0 0 48 48" fill="none" xmlns="http://www.w3.org/2000/svg">
<path fill-rule="evenodd" clip-rule="evenodd" d="M48 0H0V48H48V0ZM2.93324 27.1821C1.76167 28.3537 1.76167 30.2532 2.93325 31.4247L17.0754 45.5669C18.247 46.7385 20.1464 46.7385 21.318 45.5669L46.0668 20.8181C47.2383 19.6466 47.2383 17.7471 46.0668 16.5755L31.9246 2.43337C30.753 1.26179 28.8536 1.26179 27.682 2.43337L2.93324 27.1821ZM8.94366 28.9501C9.13892 29.1454 9.13892 29.4619 8.94366 29.6572C8.7484 29.8525 8.43181 29.8525 8.23655 29.6572C8.04129 29.4619 8.04129 29.1454 8.23655 28.9501C8.43181 28.7548 8.7484 28.7548 8.94366 28.9501ZM9.65077 28.243C10.2366 28.8288 10.2366 29.7785 9.65077 30.3643C9.06498 30.9501 8.11523 30.9501 7.52945 30.3643C6.94366 29.7785 6.94366 28.8288 7.52945 28.243C8.11523 27.6572 9.06498 27.6572 9.65077 28.243ZM12.4792 26.122C12.6744 25.9268 12.6744 25.6102 12.4792 25.4149C12.2839 25.2197 11.9673 25.2197 11.7721 25.4149C11.5768 25.6102 11.5768 25.9268 11.7721 26.122C11.9673 26.3173 12.2839 26.3173 12.4792 26.122ZM13.1863 26.8292C13.7721 26.2434 13.7721 25.2936 13.1863 24.7078C12.6005 24.122 11.6508 24.122 11.065 24.7078C10.4792 25.2936 10.4792 26.2434 11.065 26.8292C11.6508 27.4149 12.6005 27.4149 13.1863 26.8292ZM16.0147 21.8798C16.21 22.075 16.21 22.3916 16.0147 22.5869C15.8195 22.7822 15.5029 22.7822 15.3076 22.5869C15.1124 22.3916 15.1124 22.075 15.3076 21.8798C15.5029 21.6845 15.8195 21.6845 16.0147 21.8798ZM16.7218 21.1727C17.3076 21.7585 17.3076 22.7082 16.7218 23.294C16.1361 23.8798 15.1863 23.8798 14.6005 23.294C14.0147 22.7082 14.0147 21.7585 14.6005 21.1727C15.1863 20.5869 16.1361 20.5869 16.7218 21.1727ZM19.5503 19.0517C19.7455 18.8565 19.7455 18.5399 19.5503 18.3446C19.355 18.1494 19.0384 18.1494 18.8431 18.3446C18.6479 18.5399 18.6479 18.8565 18.8431 19.0517C19.0384 19.247 19.355 19.247 19.5503 19.0517ZM20.2574 19.7588C20.8431 19.1731 20.8431 18.2233 20.2574 17.6375C19.6716 17.0517 18.7218 17.0517 18.136 17.6375C17.5503 18.2233 17.5503 19.1731 18.136 19.7588C18.7218 20.3446 19.6716 20.3446 20.2574 19.7588ZM23.0858 14.8095C23.281 15.0047 23.281 15.3213 23.0858 15.5166C22.8905 15.7118 22.5739 15.7118 22.3787 15.5166C22.1834 15.3213 22.1834 15.0047 22.3787 14.8095C22.5739 14.6142 22.8905 14.6142 23.0858 14.8095ZM23.7929 14.1024C24.3787 14.6882 24.3787 15.6379 23.7929 16.2237C23.2071 16.8095 22.2574 16.8095 21.6716 16.2237C21.0858 15.6379 21.0858 14.6882 21.6716 14.1024C22.2574 13.5166 23.2071 13.5166 23.7929 14.1024ZM26.6214 11.9795C26.8166 11.7842 26.8166 11.4676 26.6214 11.2724C26.4261 11.0771 26.1095 11.0771 25.9143 11.2724C25.719 11.4676 25.719 11.7842 25.9143 11.9795C26.1095 12.1747 26.4261 12.1747 26.6214 11.9795ZM27.3285 12.6866C27.9143 12.1008 27.9143 11.151 27.3285 10.5653C26.7427 9.97947 25.7929 9.97947 25.2071 10.5653C24.6214 11.151 24.6214 12.1008 25.2071 12.6866C25.7929 13.2724 26.7427 13.2724 27.3285 12.6866ZM30.1569 7.73721C30.3521 7.93247 30.3521 8.24905 30.1569 8.44431C29.9616 8.63958 29.645 8.63958 29.4498 8.44431C29.2545 8.24905 29.2545 7.93247 29.4498 7.73721C29.645 7.54194 29.9616 7.54194 30.1569 7.73721ZM30.864 7.0301C31.4498 7.61589 31.4498 8.56563 30.864 9.15142C30.2782 9.73721 29.3285 9.73721 28.7427 9.15142C28.1569 8.56563 28.1569 7.61589 28.7427 7.0301C29.3285 6.44431 30.2782 6.44431 30.864 7.0301ZM12.4792 33.1924C12.6744 32.9971 12.6744 32.6805 12.4792 32.4853C12.2839 32.29 11.9673 32.29 11.7721 32.4853C11.5768 32.6805 11.5768 32.9971 11.7721 33.1924C11.9673 33.3876 12.2839 33.3876 12.4792 33.1924ZM13.1863 33.8995C13.7721 33.3137 13.7721 32.3639 13.1863 31.7781C12.6005 31.1924 11.6508 31.1924 11.065 31.7781C10.4792 32.3639 10.4792 33.3137 11.065 33.8995C11.6508 34.4853 12.6005 34.4853 13.1863 33.8995ZM16.0147 28.9501C16.21 29.1454 16.21 29.4619 16.0147 29.6572C15.8195 29.8525 15.5029 29.8525 15.3076 29.6572C15.1124 29.4619 15.1124 29.1454 15.3076 28.9501C15.5029 28.7548 15.8195 28.7548 16.0147 28.9501ZM16.7218 28.243C17.3076 28.8288 17.3076 29.7785 16.7218 30.3643C16.1361 30.9501 15.1863 30.9501 14.6005 30.3643C14.0147 29.7785 14.0147 28.8288 14.6005 28.243C15.1863 27.6572 16.1361 27.6572 16.7218 28.243ZM19.5503 26.122C19.7455 25.9268 19.7455 25.6102 19.5503 25.4149C19.355 25.2197 19.0384 25.2197 18.8431 25.4149C18.6479 25.6102 18.6479 25.9268 18.8431 26.122C19.0384 26.3173 19.355 26.3173 19.5503 26.122ZM20.2574 26.8292C20.8431 26.2434 20.8431 25.2936 20.2574 24.7078C19.6716 24.122 18.7218 24.122 18.136 24.7078C17.5503 25.2936 17.5503 26.2434 18.136 26.8292C18.7218 27.4149 19.6716 27.4149 20.2574 26.8292ZM23.0858 21.8798C23.281 22.075 23.281 22.3916 23.0858 22.5869C22.8905 22.7822 22.5739 22.7822 22.3787 22.5869C22.1834 22.3916 22.1834 22.075 22.3787 21.8798C22.5739 21.6845 22.8905 21.6845 23.0858 21.8798ZM23.7929 21.1727C24.3787 21.7585 24.3787 22.7082 23.7929 23.294C23.2071 23.8798 22.2574 23.8798 21.6716 23.294C21.0858 22.7082 21.0858 21.7585 21.6716 21.1727C22.2574 20.5869 23.2071 20.5869 23.7929 21.1727ZM26.6214 19.0517C26.8166 18.8565 26.8166 18.5399 26.6214 18.3446C26.4261 18.1494 26.1095 18.1494 25.9143 18.3446C25.719 18.5399 25.719 18.8565 25.9143 19.0517C26.1095 19.247 26.4261 19.247 26.6214 19.0517ZM27.3285 19.7588C27.9143 19.1731 27.9143 18.2233 27.3285 17.6375C26.7427 17.0517 25.7929 17.0517 25.2071 17.6375C24.6214 18.2233 24.6214 19.1731 25.2071 19.7588C25.7929 20.3446 26.7427 20.3446 27.3285 19.7588ZM30.1569 14.8095C30.3521 15.0047 30.3521 15.3213 30.1569 15.5166C29.9616 15.7118 29.645 15.7118 29.4498 15.5166C29.2545 15.3213 29.2545 15.0047 29.4498 14.8095C29.645 14.6142 29.9616 14.6142 30.1569 14.8095ZM30.864 14.1024C31.4498 14.6882 31.4498 15.6379 30.864 16.2237C30.2782 16.8095 29.3285 16.8095 28.7427 16.2237C28.1569 15.6379 28.1569 14.6882 28.7427 14.1024C29.3285 13.5166 30.2782 13.5166 30.864 14.1024ZM33.6924 11.9795C33.8877 11.7842 33.8877 11.4676 33.6924 11.2724C33.4971 11.0771 33.1806 11.0771 32.9853 11.2724C32.79 11.4676 32.79 11.7842 32.9853 11.9795C33.1806 12.1747 33.4971 12.1747 33.6924 11.9795ZM34.3995 12.6866C34.9853 12.1008 34.9853 11.151 34.3995 10.5653C33.8137 9.97947 32.864 9.97947 32.2782 10.5653C31.6924 11.151 31.6924 12.1008 32.2782 12.6866C32.864 13.2724 33.8137 13.2724 34.3995 12.6866ZM16.0147 36.0224C16.21 36.2176 16.21 36.5342 16.0147 36.7295C15.8195 36.9247 15.5029 36.9247 15.3076 36.7295C15.1124 36.5342 15.1124 36.2176 15.3076 36.0224C15.5029 35.8271 15.8195 35.8271 16.0147 36.0224ZM16.7218 35.3153C17.3076 35.901 17.3076 36.8508 16.7218 37.4366C16.1361 38.0224 15.1863 38.0224 14.6005 37.4366C14.0147 36.8508 14.0147 35.901 14.6005 35.3153C15.1863 34.7295 16.1361 34.7295 16.7218 35.3153ZM19.5503 33.1924C19.7455 32.9971 19.7455 32.6805 19.5503 32.4853C19.355 32.29 19.0384 32.29 18.8431 32.4853C18.6479 32.6805 18.6479 32.9971 18.8431 33.1924C19.0384 33.3876 19.355 33.3876 19.5503 33.1924ZM20.2574 33.8995C20.8431 33.3137 20.8431 32.3639 20.2574 31.7781C19.6716 31.1924 18.7218 31.1924 18.136 31.7781C17.5503 32.3639 17.5503 33.3137 18.136 33.8995C18.7218 34.4853 19.6716 34.4853 20.2574 33.8995ZM23.0858 28.9501C23.281 29.1454 23.281 29.4619 23.0858 29.6572C22.8905 29.8525 22.5739 29.8525 22.3787 29.6572C22.1834 29.4619 22.1834 29.1454 22.3787 28.9501C22.5739 28.7548 22.8905 28.7548 23.0858 28.9501ZM23.7929 28.243C24.3787 28.8288 24.3787 29.7785 23.7929 30.3643C23.2071 30.9501 22.2574 30.9501 21.6716 30.3643C21.0858 29.7785 21.0858 28.8288 21.6716 28.243C22.2574 27.6572 23.2071 27.6572 23.7929 28.243ZM26.6214 26.122C26.8166 25.9268 26.8166 25.6102 26.6214 25.4149C26.4261 25.2197 26.1095 25.2197 25.9143 25.4149C25.719 25.6102 25.719 25.9268 25.9143 26.122C26.1095 26.3173 26.4261 26.3173 26.6214 26.122ZM27.3285 26.8292C27.9143 26.2434 27.9143 25.2936 27.3285 24.7078C26.7427 24.122 25.7929 24.122 25.2071 24.7078C24.6214 25.2936 24.6214 26.2434 25.2071 26.8292C25.7929 27.4149 26.7427 27.4149 27.3285 26.8292ZM30.1569 21.8798C30.3521 22.075 30.3521 22.3916 30.1569 22.5869C29.9616 22.7822 29.645 22.7822 29.4498 22.5869C29.2545 22.3916 29.2545 22.075 29.4498 21.8798C29.645 21.6845 29.9616 21.6845 30.1569 21.8798ZM30.864 21.1727C31.4498 21.7585 31.4498 22.7082 30.864 23.294C30.2782 23.8798 29.3285 23.8798 28.7427 23.294C28.1569 22.7082 28.1569 21.7585 28.7427 21.1727C29.3285 20.5869 30.2782 20.5869 30.864 21.1727ZM33.6924 19.0517C33.8877 18.8565 33.8877 18.5399 33.6924 18.3446C33.4971 18.1494 33.1806 18.1494 32.9853 18.3446C32.79 18.5399 32.79 18.8565 32.9853 19.0517C33.1806 19.247 33.4971 19.247 33.6924 19.0517ZM34.3995 19.7588C34.9853 19.1731 34.9853 18.2233 34.3995 17.6375C33.8137 17.0517 32.864 17.0517 32.2782 17.6375C31.6924 18.2233 31.6924 19.1731 32.2782 19.7588C32.864 20.3446 33.8137 20.3446 34.3995 19.7588ZM37.2279 14.8095C37.4232 15.0047 37.4232 15.3213 37.2279 15.5166C37.0327 15.7118 36.7161 15.7118 36.5208 15.5166C36.3256 15.3213 36.3256 15.0047 36.5208 14.8095C36.7161 14.6142 37.0327 14.6142 37.2279 14.8095ZM37.935 14.1024C38.5208 14.6882 38.5208 15.6379 37.935 16.2237C37.3493 16.8095 36.3995 16.8095 35.8137 16.2237C35.2279 15.6379 35.2279 14.6882 35.8137 14.1024C36.3995 13.5166 37.3493 13.5166 37.935 14.1024ZM20.2574 38.8497C20.8431 39.4355 20.8431 40.3853 20.2574 40.971C19.6716 41.5568 18.7218 41.5568 18.136 40.971C17.5503 40.3853 17.5503 39.4355 18.136 38.8497C18.7218 38.2639 19.6716 38.2639 20.2574 38.8497ZM23.7929 37.4359C24.3787 36.8501 24.3787 35.9004 23.7929 35.3146C23.2071 34.7288 22.2573 34.7288 21.6716 35.3146C21.0858 35.9004 21.0858 36.8501 21.6716 37.4359C22.2573 38.0217 23.2071 38.0217 23.7929 37.4359ZM27.3285 31.7775C27.9143 32.3632 27.9143 33.313 27.3285 33.8988C26.7427 34.4846 25.7929 34.4846 25.2071 33.8988C24.6214 33.313 24.6214 32.3632 25.2071 31.7775C25.7929 31.1917 26.7427 31.1917 27.3285 31.7775ZM30.864 30.3636C31.4498 29.7778 31.4498 28.8281 30.864 28.2423C30.2782 27.6565 29.3285 27.6565 28.7427 28.2423C28.1569 28.8281 28.1569 29.7778 28.7427 30.3636C29.3285 30.9494 30.2782 30.9494 30.864 30.3636ZM34.3995 24.7071C34.9853 25.2929 34.9853 26.2427 34.3995 26.8285C33.8137 27.4143 32.864 27.4143 32.2782 26.8285C31.6924 26.2427 31.6924 25.2929 32.2782 24.7071C32.864 24.1214 33.8137 24.1214 34.3995 24.7071ZM37.935 23.2933C38.5208 22.7075 38.5208 21.7578 37.935 21.172C37.3492 20.5862 36.3995 20.5862 35.8137 21.172C35.2279 21.7578 35.2279 22.7075 35.8137 23.2933C36.3995 23.8791 37.3492 23.8791 37.935 23.2933ZM41.4706 17.6368C42.0563 18.2226 42.0563 19.1724 41.4706 19.7582C40.8848 20.3439 39.935 20.3439 39.3492 19.7582C38.7634 19.1724 38.7634 18.2226 39.3492 17.6368C39.935 17.051 40.8848 17.051 41.4706 17.6368Z" fill="#333333"/>
</svg>
