<svg width="48" height="48" viewBox="0 0 48 48" fill="none" xmlns="http://www.w3.org/2000/svg">
<rect width="48" height="48" fill="white"/>
<path fill-rule="evenodd" clip-rule="evenodd" d="M28 8.11433C27.4598 8.11433 26.9426 7.89581 26.566 7.50849L25.434 6.34413L26.5559 5.25338L25.434 6.34412C24.6486 5.53633 23.3514 5.53633 22.566 6.34412L21.434 7.50849C21.0574 7.89581 20.5402 8.11433 20 8.11433H14C12.8954 8.11433 12 9.00976 12 10.1143V34C12 35.1046 12.8954 36 14 36H34C35.1046 36 36 35.1046 36 34.0001V10.1143C36 9.00976 35.1046 8.11433 34 8.11433H28ZM38 10.1143V34.0001C38 36.2092 36.2091 38 34 38H14C11.7909 38 10 36.2092 10 34V10.1143C10 7.90519 11.7909 6.11433 14 6.11433H20L21.132 4.94997C22.7027 3.33439 25.2973 3.33439 26.868 4.94997L28 6.11433H34C36.2091 6.11433 38 7.90519 38 10.1143Z" fill="#333333"/>
<path fill-rule="evenodd" clip-rule="evenodd" d="M26 17C26 16.4477 26.4477 16 27 16L33 16C33.5523 16 34 16.4477 34 17C34 17.5523 33.5523 18 33 18L27 18C26.4477 18 26 17.5523 26 17Z" fill="#333333"/>
<path fill-rule="evenodd" clip-rule="evenodd" d="M30 21C29.4477 21 29 20.5523 29 20L29 14C29 13.4477 29.4477 13 30 13C30.5523 13 31 13.4477 31 14L31 20C31 20.5523 30.5523 21 30 21Z" fill="#333333"/>
<path fill-rule="evenodd" clip-rule="evenodd" d="M23 44V36H25V44H23Z" fill="#333333"/>
<path fill-rule="evenodd" clip-rule="evenodd" d="M30 40H18V38H30V40Z" fill="#333333"/>
<path fill-rule="evenodd" clip-rule="evenodd" d="M34.069 28.6418C32.775 27.8888 30.9146 27.4415 28.5083 28.8612C25.5511 30.6059 22.7661 31.0586 19.9245 31.119C18.69 31.1453 17.4296 31.0974 16.1532 31.049C15.978 31.0423 15.8026 31.0357 15.6269 31.0292C14.1589 30.975 12.6499 30.9321 11.0417 30.9991L10.9585 29.0008C12.6502 28.9303 14.2256 28.9761 15.7006 29.0306C15.879 29.0371 16.0557 29.0438 16.2307 29.0505C17.5142 29.0991 18.711 29.1444 19.8819 29.1195C22.5091 29.0636 24.9241 28.6537 27.492 27.1387C30.6106 25.2987 33.2502 25.8513 35.075 26.9132C35.9626 27.4298 36.6446 28.0561 37.1023 28.5472C37.3327 28.7943 37.5102 29.0115 37.6324 29.1703C37.6936 29.2498 37.7413 29.315 37.775 29.3625C37.7918 29.3863 37.8053 29.4056 37.8152 29.4201L37.8274 29.4382L37.8316 29.4444L37.8339 29.4478C37.8342 29.4482 37.8345 29.4487 37.0001 29.9999C36.1658 30.5511 36.166 30.5515 36.1663 30.5519L36.1648 30.5497C36.1612 30.5445 36.1544 30.5347 36.1445 30.5208C36.1246 30.4928 36.0922 30.4482 36.0476 30.3903C35.9582 30.2741 35.8211 30.1059 35.6393 29.9108C35.2728 29.5177 34.7408 29.0328 34.069 28.6418Z" fill="#333333"/>
<path fill-rule="evenodd" clip-rule="evenodd" d="M22 19V15C22 13.3431 20.6569 12 19 12C17.3431 12 16 13.3431 16 15V19C16 20.6569 17.3431 22 19 22C20.6569 22 22 20.6569 22 19ZM19 10C16.2386 10 14 12.2386 14 15V19C14 21.7614 16.2386 24 19 24C21.7614 24 24 21.7614 24 19V15C24 12.2386 21.7614 10 19 10Z" fill="#333333"/>
</svg>
