<svg width="48" height="48" viewBox="0 0 48 48" fill="none" xmlns="http://www.w3.org/2000/svg">
<rect width="48" height="48" fill="white"/>
<path fill-rule="evenodd" clip-rule="evenodd" d="M31 18C31 17.4477 31.4477 17 32 17L38 17C38.5523 17 39 17.4477 39 18C39 18.5523 38.5523 19 38 19L32 19C31.4477 19 31 18.5523 31 18Z" fill="#333333"/>
<path fill-rule="evenodd" clip-rule="evenodd" d="M35 22C34.4477 22 34 21.5523 34 21L34 15C34 14.4477 34.4477 14 35 14C35.5523 14 36 14.4477 36 15L36 21C36 21.5523 35.5523 22 35 22Z" fill="#333333"/>
<path fill-rule="evenodd" clip-rule="evenodd" d="M18.3856 5.33391C20.3549 3.27379 23.6451 3.27379 25.6144 5.33391L26.1418 5.88566H31.3302C33.9092 5.88566 36 7.97642 36 10.5555V12H34V10.5555C34 9.08099 32.8047 7.88566 31.3302 7.88566H25.7143C25.4412 7.88566 25.1801 7.77402 24.9914 7.57665L24.1686 6.71587C22.9871 5.4798 21.0129 5.4798 19.8314 6.71587L19.0086 7.57665C18.8199 7.77402 18.5588 7.88566 18.2857 7.88566H13C11.3431 7.88566 10 9.22881 10 10.8857V33C10 34.6568 11.3431 36 13 36H31C32.6569 36 34 34.6568 34 33V24H36V33C36 35.7614 33.7614 38 31 38H13C10.2386 38 8 35.7614 8 33V10.8857C8 8.12425 10.2386 5.88566 13 5.88566H17.8582L18.3856 5.33391Z" fill="#333333"/>
<path fill-rule="evenodd" clip-rule="evenodd" d="M21 44V36H23V44H21Z" fill="#333333"/>
<path fill-rule="evenodd" clip-rule="evenodd" d="M28 40H16V38H28V40Z" fill="#333333"/>
<path fill-rule="evenodd" clip-rule="evenodd" d="M32.069 27.6421C30.775 26.8891 28.9146 26.4417 26.5083 27.8615C23.5511 29.6062 20.7661 30.0588 17.9245 30.1193C16.69 30.1455 15.4296 30.0977 14.1532 30.0492C13.978 30.0426 13.8026 30.0359 13.6269 30.0294C12.1589 29.9753 10.6499 29.9323 9.04173 29.9993L8.9585 28.0011C10.6502 27.9306 12.2256 27.9764 13.7006 28.0308C13.879 28.0374 14.0557 28.0441 14.2307 28.0507C15.5142 28.0993 16.711 28.1446 17.8819 28.1197C20.5091 28.0638 22.9241 27.6539 25.492 26.1389C28.6106 24.2989 31.2502 24.8516 33.075 25.9135C33.9626 26.43 34.6446 27.0563 35.1023 27.5474C35.3327 27.7946 35.5102 28.0117 35.6324 28.1705C35.6936 28.25 35.7413 28.3153 35.775 28.3628C35.7918 28.3865 35.8053 28.4058 35.8152 28.4203L35.8274 28.4384L35.8316 28.4446L35.8339 28.448C35.8342 28.4485 35.8345 28.4489 35.0001 29.0002C34.1658 29.5514 34.166 29.5518 34.1663 29.5522L34.1648 29.55C34.1612 29.5448 34.1544 29.535 34.1445 29.521C34.1246 29.493 34.0922 29.4484 34.0476 29.3905C33.9582 29.2744 33.8211 29.1061 33.6393 28.9111C33.2728 28.5179 32.7408 28.033 32.069 27.6421Z" fill="#333333"/>
<path fill-rule="evenodd" clip-rule="evenodd" d="M22 12C22.5523 12 23 12.4477 23 13V23C23 23.5523 22.5523 24 22 24C21.4477 24 21 23.5523 21 23V13C21 12.4477 21.4477 12 22 12Z" fill="#333333"/>
<path fill-rule="evenodd" clip-rule="evenodd" d="M13 12C13.5523 12 14 12.4477 14 13V23C14 23.5523 13.5523 24 13 24C12.4477 24 12 23.5523 12 23V13C12 12.4477 12.4477 12 13 12Z" fill="#333333"/>
<path fill-rule="evenodd" clip-rule="evenodd" d="M28 12C28.5523 12 29 12.4477 29 13V23C29 23.5523 28.5523 24 28 24C27.4477 24 27 23.5523 27 23V13C27 12.4477 27.4477 12 28 12Z" fill="#333333"/>
<path fill-rule="evenodd" clip-rule="evenodd" d="M21 18C21 17.4477 21.4477 17 22 17L28 17C28.5523 17 29 17.4477 29 18C29 18.5523 28.5523 19 28 19L22 19C21.4477 19 21 18.5523 21 18Z" fill="#333333"/>
<path fill-rule="evenodd" clip-rule="evenodd" d="M13.2192 18.3753C13.5642 17.944 14.1935 17.8741 14.6247 18.2191L19.6247 22.2191C20.056 22.5641 20.1259 23.1934 19.7809 23.6247C19.4359 24.056 18.8066 24.1259 18.3753 23.7809L13.3753 19.7809C12.9441 19.4359 12.8742 18.8066 13.2192 18.3753Z" fill="#333333"/>
<path fill-rule="evenodd" clip-rule="evenodd" d="M13 12H16C18.2091 12 20 13.7909 20 16C20 18.2091 18.2091 20 16 20H13V18H16C17.1046 18 18 17.1046 18 16C18 14.8954 17.1046 14 16 14H13V12Z" fill="#333333"/>
</svg>
