<svg width="48" height="48" viewBox="0 0 48 48" fill="none" xmlns="http://www.w3.org/2000/svg">
<rect width="48" height="48" fill="white"/>
<path fill-rule="evenodd" clip-rule="evenodd" d="M28 8.11433C27.4598 8.11433 26.9426 7.89581 26.566 7.50849L25.434 6.34413L26.5559 5.25338L25.434 6.34412C24.6486 5.53633 23.3514 5.53633 22.566 6.34412L21.434 7.50849C21.0574 7.89581 20.5402 8.11433 20 8.11433H14C12.8954 8.11433 12 9.00976 12 10.1143V34C12 35.1046 12.8954 36 14 36H34C35.1046 36 36 35.1046 36 34.0001V10.1143C36 9.00976 35.1046 8.11433 34 8.11433H28ZM38 10.1143V34.0001C38 36.2092 36.2091 38 34 38H14C11.7909 38 10 36.2092 10 34V10.1143C10 7.90519 11.7909 6.11433 14 6.11433H20L21.132 4.94997C22.7027 3.33439 25.2973 3.33439 26.868 4.94997L28 6.11433H34C36.2091 6.11433 38 7.90519 38 10.1143Z" fill="#333333"/>
<path fill-rule="evenodd" clip-rule="evenodd" d="M20 10C20.4037 10 20.7678 10.2427 20.9231 10.6154L25.9231 22.6154C26.1355 23.1252 25.8944 23.7107 25.3846 23.9231C24.8748 24.1355 24.2894 23.8944 24.0769 23.3846L20 13.6L15.9231 23.3846C15.7107 23.8944 15.1252 24.1355 14.6154 23.9231C14.1056 23.7107 13.8645 23.1252 14.0769 22.6154L19.0769 10.6154C19.2322 10.2427 19.5963 10 20 10Z" fill="#333333"/>
<path fill-rule="evenodd" clip-rule="evenodd" d="M16 19H24V21H16V19Z" fill="#333333"/>
<path fill-rule="evenodd" clip-rule="evenodd" d="M26 17C26 16.4477 26.4477 16 27 16L33 16C33.5523 16 34 16.4477 34 17C34 17.5523 33.5523 18 33 18L27 18C26.4477 18 26 17.5523 26 17Z" fill="#333333"/>
<path fill-rule="evenodd" clip-rule="evenodd" d="M23 44V36H25V44H23Z" fill="#333333"/>
<path fill-rule="evenodd" clip-rule="evenodd" d="M30 40H18V38H30V40Z" fill="#333333"/>
<path fill-rule="evenodd" clip-rule="evenodd" d="M34.069 28.6421C32.775 27.8891 30.9146 27.4417 28.5083 28.8615C25.5511 30.6062 22.7661 31.0588 19.9245 31.1193C18.69 31.1455 17.4296 31.0977 16.1532 31.0492C15.978 31.0426 15.8026 31.0359 15.6269 31.0294C14.1589 30.9753 12.6499 30.9323 11.0417 30.9993L10.9585 29.0011C12.6502 28.9306 14.2256 28.9764 15.7006 29.0308C15.879 29.0374 16.0557 29.0441 16.2307 29.0507C17.5142 29.0993 18.711 29.1446 19.8819 29.1197C22.5091 29.0638 24.9241 28.6539 27.492 27.1389C30.6106 25.2989 33.2502 25.8516 35.075 26.9135C35.9626 27.43 36.6446 28.0563 37.1023 28.5474C37.3327 28.7946 37.5102 29.0117 37.6324 29.1705C37.6936 29.25 37.7413 29.3153 37.775 29.3628C37.7918 29.3865 37.8053 29.4058 37.8152 29.4203L37.8274 29.4384L37.8316 29.4446L37.8339 29.448C37.8342 29.4485 37.8345 29.4489 37.0001 30.0002C36.1658 30.5514 36.166 30.5518 36.1663 30.5522L36.1648 30.55C36.1612 30.5448 36.1544 30.535 36.1445 30.521C36.1246 30.493 36.0922 30.4484 36.0476 30.3905C35.9582 30.2744 35.8211 30.1061 35.6393 29.9111C35.2728 29.5179 34.7408 29.033 34.069 28.6421Z" fill="#333333"/>
</svg>
