<svg width="48" height="48" viewBox="0 0 48 48" fill="none" xmlns="http://www.w3.org/2000/svg">
<path fill-rule="evenodd" clip-rule="evenodd" d="M48 0H0V48H48V0ZM39.2383 8C39.2383 8 28.2841 10.9382 26.2357 13.2804C24.7076 15.0277 26.2472 18.6031 27.1278 20.3065C26.1624 21.8267 25.3221 23.5519 24.8767 25.3955C24.7438 25.9457 25.118 26.5647 25.7125 26.778C26.307 26.9913 26.8968 26.718 27.0297 26.1677C27.4153 24.5718 28.153 23.042 29.0255 21.6604C31.013 22.1954 34.5785 22.9157 35.7376 21.5903C37.3763 19.7165 39.2383 8 39.2383 8ZM9 28H13.8889V29.4414C15.1054 29.0141 16.8625 28.3879 17.3726 28.1598C18.1765 27.8002 20.1417 28.1598 20.1417 28.1598L25.8586 29.4183C25.8586 29.4183 27.2878 29.8677 28.6277 29.8677C29.9676 29.8677 29.1666 31.6667 28.2704 32.2948C27.3742 32.9229 26.7222 32.8889 26.7222 32.8889L22.1069 32.8341C22.1069 32.8341 26.1266 33.5532 27.6451 33.6431C28.4144 33.6886 29.7338 33.1575 31.2085 32.5638C32.645 31.9856 34.2288 31.3479 35.5952 31.1262C38.3643 30.6767 38.8109 33.1038 37.9177 34.0027C37.0244 34.9016 29.8783 38.3174 28.6277 38.7669C27.6484 39.1188 26.4637 39.002 25.127 38.8702L25.1269 38.8702C24.7568 38.8337 24.375 38.796 23.9828 38.7669C22.4218 38.6508 21.2288 38.2787 20.048 37.9104C18.7823 37.5156 17.5304 37.1252 15.8541 37.0589C15.5036 37.0451 14.6799 37.0664 13.8889 37.0936V39H9V28ZM22.3407 16.4475C20.8205 14.6908 12.6904 12.4872 12.6904 12.4872C12.6904 12.4872 14.0724 21.2746 15.2886 22.6799C16.1483 23.6733 18.7914 23.1345 20.2671 22.7333C20.9254 23.8494 21.4876 25.0348 21.8547 26.2448C22.0157 26.7753 22.572 27.073 23.0974 26.9096C23.6227 26.7462 23.9181 26.1837 23.7571 25.6532C23.3066 24.1683 22.6113 22.7436 21.818 21.4375C22.4772 20.0807 23.3976 17.6688 22.3407 16.4475Z" fill="#333333"/>
<path fill-rule="evenodd" clip-rule="evenodd" d="M28.6863 19.7677C28.3464 19.531 28.2628 19.0635 28.4995 18.7236C30.2873 16.1568 31.7051 14.4989 32.6864 13.4752C33.1772 12.9632 33.559 12.6097 33.8235 12.3803C33.9558 12.2656 34.0588 12.182 34.1314 12.1251C34.1677 12.0966 34.1965 12.0749 34.2175 12.0593L34.2432 12.0404L34.2517 12.0343L34.2548 12.0321L34.2561 12.0312L34.2567 12.0308C34.257 12.0306 34.2573 12.0304 34.6883 12.6441L34.2573 12.0304C34.5962 11.7923 35.064 11.8741 35.3021 12.213C35.5396 12.5512 35.4588 13.0175 35.1219 13.2561C35.1212 13.2566 35.1206 13.257 35.1199 13.2575L35.1204 13.2572L35.1211 13.2567L35.122 13.256C35.1222 13.2559 35.1222 13.2559 35.1222 13.2559C35.1222 13.2559 35.1221 13.256 35.1219 13.2561C35.1218 13.2562 35.1217 13.2562 35.1216 13.2563L35.1117 13.2636C35.1012 13.2714 35.0827 13.2853 35.0564 13.3059C35.0038 13.3471 34.9201 13.4149 34.8061 13.5137C34.5783 13.7112 34.2298 14.0327 33.7693 14.5132C32.8481 15.4741 31.4791 17.0703 29.7304 19.581C29.4936 19.9208 29.0262 20.0045 28.6863 19.7677Z" fill="#333333"/>
<path fill-rule="evenodd" clip-rule="evenodd" d="M20.3242 21.2731C20.6625 21.0349 20.7459 20.5649 20.5106 20.2235C19.5356 18.8089 18.7584 17.8894 18.2144 17.316C17.9424 17.0292 17.7285 16.8288 17.5773 16.6963C17.5016 16.63 17.4416 16.5807 17.3979 16.5461C17.376 16.5287 17.3581 16.5151 17.3444 16.5048L17.3269 16.4918L17.3205 16.4872L17.3179 16.4853L17.3167 16.4845L17.3162 16.4841C17.3159 16.4839 17.3156 16.4837 16.8883 17.0977L17.3156 16.4837C16.9787 16.2445 16.5132 16.3269 16.276 16.6677C16.0399 17.0069 16.119 17.4745 16.4522 17.7146C16.4522 17.7146 16.4522 17.7146 16.4522 17.7146" fill="#333333"/>
</svg>
