<svg width="48" height="48" viewBox="0 0 48 48" fill="none" xmlns="http://www.w3.org/2000/svg">
<path fill-rule="evenodd" clip-rule="evenodd" d="M48 0H0V48H48V0ZM23.848 12.5777C23.848 10.7796 22.3768 9.3085 20.5788 9.3085C18.7808 9.3085 17.3097 10.7796 17.3097 12.5777C17.3097 14.3757 18.7808 15.8468 20.5788 15.8468C22.3768 15.8468 23.848 14.3757 23.848 12.5777ZM30.2197 20.7505H25.4825V40.3654C25.4825 41.2644 24.747 42 23.848 42C22.9489 42 22.2134 41.2644 22.2134 40.3654V32.1926H18.9442V40.3654C18.9442 41.2644 18.2087 42 17.3097 42C16.4106 42 15.6751 41.2644 15.6751 40.3654V28.2167C14.7761 28.2167 12 26.5056 12 22.2919C12 19.116 14.7761 17.4814 15.6751 17.4814H30.2197V15.3429C29.2518 15.145 28.3819 14.6189 27.7572 13.8536C27.1325 13.0883 26.7912 12.1308 26.7911 11.1429V6H28.5054V12H30.2197V6H31.934V12H33.6483V6H35.3626V11.1429C35.3624 12.1308 35.0212 13.0883 34.3964 13.8536C33.7717 14.6189 32.9019 15.145 31.934 15.3429V17.4814H33.6554C34.5544 17.4814 35.29 18.2169 35.29 19.116C35.29 20.015 34.5544 20.7505 33.6554 20.7505H31.934V41.1773H30.2197V20.7505Z" fill="#333333"/>
</svg>
