<svg width="48" height="48" viewBox="0 0 48 48" fill="none" xmlns="http://www.w3.org/2000/svg">
<path fill-rule="evenodd" clip-rule="evenodd" d="M48 0H0V48H48V0ZM18.7926 18.2844C20.0458 19.7345 21.1298 21.3037 22.0264 22.9659C22.7111 24.0697 23.0807 25.3175 23.1 26.591C23.0621 27.2083 22.9043 27.8142 22.6344 28.3796C22.3037 29.0044 21.867 29.5759 21.3408 30.0721C21.2337 30.1687 21.1069 30.2653 20.9754 30.3656L20.9753 30.3657L20.9752 30.3657C20.551 30.689 20.0769 31.0504 20.0473 31.5726C20.0213 32.0313 20.2162 34.8374 20.3475 36.7273L20.3476 36.7276L20.3476 36.7277C20.4121 37.6564 20.4612 38.3638 20.4612 38.4627H15.8821L15.6881 41.7997C15.6881 42.1181 15.5518 42.4234 15.3093 42.6485C15.0667 42.8736 14.7377 43.0001 14.3946 43.0001C14.0515 43.0001 13.7225 42.8736 13.4799 42.6485C13.2373 42.4234 13.1011 42.1181 13.1011 41.7997L12.92 38.3907H7.86227C8.56191 36.2806 12 27.5 12 27.5C12 27.5 11.3354 26.595 11.122 26.4386L6.46525 21.9095C6.21654 21.7171 6.05463 21.4452 6.01152 21.1473C5.96841 20.8495 6.04723 20.5475 6.23242 20.3011L8.81948 17.036C8.96245 16.8446 9.10882 16.6315 9.2616 16.4091L9.26176 16.4089L9.26178 16.4089C9.95208 15.4039 10.7731 14.2088 12.0016 13.9631C13.0581 13.772 14.1534 13.9471 15.0802 14.4552C16.5555 15.5143 17.8131 16.8114 18.7926 18.2844ZM11.8075 18.0083L10.0911 20.8892C10.6441 21.2495 10.8624 21.3996 11.4734 21.8199L11.4737 21.8201L11.475 21.821C11.8003 22.0448 12.2369 22.3451 12.8941 22.7941C12.8855 21.9391 12.7886 21.6464 12.6051 21.092C12.5431 20.9048 12.4713 20.6877 12.3896 20.4091C12.3078 20.0649 12.2237 19.7249 12.1402 19.3874L12.1402 19.3874L12.1401 19.3874L12.1401 19.3874L12.1401 19.3873L12.1401 19.3873L12.1401 19.3873L12.1401 19.3873L12.1401 19.3873L12.1401 19.3872L12.1401 19.3872L12.1401 19.3872L12.1401 19.3872L12.1401 19.3871L12.1401 19.3871L12.1401 19.3871L12.1401 19.3871L12.1401 19.387L12.1401 19.387L12.14 19.387L12.14 19.387L12.14 19.387L12.14 19.3869L12.14 19.3869L12.14 19.3869L12.14 19.3869L12.14 19.3868L12.14 19.3868L12.14 19.3868C12.0255 18.9242 11.9122 18.4663 11.8075 18.0083ZM20 9C20 11.2091 18.2091 13 16 13C13.7909 13 12 11.2091 12 9C12 6.79086 13.7909 5 16 5C18.2091 5 20 6.79086 20 9ZM30.5 17.2887C30.5132 17.2761 30.5261 17.2632 30.5387 17.25C30.5261 17.2368 30.5132 17.2239 30.5 17.2113C30.4915 17.2193 30.4832 17.2275 30.475 17.2358L30.4613 17.25C30.4739 17.2632 30.4868 17.2761 30.5 17.2887ZM28.8125 16.5625C28.8125 16.0102 29.2602 15.5625 29.8125 15.5625H31.1875C31.7398 15.5625 32.1875 16.0102 32.1875 16.5625V17.9375C32.1875 18.4898 31.7398 18.9375 31.1875 18.9375H29.8125C29.2602 18.9375 28.8125 18.4898 28.8125 17.9375V16.5625ZM35.0387 17.25C35.0261 17.2632 35.0132 17.2761 35 17.2887C34.9868 17.2761 34.9739 17.2632 34.9613 17.25C34.9739 17.2368 34.9868 17.2239 35 17.2113C35.0132 17.2239 35.0261 17.2368 35.0387 17.25ZM34.3125 15.5625C33.7602 15.5625 33.3125 16.0102 33.3125 16.5625V17.9375C33.3125 18.4898 33.7602 18.9375 34.3125 18.9375H35.6875C36.2398 18.9375 36.6875 18.4898 36.6875 17.9375V16.5625C36.6875 16.0102 36.2398 15.5625 35.6875 15.5625H34.3125ZM39.5 17.2887C39.5132 17.2761 39.5261 17.2632 39.5387 17.25C39.5261 17.2368 39.5132 17.2239 39.5 17.2113C39.4868 17.2239 39.4739 17.2368 39.4613 17.25C39.4739 17.2632 39.4868 17.2761 39.5 17.2887ZM37.8125 16.5625C37.8125 16.0102 38.2602 15.5625 38.8125 15.5625H40.1875C40.7398 15.5625 41.1875 16.0102 41.1875 16.5625V17.9375C41.1875 18.4898 40.7398 18.9375 40.1875 18.9375H38.8125C38.2602 18.9375 37.8125 18.4898 37.8125 17.9375V16.5625ZM30.5387 21.75C30.5261 21.7632 30.5132 21.7761 30.5 21.7887C30.4868 21.7761 30.4739 21.7632 30.4613 21.75L30.4745 21.7363L30.4813 21.7295C30.4875 21.7233 30.4937 21.7173 30.5 21.7113C30.5132 21.7239 30.5261 21.7368 30.5387 21.75ZM29.8125 20.0625C29.2602 20.0625 28.8125 20.5102 28.8125 21.0625V22.4375C28.8125 22.9898 29.2602 23.4375 29.8125 23.4375H31.1875C31.7398 23.4375 32.1875 22.9898 32.1875 22.4375V21.0625C32.1875 20.5102 31.7398 20.0625 31.1875 20.0625H29.8125ZM35 21.7887C35.0132 21.7761 35.0261 21.7632 35.0387 21.75C35.0261 21.7368 35.0132 21.7239 35 21.7113C34.9868 21.7239 34.9739 21.7368 34.9613 21.75C34.9739 21.7632 34.9868 21.7761 35 21.7887ZM33.3125 21.0625C33.3125 20.5102 33.7602 20.0625 34.3125 20.0625H35.6875C36.2398 20.0625 36.6875 20.5102 36.6875 21.0625V22.4375C36.6875 22.9898 36.2398 23.4375 35.6875 23.4375H34.3125C33.7602 23.4375 33.3125 22.9898 33.3125 22.4375V21.0625ZM39.5387 21.75C39.5261 21.7632 39.5132 21.7761 39.5 21.7887C39.4868 21.7761 39.4739 21.7632 39.4613 21.75C39.4739 21.7368 39.4868 21.7239 39.5 21.7113L39.5102 21.7211L39.5218 21.7326L39.5387 21.75ZM38.8125 20.0625C38.2602 20.0625 37.8125 20.5102 37.8125 21.0625V22.4375C37.8125 22.9898 38.2602 23.4375 38.8125 23.4375H40.1875C40.7398 23.4375 41.1875 22.9898 41.1875 22.4375V21.0625C41.1875 20.5102 40.7398 20.0625 40.1875 20.0625H38.8125ZM42 24.25V14.4375H28V24.25H42ZM26 10.25V12.4375V24.25C26 25.3546 26.8954 26.25 28 26.25H42C43.1046 26.25 44 25.3546 44 24.25V12.4375V10.25C44 9.14543 43.1046 8.25 42 8.25H41.1875V9.9375C41.1875 10.2482 40.9357 10.5 40.625 10.5C40.3143 10.5 40.0625 10.2482 40.0625 9.9375V8.25V6.5625C40.0625 6.25184 39.8107 6 39.5 6C39.1893 6 38.9375 6.25184 38.9375 6.5625V8.25H32.1875V9.9375C32.1875 10.2482 31.9357 10.5 31.625 10.5C31.3143 10.5 31.0625 10.2482 31.0625 9.9375V8.25V6.5625C31.0625 6.25184 30.8107 6 30.5 6C30.1893 6 29.9375 6.25184 29.9375 6.5625V8.25H28C26.8954 8.25 26 9.14543 26 10.25Z" fill="#333333"/>
</svg>
