<svg width="48" height="48" viewBox="0 0 48 48" fill="none" xmlns="http://www.w3.org/2000/svg">
<path fill-rule="evenodd" clip-rule="evenodd" d="M48 0H0V48H48V0ZM42 19.3047C42 22.7333 39.2206 25.5127 35.7919 25.5127C32.3634 25.5127 29.5839 22.7333 29.5839 19.3047C29.5839 15.8761 32.3634 13.0966 35.7919 13.0966C39.2206 13.0966 42 15.8761 42 19.3047ZM38.896 31.0997H36.8422L33.4486 27.7016C32.9091 26.8367 32.157 26.1244 31.2641 25.6325C30.3711 25.1405 29.3672 24.8855 28.3477 24.8917H21.8246L23.4706 37.3077H28.0327C28.8608 37.307 29.6803 37.14 30.4427 36.8166C31.205 36.4931 31.8945 36.0199 32.4704 35.4249L33.4276 36.3821C33.7204 36.6836 34.0724 36.9211 34.4616 37.08C34.8506 37.2387 35.2684 37.3152 35.6885 37.3047C35.7065 37.3047 35.7234 37.307 35.7402 37.3092C35.7571 37.3115 35.774 37.3137 35.792 37.3137H38.896C39.7193 37.3137 40.5088 36.9867 41.0909 36.4046C41.673 35.8225 42 35.0331 42 34.2097C42 33.3865 41.673 32.5969 41.0909 32.0148C40.5088 31.4327 39.7193 31.1057 38.896 31.1057V31.0997ZM12.7046 31.0994L15.8086 27.9953L15.8041 27.9893C16.0898 27.7037 16.429 27.4772 16.8023 27.3225C17.1755 27.1678 17.5755 27.0883 17.9795 27.0883C18.3835 27.0883 18.7836 27.1678 19.1569 27.3225C19.5302 27.4772 19.8692 27.7037 20.1549 27.9893C20.4405 28.275 20.6672 28.6142 20.8217 28.9875C20.9764 29.3607 21.0559 29.7607 21.0559 30.1647C21.0559 30.5687 20.9764 30.9688 20.8217 31.3421C20.6672 31.7152 20.4405 32.0544 20.1549 32.3401L16.1207 36.3758C15.8278 36.677 15.4757 36.9145 15.0867 37.0732C14.6976 37.2319 14.2799 37.3086 13.8598 37.2984C13.842 37.2984 13.8253 37.3006 13.8084 37.3028C13.7912 37.3051 13.7737 37.3074 13.7548 37.3074H9.10402C8.28083 37.3074 7.49125 36.9804 6.90915 36.3983C6.32705 35.8162 6 35.0267 6 34.2034C6 33.3802 6.32705 32.5906 6.90915 32.0085C7.49125 31.4264 8.28083 31.0994 9.10402 31.0994H12.7046ZM39.8426 8.45061C39.8426 8.1198 39.4977 7.90197 39.199 8.04434L35.7919 9.66701L32.3849 8.04434C32.0862 7.90197 31.7413 8.1198 31.7413 8.45061V10.8834C31.7413 11.2144 32.0862 11.4321 32.3849 11.2898L35.7919 9.66701L39.199 11.2898C39.4977 11.4321 39.8426 11.2144 39.8426 10.8834V8.45061Z" fill="#333333"/>
</svg>
