<svg width="48" height="48" viewBox="0 0 48 48" fill="none" xmlns="http://www.w3.org/2000/svg">
<path fill-rule="evenodd" clip-rule="evenodd" d="M0 0H48V48H0V0ZM23.9859 16.46C26.8662 16.46 29.2012 14.1184 29.2012 11.23C29.2012 8.34155 26.8662 6 23.9859 6C21.1055 6 18.7705 8.34155 18.7705 11.23C18.7705 14.1184 21.1055 16.46 23.9859 16.46ZM12.2055 15.1388L12.2154 15.1602C13.781 18.5243 15.6053 20.3718 17.7222 21.2943L18.7705 21.7512V25.4997H29.2295V21.7512L30.2778 21.2943C32.3947 20.3718 34.219 18.5243 35.7846 15.1602L35.7945 15.1388L35.8051 15.1177C35.8843 14.9587 36.0105 14.571 35.9993 14.1385C35.9892 13.747 35.8729 13.3799 35.5505 13.0567C35.1358 12.6409 34.8031 12.5487 34.5554 12.5334C34.261 12.5153 33.9026 12.5994 33.489 12.8047C33.4787 12.8112 33.4082 12.8562 33.2687 12.9919C33.1112 13.145 32.9267 13.3529 32.6901 13.6361C32.5948 13.7502 32.4911 13.8768 32.3797 14.0127L32.3797 14.0127L32.3796 14.0129L32.3795 14.0129C31.9765 14.5048 31.4741 15.1178 30.9151 15.6944C29.4255 17.231 27.2603 18.8129 24 18.8129C20.7397 18.8129 18.5745 17.231 17.0849 15.6944C16.5259 15.1178 16.0235 14.5048 15.6205 14.0129L15.6204 14.0129L15.6204 14.0128C15.509 13.8769 15.4052 13.7502 15.3099 13.6361C15.0733 13.3529 14.8888 13.145 14.7313 12.9919C14.5918 12.8562 14.5214 12.8115 14.5111 12.805C14.0975 12.5997 13.739 12.5153 13.4446 12.5334C13.1969 12.5487 12.8642 12.6409 12.4495 13.0567C12.1271 13.3799 12.0108 13.747 12.0007 14.1385C11.9895 14.571 12.1157 14.9587 12.1949 15.1177L12.2055 15.1388ZM18.7705 28.7243V27.4997H29.2295V28.7243C29.2295 29.3606 28.6329 30.9949 26.8024 31.7779C26.5929 31.8675 26.3574 31.9799 26.1458 32.0808L26.0213 32.1401C25.7612 32.2636 25.5096 32.3804 25.2551 32.4839C24.7243 32.7 24.3103 32.8031 24 32.8031C23.6897 32.8031 23.2757 32.7 22.7449 32.4839C22.4904 32.3804 22.2388 32.2636 21.9787 32.1401L21.8542 32.0808C21.6426 31.9799 21.4071 31.8675 21.1976 31.7779C19.3671 30.9949 18.7705 29.3606 18.7705 28.7243ZM18.3676 31.3811C18.7754 32.263 19.5417 33.1966 20.7614 33.787C20.4641 34.0355 20.1834 34.3292 19.9266 34.7475C19.4264 35.5624 18.9965 36.569 18.9965 37.5174C18.9965 38.3844 19.3216 39.1303 19.5678 39.6953L19.5858 39.7366C19.8577 40.361 20.0295 40.7811 20.0295 41.2253C20.0295 42.2238 19.2452 42.9997 18.3186 42.9997C17.4551 42.9997 16.7718 42.3704 16.263 41.1524C15.766 39.963 15.5748 38.4955 15.5748 37.5174C15.5748 34.8686 16.5719 32.9128 18.3676 31.3811ZM29.6324 31.3811C29.2246 32.263 28.4583 33.1966 27.2386 33.787C27.5359 34.0355 27.8166 34.3292 28.0734 34.7475C28.5736 35.5624 29.0035 36.569 29.0035 37.5174C29.0035 38.3844 28.6784 39.1303 28.4322 39.6953L28.4142 39.7366C28.1423 40.361 27.9705 40.7811 27.9705 41.2253C27.9705 42.2238 28.7548 42.9997 29.6814 42.9997C30.5449 42.9997 31.2282 42.3704 31.737 41.1524C32.234 39.963 32.4252 38.4955 32.4252 37.5174C32.4252 34.8686 31.4281 32.9128 29.6324 31.3811Z" fill="#333333"/>
</svg>
