<svg width="48" height="48" viewBox="0 0 48 48" fill="none" xmlns="http://www.w3.org/2000/svg">
<path fill-rule="evenodd" clip-rule="evenodd" d="M48 0H0V48H48V0ZM42 18.208C42 21.6367 39.2206 24.4161 35.792 24.4161C32.3634 24.4161 29.5839 21.6367 29.5839 18.208C29.5839 14.7795 32.3634 12 35.792 12C39.2206 12 42 14.7795 42 18.208ZM38.896 30.003H36.8421L33.4486 26.605C32.9088 25.7402 32.1567 25.028 31.2639 24.5361C30.371 24.0443 29.3671 23.7891 28.3477 23.795H21.8246L22.4457 36.2111H28.0327C28.8612 36.2099 29.6811 36.0421 30.4436 35.7176C31.2058 35.3931 31.8952 34.9186 32.4704 34.3223L33.4276 35.2809C33.7204 35.5823 34.0725 35.8197 34.4615 35.9782C34.8507 36.1368 35.2685 36.213 35.6884 36.2021C35.7064 36.2021 35.7233 36.2043 35.7402 36.2066C35.7571 36.2088 35.774 36.2111 35.792 36.2111H38.896C39.7193 36.2111 40.5088 35.884 41.0909 35.3019C41.6729 34.7198 42 33.9302 42 33.1071C42 32.2839 41.6729 31.4943 41.0909 30.9122C40.5088 30.3301 39.7193 30.003 38.896 30.003ZM12.7046 30.003L15.8086 26.899L15.8041 26.8945C16.0898 26.6088 16.429 26.3821 16.8023 26.2276C17.1755 26.0729 17.5755 25.9934 17.9795 25.9934C18.3835 25.9934 18.7836 26.0729 19.1569 26.2276C19.5302 26.3821 19.8692 26.6088 20.1549 26.8945C20.4405 27.1801 20.6672 27.5193 20.8217 27.8926C20.9764 28.2658 21.0559 28.6658 21.0559 29.0698C21.0559 29.4739 20.9764 29.874 20.8217 30.2471C20.6672 30.6203 20.4405 30.9595 20.1549 31.2452L16.1207 35.2809C15.8277 35.582 15.4757 35.8193 15.0866 35.9777C14.6976 36.1363 14.2799 36.2127 13.8598 36.202C13.8238 36.211 13.7923 36.211 13.7548 36.211H9.10402C8.28083 36.211 7.49125 35.884 6.90915 35.3019C6.32705 34.7198 6 33.9302 6 33.107C6 32.2838 6.32705 31.4942 6.90915 30.9121C7.49125 30.33 8.28083 30.003 9.10402 30.003H12.7046Z" fill="#333333"/>
</svg>
