<svg width="48" height="48" viewBox="0 0 48 48" fill="none" xmlns="http://www.w3.org/2000/svg">
<path fill-rule="evenodd" clip-rule="evenodd" d="M48 0H0V48H48V0ZM26.0808 14.0562C26.9489 13.3224 27.5001 12.2256 27.5001 11C27.5001 8.79086 25.7092 7 23.5001 7C21.2909 7 19.5001 8.79086 19.5001 11C19.5001 12.2256 20.0512 13.3224 20.9193 14.0562C19.5404 14.3267 18.5001 15.5418 18.5001 17V18.0988L15.3485 22.0383C15.2709 22.1311 15.2058 22.2318 15.1538 22.3379C14.9537 22.7437 14.9514 23.2143 15.1322 23.6164C15.1812 23.7254 15.2437 23.8294 15.3193 23.9256L18.3001 27.9C18.4846 28.1461 18.7302 28.3193 19.0001 28.4144V39C19.0001 39.8284 19.6717 40.5 20.5001 40.5C21.3285 40.5 22.0001 39.8284 22.0001 39V31H25.0001V39C25.0001 39.8284 25.6717 40.5 26.5001 40.5C27.3285 40.5 28.0001 39.8284 28.0001 39V28.4144C28.2699 28.3193 28.5155 28.146 28.7001 27.9L31.6811 23.9253C31.7558 23.8301 31.8177 23.7274 31.8664 23.6198C32.0482 23.218 32.047 22.7474 31.848 22.3412C31.7956 22.2338 31.7299 22.1318 31.6513 22.0379L28.5001 18.0988V17C28.5001 15.5418 27.4597 14.3267 26.0808 14.0562ZM28.6028 23.0296L26.9825 25.1901L25.836 24.4258C25.0014 23.8694 24.5001 22.9327 24.5001 21.9296L24.5001 16.5V16H22.5001L22.5001 21.9296C22.5001 22.9327 21.9988 23.8694 21.1642 24.4258L20.0177 25.1901L18.3973 23.0296L19.0001 22.2761V23.4648L20.0548 22.7617C20.333 22.5762 20.5001 22.264 20.5001 21.9296V16H21.5001V14.4649C22.0884 14.8052 22.7715 15 23.5001 15C24.2286 15 24.9117 14.8052 25.5001 14.4649V16H26.5001V21.9296C26.5001 22.264 26.6672 22.5762 26.9454 22.7617L28.0001 23.4648V22.2762L28.6028 23.0296Z" fill="#333333"/>
</svg>
