<svg width="48" height="48" viewBox="0 0 48 48" fill="none" xmlns="http://www.w3.org/2000/svg">
<path fill-rule="evenodd" clip-rule="evenodd" d="M48 0H0V48H48V0ZM27.5 14.75C27.5 16.683 25.933 18.25 24 18.25C22.067 18.25 20.5 16.683 20.5 14.75C20.5 12.817 22.067 11.25 24 11.25C25.933 11.25 27.5 12.817 27.5 14.75ZM20.2519 20.4179C20.5301 20.0007 20.9985 19.75 21.5 19.75H26.5C27.0015 19.75 27.4699 20.0007 27.7481 20.4179L31.7481 26.4179C32.2076 27.1072 32.0214 28.0385 31.3321 28.4981C30.6428 28.9576 29.7115 28.7713 29.2519 28.0821L28 26.2042V35.25C28 36.0784 27.3284 36.75 26.5 36.75C25.6716 36.75 25 36.0784 25 35.25V30.25H23V35.25C23 36.0784 22.3284 36.75 21.5 36.75C20.6716 36.75 20 36.0784 20 35.25V26.2042L18.7481 28.0821C18.2886 28.7713 17.3573 28.9576 16.668 28.4981C15.9787 28.0385 15.7924 27.1072 16.2519 26.4179L20.2519 20.4179Z" fill="#333333"/>
</svg>
