<svg width="48" height="48" viewBox="0 0 48 48" fill="none" xmlns="http://www.w3.org/2000/svg">
<path fill-rule="evenodd" clip-rule="evenodd" d="M48 0H0V48H48V0ZM24.9245 12.25C27.1337 12.25 28.9245 10.4591 28.9245 8.25C28.9245 6.04086 27.1337 4.25 24.9245 4.25C22.7154 4.25 20.9245 6.04086 20.9245 8.25C20.9245 10.4591 22.7154 12.25 24.9245 12.25ZM28.2655 18.3721C28.1943 18.1822 28.1024 18.0061 27.9935 17.8453L27.9933 17.8452C27.5373 17.1726 26.7815 16.7687 25.9822 16.75H25.8662C25.7196 16.7534 25.572 16.7699 25.4249 16.8001L25.4248 16.8C25.2981 16.8261 25.1718 16.8623 25.0468 16.9091L22.9727 17.6869L22.9726 17.687L21.2324 18.3396L20.6871 19.6121L25.3979 17.8455C26.1736 17.5546 27.0382 17.9476 27.3291 18.7233C27.6199 19.499 27.2269 20.3636 26.4512 20.6545L18.4512 23.6545C17.8887 23.8654 17.2546 23.7204 16.8397 23.2859C16.4248 22.8514 16.3092 22.2113 16.5458 21.6591L19.5458 14.6591C19.7822 14.1076 20.3245 13.75 20.9246 13.75H28.9052C29.2239 13.7458 29.5289 13.8431 29.7811 14.0184C29.9426 14.1307 30.0824 14.2749 30.1905 14.445C30.2389 14.5211 30.2807 14.6018 30.315 14.6863L33.3033 21.659C33.54 22.2112 33.4244 22.8513 33.0095 23.2858C32.5946 23.7203 31.9605 23.8653 31.3979 23.6544L26.3487 21.7609L26.8025 21.5907C28.0953 21.1059 28.7503 19.6649 28.2655 18.3721ZM19.9246 42.25V24.17L25.3291 22.1433L29.9246 24.1128V42.25C29.9246 43.0784 29.253 43.75 28.4246 43.75C27.5961 43.75 26.9246 43.0784 26.9246 42.25V30.25H22.9246V42.25C22.9246 43.0784 22.253 43.75 21.4246 43.75C20.5961 43.75 19.9246 43.0784 19.9246 42.25ZM15.9886 24.936C14.6432 23.5906 14.6432 21.4093 15.9886 20.0639L14.5744 18.6497C12.448 20.7761 12.448 24.2238 14.5744 26.3502L15.9886 24.936ZM33.8606 20.0639C35.206 21.4093 35.206 23.5906 33.8606 24.936L35.2748 26.3502C37.4012 24.2238 37.4012 20.7761 35.2748 18.6497L33.8606 20.0639ZM13.8818 27.043C11.3727 24.534 11.3728 20.4661 13.8818 17.9571L12.4675 16.5429C9.17749 19.8329 9.17749 25.1672 12.4675 28.4572L13.8818 27.043ZM35.9675 17.9571C38.4765 20.4661 38.4765 24.534 35.9675 27.043L37.3817 28.4572C40.6718 25.1672 40.6718 19.8329 37.3817 16.5429L35.9675 17.9571Z" fill="#333333"/>
</svg>
