<svg width="48" height="48" viewBox="0 0 48 48" fill="none" xmlns="http://www.w3.org/2000/svg">
<path fill-rule="evenodd" clip-rule="evenodd" d="M0 0H48V48H0V0ZM27.0313 34.2634C26.9866 35.0584 26.4977 38.475 26.4044 39.1223H24.9978V44.0111H35.9978V39.1223H34.5884C35.3233 37.9804 36.119 37.1746 36.9222 36.3612L36.9223 36.3612L36.9223 36.3611C37.7915 35.481 38.6695 34.5918 39.489 33.2582C39.6949 32.9231 39.9035 32.6012 40.1057 32.2892L40.1058 32.2891L40.1059 32.289L40.1059 32.2889C40.8364 31.1619 41.4839 30.1629 41.6206 29.1312C41.7952 27.8139 42.0398 19.8971 41.6511 18.6909C41.2624 17.4848 38.901 16.7678 38.0296 19.4343C37.5996 20.7501 37.4392 22.4499 37.2938 23.9915V23.9916L37.2937 23.9916C37.1444 25.5743 37.0109 26.9903 36.6174 27.6529C35.8406 28.9608 33.357 32.2022 33.357 32.2022L35.5237 28.1267C35.5237 28.1267 35.8531 27.563 35.7063 26.4785C35.5596 25.394 34.3288 23.8568 33.7139 25.0472C33.099 26.2377 32.0438 27.3013 32.0438 27.3013L28.3021 31.8031C28.3021 31.8031 27.0808 33.3841 27.0313 34.2634ZM20.9687 34.2635C21.0134 35.0585 21.5023 38.4751 21.5956 39.1223H23.0022V44.0112H12.0022V39.1223H13.4116C12.6767 37.9804 11.881 37.1746 11.0777 36.3612C10.2085 35.4811 9.3305 34.5919 8.51103 33.2583C8.30525 32.9234 8.09678 32.6017 7.89465 32.2899L7.89448 32.2896L7.89413 32.2891L7.89411 32.2891L7.89409 32.289C7.16355 31.1619 6.51608 30.163 6.37936 29.1313C6.20478 27.814 5.96019 19.8972 6.3489 18.691C6.73762 17.4849 9.09896 16.7679 9.97044 19.4344C10.4004 20.7502 10.5608 22.45 10.7062 23.9917L10.7062 23.9917C10.8556 25.5744 10.9891 26.9904 11.3826 27.6529C12.1594 28.9609 14.643 32.2023 14.643 32.2023L12.4763 28.1268C12.4763 28.1268 12.1469 27.5631 12.2937 26.4786C12.4404 25.3941 13.6712 23.8569 14.2861 25.0473C14.901 26.2378 15.9562 27.3014 15.9562 27.3014L19.6979 31.8032C19.6979 31.8032 20.9192 33.3842 20.9687 34.2635ZM35.7208 7C35.7208 9.20918 33.93 11 31.7208 11C29.5117 11 27.7208 9.20918 27.7208 7C27.7208 4.79091 29.5117 3 31.7208 3C33.93 3 35.7208 4.79091 35.7208 7ZM33.6948 14.8413H32.3196L30.0473 12.566C29.6859 11.987 29.1823 11.5102 28.5845 11.1808C27.9866 10.8515 27.3145 10.6806 26.6319 10.6845H22.2643L22.6801 18.998H26.421C26.9758 18.9972 27.5248 18.8849 28.0353 18.6676C28.5457 18.4503 29.0072 18.1326 29.3924 17.7333L30.0333 18.3752C30.2294 18.577 30.4651 18.7359 30.7256 18.8421C30.9862 18.9483 31.2659 18.9993 31.5471 18.992C31.5591 18.992 31.5704 18.9935 31.5817 18.995C31.593 18.9965 31.6043 18.998 31.6164 18.998H33.6948C34.2461 18.998 34.7746 18.779 35.1644 18.3893C35.5542 17.9995 35.7731 17.4708 35.7731 16.9196C35.7731 16.3685 35.5542 15.8398 35.1644 15.45C34.7746 15.0603 34.2461 14.8413 33.6948 14.8413ZM16.1578 14.8413L18.2361 12.763L18.2331 12.76C18.4244 12.5687 18.6515 12.4169 18.9014 12.3134C19.1513 12.2099 19.4192 12.1566 19.6897 12.1566C19.9602 12.1566 20.2281 12.2099 20.478 12.3134C20.728 12.4169 20.955 12.5687 21.1462 12.76C21.3375 12.9512 21.4893 13.1783 21.5927 13.4283C21.6963 13.6782 21.7496 13.946 21.7496 14.2165C21.7496 14.487 21.6963 14.755 21.5927 15.0048C21.4893 15.2547 21.3375 15.4818 21.1462 15.6731L18.4451 18.3753C18.2489 18.5769 18.0132 18.7358 17.7526 18.8419C17.4922 18.9481 17.2125 18.9992 16.9312 18.9921C16.9071 18.9981 16.886 18.9981 16.8609 18.9981H13.7469C13.1957 18.9981 12.667 18.7791 12.2773 18.3893C11.8875 17.9996 11.6685 17.4709 11.6685 16.9197C11.6685 16.3685 11.8875 15.8398 12.2773 15.4501C12.667 15.0603 13.1957 14.8413 13.7469 14.8413H16.1578Z" fill="#333333"/>
</svg>
