<svg width="48" height="48" viewBox="0 0 48 48" fill="none" xmlns="http://www.w3.org/2000/svg">
<path fill-rule="evenodd" clip-rule="evenodd" d="M48 0H0V48H48V0ZM23.9245 12C26.1337 12 27.9245 10.2091 27.9245 8C27.9245 5.79086 26.1337 4 23.9245 4C21.7154 4 19.9245 5.79086 19.9245 8C19.9245 10.2091 21.7154 12 23.9245 12ZM27.2655 18.1221C27.1943 17.9322 27.1024 17.7561 26.9935 17.5953L26.9933 17.5952C26.5373 16.9226 25.7815 16.5187 24.9822 16.5H24.8662C24.7196 16.5034 24.572 16.5199 24.4249 16.5501L24.4248 16.55C24.2981 16.5761 24.1718 16.6123 24.0468 16.6591L21.9727 17.4369L21.9726 17.437L20.2324 18.0896L19.6871 19.3621L24.3979 17.5955C25.1736 17.3046 26.0382 17.6976 26.3291 18.4733C26.6199 19.249 26.2269 20.1136 25.4512 20.4045L17.4512 23.4045C16.8887 23.6154 16.2546 23.4704 15.8397 23.0359C15.4248 22.6014 15.3092 21.9613 15.5458 21.4091L18.5458 14.4091C18.7822 13.8576 19.3245 13.5 19.9246 13.5H27.9052C28.2239 13.4958 28.5289 13.5931 28.7811 13.7684C28.9426 13.8807 29.0824 14.0249 29.1905 14.195C29.2389 14.2711 29.2807 14.3518 29.315 14.4363L32.3033 21.409C32.54 21.9612 32.4244 22.6013 32.0095 23.0358C31.5946 23.4703 30.9605 23.6153 30.3979 23.4044L25.3487 21.5109L25.8025 21.3407C27.0953 20.8559 27.7503 19.4149 27.2655 18.1221ZM18.9246 42V23.92L24.3291 21.8933L28.9246 23.8628V42C28.9246 42.8284 28.253 43.5 27.4246 43.5C26.5961 43.5 25.9246 42.8284 25.9246 42V30H21.9246V42C21.9246 42.8284 21.253 43.5 20.4246 43.5C19.5961 43.5 18.9246 42.8284 18.9246 42ZM14.9886 24.686C13.6432 23.3406 13.6432 21.1593 14.9886 19.8139L13.5744 18.3997C11.448 20.5261 11.448 23.9738 13.5744 26.1002L14.9886 24.686ZM32.8606 19.8139C34.206 21.1593 34.206 23.3406 32.8606 24.686L34.2748 26.1002C36.4012 23.9738 36.4012 20.5261 34.2748 18.3997L32.8606 19.8139ZM12.8818 26.793C10.3727 24.284 10.3728 20.2161 12.8818 17.7071L11.4675 16.2929C8.17749 19.5829 8.17749 24.9172 11.4675 28.2072L12.8818 26.793ZM34.9675 17.7071C37.4765 20.2161 37.4765 24.284 34.9675 26.793L36.3817 28.2072C39.6718 24.9172 39.6718 19.5829 36.3817 16.2929L34.9675 17.7071ZM33.5 5.15778C33.2239 5.15778 33 5.38163 33 5.65778V7H34V5.65778C34 5.38163 33.7761 5.15778 33.5 5.15778ZM34 9H33V10.4998V10.9994L32.6006 11.2994C32.234 11.5747 32 12.0099 32 12.5C32 13.3284 32.6716 14 33.5 14C34.3284 14 35 13.3284 35 12.5C35 12.0099 34.766 11.5747 34.3994 11.2994L34 10.9994V10.4998V9ZM31 5.65778C31 4.27706 32.1193 3.15778 33.5 3.15778C34.8807 3.15778 36 4.27706 36 5.65778V10.0506C36.6175 10.681 37 11.5459 37 12.5C37 14.433 35.433 16 33.5 16C31.567 16 30 14.433 30 12.5C30 11.5459 30.3825 10.681 31 10.0506V5.65778Z" fill="#333333"/>
</svg>
