<svg width="48" height="48" viewBox="0 0 48 48" fill="none" xmlns="http://www.w3.org/2000/svg">
<path fill-rule="evenodd" clip-rule="evenodd" d="M0 0H48V48H0V0ZM29.9591 29.2615C30.0619 29.0523 30.2884 28.9484 30.5 29C30.8586 29.0874 31.2445 29.1778 31.6473 29.272L31.6476 29.2721L31.6478 29.2721C33.9099 29.8015 36.7056 30.4557 38.192 31.4317C39.9547 32.5891 41 33.9535 41 35.5V42L26 42L25.5 42L22 42V41.9998L7 42V35.5C7 33.9535 8.04534 32.5891 9.808 31.4317C11.2944 30.4557 14.09 29.8015 16.3521 29.2722L16.3521 29.2722L16.3522 29.2722L16.3526 29.2721C16.7555 29.1778 17.1414 29.0875 17.5 29C17.7116 28.9484 17.9381 29.0523 18.0409 29.2615L22 39.6963V37L22.5745 32.9786C22.2059 32.901 21.9048 32.6194 21.8106 32.2425L21.3106 30.2425C21.1528 29.6114 21.6302 29 22.2808 29H25.7192C26.3698 29 26.8472 29.6114 26.6894 30.2425L26.1894 32.2425C26.0952 32.6194 25.7941 32.901 25.4255 32.9786L26 37V40.5716L29.9591 29.2615ZM33 17C33 21.9725 28.9725 26 24 26C19.0275 26 15 21.9725 15 17C15 12.0275 19.0275 8 24 8C28.9725 8 33 12.0275 33 17Z" fill="#333333"/>
</svg>
