<svg width="48" height="48" viewBox="0 0 48 48" fill="none" xmlns="http://www.w3.org/2000/svg">
<path fill-rule="evenodd" clip-rule="evenodd" d="M48 0H0V48H48V0ZM28 5.8952C27.0785 5.40145 26.0674 5.05142 25 4.91406V6.99958C25 7.55187 24.5523 7.99958 24 7.99958C23.4477 7.99958 23 7.55187 23 6.99958V4.91406C21.9326 5.05142 20.9215 5.40145 20 5.89519V8.99958C20 9.55187 19.5523 9.99958 19 9.99958C18.4477 9.99958 18 9.55187 18 8.99958V7.30073C17.4199 7.81877 16.9075 8.38893 16.4778 8.98044C16.4735 8.98793 16.4691 8.99535 16.4644 9.00269L16.4603 9.00933L16.4437 9.03624C16.4288 9.06086 16.4062 9.09861 16.3776 9.14826C16.3204 9.24764 16.2393 9.39423 16.1466 9.57826C15.9606 9.94772 15.7318 10.461 15.5559 11.0415C15.1944 12.2339 15.1018 13.5497 15.8191 14.5381C15.9994 14.7865 15.9481 15.1306 15.7044 15.3067C15.4608 15.4827 15.1172 15.4241 14.9369 15.1757C14.333 14.3435 14.1542 13.3989 14.1868 12.502C13.4278 13.556 13 14.6346 13 15.5747C13 16.8114 13.7405 17.6266 15.0014 18.1611C15.0874 23.0574 19.0833 27 24 27C28.9167 27 32.9126 23.0574 32.9986 18.1611C34.2595 17.6266 35 16.8114 35 15.5747C35 14.5716 34.5129 13.4107 33.6561 12.2904C33.6374 12.414 33.6163 12.5346 33.5935 12.6516C33.4617 13.3281 33.2649 13.928 33.1021 14.3575C33.0204 14.5729 32.9466 14.7473 32.8926 14.8691C32.8655 14.93 32.8434 14.9779 32.8276 15.0113L32.8089 15.0505L32.8035 15.0616L32.8019 15.065L32.8013 15.0662C32.8012 15.0663 32.8009 15.0669 32.3158 14.8261L32.8009 15.0669C32.6658 15.339 32.3358 15.4501 32.0637 15.315C31.7918 15.18 31.6807 14.8503 31.8154 14.5783L31.8189 14.5712L31.8326 14.5424C31.845 14.5161 31.8636 14.4758 31.8871 14.423C31.934 14.3173 31.9999 14.1617 32.0735 13.9675C32.2213 13.5777 32.3972 13.0396 32.5138 12.4412C32.6057 11.9698 32.6565 11.4852 32.6383 11.0162C32.1606 9.73931 31.2334 8.40219 30 7.30074V8.99958C30 9.55187 29.5523 9.99958 29 9.99958C28.4477 9.99958 28 9.55187 28 8.99958V5.8952ZM24 25C20.3813 25 17.4039 22.2541 17.0378 18.7322C18.9342 19.0768 21.3583 19.1497 24 19.1497C26.6417 19.1497 29.0658 19.0768 30.9622 18.7322C30.5961 22.2541 27.6187 25 24 25ZM16.8786 29.0309C17.3814 28.9083 17.8971 29.1592 18.1254 29.6236L22.1893 29.8955L25.8105 29.8958L29.8746 29.6236C30.1029 29.1592 30.6186 28.9083 31.1214 29.0309C36.5255 30.3492 42 33.0372 42 37.0809V44H32V34C32 33.4477 31.5523 33 31 33C30.4477 33 30 33.4477 30 34V44H18V34C18 33.4477 17.5523 33 17 33C16.4477 33 16 33.4477 16 34V44H6V37.0809C6 33.0372 11.4745 30.3492 16.8786 29.0309Z" fill="#333333"/>
</svg>
