<svg width="48" height="48" viewBox="0 0 48 48" fill="none" xmlns="http://www.w3.org/2000/svg">
<path fill-rule="evenodd" clip-rule="evenodd" d="M48 0H0V48H48V0ZM38.4795 10.8921C37.6348 12.6937 35.5026 13.4757 33.717 12.6386C31.9314 11.8015 31.1686 9.66233 32.0132 7.86064C32.8579 6.05895 34.9901 5.277 36.7757 6.11411C38.5613 6.95121 39.3241 9.09037 38.4795 10.8921ZM29.5856 40.4521C29.9103 42.7186 33.4527 42.6174 33.5279 40.2945C33.6031 37.9715 33.957 29.1926 33.957 29.1926C33.957 29.1926 34.0602 28.3464 33.0104 27.8543C31.9605 27.3621 26.3592 24.0585 26.3592 24.0585L28.5927 20.0911C28.5927 20.0911 28.8966 22.9712 29.4871 23.8172C30.0776 24.6633 35.7892 28.0728 36.862 28.6299C37.9348 29.1871 40.1108 27.334 38.686 25.9342C37.2613 24.5344 33.2995 21.376 33.2995 21.376C33.2995 21.376 33.069 12.6484 31.0631 11.464C29.0571 10.2797 28.5915 10.3053 25.4177 12.1243C22.2439 13.9433 18.4334 21.6168 18.234 23.6918C17.8376 27.8157 23.0622 29.6687 23.0622 29.6687L28.7833 31.8629C28.7833 31.8629 29.2608 38.1856 29.5856 40.4521ZM17.5509 27.0557C17.6397 27.0908 17.7204 27.1427 17.7883 27.2082C17.8561 27.2738 17.9098 27.3518 17.9461 27.4376C17.9825 27.5234 18.0008 27.6154 18 27.7081C17.9991 27.8008 17.9792 27.8924 17.9413 27.9776L15.3961 33.5652C15.3397 33.6902 15.2466 33.7964 15.1284 33.8709C15.0102 33.9453 14.872 33.9848 14.7309 33.9843C14.6357 34.0052 14.5369 34.0052 14.4417 33.9843C14.3528 33.9494 14.2723 33.8974 14.2048 33.8316C14.1374 33.7657 14.0844 33.6873 14.0493 33.6011C14.0141 33.5149 13.9975 33.4227 14.0003 33.3301C14.0031 33.2375 14.0254 33.1464 14.0657 33.0623L16.5964 27.4748C16.6267 27.384 16.6762 27.3003 16.7419 27.2292C16.8075 27.158 16.8879 27.1008 16.9777 27.0614C17.0676 27.0219 17.165 27.001 17.2637 27C17.3624 26.9991 17.4602 27.018 17.5509 27.0557ZM19.6434 29.0667C19.7187 29.1024 19.7862 29.1535 19.8417 29.2167C19.8973 29.28 19.9398 29.3542 19.9667 29.4349C19.9937 29.5155 20.0044 29.6009 19.9983 29.686C19.9923 29.771 19.9695 29.8539 19.9314 29.9296L18.2035 33.639C18.1498 33.7484 18.0674 33.8402 17.9656 33.9039C17.8638 33.9676 17.7467 34.0008 17.6275 33.9996C17.5318 34.0032 17.4369 33.981 17.3521 33.9352C17.278 33.8981 17.2117 33.8464 17.1571 33.7829C17.1025 33.7194 17.0607 33.6455 17.0339 33.5653C17.0071 33.4851 16.996 33.4003 17.0012 33.3157C17.0064 33.2311 17.0278 33.1484 17.0641 33.0723L18.792 29.3629C18.8673 29.2081 18.999 29.0901 19.1585 29.0346C19.3179 28.9792 19.4922 28.9907 19.6434 29.0667ZM14.7181 35.522C12.4003 36.0794 10.0551 36.5156 7.6919 36.8289C4.48797 37.2083 6.50003 38.6276 10.6569 38.6276C13.0597 38.6276 14.051 39.4774 15.0079 40.2977C15.7066 40.8966 16.3869 41.4797 17.5847 41.7051C20.4233 42.2391 26.6063 41.1149 24.3299 39.9766C23.1827 39.403 23.3701 38.8259 23.5687 38.2146C23.7641 37.6128 23.9703 36.978 22.9246 36.2809C21.2451 35.1611 19.1818 35.2816 16.6994 35.4266C16.0665 35.4635 15.4061 35.5021 14.7181 35.522Z" fill="#333333"/>
</svg>
