<svg width="48" height="48" viewBox="0 0 48 48" fill="none" xmlns="http://www.w3.org/2000/svg">
<path fill-rule="evenodd" clip-rule="evenodd" d="M0 0H48V48H0V0ZM19.2989 5C21.5534 5 23.398 6.76889 23.398 8.93087C23.398 11.0928 21.5534 12.8617 19.2989 12.8617C17.0443 12.8617 15.1997 11.0928 15.1997 8.93087C15.1997 6.76889 17.0443 5 19.2989 5ZM35.6953 18.758H34V30C34 30.0334 33.9984 30.0665 33.9952 30.099C36.2798 30.5604 38 32.5793 38 35H28C28 32.5793 29.7202 30.5604 32.0048 30.099C32.0016 30.0665 32 30.0334 32 30V18.758H25.4475V42.3432C25.4475 43.4242 24.5252 44.3087 23.3979 44.3087C22.2707 44.3087 21.3484 43.4242 21.3484 42.3432V32.5161H17.2492V42.3432C17.2492 43.4242 16.3269 44.3087 15.1997 44.3087C14.0724 44.3087 13.1501 43.4242 13.1501 42.3432V27.7355C12.0229 27.7355 8.54199 25.6779 8.54199 20.6113C8.54199 16.7926 12.0229 15 13.1501 15H16V19V30H23V19V15H32V10C32 9.44772 32.4477 9 33 9C33.5523 9 34 9.44772 34 10V15H35.6953C36.8225 15 37.7449 15.7116 37.7449 16.7926C37.7449 17.8736 36.8225 18.758 35.6953 18.758ZM21 15V19H18V15H21Z" fill="#333333"/>
</svg>
