<svg width="48" height="48" viewBox="0 0 48 48" fill="none" xmlns="http://www.w3.org/2000/svg">
<path fill-rule="evenodd" clip-rule="evenodd" d="M0 0H48V48H0V0ZM37.0705 9.00181C37.0705 11.2119 35.2796 13.0036 33.0704 13.0036C30.8612 13.0036 29.0703 11.2119 29.0703 9.00181C29.0703 6.79167 30.8612 5 33.0704 5C35.2796 5 37.0705 6.79167 37.0705 9.00181ZM28.775 11.5049H27.6751C26.7761 11.5049 24 13.1395 24 16.3153C24 20.5291 26.7761 22.2402 27.6751 22.2402V41.868C27.6751 42.767 28.4106 43.5026 29.3097 43.5026L29.3193 43.5025L29.3289 43.5026C30.2279 43.5026 30.9635 42.767 30.9635 41.868V30.216H35.2134V41.868C35.2134 42.767 35.9489 43.5026 36.848 43.5026L36.8576 43.5025L36.8672 43.5026C37.7662 43.5026 38.5018 42.767 38.5018 41.868V17.2311L40.687 23.4942C40.9599 24.2763 41.8152 24.6892 42.5974 24.4163C43.3796 24.1434 43.7924 23.288 43.5195 22.5058L40.2664 13.1823C39.9162 12.1784 38.9692 11.5059 37.906 11.5059H37.431C36.5656 12.9971 34.9516 14 33.1033 14C31.2546 14 29.6402 12.9967 28.775 11.5049ZM42.1033 25C40.4464 25 39.1033 26.3431 39.1033 28V28.6667C39.1033 29.219 39.551 29.6667 40.1033 29.6667C40.6556 29.6667 41.1033 29.219 41.1033 28.6667V28C41.1033 27.4477 41.551 27 42.1033 27C42.6556 27 43.1033 27.4477 43.1033 28V42C43.1033 42.5523 43.551 43 44.1033 43C44.6556 43 45.1033 42.5523 45.1033 42V28C45.1033 26.3431 43.7601 25 42.1033 25ZM13.0361 5.51575C13.0799 5.35121 13.1033 5.17833 13.1033 5C13.1033 3.89543 12.2078 3 11.1033 3C9.9987 3 9.10327 3.89543 9.10327 5C9.10327 5.16683 9.1237 5.3289 9.16219 5.48383C7.9161 6.16174 7.07031 7.48296 7.07031 9.00181C7.07031 11.2119 8.86121 13.0036 11.0704 13.0036C13.2796 13.0036 15.0705 11.2119 15.0705 9.00181C15.0705 7.50646 14.2506 6.20267 13.0361 5.51575ZM5.67508 11.5049H6.77501C7.64023 12.9967 9.25458 14 11.1033 14C12.9516 14 14.5656 12.9971 15.431 11.5059H15.969C16.9536 11.5059 17.8464 12.0837 18.2497 12.9819L22.4717 22.3856C22.811 23.1414 22.4734 24.0291 21.7176 24.3684C20.9619 24.7077 20.0742 24.3701 19.7349 23.6144L16.4825 16.3704V21.8381L19.1487 33.215H16.4825V41.868C16.4825 42.767 15.747 43.5026 14.848 43.5026C13.9489 43.5026 13.2134 42.767 13.2134 41.868V33.216H8.94423V41.868C8.94423 42.767 8.20867 43.5026 7.30966 43.5026C6.41064 43.5026 5.67508 42.767 5.67508 41.868V33.215H3.09644L5.66836 22.2402C4.76231 22.2317 2 20.5186 2 16.3153C2 13.1395 4.77607 11.5049 5.67508 11.5049ZM22.1033 25C20.4464 25 19.1033 26.3431 19.1033 28V28.6667C19.1033 29.219 19.551 29.6667 20.1033 29.6667C20.6556 29.6667 21.1033 29.219 21.1033 28.6667V28C21.1033 27.4477 21.551 27 22.1033 27C22.6556 27 23.1033 27.4477 23.1033 28V42C23.1033 42.5523 23.551 43 24.1033 43C24.6556 43 25.1033 42.5523 25.1033 42V28C25.1033 26.3431 23.7601 25 22.1033 25Z" fill="#333333"/>
</svg>
