<svg width="48" height="48" viewBox="0 0 48 48" fill="none" xmlns="http://www.w3.org/2000/svg">
<path fill-rule="evenodd" clip-rule="evenodd" d="M12.1055 18.5528C12.3525 18.0588 12.9532 17.8586 13.4472 18.1055L17.4472 20.1055C17.786 20.2749 18 20.6212 18 21C18 21.3787 17.786 21.725 17.4472 21.8944L13.4472 23.8944C12.9532 24.1414 12.3525 23.9412 12.1055 23.4472C11.8586 22.9532 12.0588 22.3525 12.5528 22.1055L14.7639 21L12.5528 19.8944C12.0588 19.6474 11.8586 19.0467 12.1055 18.5528Z" fill="#333333"/>
<path fill-rule="evenodd" clip-rule="evenodd" d="M35.8945 18.5528C35.6475 18.0588 35.0468 17.8586 34.5528 18.1055L30.5528 20.1055C30.214 20.2749 30 20.6212 30 21C30 21.3787 30.214 21.725 30.5528 21.8944L34.5528 23.8944C35.0468 24.1414 35.6475 23.9412 35.8945 23.4472C36.1414 22.9532 35.9412 22.3525 35.4472 22.1055L33.2361 21L35.4472 19.8944C35.9412 19.6474 36.1414 19.0467 35.8945 18.5528Z" fill="#333333"/>
<path d="M28 31C28 33.2091 26.433 35 24.5 35C22.567 35 21 33.2091 21 31C21 28.7909 22.567 27 24.5 27C26.433 27 28 28.7909 28 31Z" fill="#333333"/>
<path fill-rule="evenodd" clip-rule="evenodd" d="M0 0H48V48H0V0ZM33.4199 41.6472C30.6129 43.1487 27.4059 44 24 44C12.9543 44 4 35.0457 4 24C4 12.9543 12.9543 4 24 4C35.0457 4 44 12.9543 44 24C44 26.4626 43.5549 28.8213 42.7408 31H44C45.6569 31 47 32.3431 47 34C47 35.1295 46.3758 36.1132 45.4535 36.625C45.1901 36.7712 44.9993 37.0336 44.964 37.3329C44.9146 37.7533 45.1545 38.1979 45.5194 38.4127C46.4054 38.9341 47 39.8976 47 41C47 42.6569 45.6569 44 44 44C43.0592 44 42.2195 43.5669 41.6694 42.8892C41.5498 42.7418 41.3445 42.6893 41.1697 42.7634C40.9732 42.8467 40.8606 43.0686 40.912 43.2757C40.9695 43.5077 41 43.7503 41 44C41 45.6569 39.6569 47 38 47C37.0855 47 36.2681 46.5394 35.7191 45.848C34.9069 44.8252 34.2027 43.4936 33.7045 42.2863C33.6182 42.077 33.5223 41.8635 33.4199 41.6472Z" fill="#333333"/>
<path fill-rule="evenodd" clip-rule="evenodd" d="M33 33C33 33.5523 32.5523 34 32 34C31.4477 34 31 33.5523 31 33C31 32.4477 31.4477 32 32 32C32.5523 32 33 32.4477 33 33ZM44 35C44.5523 35 45 34.5523 45 34C45 33.4477 44.5523 33 44 33C43.4477 33 43 33.4477 43 34C43 34.5523 43.4477 35 44 35ZM42 38C42.5523 38 43 37.5523 43 37C43 36.4477 42.5523 36 42 36C41.4477 36 41 36.4477 41 37C41 37.5523 41.4477 38 42 38ZM41 40C41 40.5523 40.5523 41 40 41C39.4477 41 39 40.5523 39 40C39 39.4477 39.4477 39 40 39C40.5523 39 41 39.4477 41 40ZM39 44C39 44.5523 38.5523 45 38 45C37.4477 45 37 44.5523 37 44C37 43.4477 37.4477 43 38 43C38.5523 43 39 43.4477 39 44ZM45 41C45 41.5523 44.5523 42 44 42C43.4477 42 43 41.5523 43 41C43 40.4477 43.4477 40 44 40C44.5523 40 45 40.4477 45 41ZM34 38C34.5523 38 35 37.5523 35 37C35 36.4477 34.5523 36 34 36C33.4477 36 33 36.4477 33 37C33 37.5523 33.4477 38 34 38ZM37 33C37 33.5523 36.5523 34 36 34C35.4477 34 35 33.5523 35 33C35 32.4477 35.4477 32 36 32C36.5523 32 37 32.4477 37 33ZM40 35C40.5523 35 41 34.5523 41 34C41 33.4477 40.5523 33 40 33C39.4477 33 39 33.4477 39 34C39 34.5523 39.4477 35 40 35ZM39 37C39 37.5523 38.5523 38 38 38C37.4477 38 37 37.5523 37 37C37 36.4477 37.4477 36 38 36C38.5523 36 39 36.4477 39 37ZM36 42C36.5523 42 37 41.5523 37 41C37 40.4477 36.5523 40 36 40C35.4477 40 35 40.4477 35 41C35 41.5523 35.4477 42 36 42Z" fill="#333333"/>
</svg>
