<svg width="48" height="48" viewBox="0 0 48 48" fill="none" xmlns="http://www.w3.org/2000/svg">
<path fill-rule="evenodd" clip-rule="evenodd" d="M48 0H0V48H48V0ZM39.2499 11.2514C39.2499 13.0471 37.7948 14.5028 35.9999 14.5028C34.205 14.5028 32.7499 13.0471 32.7499 11.2514C32.7499 9.4557 34.205 8 35.9999 8C37.7948 8 39.2499 9.4557 39.2499 11.2514ZM32.0763 19.6097L29.3847 26.0764C29.0664 26.8412 28.1883 27.2032 27.4235 26.8848C26.6587 26.5665 26.2967 25.6884 26.6151 24.9236L29.7222 17.4585C30.0898 16.5754 30.9524 16 31.909 16H33.1198H35.1769H39.9548C40.898 16 41.7514 16.5597 42.1273 17.4249L45.3757 24.9023C45.7058 25.6621 45.3574 26.5457 44.5976 26.8758C43.8378 27.2059 42.9542 26.8575 42.6241 26.0977L39.9999 20.057V21.8354V29.6806V38.6808C39.9999 39.4065 39.3947 40.0002 38.655 40.0002C37.9154 40.0002 37.3102 39.4065 37.3102 38.6808V29.6806H34.766V38.6808C34.766 39.4065 34.1608 40.0002 33.4211 40.0002C32.6815 40.0002 32.0763 39.4065 32.0763 38.6808V29.6806V21.8354V19.6097ZM8.00004 19.8342L5.33853 25.0948C4.96454 25.8341 4.06212 26.1301 3.32292 25.7561C2.58371 25.3822 2.28764 24.4797 2.66163 23.7405L5.83929 17.4597C6.29233 16.5642 7.21055 15.9997 8.2141 15.9997H9.23689H11.3365H15.7861C16.7896 15.9997 17.7078 16.5642 18.1609 17.4597L21.3385 23.7405C21.7125 24.4797 21.4164 25.3822 20.6772 25.7561C19.938 26.1301 19.0356 25.8341 18.6616 25.0948L15.9976 19.8292V24.3122H16L18.82 30.8534C19.1505 31.6201 18.5883 32.4746 17.7534 32.4746H15.9976V38.6142C15.9976 39.3975 15.3806 40.0384 14.6266 40.0384C13.8725 40.0384 13.2555 39.3975 13.2555 38.6142V32.4746H10.7421V38.6142C10.7421 39.3975 10.1251 40.0384 9.37107 40.0384C8.61701 40.0384 8.00004 39.3975 8.00004 38.6142V32.4746H6.52431C5.70744 32.4746 5.1458 31.6537 5.44179 30.8923L7.99997 24.3122H8.00004V19.8342ZM15.25 11.2514C15.25 13.0471 13.7949 14.5028 12 14.5028C10.2051 14.5028 8.75 13.0471 8.75 11.2514C8.75 9.4557 10.2051 8 12 8C13.7949 8 15.25 9.4557 15.25 11.2514Z" fill="#333333"/>
</svg>
