<svg width="48" height="48" viewBox="0 0 48 48" fill="none" xmlns="http://www.w3.org/2000/svg">
<path fill-rule="evenodd" clip-rule="evenodd" d="M48 0H0V48H48V0ZM11.0001 13C13.2093 13 15.0001 11.2091 15.0001 9C15.0001 6.79086 13.2093 5 11.0001 5C8.79099 5 7.00013 6.79086 7.00013 9C7.00013 11.2091 8.79099 13 11.0001 13ZM7.00002 32H5.43592C3.5821 32 3.27745 30.3354 3.58222 28.5068L5.58222 16.5068C5.82331 15.0602 7.07488 14 8.5414 14H13.4586C14.9252 14 16.1767 15.0602 16.4178 16.5068L18.4178 28.5068C18.7226 30.3354 18.4178 32 16.564 32H15L14.1528 42.1661C14.0665 43.2027 13.1999 44 12.1598 44H9.84028C8.80011 44 7.93357 43.2027 7.84719 42.1661L7.00002 32ZM26 11C26 8.79086 27.7909 7 30 7H31V5H33V7H34C36.2091 7 38 8.79086 38 11H36C36 9.89543 35.1046 9 34 9H33V13H34C36.2091 13 38 14.7909 38 17C38 19.2091 36.2091 21 34 21H33V23H31V21H30C27.7909 21 26 19.2091 26 17H28C28 18.1046 28.8954 19 30 19H31V15H30C27.7909 15 26 13.2091 26 11ZM31 9H30C28.8954 9 28 9.89543 28 11C28 12.1046 28.8954 13 30 13H31V9ZM33 19H34C35.1046 19 36 18.1046 36 17C36 15.8954 35.1046 15 34 15H33V19ZM20 36C20 34.3431 21.3431 33 23 33V27H25V28L39 28V27H41V33C42.6569 33 44 34.3431 44 36V40V41V44H42V41H22V44H20V41V40V36ZM39 30H36V33H39V30ZM34 30L30 30V33H34V30ZM28 30H25V33H28V30ZM23 35C22.4477 35 22 35.4477 22 36V39H42V36C42 35.4477 41.5523 35 41 35H23Z" fill="#333333"/>
</svg>
