<svg width="48" height="48" viewBox="0 0 48 48" fill="none" xmlns="http://www.w3.org/2000/svg">
<path fill-rule="evenodd" clip-rule="evenodd" d="M48 0H0V48H48V0ZM11.2721 36.727C18.3015 43.7565 29.6985 43.7565 36.7279 36.727C43.7574 29.6976 43.7574 18.3006 36.7279 11.2712C29.6985 4.24176 18.3015 4.24176 11.2721 11.2712C11.0818 11.4615 10.8967 11.6549 10.7167 11.8514L13.7563 10.8744C18.2631 9.42577 21.6739 15.0115 18.3265 18.3589C16.7446 19.9408 17.865 22.6456 20.1021 22.6456L21.0127 22.6456C23.2274 22.6456 25.1653 24.1344 25.7359 26.2743L27.5943 33.2433C28.8586 32.7144 29.8591 32 30.633 31.2604L30.1638 31.2965C29.1913 31.3713 28.3067 30.7337 28.0701 29.7875L26.6559 24.1306C26.388 23.059 27.0395 21.9732 28.1111 21.7053C29.1827 21.4374 30.2686 22.0889 30.5365 23.1605L31.541 27.1788L34.4532 26.9548C35.1344 26.9024 35.7951 27.2013 36.2055 27.7474C36.6159 28.2936 36.7191 29.0114 36.4793 29.6511C35.5957 32.0074 32.261 37.1929 24.928 38.0077C23.933 38.1182 23.0096 37.4762 22.7668 36.505L21.8377 32.7884L18.1211 33.7176C17.0495 33.9855 15.9637 33.3339 15.6958 32.2624C15.4279 31.1908 16.0794 30.1049 17.151 29.837L22.8078 28.4228C23.3327 28.2916 23.8609 28.3809 24.2948 28.6321L23.8035 26.7896C23.4663 25.5253 22.3213 24.6456 21.0127 24.6456L20.1021 24.6456C16.0832 24.6456 14.0705 19.7865 16.9123 16.9447C18.7756 15.0814 16.877 11.9721 14.3683 12.7785L8.63003 14.6229C4.39423 21.5537 5.27491 30.7299 11.2721 36.727ZM9.85786 38.1413C17.6684 45.9517 30.3316 45.9517 38.1421 38.1413C45.9526 30.3308 45.9526 17.6675 38.1421 9.85698C30.3316 2.04649 17.6684 2.04649 9.85786 9.85698C2.04738 17.6675 2.04738 30.3308 9.85786 38.1413ZM38.8492 24.7062C37.2871 26.2683 34.7545 26.2683 33.1924 24.7062C31.6303 23.1441 31.6303 20.6115 33.1924 19.0494C34.7545 17.4873 37.2871 17.4873 38.8492 19.0494C40.4113 20.6115 40.4113 23.1441 38.8492 24.7062Z" fill="#333333"/>
</svg>
