<svg width="48" height="48" viewBox="0 0 48 48" fill="none" xmlns="http://www.w3.org/2000/svg">
<path fill-rule="evenodd" clip-rule="evenodd" d="M48 0H0V48H48V0ZM27.3644 8.0399C27.6594 7.91179 28 8.1078 28 8.40545V10.5945C28 10.8923 27.6594 11.0881 27.3644 10.9602L24 9.49996L27.3644 8.0399ZM24 9.49996L20.6356 10.9602C20.3406 11.0881 20 10.8923 20 10.5945V8.40545C20 8.1078 20.3406 7.91179 20.6356 8.0399L24 9.49996ZM27.5002 14.75C27.5002 16.683 25.9332 18.25 24.0002 18.25C22.0672 18.25 20.5002 16.683 20.5002 14.75C20.5002 12.817 22.0672 11.25 24.0002 11.25C25.9332 11.25 27.5002 12.817 27.5002 14.75ZM20.2521 20.4179C20.5303 20.0007 20.9986 19.75 21.5002 19.75H26.5002C27.0017 19.75 27.47 20.0007 27.7482 20.4179L31.7482 26.4179C32.2078 27.1072 32.0215 28.0385 31.3322 28.4981C30.6429 28.9576 29.7116 28.7713 29.2521 28.0821L28.0002 26.2042V28L30.0002 32H28.0002V35.25C28.0002 36.0784 27.3286 36.75 26.5002 36.75C25.6717 36.75 25.0002 36.0784 25.0002 35.25V32H23.0002V35.25C23.0002 36.0784 22.3286 36.75 21.5002 36.75C20.6717 36.75 20.0002 36.0784 20.0002 35.25V32H18.0002L20.0002 28V26.2042L18.7482 28.0821C18.2887 28.7713 17.3574 28.9576 16.6681 28.4981C15.9788 28.0385 15.7926 27.1072 16.2521 26.4179L20.2521 20.4179Z" fill="#333333"/>
</svg>
