<svg width="48" height="48" viewBox="0 0 48 48" fill="none" xmlns="http://www.w3.org/2000/svg">
<path fill-rule="evenodd" clip-rule="evenodd" d="M48 0H0V48H48V0ZM26.8644 6.0399C27.1594 5.91179 27.5 6.1078 27.5 6.40545V8.59447C27.5 8.89226 27.1594 9.08813 26.8644 8.96016L23.5 7.49996L26.8644 6.0399ZM23.5 7.49996L20.1356 8.96016C19.8406 9.08813 19.5 8.89226 19.5 8.59447V6.40545C19.5 6.1078 19.8406 5.91179 20.1356 6.0399L23.5 7.49996ZM26.0808 16.0562C26.9489 15.3224 27.5001 14.2256 27.5001 13C27.5001 10.7909 25.7092 9 23.5001 9C21.2909 9 19.5001 10.7909 19.5001 13C19.5001 14.2256 20.0512 15.3224 20.9193 16.0562C19.5404 16.3267 18.5001 17.5418 18.5001 19V20.0988L15.3485 24.0383C15.2709 24.1311 15.2058 24.2318 15.1538 24.3379C14.9537 24.7437 14.9514 25.2143 15.1322 25.6164C15.1812 25.7254 15.2437 25.8294 15.3193 25.9256L18.3001 29.9C18.4846 30.1461 18.7302 30.3193 19.0001 30.4144V30.4285L17 35H19.0001V41C19.0001 41.8284 19.6717 42.5 20.5001 42.5C21.3285 42.5 22.0001 41.8284 22.0001 41V35H25.0001V41C25.0001 41.8284 25.6717 42.5 26.5001 42.5C27.3285 42.5 28.0001 41.8284 28.0001 41V35H30L28.0001 30.4287V30.4144C28.2699 30.3193 28.5155 30.146 28.7001 29.9L31.6811 25.9253C31.7558 25.8301 31.8177 25.7274 31.8664 25.6198C32.0482 25.218 32.047 24.7474 31.848 24.3412C31.7956 24.2338 31.7299 24.1318 31.6513 24.0379L28.5001 20.0988V19C28.5001 17.5418 27.4597 16.3267 26.0808 16.0562ZM28.6028 25.0296L26.9825 27.1901L25.836 26.4258C25.0014 25.8694 24.5001 24.9327 24.5001 23.9296L24.5001 18.5V18H22.5001L22.5001 23.9296C22.5001 24.9327 21.9988 25.8694 21.1642 26.4258L20.0177 27.1901L18.3973 25.0296L19.0001 24.2761V25.4648L20.0548 24.7617C20.333 24.5762 20.5001 24.264 20.5001 23.9296V18H21.5001V16.4649C22.0884 16.8052 22.7715 17 23.5001 17C24.2286 17 24.9117 16.8052 25.5001 16.4649V18H26.5001V23.9296C26.5001 24.264 26.6672 24.5762 26.9454 24.7617L28.0001 25.4648V24.2762L28.6028 25.0296Z" fill="#333333"/>
</svg>
