<svg width="48" height="48" viewBox="0 0 48 48" fill="none" xmlns="http://www.w3.org/2000/svg">
<path fill-rule="evenodd" clip-rule="evenodd" d="M0 0H48V48H0V0ZM18 28C18 30.7625 15.7625 33 13 33C10.2375 33 8 30.7625 8 28C8 25.2375 10.2375 23 13 23C15.7625 23 18 25.2375 18 28ZM13 35C9.6625 35 3 36.7867 3 40.3333V43H23V40.3333C23 36.7867 16.3375 35 13 35ZM40 28C40 30.7625 37.7625 33 35 33C32.2375 33 30 30.7625 30 28C30 25.2375 32.2375 23 35 23C37.7625 23 40 25.2375 40 28ZM24 31C26.21 31 28 29.21 28 27C28 24.79 26.21 23 24 23C21.79 23 20 24.79 20 27C20 29.21 21.79 31 24 31ZM25 40.3333C25 36.7867 31.6625 35 35 35C38.3375 35 45 36.7867 45 40.3333V43H25V40.3333ZM27.9625 34.4975C28.2206 34.3873 28.4839 34.2831 28.7508 34.185C27.2282 33.3961 25.2701 33 24 33C22.7298 33 20.7717 33.3961 19.2491 34.185C19.5161 34.2831 19.7794 34.3873 20.0374 34.4975C21.2085 34.998 22.3912 35.6741 23.3099 36.5785C23.556 36.8208 23.7895 37.0864 24 37.375C24.2105 37.0864 24.444 36.8208 24.69 36.5785C25.6088 35.6741 26.7914 34.998 27.9625 34.4975ZM19.0938 18C24.3405 18 28.5938 14.6421 28.5938 10.5C28.5938 6.35786 24.3405 3 19.0938 3C13.8471 3 9.59381 6.35786 9.59381 10.5C9.59381 11.5062 9.84478 12.4661 10.3 13.3428C9.29455 14.5752 9.04829 16.4411 9.00043 17.6139C8.98301 18.0407 9.49835 18.259 9.84053 18.0033C10.5268 17.4904 11.6167 16.7948 13.0325 16.2753C14.6773 17.3525 16.7898 18 19.0938 18ZM30.6034 10.5C30.6034 13.471 28.9524 16.1235 26.3671 17.8655C27.7428 19.1708 29.8021 20 32.1034 20C33.9446 20 35.6309 19.4692 36.9362 18.5885C37.6605 18.8929 38.2506 19.2491 38.6839 19.5521C39.034 19.7969 39.5496 19.5735 39.5189 19.1475C39.4655 18.4084 39.3011 17.4261 38.8386 16.6427C39.3284 15.8453 39.6034 14.9484 39.6034 14C39.6034 10.6863 36.2455 8 32.1034 8C31.4669 8 30.849 8.06343 30.2589 8.18281C30.4839 8.92447 30.6034 9.70071 30.6034 10.5Z" fill="#333333"/>
</svg>
