<svg width="48" height="48" viewBox="0 0 48 48" fill="none" xmlns="http://www.w3.org/2000/svg">
<path d="M14.5547 20.8321C16.0354 19.8449 17.9645 19.8449 19.4453 20.8321C19.9048 21.1384 20.5257 21.0142 20.832 20.5547C21.1384 20.0952 21.0142 19.4743 20.5547 19.168C18.4021 17.7329 15.5978 17.7329 13.4453 19.168C12.9858 19.4743 12.8616 20.0952 13.1679 20.5547C13.4743 21.0142 14.0952 21.1384 14.5547 20.8321Z" fill="#333333"/>
<path d="M33.4453 20.8321C31.9645 19.8449 30.0354 19.8449 28.5547 20.8321C28.0952 21.1384 27.4743 21.0142 27.1679 20.5547C26.8616 20.0952 26.9858 19.4743 27.4453 19.168C29.5978 17.7329 32.4021 17.7329 34.5547 19.168C35.0142 19.4743 35.1384 20.0952 34.832 20.5547C34.5257 21.0142 33.9048 21.1384 33.4453 20.8321Z" fill="#333333"/>
<path d="M24 36C19.9619 36 16.4618 33.5617 14.7419 30C14.4359 29.3664 14.1863 28.6973 14 28H34C33.8137 28.6973 33.5641 29.3664 33.2581 30C31.5382 33.5617 28.0381 36 24 36Z" fill="#333333"/>
<path fill-rule="evenodd" clip-rule="evenodd" d="M0 0H48V48H0V0ZM44 24C44 35.0457 35.0457 44 24 44C12.9543 44 4 35.0457 4 24C4 12.9543 12.9543 4 24 4C35.0457 4 44 12.9543 44 24Z" fill="#333333"/>
</svg>
