<svg width="48" height="48" viewBox="0 0 48 48" fill="none" xmlns="http://www.w3.org/2000/svg">
<path fill-rule="evenodd" clip-rule="evenodd" d="M48 0H0V48H48V0ZM19.0001 2.03406L20.0001 5.03406L21.0001 2.03406H19.0001ZM15.0001 8.03406L18.0001 7.03406L15.0001 6.03406V8.03406ZM18.8285 5.86233L16.0001 4.44812L17.4143 3.03391L18.8285 5.86233ZM22.1099 7.02506C21.5527 6.41207 20.604 6.36689 19.991 6.92415L14.491 11.9241C13.8834 12.4765 13.8329 13.4148 14.3777 14.0293L18.3777 18.5401C18.4447 18.6156 18.5184 18.6835 18.5977 18.7432C18.5881 18.8418 18.5832 18.9418 18.5832 19.0429V42.9269C18.5832 43.826 19.3187 44.5615 20.2177 44.5615C21.1167 44.5615 21.8523 43.826 21.8523 42.9269V31.7541H26.1215V42.9269C26.1215 43.826 26.857 44.5615 27.756 44.5615C28.655 44.5615 29.3906 43.826 29.3906 42.9269V26.7783C30.2896 26.7783 33.0657 25.0671 33.0657 20.8534C33.0657 17.6775 30.2896 16.0429 29.3906 16.0429H21.5639C21.5273 16.0429 21.4909 16.0436 21.4546 16.0449H20.1747L17.6053 13.1474L22.009 9.14398C22.622 8.58672 22.6672 7.63804 22.1099 7.02506ZM22.6713 9.88393L20.1701 12.1578C20.6666 13.8024 22.1934 15 24 15C26.2091 15 28 13.2091 28 11C28 8.79086 26.2091 7 24 7C23.759 7 23.523 7.02131 23.2937 7.06215C23.6944 8.012 23.4775 9.15106 22.6713 9.88393Z" fill="#333333"/>
</svg>
