<svg width="48" height="48" viewBox="0 0 48 48" fill="none" xmlns="http://www.w3.org/2000/svg">
<path fill-rule="evenodd" clip-rule="evenodd" d="M0 0H48V48H0V0ZM24 26C28.9725 26 33 21.9725 33 17C33 12.0275 28.9725 8 24 8C19.0275 8 15 12.0275 15 17C15 21.9725 19.0275 26 24 26ZM19 30C19 30 17.5028 27.8981 17 28.0126C11.5958 29.2434 6 32.7946 6 36.5699V42H42V36.5699C42 32.7946 36.4042 29.2434 31 28.0126C30.4972 27.8981 29 30 29 30H25.6851C24.5676 30.0002 24.1399 30.0002 23.5504 30.0001H23.5483H23.5481L22.0639 30H19ZM32 32V34H30V36H32V38H34V36H36V34H34V32H32Z" fill="#333333"/>
</svg>
