<svg width="48" height="48" viewBox="0 0 48 48" fill="none" xmlns="http://www.w3.org/2000/svg">
<path fill-rule="evenodd" clip-rule="evenodd" d="M0 0H48V48H0V0ZM18 18C18 20.7625 15.7625 23 13 23C10.2375 23 8 20.7625 8 18C8 15.2375 10.2375 13 13 13C15.7625 13 18 15.2375 18 18ZM13 25C9.6625 25 3 26.7867 3 30.3333V35H23V30.3333C23 26.7867 16.3375 25 13 25ZM40 18C40 20.7625 37.7625 23 35 23C32.2375 23 30 20.7625 30 18C30 15.2375 32.2375 13 35 13C37.7625 13 40 15.2375 40 18ZM24 21C26.21 21 28 19.21 28 17C28 14.79 26.21 13 24 13C21.79 13 20 14.79 20 17C20 19.21 21.79 21 24 21ZM25 30.3333C25 26.7867 31.6625 25 35 25C38.3375 25 45 26.7867 45 30.3333V35H25V30.3333ZM27.9625 24.4975C28.2206 24.3873 28.4839 24.2831 28.7508 24.185C27.2282 23.3961 25.2701 23 24 23C22.7298 23 20.7717 23.3961 19.2491 24.185C19.5161 24.2831 19.7794 24.3873 20.0374 24.4975C21.2085 24.998 22.3912 25.6741 23.3099 26.5785C23.556 26.8208 23.7895 27.0864 24 27.375C24.2105 27.0864 24.444 26.8208 24.69 26.5785C25.6088 25.6741 26.7914 24.998 27.9625 24.4975Z" fill="#333333"/>
</svg>
