<svg width="48" height="48" viewBox="0 0 48 48" fill="none" xmlns="http://www.w3.org/2000/svg">
<path fill-rule="evenodd" clip-rule="evenodd" d="M48 0H0V48H48V0ZM3.71718 4H4.71718H35.7172H36.7172V5V10H34.7172V6H5.71718V29H29.7172V31H4.71718H3.71718V30V5V4ZM38.7172 14C38.7172 15.6569 37.374 17 35.7172 17C34.0603 17 32.7172 15.6569 32.7172 14C32.7172 12.3431 34.0603 11 35.7172 11C37.374 11 38.7172 12.3431 38.7172 14ZM33.5214 19.0107C33.5575 19.0094 33.5939 19.0088 33.6305 19.0088H40.6077C41.5068 19.0088 44.2828 20.6434 44.2828 23.8193C44.2828 28.033 41.5068 29.7442 40.6077 29.7442V41.8928C40.6077 42.7918 39.8722 43.5274 38.9732 43.5274C38.0742 43.5274 37.3386 42.7918 37.3386 41.8928V33.72H34.0694V41.8928C34.0694 42.7918 33.3339 43.5274 32.4349 43.5274C31.5359 43.5274 30.8003 42.7918 30.8003 41.8928V24.058L28.8885 26.4478C28.6038 26.8036 28.1729 27.0107 27.7172 27.0107H21.7172C20.8888 27.0107 20.2172 26.3392 20.2172 25.5107C20.2172 24.6823 20.8888 24.0107 21.7172 24.0107H26.9962L30.5459 19.5737C30.8305 19.2179 31.2615 19.0107 31.7172 19.0107H33.5214Z" fill="#333333"/>
</svg>
