<svg width="48" height="48" viewBox="0 0 48 48" fill="none" xmlns="http://www.w3.org/2000/svg">
<path fill-rule="evenodd" clip-rule="evenodd" d="M48 0H0V48H48V0ZM26.0566 9.5704C26.3378 9.11361 26.5 8.57574 26.5 8C26.5 6.34315 25.1569 5 23.5 5C21.8431 5 20.5 6.34315 20.5 8C20.5 8.57574 20.6622 9.11361 20.9434 9.5704C18.9083 10.5303 17.5 12.6007 17.5 15C17.5 18.3137 20.1863 21 23.5 21C26.8137 21 29.5 18.3137 29.5 15C29.5 12.6007 28.0917 10.5303 26.0566 9.5704ZM31.7361 22.8821C31.2453 21.9005 30.1716 21.3537 29.089 21.5342L17.5913 23.4504C16.4868 23.6345 15.537 24.336 15.0362 25.3376L11.2639 32.8821C10.8498 33.7104 10.9274 34.6997 11.4657 35.4532L16.4657 42.4532C17.2682 43.5768 18.8296 43.837 19.9531 43.0345C21.0766 42.232 21.3369 40.6706 20.5343 39.547L18.7446 37.0414C18.9333 36.6951 19.2261 36.401 19.6056 36.2113L22.028 35.0001L19.6056 33.7889C18.928 33.4501 18.5 32.7575 18.5 32V28.5C18.5 27.3954 19.3954 26.5 20.5 26.5C21.6046 26.5 22.5 27.3954 22.5 28.5V30.7639L27.3944 33.2111C27.7686 33.3978 28.0875 33.703 28.2889 34.1057C28.389 34.3059 28.4523 34.5148 28.4815 34.7249L26.4657 37.547C25.6632 38.6706 25.9234 40.232 27.0469 41.0345C28.1704 41.837 29.7318 41.5768 30.5343 40.4532L35.5343 33.4532C36.0726 32.6997 36.1502 31.7104 35.7361 30.8821L31.7361 22.8821ZM32.5 29.5C32.5 31.433 30.933 33 29 33C27.067 33 25.5 31.433 25.5 29.5C25.5 27.567 27.067 26 29 26C30.933 26 32.5 27.567 32.5 29.5Z" fill="#333333"/>
</svg>
