<svg width="48" height="48" viewBox="0 0 48 48" fill="none" xmlns="http://www.w3.org/2000/svg">
<path fill-rule="evenodd" clip-rule="evenodd" d="M48 0H0V48H48V0ZM15.2499 11.2514C15.2499 13.0471 13.7948 14.5028 11.9999 14.5028C10.205 14.5028 8.7499 13.0471 8.7499 11.2514C8.7499 9.4557 10.205 8 11.9999 8C13.7948 8 15.2499 9.4557 15.2499 11.2514ZM8.0763 19.6097L5.38474 26.0764C5.06641 26.8412 4.18833 27.2032 3.42351 26.8848C2.65869 26.5665 2.29673 25.6884 2.61507 24.9236L5.72219 17.4585C6.08976 16.5754 6.95244 16 7.909 16H9.11978H11.1769H15.9548C16.898 16 17.7514 16.5597 18.1273 17.4249L21.3757 24.9023C21.7058 25.6621 21.3574 26.5457 20.5976 26.8758C19.8378 27.2059 18.9542 26.8575 18.6241 26.0977L15.9999 20.057V21.8354V29.6806L15.9999 38.6808C15.9999 39.4065 15.3947 40.0002 14.655 40.0002C13.9154 40.0002 13.3102 39.4065 13.3102 38.6808V29.6806H10.766V38.6808C10.766 39.4065 10.1608 40.0002 9.42113 40.0002C8.68147 40.0002 8.0763 39.4065 8.0763 38.6808V29.6806V21.8354V19.6097ZM32 19.8342L29.3385 25.0948C28.9645 25.8341 28.0621 26.1301 27.3229 25.7561C26.5837 25.3822 26.2876 24.4797 26.6616 23.7405L29.8393 17.4597C30.2923 16.5642 31.2106 15.9997 32.2141 15.9997H33.2369H35.3365H39.7861C40.7896 15.9997 41.7078 16.5642 42.1609 17.4597L45.3385 23.7405C45.7125 24.4797 45.4164 25.3822 44.6772 25.7561C43.938 26.1301 43.0356 25.8341 42.6616 25.0948L39.9976 19.8292V24.3122H40L42.82 30.8534C43.1505 31.6201 42.5883 32.4746 41.7534 32.4746H39.9976V38.6142C39.9976 39.3975 39.3806 40.0384 38.6266 40.0384C37.8725 40.0384 37.2555 39.3975 37.2555 38.6142V32.4746H34.7421V38.6142C34.7421 39.3975 34.1251 40.0384 33.3711 40.0384C32.617 40.0384 32 39.3975 32 38.6142V32.4746H30.5243C29.7074 32.4746 29.1458 31.6537 29.4418 30.8923L32 24.3122H32V19.8342ZM39.25 11.2514C39.25 13.0471 37.7949 14.5028 36 14.5028C34.2051 14.5028 32.75 13.0471 32.75 11.2514C32.75 9.4557 34.2051 8 36 8C37.7949 8 39.25 9.4557 39.25 11.2514Z" fill="#333333"/>
</svg>
