<svg width="48" height="48" viewBox="0 0 48 48" fill="none" xmlns="http://www.w3.org/2000/svg">
<path fill-rule="evenodd" clip-rule="evenodd" d="M16.9251 34.3797C16.717 34.8869 16.1386 35.1325 15.6286 34.9285C15.1158 34.7234 14.8664 34.1414 15.0715 33.6286L16 34C15.0715 33.6286 15.0718 33.628 15.0721 33.6273L15.0726 33.6259L15.0739 33.6229L15.0768 33.6156L15.0847 33.5968C15.0909 33.5823 15.0989 33.564 15.1088 33.5422C15.1285 33.4986 15.156 33.4408 15.192 33.3708C15.2639 33.2309 15.3703 33.0418 15.518 32.8203C15.8133 32.3773 16.2756 31.802 16.9598 31.2318C18.3443 30.0781 20.5723 29 24 29C27.4278 29 29.6558 30.0781 31.0402 31.2318C31.7245 31.802 32.1867 32.3773 32.4821 32.8203C32.6298 33.0418 32.7361 33.2309 32.8081 33.3708C32.844 33.4408 32.8715 33.4986 32.8913 33.5422C32.9012 33.564 32.9091 33.5823 32.9153 33.5968L32.9232 33.6156L32.9262 33.6229L32.9274 33.6259L32.928 33.6273C32.9282 33.628 32.9285 33.6286 32 34L32.9285 33.6286C33.1336 34.1414 32.8842 34.7234 32.3714 34.9285C31.8614 35.1325 31.283 34.8869 31.0749 34.3798L31.0697 34.368C31.0629 34.353 31.0497 34.3249 31.0295 34.2855C30.9889 34.2066 30.9203 34.0832 30.818 33.9297C30.6133 33.6227 30.2756 33.198 29.7598 32.7682C28.7443 31.9219 26.9723 31 24 31C21.0278 31 19.2558 31.9219 18.2402 32.7682C17.7245 33.198 17.3867 33.6227 17.1821 33.9297C17.0798 34.0832 17.0111 34.2066 16.9706 34.2855C16.9503 34.3249 16.9371 34.353 16.9303 34.368L16.9251 34.3797Z" fill="#333333"/>
<path fill-rule="evenodd" clip-rule="evenodd" d="M18.8321 18.4453C19.1384 18.9048 19.0143 19.5257 18.5547 19.832C16.9909 20.8746 15.9114 21.417 14.3163 21.9487C13.7923 22.1233 13.226 21.8402 13.0513 21.3162C12.8767 20.7923 13.1599 20.2259 13.6838 20.0513C15.0887 19.583 16.0091 19.1254 17.4453 18.1679C17.9049 17.8616 18.5257 17.9858 18.8321 18.4453Z" fill="#333333"/>
<path fill-rule="evenodd" clip-rule="evenodd" d="M29.1679 18.4453C28.8616 18.9048 28.9857 19.5257 29.4453 19.832C31.0091 20.8746 32.0886 21.417 33.6837 21.9487C34.2077 22.1233 34.774 21.8402 34.9487 21.3162C35.1233 20.7923 34.8401 20.2259 34.3162 20.0513C32.9113 19.583 31.9909 19.1254 30.5547 18.1679C30.0951 17.8616 29.4743 17.9858 29.1679 18.4453Z" fill="#333333"/>
<path d="M9 29C9 29.5523 8.55228 30 8 30C7.44772 30 7 29.5523 7 29C7 28.4477 7.44772 28 8 28C8.55228 28 9 28.4477 9 29Z" fill="#333333"/>
<path d="M23 14C23 14.5523 22.5523 15 22 15C21.4477 15 21 14.5523 21 14C21 13.4477 21.4477 13 22 13C22.5523 13 23 13.4477 23 14Z" fill="#333333"/>
<path d="M27 12C27 12.5523 26.5523 13 26 13C25.4477 13 25 12.5523 25 12C25 11.4477 25.4477 11 26 11C26.5523 11 27 11.4477 27 12Z" fill="#333333"/>
<path d="M31 13C31 13.5523 30.5523 14 30 14C29.4477 14 29 13.5523 29 13C29 12.4477 29.4477 12 30 12C30.5523 12 31 12.4477 31 13Z" fill="#333333"/>
<path d="M35 12C35 12.5523 34.5523 13 34 13C33.4477 13 33 12.5523 33 12C33 11.4477 33.4477 11 34 11C34.5523 11 35 11.4477 35 12Z" fill="#333333"/>
<path d="M21 8C21 8.55228 20.5523 9 20 9C19.4477 9 19 8.55228 19 8C19 7.44772 19.4477 7 20 7C20.5523 7 21 7.44772 21 8Z" fill="#333333"/>
<path d="M14 13C14 13.5523 13.5523 14 13 14C12.4477 14 12 13.5523 12 13C12 12.4477 12.4477 12 13 12C13.5523 12 14 12.4477 14 13Z" fill="#333333"/>
<path d="M30 8C30 8.55228 29.5523 9 29 9C28.4477 9 28 8.55228 28 8C28 7.44772 28.4477 7 29 7C29.5523 7 30 7.44772 30 8Z" fill="#333333"/>
<path d="M37 17C37 17.5523 36.5523 18 36 18C35.4477 18 35 17.5523 35 17C35 16.4477 35.4477 16 36 16C36.5523 16 37 16.4477 37 17Z" fill="#333333"/>
<path d="M19 12C19 12.5523 18.5523 13 18 13C17.4477 13 17 12.5523 17 12C17 11.4477 17.4477 11 18 11C18.5523 11 19 11.4477 19 12Z" fill="#333333"/>
<path d="M25 9C25 9.55228 24.5523 10 24 10C23.4477 10 23 9.55228 23 9C23 8.44772 23.4477 8 24 8C24.5523 8 25 8.44772 25 9Z" fill="#333333"/>
<path d="M35 28C35 28.5523 34.5523 29 34 29C33.4477 29 33 28.5523 33 28C33 27.4477 33.4477 27 34 27C34.5523 27 35 27.4477 35 28Z" fill="#333333"/>
<path d="M39 32C39 32.5523 38.5523 33 38 33C37.4477 33 37 32.5523 37 32C37 31.4477 37.4477 31 38 31C38.5523 31 39 31.4477 39 32Z" fill="#333333"/>
<path d="M10 24C10 24.5523 9.55228 25 9 25C8.44772 25 8 24.5523 8 24C8 23.4477 8.44772 23 9 23C9.55228 23 10 23.4477 10 24Z" fill="#333333"/>
<path d="M11 33C11 33.5523 10.5523 34 10 34C9.44772 34 9 33.5523 9 33C9 32.4477 9.44772 32 10 32C10.5523 32 11 32.4477 11 33Z" fill="#333333"/>
<path d="M14 27C14 27.5523 13.5523 28 13 28C12.4477 28 12 27.5523 12 27C12 26.4477 12.4477 26 13 26C13.5523 26 14 26.4477 14 27Z" fill="#333333"/>
<path fill-rule="evenodd" clip-rule="evenodd" d="M48 0H0V48H48V0ZM39 11V20.9996C37.7856 21.9118 37 23.3642 37 25C37 27.7614 39.2386 30 42 30C42.3864 30 42.7625 29.9562 43.1237 29.8732C40.6147 38.0528 33.0019 44 24 44C12.9543 44 4 35.0457 4 24C4 12.9543 12.9543 4 24 4C29.9735 4 35.3353 6.61877 39 10.7709V11ZM37.2929 5.29289C37.6834 4.90237 38.3166 4.90237 38.7071 5.29289L39.7071 6.29289C40.0976 6.68342 40.0976 7.31658 39.7071 7.70711C39.3166 8.09763 38.6834 8.09763 38.2929 7.70711L37.2929 6.70711C36.9024 6.31658 36.9024 5.68342 37.2929 5.29289ZM43 4C43 3.44772 42.5523 3 42 3C41.4477 3 41 3.44772 41 4V6C41 6.55228 41.4477 7 42 7C42.5523 7 43 6.55228 43 6V4ZM46.7071 5.29289C46.3166 4.90237 45.6834 4.90237 45.2929 5.29289L44.2929 6.29289C43.9024 6.68342 43.9024 7.31658 44.2929 7.70711C44.6834 8.09763 45.3166 8.09763 45.7071 7.70711L46.7071 6.70711C47.0976 6.31658 47.0976 5.68342 46.7071 5.29289ZM40.2012 22.5988L41 21.9987V20.9996V16H43V20.9996V21.9987L43.7988 22.5988C44.532 23.1495 45 24.0198 45 25C45 26.6569 43.6569 28 42 28C40.3431 28 39 26.6569 39 25C39 24.0198 39.468 23.1495 40.2012 22.5988ZM43 11V14H41V11C41 10.4477 41.4477 10 42 10C42.5523 10 43 10.4477 43 11Z" fill="#333333"/>
</svg>
