<svg width="48" height="48" viewBox="0 0 48 48" fill="none" xmlns="http://www.w3.org/2000/svg">
<path fill-rule="evenodd" clip-rule="evenodd" d="M0 0H48V48H0V0ZM15.5782 13.5107C15.542 13.5094 15.5056 13.5088 15.469 13.5088H7.64224C6.74323 13.5088 3.96716 15.1434 3.96716 18.3193C3.96716 22.533 6.74323 24.2442 7.64224 24.2442V42.3928C7.64224 43.2918 8.3778 44.0274 9.27682 44.0274C10.1758 44.0274 10.9114 43.2918 10.9114 42.3928V30.22H15.1805V42.3928C15.1805 43.2918 15.9161 44.0274 16.8151 44.0274C17.7141 44.0274 18.4497 43.2918 18.4497 42.3928V19.5072L22.7418 26.7636C23.1635 27.4767 24.0835 27.7128 24.7965 27.2911C25.5095 26.8693 25.7457 25.9494 25.3239 25.2364L18.8239 14.2471C18.5539 13.7907 18.0631 13.5107 17.5328 13.5107H15.5782ZM34.9672 12C37.1763 12 38.9672 10.2091 38.9672 8C38.9672 5.79086 37.1763 4 34.9672 4C32.758 4 30.9672 5.79086 30.9672 8C30.9672 10.2091 32.758 12 34.9672 12ZM8.96716 8C8.96716 10.2091 10.758 12 12.9672 12C15.1763 12 16.9672 10.2091 16.9672 8C16.9672 5.79086 15.1763 4 12.9672 4C10.758 4 8.96716 5.79086 8.96716 8ZM29.5503 19.5072L26.3145 24.9778C26.2764 24.8929 26.2331 24.8092 26.1846 24.7273L24.5809 22.016L29.1761 14.2471C29.446 13.7907 29.9369 13.5107 30.4672 13.5107H32.4218C32.458 13.5094 32.4944 13.5088 32.531 13.5088H40.3577C41.2568 13.5088 44.0328 15.1434 44.0328 18.3193C44.0328 22.533 41.2568 24.2442 40.3577 24.2442V42.3928C40.3577 43.2918 39.6222 44.0274 38.7232 44.0274C37.8242 44.0274 37.0886 43.2918 37.0886 42.3928V30.22H32.8194V42.3928C32.8194 43.2918 32.0839 44.0274 31.1849 44.0274C30.2859 44.0274 29.5503 43.2918 29.5503 42.3928V19.5072Z" fill="#333333"/>
</svg>
