<svg width="48" height="48" viewBox="0 0 48 48" fill="none" xmlns="http://www.w3.org/2000/svg">
<path fill-rule="evenodd" clip-rule="evenodd" d="M48 0H0V48H48V0ZM25.6166 11C26.445 10.2668 26.9673 9.19532 26.9673 8.00181C26.9673 5.79167 25.1764 4 22.9672 4C20.758 4 18.9671 5.79167 18.9671 8.00181C18.9671 9.14321 19.4448 10.173 20.211 10.902L21.0121 9.65326C21.7577 8.49113 23.3041 8.15341 24.4663 8.89894C25.2089 9.37534 25.6148 10.1788 25.6166 11ZM21.7312 10.1501C22.2005 9.46747 23.1344 9.29453 23.8171 9.76386C24.4997 10.2332 24.6727 11.1671 24.2033 11.8497L18.7033 19.8497C18.2964 20.4416 17.5269 20.662 16.8684 20.3752C16.2098 20.0884 15.847 19.3749 16.0032 18.6738L17.0031 14.1846C17.1559 13.4986 17.7645 13.0107 18.4672 13.0107H19.7646L21.7312 10.1501ZM17.5504 21.4985C18.3189 21.4747 19.0662 21.098 19.5351 20.4158L24.6271 13.0093H28.3578C29.2568 13.0093 32.0329 14.6438 32.0329 17.8197C32.0329 21.1276 30.3221 22.8932 29.1517 23.4995H23.9673C23.1388 23.4995 22.4673 22.8279 22.4673 21.9995C22.4673 21.1711 23.1388 20.4995 23.9673 20.4995H27.9673V19.4995H23.9673C22.5865 19.4995 21.4673 20.6188 21.4673 21.9995C21.4673 23.3802 22.5865 24.4995 23.9673 24.4995H28.3578V43.3724C28.3578 44.2714 27.6222 45.0069 26.7232 45.0069C25.8242 45.0069 25.0887 44.2714 25.0887 43.3724V30.7204H20.8195V43.3724C20.8195 44.2714 20.084 45.0069 19.1849 45.0069C18.2859 45.0069 17.5504 44.2714 17.5504 43.3724V21.4985Z" fill="#333333"/>
</svg>
