<svg width="48" height="48" viewBox="0 0 48 48" fill="none" xmlns="http://www.w3.org/2000/svg">
<path fill-rule="evenodd" clip-rule="evenodd" d="M48 0H0V48H48V0ZM44 24C44 35.0457 35.0457 44 24 44C12.9543 44 4 35.0457 4 24C4 12.9543 12.9543 4 24 4C35.0457 4 44 12.9543 44 24ZM19 21C19 22.1046 18.1046 23 17 23C15.8954 23 15 22.1046 15 21C15 19.8954 15.8954 19 17 19C18.1046 19 19 19.8954 19 21ZM31 23C32.1046 23 33 22.1046 33 21C33 19.8954 32.1046 19 31 19C29.8954 19 29 19.8954 29 21C29 22.1046 29.8954 23 31 23ZM16 31C16 30.4477 16.4477 30 17 30L31 30C31.5523 30 32 30.4477 32 31C32 31.5523 31.5523 32 31 32H17C16.4477 32 16 31.5523 16 31Z" fill="#333333"/>
</svg>
