<svg width="48" height="48" viewBox="0 0 48 48" fill="none" xmlns="http://www.w3.org/2000/svg">
<path fill-rule="evenodd" clip-rule="evenodd" d="M48 0H0V48H48V0ZM24 3C21.4654 3 18.4727 3.8024 16.6087 4.38947C14.9579 4.90943 14.2063 6.7084 14.822 8.24763L16.9069 13.4599C15.7128 14.9869 15 16.9106 15 19C15 23.9706 19.0294 28 24 28C28.9706 28 33 23.9706 33 19C33 16.9106 32.2872 14.9868 31.0931 13.4598L33.178 8.24763C33.7937 6.7084 33.0421 4.90943 31.3912 4.38947C29.5273 3.8024 26.5346 3 24 3ZM17 19C17 17.17 17.7012 15.5048 18.8519 14.2568C22.2898 13.0811 25.7102 13.0811 29.1481 14.2568C30.2988 15.5048 31 17.17 31 19C31 22.866 27.866 26 24 26C20.134 26 17 22.866 17 19ZM27 8H25V6H23V8H21V10H23V12H25V10H27V8ZM23.5343 33.4806C22.007 31.762 18.6048 27.9336 16.8786 28.3578C11.4745 29.6858 6 32.3937 6 36.4673V43.0007H42V36.4673C42 32.3937 36.5255 29.6858 31.1214 28.3578C29.537 27.9685 26.362 31.4343 24.719 33.2278L24.719 33.2278C24.4239 33.55 24.1782 33.8182 24 34.0004C23.8764 33.8656 23.7192 33.6886 23.5345 33.4808L23.5343 33.4806ZM36 35H34V33H32V35H30V37H32V39H34V37H36V35Z" fill="#333333"/>
</svg>
