<svg width="48" height="48" viewBox="0 0 48 48" fill="none" xmlns="http://www.w3.org/2000/svg">
<path fill-rule="evenodd" clip-rule="evenodd" d="M48 0H0V48H48V0ZM13.6884 12C13.6124 11.8803 13.5349 11.76 13.457 11.6388L13.4569 11.6388C12.7488 10.5389 12 9.37587 12 8.09678C12 7.29597 12.5203 6.62166 13.209 6.08848C15.769 4.10661 24 3 24 3C24 3 32.231 4.10662 34.791 6.08848C35.4797 6.62166 36 7.29597 36 8.09677C36 9.55508 35.1742 10.8143 34.3907 12H13.6884ZM26.5 7.33333C26.5 7.33333 24.6667 6.66667 24 6C23.3333 6.66667 21.5 7.33333 21.5 7.33333C21.5 7.33333 22 11 24 11C26 11 26.5 7.33333 26.5 7.33333ZM14.5386 14C14.2845 14 14.0668 14.1728 14.0214 14.4106L14.0212 14.4118L14.0209 14.413L14.0204 14.4159L14.0192 14.4227L14.0163 14.4409C14.0142 14.455 14.0118 14.4731 14.0095 14.4948C14.0049 14.5383 14.0007 14.5967 14.0001 14.6678C13.9989 14.8101 14.012 15.0048 14.0659 15.2341C14.1707 15.6801 14.4263 16.2423 15 16.7943V18C15 22.9706 19.0294 27 24 27C28.9706 27 33 22.9706 33 18V16.7943C33.5737 16.2423 33.8293 15.6801 33.9341 15.2341C33.988 15.0048 34.0011 14.8101 33.9999 14.6678C33.9993 14.5967 33.9951 14.5383 33.9905 14.4948C33.9882 14.4731 33.9858 14.455 33.9837 14.4409L33.9808 14.4227L33.9796 14.4159L33.9791 14.413L33.9788 14.4118L33.9786 14.4106C33.9332 14.1728 33.7155 14 33.4614 14H14.5386ZM31 18.006C29.501 18.5937 27.2811 19 24 19C20.7189 19 18.499 18.5937 17 18.006C17.0032 21.8692 20.136 25 24 25C27.864 25 30.9968 21.8692 31 18.006ZM16.8786 29.0308C17.3814 28.9073 18.1254 29.6279 18.1254 29.6279C18.1254 29.6279 23.5329 32.9996 23.5474 32.9996C24.2271 32.9997 29.8746 29.6279 29.8746 29.6279C29.8746 29.6279 30.6186 28.9073 31.1214 29.0308C36.5255 30.3589 42 33.0668 42 37.1404V43.9997H6V37.1404C6 33.0668 11.4745 30.3589 16.8786 29.0308ZM12 38C12 37.4477 12.4477 37 13 37H18C18.5523 37 19 37.4477 19 38C19 38.5523 18.5523 39 18 39H13C12.4477 39 12 38.5523 12 38ZM32.8026 34.1503L32.2367 35.9749C32.2089 36.0645 32.1291 36.1252 32.0392 36.1252H30.208C30.0069 36.1252 29.9232 36.3949 30.086 36.5187L31.5675 37.6464C31.6403 37.7019 31.6707 37.8 31.6429 37.8896L31.077 39.7143C31.0148 39.9146 31.2338 40.0813 31.3965 39.9575L32.878 38.8297C32.9508 38.7744 33.0493 38.7744 33.1221 38.8297L34.6035 39.9575C34.7662 40.0813 34.9852 39.9146 34.923 39.7143L34.3571 37.8896C34.3293 37.8 34.3598 37.7019 34.4326 37.6464L35.914 36.5187C36.0768 36.3949 35.9931 36.1252 35.792 36.1252H33.9608C33.8709 36.1252 33.7911 36.0645 33.7633 35.9749L33.1974 34.1503C33.1353 33.9499 32.8647 33.9499 32.8026 34.1503Z" fill="#333333"/>
</svg>
