<svg width="48" height="48" viewBox="0 0 48 48" fill="none" xmlns="http://www.w3.org/2000/svg">
<path d="M17 23C18.1046 23 19 22.1046 19 21C19 19.8954 18.1046 19 17 19C15.8954 19 15 19.8954 15 21C15 22.1046 15.8954 23 17 23Z" fill="#333333"/>
<path d="M33 21C33 22.1046 32.1046 23 31 23C29.8954 23 29 22.1046 29 21C29 19.8954 29.8954 19 31 19C32.1046 19 33 19.8954 33 21Z" fill="#333333"/>
<path d="M30.6247 31.7809L30 31L28.3098 30.8838C28.5974 30.7315 28.8334 30.5884 29.0105 30.4735C29.1389 30.3902 29.2356 30.3222 29.2975 30.2772C29.3285 30.2547 29.3507 30.238 29.3638 30.228L29.3758 30.2187C29.807 29.8742 30.436 29.9442 30.7808 30.3753C31.1258 30.8066 31.0559 31.4359 30.6247 31.7809Z" fill="#333333"/>
<path d="M28.3098 30.8838L30 31C30.6247 31.7809 30.6249 31.7806 30.6247 31.7809L30.6221 31.7829L30.6186 31.7857L30.6089 31.7933L30.5783 31.817C30.5531 31.8363 30.5181 31.8625 30.4739 31.8947C30.3854 31.959 30.2594 32.0473 30.0988 32.1515C29.7782 32.3595 29.3167 32.6326 28.7383 32.9048C27.5858 33.4471 25.9385 34 24 34C22.0614 34 20.4141 33.4471 19.2617 32.9048C18.6832 32.6326 18.2218 32.3595 17.9011 32.1515C17.7405 32.0473 17.6145 31.959 17.526 31.8947C17.4818 31.8625 17.4469 31.8363 17.4216 31.817L17.3911 31.7933L17.3813 31.7857L17.3778 31.7829L17.3764 31.7818C17.3761 31.7816 17.3753 31.7809 18 31L17.3753 31.7809C16.944 31.4359 16.8741 30.8066 17.2191 30.3753C17.5635 29.9448 18.1913 29.8744 18.6225 30.2174C18.6227 30.2175 18.6223 30.2172 18.6225 30.2174C18.6226 30.2175 18.6234 30.2181 18.6236 30.2183L18.6362 30.228C18.6493 30.238 18.6714 30.2547 18.7024 30.2772C18.7643 30.3222 18.861 30.3902 18.9895 30.4735C19.2469 30.6405 19.6292 30.8674 20.1133 31.0952C21.0858 31.5529 22.4385 32 24 32C25.5614 32 26.9141 31.5529 27.8867 31.0952C28.0378 31.024 28.1791 30.953 28.3098 30.8838Z" fill="#333333"/>
<path d="M28.3098 30.8838L18.6236 30.2183C18.6234 30.2181 18.6226 30.2175 18.6225 30.2174L28.3098 30.8838C28.3097 30.8838 28.3098 30.8838 28.3098 30.8838Z" fill="#333333"/>
<path fill-rule="evenodd" clip-rule="evenodd" d="M0 0H48V48H0V0ZM44 24C44 35.0457 35.0457 44 24 44C12.9543 44 4 35.0457 4 24C4 12.9543 12.9543 4 24 4C35.0457 4 44 12.9543 44 24Z" fill="#333333"/>
</svg>
