<svg width="48" height="48" viewBox="0 0 48 48" fill="none" xmlns="http://www.w3.org/2000/svg">
<path fill-rule="evenodd" clip-rule="evenodd" d="M48 0H0V48H48V0ZM23.5186 13.0036C25.7278 13.0036 27.5187 11.2119 27.5187 9.00181C27.5187 6.79167 25.7278 5 23.5186 5C21.3095 5 19.5186 6.79167 19.5186 9.00181C19.5186 11.2119 21.3095 13.0036 23.5186 13.0036ZM18.1233 11.5049H19.2233C20.0885 12.9967 21.7028 14 23.5515 14C25.3998 14 27.0139 12.9971 27.8792 11.5059H28.3542C29.4175 11.5059 30.3644 12.1784 30.7147 13.1823L33.9678 22.5058C34.2407 23.288 33.8278 24.1434 33.0457 24.4163C32.2635 24.6892 31.4082 24.2763 31.1352 23.4942L28.95 17.2311V41.868C28.95 42.767 28.2144 43.5026 27.3154 43.5026L27.3058 43.5025L27.2962 43.5026C26.3972 43.5026 25.6616 42.767 25.6616 41.868V30.216H21.4117V41.868C21.4117 42.767 20.6761 43.5026 19.7771 43.5026L19.7675 43.5025L19.7579 43.5026C18.8589 43.5026 18.1233 42.767 18.1233 41.868V22.2402C17.2243 22.2402 14.4482 20.5291 14.4482 16.3153C14.4482 13.1395 17.2243 11.5049 18.1233 11.5049ZM29.5515 28C29.5515 26.3431 30.8947 25 32.5515 25C34.2084 25 35.5515 26.3431 35.5515 28V42C35.5515 42.5523 35.1038 43 34.5515 43C33.9992 43 33.5515 42.5523 33.5515 42V28C33.5515 27.4477 33.1038 27 32.5515 27C31.9992 27 31.5515 27.4477 31.5515 28V28.6667C31.5515 29.219 31.1038 29.6667 30.5515 29.6667C29.9992 29.6667 29.5515 29.219 29.5515 28.6667V28Z" fill="#333333"/>
</svg>
