<svg width="48" height="48" viewBox="0 0 48 48" fill="none" xmlns="http://www.w3.org/2000/svg">
<path fill-rule="evenodd" clip-rule="evenodd" d="M48 0H0V48H48V0ZM12 12C13.8638 12 15.4299 10.7252 15.874 9H16.9C16.4367 11.2822 14.419 13 12 13C9.58104 13 7.56329 11.2822 7.10002 9H8.12602C8.57006 10.7252 10.1362 12 12 12ZM12 4C13.8638 4 15.4299 5.27477 15.874 7H18H19V8C19 11.866 15.866 15 12 15C8.13401 15 5 11.866 5 8V7H6H8.12602C8.57006 5.27477 10.1362 4 12 4ZM41 14C41 16.2091 39.2091 18 37 18C34.7909 18 33 16.2091 33 14C33 11.7909 34.7909 10 37 10C39.2091 10 41 11.7909 41 14ZM21 33H22H36H37V34V43H35V35H23V43H21V34V33ZM33.8159 17.6619C33.5332 17.0493 32.9606 16.6205 32.2932 16.5216C31.6257 16.4227 30.9534 16.667 30.5052 17.1713L32 18.5C30.5052 17.1713 30.5047 17.1719 30.5041 17.1725L30.503 17.1737L30.5004 17.1766L30.4942 17.1837L30.4775 17.2029C30.4645 17.2179 30.4477 17.2374 30.4275 17.2613C30.387 17.3092 30.3327 17.3748 30.2664 17.4576C30.1339 17.6233 29.9533 17.8584 29.7411 18.1591C29.5226 18.4686 29.2695 18.849 29 19.296V19.0301L29.0001 19H29V17H27V18.4649C26.8565 17.7861 26.254 17.2766 25.5325 17.2766L22.3811 17.2765L17.7662 13.5455C16.5283 14.8324 14.8637 15.7058 13 15.9382V20.3965C13 22.939 15.061 25 17.6035 25V27C13.9565 27 11 24.0435 11 20.3965V15.9383C8.91954 15.6788 7.08716 14.6206 5.81951 13.0801C4.62738 13.4539 2.38965 15.136 2.38965 18.0605C2.38965 22.4931 5.30992 24.2932 6.25563 24.2932V41.2807C6.25563 42.2264 7.0294 43.0001 7.97511 43.0001C8.92083 43.0001 9.6946 42.2264 9.6946 41.2807V29.5274H14.1855V41.2807C14.1855 42.2264 14.9593 43.0001 15.905 43.0001C16.8507 43.0001 17.6245 42.2264 17.6245 41.2807V27H21.0001C23.2492 27 25.2816 26.0718 26.7351 24.5776C26.2965 26.1719 26 27.9921 26 30C26 30.5304 26.2107 31.0391 26.5858 31.4142C26.9609 31.7893 27.4696 32 28 32H37.5991L41.1204 41.6835C41.4979 42.7216 42.6454 43.2571 43.6835 42.8796C44.7216 42.5021 45.2571 41.3546 44.8796 40.3165L40.8796 29.3165C40.5922 28.5261 39.841 28 39 28H30.123C30.3882 25.8525 31.0444 24.0417 31.7183 22.6622L33.1841 25.8381C33.511 26.5464 34.2199 27 35 27H43C44.1046 27 45 26.1046 45 25C45 23.8954 44.1046 23 43 23H36.2797L33.8159 17.6619ZM21.0001 25C24.2833 25 26.9506 22.3629 26.9994 19.0913C26.8548 19.7686 26.2529 20.2766 25.5324 20.2766L21.8506 20.2765C21.5074 20.2765 21.1745 20.1588 20.9076 19.943L17.6245 17.2887V25H21.0001ZM33.4996 19.8234C33.5006 19.8222 33.5008 19.822 33.5 19.8229L33.4996 19.8234Z" fill="#333333"/>
</svg>
