<svg width="48" height="48" viewBox="0 0 48 48" fill="none" xmlns="http://www.w3.org/2000/svg">
<path fill-rule="evenodd" clip-rule="evenodd" d="M48 0H0V48H48V0ZM24.0001 12.0036C26.2093 12.0036 28.0002 10.2119 28.0002 8.00181C28.0002 5.79167 26.2093 4 24.0001 4C21.791 4 20.0001 5.79167 20.0001 8.00181C20.0001 10.2119 21.791 12.0036 24.0001 12.0036ZM11.862 23.1989L16.4719 19.4086C15.4412 21.3787 14.5001 24.1067 14.5001 27.5C14.7689 31.2671 17.0978 32.6052 17.0978 32.6052L19.0978 42.3515C19.0978 43.2578 19.8536 43.9993 20.7775 43.9993C21.7013 43.9993 22.4572 43.2578 22.4572 42.3515L23 32.6052H25L25.5401 42.3515C25.5401 43.2578 26.296 43.9993 27.2198 43.9993C28.1436 43.9993 28.8995 43.2578 28.8995 42.3515C28.8995 40.57 30.8995 32.6052 30.8995 32.6052C30.8995 32.6052 32.7835 31.1834 33.0001 27.5C33.1997 24.1064 32.5863 21.5496 31.7772 19.7024L36.1518 23.2155C36.9054 23.8207 38.0069 23.7004 38.612 22.9468C39.2172 22.1932 39.0969 21.0917 38.3433 20.4866L31.0205 14.6058C30.5323 14.2137 29.9248 14 29.2986 14H18.5245C17.8874 14 17.2701 14.2212 16.778 14.6258L9.63913 20.4953C8.89257 21.1091 8.78496 22.212 9.39878 22.9585C10.0126 23.7051 11.1154 23.8127 11.862 23.1989Z" fill="#333333"/>
</svg>
