<svg width="48" height="48" viewBox="0 0 48 48" fill="none" xmlns="http://www.w3.org/2000/svg">
<path fill-rule="evenodd" clip-rule="evenodd" d="M48 0H0V48H48V0ZM5 4C3.89543 4 3 4.89543 3 6V12C3 13.1046 3.89543 14 5 14H8.67376C4.25286 21.6486 5.31423 31.5985 11.8579 38.1421C19.6684 45.9526 32.3316 45.9526 40.1421 38.1421C47.9526 30.3316 47.9526 17.6684 40.1421 9.85786C40.0949 9.81066 40.0476 9.76375 40 9.71711V6C40 4.89543 39.1046 4 38 4H5ZM23.5915 20.4649C25.8302 18.7195 25.6679 15.6986 23.9977 14H38C38.903 14 39.6663 13.4015 39.9147 12.5795C45.7322 19.6504 45.3366 30.1193 38.7279 36.7279C31.6985 43.7574 20.3015 43.7574 13.2721 36.7279C7.31036 30.7662 6.40482 21.663 10.5555 14.7469L20.9384 14.7468C23.1413 14.7468 24.0991 17.5331 22.3618 18.8876L20.9633 19.9779C17.9104 22.3581 19.9247 27.2472 23.7682 26.7861C24.6692 26.678 25.5122 27.2495 25.7455 28.1264L25.8281 28.4365C25.5055 28.3466 25.1559 28.3367 24.8078 28.4237L19.151 29.8379C18.0794 30.1058 17.4279 31.1917 17.6958 32.2632C17.9637 33.3348 19.0495 33.9864 20.1211 33.7185L23.8377 32.7893L24.7668 36.5059C25.0096 37.4771 25.933 38.1191 26.928 38.0086C34.261 37.1938 37.5957 32.0083 38.4793 29.652C38.7191 29.0123 38.6159 28.2945 38.2055 27.7483C37.7951 27.2022 37.1344 26.9032 36.4532 26.9556L33.541 27.1797L32.5365 23.1614C32.2686 22.0898 31.1827 21.4383 30.1111 21.7062C29.0395 21.9741 28.388 23.0599 28.6559 24.1315L30.0701 29.7884C30.3067 30.7346 31.1913 31.3722 32.1638 31.2974L32.633 31.2613C31.7835 32.073 30.6611 32.8545 29.2165 33.3936L27.6783 27.6121C27.1889 25.7725 25.4201 24.5736 23.53 24.8003C21.698 25.0201 20.7379 22.6897 22.1931 21.5552L23.5915 20.4649ZM6.008 12C5.624 12 5.344 11.784 5.344 11.416C5.344 11.176 5.456 10.968 5.664 10.8L7.256 9.496C7.952 8.928 8.224 8.616 8.224 8.152C8.224 7.68 7.912 7.424 7.472 7.424C7.12 7.424 6.872 7.576 6.56 7.912C6.48 8 6.336 8.088 6.144 8.088C5.832 8.088 5.584 7.84 5.584 7.528C5.584 7.392 5.64 7.248 5.728 7.144C6.176 6.624 6.704 6.32 7.552 6.32C8.712 6.32 9.48 7 9.48 8.048V8.064C9.48 9 9 9.464 8.008 10.232L7.096 10.936H9.048C9.344 10.936 9.584 11.176 9.584 11.472C9.584 11.768 9.344 12 9.048 12H6.008ZM13.3952 12.048C13.0672 12.048 12.8112 11.792 12.8112 11.464V10.792H10.5072C10.1792 10.792 9.90719 10.552 9.90719 10.224C9.90719 9.968 10.0112 9.768 10.1952 9.552L12.6272 6.728C12.8592 6.456 13.0352 6.312 13.3952 6.312C13.7232 6.312 13.9872 6.568 13.9872 6.896V9.792H14.2832C14.5632 9.792 14.7872 10.016 14.7872 10.296C14.7872 10.576 14.5632 10.792 14.2832 10.792H13.9872V11.464C13.9872 11.792 13.7232 12.048 13.3952 12.048ZM12.8112 8.048L11.3232 9.792H12.8112V8.048ZM18.2068 10.088H15.8228C15.5108 10.088 15.2548 9.832 15.2548 9.52C15.2548 9.208 15.5108 8.952 15.8228 8.952H18.2068C18.5188 8.952 18.7748 9.208 18.7748 9.52C18.7748 9.832 18.5188 10.088 18.2068 10.088ZM19.8974 12C19.5134 12 19.2334 11.784 19.2334 11.416C19.2334 11.176 19.3454 10.968 19.5534 10.8L21.1454 9.496C21.8414 8.928 22.1134 8.616 22.1134 8.152C22.1134 7.68 21.8014 7.424 21.3614 7.424C21.0094 7.424 20.7614 7.576 20.4494 7.912C20.3694 8 20.2254 8.088 20.0334 8.088C19.7214 8.088 19.4734 7.84 19.4734 7.528C19.4734 7.392 19.5294 7.248 19.6174 7.144C20.0654 6.624 20.5934 6.32 21.4414 6.32C22.6014 6.32 23.3694 7 23.3694 8.048V8.064C23.3694 9 22.8894 9.464 21.8974 10.232L20.9854 10.936H22.9374C23.2334 10.936 23.4734 11.176 23.4734 11.472C23.4734 11.768 23.2334 12 22.9374 12H19.8974ZM28.4818 10.16C28.4818 11.304 27.5618 12.096 26.3458 12.096C25.6178 12.096 25.1218 11.888 24.7298 11.496C24.3218 11.088 24.0658 10.488 24.0658 9.376V9.36C24.0658 7.632 24.8498 6.304 26.5218 6.304C27.0818 6.304 27.5378 6.44 27.8738 6.64C28.0658 6.752 28.1938 6.92 28.1938 7.168C28.1938 7.488 27.9298 7.736 27.6098 7.736C27.5058 7.736 27.3938 7.696 27.3058 7.648C27.0498 7.504 26.8178 7.424 26.4818 7.424C25.7858 7.424 25.4338 7.984 25.3538 8.72C25.6338 8.536 25.9618 8.36 26.5138 8.36C27.6258 8.36 28.4818 8.976 28.4818 10.144V10.16ZM25.3218 10.208C25.3218 10.68 25.6898 11.04 26.2978 11.04C26.9058 11.04 27.2578 10.696 27.2578 10.216V10.2C27.2578 9.728 26.8898 9.384 26.2818 9.384C25.6738 9.384 25.3218 9.72 25.3218 10.192V10.208ZM31.2186 12.088C30.9226 12.088 30.6906 11.896 30.5786 11.584L29.0106 7.184C28.9866 7.112 28.9626 7.024 28.9626 6.952C28.9626 6.608 29.2506 6.352 29.5946 6.352C29.8826 6.352 30.1146 6.536 30.1946 6.792L31.3066 10.224L32.4266 6.824C32.5226 6.536 32.7386 6.336 33.0506 6.336H33.1466C33.4586 6.336 33.6746 6.528 33.7706 6.824L34.8906 10.224L36.0026 6.792C36.0826 6.552 36.2906 6.352 36.5946 6.352C36.9306 6.352 37.2026 6.608 37.2026 6.944C37.2026 7.016 37.1786 7.112 37.1546 7.184L35.5866 11.584C35.4746 11.896 35.2426 12.088 34.9466 12.088H34.8186C34.5226 12.088 34.2986 11.904 34.1866 11.584L33.0826 8.376L31.9786 11.584C31.8666 11.904 31.6426 12.088 31.3466 12.088H31.2186ZM40.8492 24.7071C39.2871 26.2692 36.7545 26.2692 35.1924 24.7071C33.6303 23.145 33.6303 20.6123 35.1924 19.0503C36.7545 17.4882 39.2871 17.4882 40.8492 19.0503C42.4113 20.6123 42.4113 23.145 40.8492 24.7071Z" fill="#333333"/>
</svg>
