<svg width="48" height="48" viewBox="0 0 48 48" fill="none" xmlns="http://www.w3.org/2000/svg">
<path fill-rule="evenodd" clip-rule="evenodd" d="M48 0H0V48H48V0ZM5 4C3.89543 4 3 4.89543 3 6V12C3 13.1046 3.89543 14 5 14H8.67376C4.25286 21.6486 5.31423 31.5985 11.8579 38.1421C19.6684 45.9526 32.3316 45.9526 40.1421 38.1421C47.9526 30.3316 47.9526 17.6684 40.1421 9.85786C38.0032 7.71893 35.5003 6.16576 32.8329 5.19834C32.5239 4.49286 31.8195 4 31 4H5ZM23.5915 20.4649C25.8302 18.7195 25.6679 15.6986 23.9977 14H31C32.1046 14 33 13.1046 33 12V7.41172C35.0818 8.28932 37.032 9.57611 38.7279 11.2721C45.7574 18.3015 45.7574 29.6985 38.7279 36.7279C31.6985 43.7574 20.3015 43.7574 13.2721 36.7279C7.31036 30.7662 6.40482 21.663 10.5555 14.7469L20.9384 14.7468C23.1413 14.7468 24.0991 17.5331 22.3618 18.8876L20.9633 19.9779C17.9104 22.3581 19.9247 27.2472 23.7682 26.7861C24.6692 26.678 25.5122 27.2495 25.7455 28.1264L25.8281 28.4365C25.5055 28.3466 25.1559 28.3367 24.8078 28.4237L19.151 29.8379C18.0794 30.1058 17.4279 31.1917 17.6958 32.2632C17.9637 33.3348 19.0495 33.9864 20.1211 33.7185L23.8377 32.7893L24.7668 36.5059C25.0096 37.4771 25.933 38.1191 26.928 38.0086C34.261 37.1938 37.5957 32.0083 38.4793 29.652C38.7191 29.0123 38.6159 28.2945 38.2055 27.7483C37.7951 27.2022 37.1344 26.9032 36.4532 26.9556L33.541 27.1797L32.5365 23.1614C32.2686 22.0898 31.1827 21.4383 30.1111 21.7062C29.0395 21.9741 28.388 23.0599 28.6559 24.1315L30.0701 29.7884C30.3067 30.7346 31.1913 31.3722 32.1638 31.2974L32.633 31.2613C31.7835 32.073 30.6611 32.8545 29.2165 33.3936L27.6783 27.6121C27.1889 25.7725 25.4201 24.5736 23.53 24.8003C21.698 25.0201 20.7379 22.6897 22.1931 21.5552L23.5915 20.4649ZM30.0908 6.46851C29.9295 6.43102 29.7677 6.39579 29.6056 6.3628C29.3663 6.40742 29.2018 6.5848 29.1328 6.792L28.0208 10.224L26.9008 6.824C26.8048 6.528 26.5888 6.336 26.2768 6.336H26.1808C25.8688 6.336 25.6528 6.536 25.5568 6.824L24.4368 10.224L23.3248 6.792C23.2448 6.536 23.0128 6.352 22.7248 6.352C22.3808 6.352 22.0928 6.608 22.0928 6.952C22.0928 7.024 22.1168 7.112 22.1408 7.184L23.7088 11.584C23.8208 11.896 24.0528 12.088 24.3488 12.088H24.4768C24.7728 12.088 24.9968 11.904 25.1088 11.584L26.2128 8.376L27.3168 11.584C27.4288 11.904 27.6528 12.088 27.9488 12.088H28.0768C28.3728 12.088 28.6048 11.896 28.7168 11.584L30.2848 7.184C30.3088 7.112 30.3328 7.016 30.3328 6.944C30.3328 6.74547 30.2378 6.57487 30.0908 6.46851ZM10.078 10.432C10.078 11.472 9.15797 12.08 7.91797 12.08C6.67797 12.08 5.75797 11.44 5.75797 10.464V10.448C5.75797 9.768 6.06997 9.368 6.66197 9.096C6.22997 8.832 5.94997 8.472 5.94997 7.872V7.856C5.94997 7 6.73397 6.32 7.91797 6.32C9.10197 6.32 9.88597 6.992 9.88597 7.856V7.872C9.88597 8.472 9.60597 8.832 9.17397 9.096C9.74197 9.392 10.078 9.752 10.078 10.416V10.432ZM7.11797 8C7.11797 8.392 7.42997 8.688 7.91797 8.688C8.40597 8.688 8.71797 8.4 8.71797 8.008V7.992C8.71797 7.648 8.42197 7.336 7.91797 7.336C7.41397 7.336 7.11797 7.64 7.11797 7.984V8ZM6.94997 10.368C6.94997 10.752 7.30997 11.064 7.91797 11.064C8.52597 11.064 8.88597 10.76 8.88597 10.368V10.352C8.88597 9.92 8.47797 9.664 7.91797 9.664C7.35797 9.664 6.94997 9.92 6.94997 10.352V10.368ZM13.501 10.088H11.117C10.805 10.088 10.549 9.832 10.549 9.52C10.549 9.208 10.805 8.952 11.117 8.952H13.501C13.813 8.952 14.069 9.208 14.069 9.52C14.069 9.832 13.813 10.088 13.501 10.088ZM15.9734 12.048C15.6374 12.048 15.3654 11.776 15.3654 11.44V7.568L14.9334 7.68C14.8694 7.696 14.7814 7.712 14.7174 7.712C14.4294 7.712 14.1814 7.472 14.1814 7.184C14.1814 6.936 14.3414 6.728 14.5894 6.656L15.3814 6.424C15.6134 6.36 15.7894 6.32 15.9574 6.32H15.9734C16.3094 6.32 16.5814 6.592 16.5814 6.928V11.44C16.5814 11.776 16.3094 12.048 15.9734 12.048ZM18.0844 12C17.7004 12 17.4204 11.784 17.4204 11.416C17.4204 11.176 17.5324 10.968 17.7404 10.8L19.3324 9.496C20.0284 8.928 20.3004 8.616 20.3004 8.152C20.3004 7.68 19.9884 7.424 19.5484 7.424C19.1964 7.424 18.9484 7.576 18.6364 7.912C18.5564 8 18.4124 8.088 18.2204 8.088C17.9084 8.088 17.6604 7.84 17.6604 7.528C17.6604 7.392 17.7164 7.248 17.8044 7.144C18.2524 6.624 18.7804 6.32 19.6284 6.32C20.7884 6.32 21.5564 7 21.5564 8.048V8.064C21.5564 9 21.0764 9.464 20.0844 10.232L19.1724 10.936H21.1244C21.4204 10.936 21.6604 11.176 21.6604 11.472C21.6604 11.768 21.4204 12 21.1244 12H18.0844ZM40.8492 24.7071C39.2871 26.2692 36.7545 26.2692 35.1924 24.7071C33.6303 23.145 33.6303 20.6123 35.1924 19.0503C36.7545 17.4882 39.2871 17.4882 40.8492 19.0503C42.4113 20.6123 42.4113 23.145 40.8492 24.7071Z" fill="#333333"/>
</svg>
