<svg width="48" height="48" viewBox="0 0 48 48" fill="none" xmlns="http://www.w3.org/2000/svg">
<path fill-rule="evenodd" clip-rule="evenodd" d="M48 0H0V48H48V0ZM5 4C3.89543 4 3 4.89543 3 6V12C3 13.1046 3.89543 14 5 14H8.67376C4.25286 21.6486 5.31423 31.5985 11.8579 38.1421C19.6684 45.9526 32.3316 45.9526 40.1421 38.1421C47.9526 30.3316 47.9526 17.6684 40.1421 9.85786C35.8496 5.56536 30.0914 3.63194 24.4785 4.0576C24.3252 4.01996 24.1649 4 24 4H5ZM23.5915 20.4649C25.8302 18.7195 25.6679 15.6986 23.9977 14H24C25.1046 14 26 13.1046 26 12V6C30.6066 6 35.2132 7.75736 38.7279 11.2721C45.7574 18.3015 45.7574 29.6985 38.7279 36.7279C31.6985 43.7574 20.3015 43.7574 13.2721 36.7279C7.31036 30.7662 6.40482 21.663 10.5555 14.7469L20.9384 14.7468C23.1413 14.7468 24.0991 17.5331 22.3618 18.8876L20.9633 19.9779C17.9104 22.3581 19.9247 27.2472 23.7682 26.7861C24.6692 26.678 25.5122 27.2495 25.7455 28.1264L25.8281 28.4365C25.5055 28.3466 25.1559 28.3367 24.8078 28.4237L19.151 29.8379C18.0794 30.1058 17.4279 31.1917 17.6958 32.2632C17.9637 33.3348 19.0495 33.9864 20.1211 33.7185L23.8377 32.7893L24.7668 36.5059C25.0096 37.4771 25.933 38.1191 26.928 38.0086C34.261 37.1938 37.5957 32.0083 38.4793 29.652C38.7191 29.0123 38.6159 28.2945 38.2055 27.7483C37.7951 27.2022 37.1344 26.9032 36.4532 26.9556L33.541 27.1797L32.5365 23.1614C32.2686 22.0898 31.1827 21.4383 30.1111 21.7062C29.0395 21.9741 28.388 23.0599 28.6559 24.1315L30.0701 29.7884C30.3067 30.7346 31.1913 31.3722 32.1638 31.2974L32.633 31.2613C31.7835 32.073 30.6611 32.8545 29.2165 33.3936L27.6783 27.6121C27.1889 25.7725 25.4201 24.5736 23.53 24.8003C21.698 25.0201 20.7379 22.6897 22.1931 21.5552L23.5915 20.4649ZM9.87681 10.264C9.87681 11.32 9.10881 12.096 7.86081 12.096C7.06081 12.096 6.46081 11.848 6.00481 11.456C5.89281 11.36 5.79681 11.192 5.79681 11.016C5.79681 10.696 6.06881 10.424 6.38881 10.424C6.56481 10.424 6.68481 10.496 6.78081 10.576C7.10081 10.848 7.43681 10.992 7.87681 10.992C8.34081 10.992 8.66881 10.728 8.66881 10.312V10.296C8.66881 9.84 8.26081 9.584 7.57281 9.584H7.38081C7.09281 9.584 6.85281 9.344 6.85281 9.056C6.85281 8.888 6.92481 8.744 7.11681 8.552L8.20481 7.456H6.48481C6.19681 7.456 5.95681 7.216 5.95681 6.928C5.95681 6.64 6.19681 6.4 6.48481 6.4H9.21281C9.57281 6.4 9.83681 6.608 9.83681 6.944C9.83681 7.248 9.69281 7.416 9.46881 7.632L8.37281 8.68C9.13281 8.808 9.87681 9.208 9.87681 10.248V10.264ZM11.1096 12C10.7256 12 10.4456 11.784 10.4456 11.416C10.4456 11.176 10.5576 10.968 10.7656 10.8L12.3576 9.496C13.0536 8.928 13.3256 8.616 13.3256 8.152C13.3256 7.68 13.0136 7.424 12.5736 7.424C12.2216 7.424 11.9736 7.576 11.6616 7.912C11.5816 8 11.4376 8.088 11.2456 8.088C10.9336 8.088 10.6856 7.84 10.6856 7.528C10.6856 7.392 10.7416 7.248 10.8296 7.144C11.2776 6.624 11.8056 6.32 12.6536 6.32C13.8136 6.32 14.5816 7 14.5816 8.048V8.064C14.5816 9 14.1016 9.464 13.1096 10.232L12.1976 10.936H14.1496C14.4456 10.936 14.6856 11.176 14.6856 11.472C14.6856 11.768 14.4456 12 14.1496 12H11.1096ZM17.3739 12.088C17.0779 12.088 16.8459 11.896 16.7339 11.584L15.1659 7.184C15.1419 7.112 15.1179 7.024 15.1179 6.952C15.1179 6.608 15.4059 6.352 15.7499 6.352C16.0379 6.352 16.2699 6.536 16.3499 6.792L17.4619 10.224L18.5819 6.824C18.6779 6.536 18.8939 6.336 19.2059 6.336H19.3019C19.6139 6.336 19.8299 6.528 19.9259 6.824L21.0459 10.224L22.1579 6.792C22.2379 6.552 22.4459 6.352 22.7499 6.352C23.0859 6.352 23.3579 6.608 23.3579 6.944C23.3579 7.016 23.3339 7.112 23.3099 7.184L21.7419 11.584C21.6299 11.896 21.3979 12.088 21.1019 12.088H20.9739C20.6779 12.088 20.4539 11.904 20.3419 11.584L19.2379 8.376L18.1339 11.584C18.0219 11.904 17.7979 12.088 17.5019 12.088H17.3739ZM40.8492 24.7071C39.2871 26.2692 36.7545 26.2692 35.1924 24.7071C33.6303 23.145 33.6303 20.6123 35.1924 19.0503C36.7545 17.4882 39.2871 17.4882 40.8492 19.0503C42.4113 20.6123 42.4113 23.145 40.8492 24.7071Z" fill="#333333"/>
</svg>
