<svg width="48" height="48" viewBox="0 0 48 48" fill="none" xmlns="http://www.w3.org/2000/svg">
<path fill-rule="evenodd" clip-rule="evenodd" d="M0 0H48V48H0V0ZM31.1738 21.8022C30.2689 19.9605 29.175 18.2217 27.9103 16.615C26.9217 14.9828 25.6526 13.5456 24.1637 12.3721C23.2284 11.8091 22.123 11.6151 21.0568 11.8268C19.817 12.099 18.9884 13.4233 18.2918 14.5368L18.2918 14.5369C18.1375 14.7834 17.9898 15.0196 17.8454 15.2317L15.2346 18.8495C15.0477 19.1226 14.9681 19.4572 15.0116 19.7872C15.0551 20.1172 15.2185 20.4186 15.4695 20.6318L20.1691 24.5421C20.3845 24.7154 20.648 24.8151 20.9222 24.827C21.1964 24.839 21.4673 24.7625 21.6964 24.6086C21.4448 25.6236 18.5231 34.1132 17.3561 37.5042L17.3559 37.5047L17.3555 37.5059C17.07 38.3355 16.8897 38.8595 16.8794 38.8935H21.9836L22.1664 42.6708C22.1664 43.0236 22.3039 43.3619 22.5487 43.6113C22.7935 43.8608 23.1256 44.0009 23.4718 44.0009C23.818 44.0009 24.1501 43.8608 24.3949 43.6113C24.6397 43.3619 24.7772 43.0236 24.7772 42.6708L24.973 38.9733H29.5943C29.5943 38.8637 29.5447 38.0798 29.4795 37.0508L29.4795 37.0506C29.347 34.9565 29.1503 31.8471 29.1765 31.3387C29.2064 30.7602 29.6849 30.3598 30.1129 30.0015C30.2458 29.8904 30.3737 29.7833 30.4819 29.6762C31.0129 29.1264 31.4537 28.4932 31.7874 27.8008C32.0598 27.1744 32.219 26.503 32.2573 25.819C32.2378 24.4079 31.8648 23.0253 31.1738 21.8022ZM18.1196 19.5012L20.8609 16.3091C20.9666 16.8166 21.081 17.3241 21.1965 17.8368C21.2809 18.2109 21.3658 18.5877 21.4484 18.9692C21.7748 20.1921 21.9459 21.4527 21.9575 22.72C21.9093 22.6503 21.857 22.5837 21.8009 22.5205L18.1196 19.5012ZM28.1125 9.98365C27.4569 10.6247 26.5647 10.9901 25.6306 11C24.6977 10.9901 23.8069 10.6243 23.1534 9.98287C22.4998 9.34142 22.1367 8.47654 22.1437 7.57768C22.1145 7.11839 22.1833 6.65821 22.3457 6.22549C22.5081 5.79276 22.7607 5.39663 23.088 5.06149C23.4152 4.72634 23.8102 4.45928 24.2486 4.27673C24.687 4.09417 25.1596 4 25.6371 4C26.1147 4 26.5873 4.09417 27.0257 4.27673C27.4641 4.45928 27.8591 4.72634 28.1863 5.06149C28.5136 5.39663 28.7662 5.79276 28.9286 6.22549C29.091 6.65821 29.1597 7.11839 29.1306 7.57768C29.1341 8.4777 28.7682 9.34255 28.1125 9.98365Z" fill="#333333"/>
</svg>
