<svg width="48" height="48" viewBox="0 0 48 48" fill="none" xmlns="http://www.w3.org/2000/svg">
<path fill-rule="evenodd" clip-rule="evenodd" d="M48 0H0V48H48V0ZM5 4C3.89543 4 3 4.89543 3 6V12C3 13.1046 3.89543 14 5 14H8.67376C4.25286 21.6486 5.31423 31.5985 11.8579 38.1421C19.6684 45.9526 32.3316 45.9526 40.1421 38.1421C47.9526 30.3316 47.9526 17.6684 40.1421 9.85786C39.772 9.48771 39.3909 9.13509 39 8.80002V6C39 4.89543 38.1046 4 37 4H5ZM23.5915 20.4649C25.8302 18.7195 25.6679 15.6986 23.9977 14H37C38.1046 14 39 13.1046 39 12V11.55C45.7562 18.5988 45.6655 29.7904 38.7279 36.7279C31.6985 43.7574 20.3015 43.7574 13.2721 36.7279C7.31036 30.7662 6.40482 21.663 10.5555 14.7469L20.9384 14.7468C23.1413 14.7468 24.0991 17.5331 22.3618 18.8876L20.9633 19.9779C17.9104 22.3581 19.9247 27.2472 23.7682 26.7861C24.6692 26.678 25.5122 27.2495 25.7455 28.1264L25.8281 28.4365C25.5055 28.3466 25.1559 28.3367 24.8078 28.4237L19.151 29.8379C18.0794 30.1058 17.4279 31.1917 17.6958 32.2632C17.9637 33.3348 19.0495 33.9864 20.1211 33.7185L23.8377 32.7893L24.7668 36.5059C25.0096 37.4771 25.933 38.1191 26.928 38.0086C34.261 37.1938 37.5957 32.0083 38.4793 29.652C38.7191 29.0123 38.6159 28.2945 38.2055 27.7483C37.7951 27.2022 37.1344 26.9032 36.4532 26.9556L33.541 27.1797L32.5365 23.1614C32.2686 22.0898 31.1827 21.4383 30.1111 21.7062C29.0395 21.9741 28.388 23.0599 28.6559 24.1315L30.0701 29.7884C30.3067 30.7346 31.1913 31.3722 32.1638 31.2974L32.633 31.2613C31.7835 32.073 30.6611 32.8545 29.2165 33.3936L27.6783 27.6121C27.1889 25.7725 25.4201 24.5736 23.53 24.8003C21.698 25.0201 20.7379 22.6897 22.1931 21.5552L23.5915 20.4649ZM9.504 10.264C9.504 11.32 8.736 12.096 7.488 12.096C6.688 12.096 6.088 11.848 5.632 11.456C5.52 11.36 5.424 11.192 5.424 11.016C5.424 10.696 5.696 10.424 6.016 10.424C6.192 10.424 6.312 10.496 6.408 10.576C6.728 10.848 7.064 10.992 7.504 10.992C7.968 10.992 8.296 10.728 8.296 10.312V10.296C8.296 9.84 7.888 9.584 7.2 9.584H7.008C6.72 9.584 6.48 9.344 6.48 9.056C6.48 8.888 6.552 8.744 6.744 8.552L7.832 7.456H6.112C5.824 7.456 5.584 7.216 5.584 6.928C5.584 6.64 5.824 6.4 6.112 6.4H8.84C9.2 6.4 9.464 6.608 9.464 6.944C9.464 7.248 9.32 7.416 9.096 7.632L8 8.68C8.76 8.808 9.504 9.208 9.504 10.248V10.264ZM14.5767 10.16C14.5767 11.304 13.6568 12.096 12.4408 12.096C11.7128 12.096 11.2168 11.888 10.8248 11.496C10.4167 11.088 10.1608 10.488 10.1608 9.376V9.36C10.1608 7.632 10.9447 6.304 12.6168 6.304C13.1768 6.304 13.6328 6.44 13.9688 6.64C14.1608 6.752 14.2888 6.92 14.2888 7.168C14.2888 7.488 14.0247 7.736 13.7048 7.736C13.6007 7.736 13.4888 7.696 13.4008 7.648C13.1448 7.504 12.9128 7.424 12.5767 7.424C11.8808 7.424 11.5288 7.984 11.4488 8.72C11.7288 8.536 12.0568 8.36 12.6088 8.36C13.7208 8.36 14.5767 8.976 14.5767 10.144V10.16ZM11.4167 10.208C11.4167 10.68 11.7847 11.04 12.3927 11.04C13.0008 11.04 13.3528 10.696 13.3528 10.216V10.2C13.3528 9.728 12.9848 9.384 12.3768 9.384C11.7688 9.384 11.4167 9.72 11.4167 10.192V10.208ZM18.0896 10.088H15.7056C15.3936 10.088 15.1376 9.832 15.1376 9.52C15.1376 9.208 15.3936 8.952 15.7056 8.952H18.0896C18.4016 8.952 18.6576 9.208 18.6576 9.52C18.6576 9.832 18.4016 10.088 18.0896 10.088ZM23.1981 10.264C23.1981 11.32 22.4301 12.096 21.1821 12.096C20.3821 12.096 19.7821 11.848 19.3261 11.456C19.2141 11.36 19.1181 11.192 19.1181 11.016C19.1181 10.696 19.3901 10.424 19.7101 10.424C19.8861 10.424 20.0061 10.496 20.1021 10.576C20.4221 10.848 20.7581 10.992 21.1981 10.992C21.6621 10.992 21.9901 10.728 21.9901 10.312V10.296C21.9901 9.84 21.5821 9.584 20.8941 9.584H20.7021C20.4141 9.584 20.1741 9.344 20.1741 9.056C20.1741 8.888 20.2461 8.744 20.4381 8.552L21.5261 7.456H19.8061C19.5181 7.456 19.2781 7.216 19.2781 6.928C19.2781 6.64 19.5181 6.4 19.8061 6.4H22.5341C22.8941 6.4 23.1581 6.608 23.1581 6.944C23.1581 7.248 23.0141 7.416 22.7901 7.632L21.6941 8.68C22.4541 8.808 23.1981 9.208 23.1981 10.248V10.264ZM28.1028 10.432C28.1028 11.472 27.1828 12.08 25.9428 12.08C24.7028 12.08 23.7828 11.44 23.7828 10.464V10.448C23.7828 9.768 24.0948 9.368 24.6868 9.096C24.2548 8.832 23.9748 8.472 23.9748 7.872V7.856C23.9748 7 24.7588 6.32 25.9428 6.32C27.1268 6.32 27.9108 6.992 27.9108 7.856V7.872C27.9108 8.472 27.6308 8.832 27.1988 9.096C27.7668 9.392 28.1028 9.752 28.1028 10.416V10.432ZM25.1428 8C25.1428 8.392 25.4548 8.688 25.9428 8.688C26.4308 8.688 26.7428 8.4 26.7428 8.008V7.992C26.7428 7.648 26.4468 7.336 25.9428 7.336C25.4388 7.336 25.1428 7.64 25.1428 7.984V8ZM24.9748 10.368C24.9748 10.752 25.3348 11.064 25.9428 11.064C26.5508 11.064 26.9108 10.76 26.9108 10.368V10.352C26.9108 9.92 26.5028 9.664 25.9428 9.664C25.3828 9.664 24.9748 9.92 24.9748 10.352V10.368ZM30.7499 12.088C30.4539 12.088 30.2219 11.896 30.1099 11.584L28.5419 7.184C28.5179 7.112 28.4939 7.024 28.4939 6.952C28.4939 6.608 28.7819 6.352 29.1259 6.352C29.4139 6.352 29.6459 6.536 29.7259 6.792L30.8379 10.224L31.9579 6.824C32.0539 6.536 32.2699 6.336 32.5819 6.336H32.6779C32.9899 6.336 33.2059 6.528 33.3019 6.824L34.4219 10.224L35.5339 6.792C35.6139 6.552 35.8219 6.352 36.1259 6.352C36.4619 6.352 36.7339 6.608 36.7339 6.944C36.7339 7.016 36.7099 7.112 36.6859 7.184L35.1179 11.584C35.0059 11.896 34.7739 12.088 34.4779 12.088H34.3499C34.0539 12.088 33.8299 11.904 33.7179 11.584L32.6139 8.376L31.5099 11.584C31.3979 11.904 31.1739 12.088 30.8779 12.088H30.7499ZM40.8492 24.7071C39.2871 26.2692 36.7545 26.2692 35.1924 24.7071C33.6303 23.145 33.6303 20.6123 35.1924 19.0503C36.7545 17.4882 39.2871 17.4882 40.8492 19.0503C42.4113 20.6123 42.4113 23.145 40.8492 24.7071Z" fill="#333333"/>
</svg>
