<svg width="48" height="48" viewBox="0 0 48 48" fill="none" xmlns="http://www.w3.org/2000/svg">
<path fill-rule="evenodd" clip-rule="evenodd" d="M48 0H0V48H48V0ZM35.2929 15.7072L34 14.4143L30.9142 17.5001L31.7071 18.293L32.4142 19.0001L33.7071 20.293L32.2929 21.7072L31 20.4143L25.1213 26.293C24.166 27.2483 22.7265 27.4246 21.5925 26.8219L16.4142 32.0002H17.8284L19.8321 29.9965C19.8719 29.9989 19.9118 30.0001 19.9519 30.0001H31L34 27.0001H37C38.1046 27.0001 39 27.8955 39 29.0001V32.0001H38C37.4477 32.0001 37 31.5524 37 31.0001V30.0001H35H34V35.0001C34 37.0001 35.5 38.0001 35.5 38.0001H33C31.8954 38.0001 31 37.1046 31 36.0001H16.2544C14.8011 36.0001 13.3971 35.4726 12.3034 34.5155L9.3843 31.9613L15.4098 25.5814L17.4695 28.1164L20.1783 25.4077C19.5754 24.2737 19.7517 22.8342 20.7071 21.8788L26.5858 16.0001L25.2929 14.7072L26.7071 13.293L28 14.5859L28.7071 15.293L29.5 16.0859L32.5858 13.0001L31.2929 11.7072L32.7071 10.293L36.7071 14.293L35.2929 15.7072ZM28 17.4143L29.5858 19.0001L27.5 21.0859L25.9142 19.5001L28 17.4143ZM40 33.0001V28.0001H41C42.1046 28.0001 43 28.8955 43 30.0001V36.0001C43 37.1046 42.1047 38.0001 41.0001 38.0001H38C36.5 38.0001 35 36.5001 35 35.0001V33.0001V31.0001H36C36 31.6667 36.4 33.0001 38 33.0001H40ZM7.87806 30.6434L14.1376 24.0156L6 14.0001V29.0001L7.87806 30.6434Z" fill="#333333"/>
</svg>
