<svg width="48" height="48" viewBox="0 0 48 48" fill="none" xmlns="http://www.w3.org/2000/svg">
<path fill-rule="evenodd" clip-rule="evenodd" d="M48 0H0V48H48V0ZM35.2499 9C35.2499 11.2091 33.4591 13 31.2499 13C29.0408 13 27.2499 11.2091 27.2499 9C27.2499 6.79086 29.0408 5 31.2499 5C33.4591 5 35.2499 6.79086 35.2499 9ZM36.6415 14.8415C36.3471 14.2525 35.7029 13.9245 35.0533 14.0327L27.4557 15.299C26.6667 15.4305 25.9883 15.9315 25.6306 16.6469L23.1584 21.5914C22.898 22.1122 22.9625 22.7367 23.3239 23.1932L27.0737 27.9306C27.5879 28.5801 28.5313 28.6899 29.1808 28.1757C29.8304 27.6616 29.9402 26.7182 29.426 26.0686L27.6126 23.7777C27.7945 23.5297 28.0364 23.3201 28.3304 23.1731L30.6036 22.0366L29.6956 21.7309C29.2887 21.594 29.0146 21.2126 29.0146 20.7833L29.0143 18.7833C29.0143 18.231 29.4619 17.7832 30.0142 17.7832C30.5665 17.7831 31.0143 18.2308 31.0143 18.783L31.0145 20.0646L32.9634 20.7206C32.7343 20.3925 32.5999 19.9933 32.5999 19.5628C32.5999 18.4444 33.5066 17.5378 34.6249 17.5378C35.7433 17.5378 36.6499 18.4444 36.6499 19.5628C36.6499 20.6397 35.8093 21.5203 34.7485 21.5841C34.8715 21.7183 34.9782 21.8716 35.0637 22.0426C35.125 22.1653 35.1726 22.2913 35.2069 22.4189L34.0483 24.1728C33.5917 24.8641 33.7819 25.7946 34.4731 26.2512C35.1644 26.7078 36.0949 26.5176 36.5515 25.8264L39.2515 21.739C39.5469 21.2918 39.5812 20.7209 39.3415 20.2414L36.6415 14.8415ZM26.0153 28.115C26.4248 28.9341 27.2716 29.4966 28.2497 29.4966C29.6286 29.4966 30.7463 28.3788 30.7463 27H30.7498C31.624 27 32.4399 26.7507 33.1305 26.3193C33.5713 27.0259 34.3556 27.496 35.2498 27.496C35.6007 27.496 35.9347 27.4236 36.2376 27.2929L38.2498 34H35.7498V41C35.7498 41.8284 35.0782 42.5 34.2498 42.5C33.4213 42.5 32.7498 41.8284 32.7498 41V34H29.7498V41C29.7498 41.8284 29.0782 42.5 28.2498 42.5C27.4213 42.5 26.7498 41.8284 26.7498 41V34H24.2498L26.0153 28.115ZM18.5002 20.5C18.5002 22.433 16.9332 24 15.0002 24C13.0672 24 11.5002 22.433 11.5002 20.5C11.5002 18.567 13.0672 17 15.0002 17C16.9332 17 18.5002 18.567 18.5002 20.5ZM11.2521 26.1679C11.5303 25.7507 11.9986 25.5 12.5002 25.5H17.5002C18.0017 25.5 18.47 25.7507 18.7482 26.1679L22.7482 32.1679C23.2078 32.8572 23.0215 33.7885 22.3322 34.2481C21.6429 34.7076 20.7116 34.5213 20.2521 33.8321L19.0002 31.9542V41C19.0002 41.8284 18.3286 42.5 17.5002 42.5C16.6717 42.5 16.0002 41.8284 16.0002 41V36H14.0002V41C14.0002 41.8284 13.3286 42.5 12.5002 42.5C11.6717 42.5 11.0002 41.8284 11.0002 41V31.9542L9.74823 33.8321C9.28871 34.5213 8.3574 34.7076 7.66811 34.2481C6.97882 33.7885 6.79256 32.8572 7.25208 32.1679L11.2521 26.1679Z" fill="#333333"/>
</svg>
