<svg width="48" height="48" viewBox="0 0 48 48" fill="none" xmlns="http://www.w3.org/2000/svg">
<path fill-rule="evenodd" clip-rule="evenodd" d="M48 0H0V48H48V0ZM24 44C35.0457 44 44 35.0457 44 24C44 12.9543 35.0457 4 24 4C12.9543 4 4 12.9543 4 24C4 35.0457 12.9543 44 24 44Z" fill="#333333"/>
<path fill-rule="evenodd" clip-rule="evenodd" d="M16.8 33.6L16.801 33.5987L16.819 33.5758C16.8365 33.5536 16.8652 33.5181 16.9046 33.471C16.9837 33.3768 17.1058 33.2371 17.2689 33.0669C17.5958 32.7257 18.0828 32.2672 18.7132 31.8087C19.9777 30.8891 21.7755 30 24 30C26.2245 30 28.0223 30.8891 29.2868 31.8087C29.9172 32.2672 30.4042 32.7257 30.7311 33.0669C30.8942 33.2371 31.0163 33.3768 31.0954 33.471C31.1348 33.5181 31.1635 33.5536 31.181 33.5758L31.199 33.5987L31.2008 33.6011C31.2006 33.6008 31.2 33.6 32 33L31.2 33.6C31.2005 33.6007 31.201 33.6013 31.2015 33.602C31.5333 34.0421 32.1588 34.1309 32.6 33.8C33.0418 33.4686 33.1314 32.8418 32.8 32.4L32.0353 32.9735C32.8 32.4 32.8003 32.4003 32.8 32.4L32.7989 32.3986L32.7976 32.3968L32.794 32.3921L32.7835 32.3784C32.775 32.3673 32.7636 32.3526 32.7491 32.3344C32.7203 32.2979 32.6796 32.2476 32.6273 32.1853C32.5228 32.0607 32.3714 31.8879 32.1751 31.6831C31.7833 31.2743 31.2078 30.7328 30.4632 30.1913C28.9777 29.1109 26.7755 28 24 28C21.2245 28 19.0223 29.1109 17.5368 30.1913C16.7922 30.7328 16.2167 31.2743 15.8249 31.6831C15.6286 31.8879 15.4772 32.0607 15.3727 32.1853C15.3204 32.2476 15.2797 32.2979 15.2509 32.3344C15.2364 32.3526 15.225 32.3673 15.2165 32.3784L15.206 32.3921L15.2024 32.3968L15.2011 32.3986C15.2008 32.3989 15.2 32.4 16 33L15.2 32.4C14.8686 32.8418 14.9582 33.4686 15.4 33.8C15.8416 34.1312 16.4685 34.0413 16.8 33.6Z" fill="#333333"/>
<path fill-rule="evenodd" clip-rule="evenodd" d="M17.6286 20.0715C18.1414 19.8664 18.7234 20.1158 18.9285 20.6286C19.1336 21.1414 18.8842 21.7234 18.3714 21.9285L15.872 22.9282L15.1286 21.0715L17.6286 20.0715ZM13.3714 23.9285C12.8586 24.1336 12.2766 23.8842 12.0715 23.3714C11.8664 22.8586 12.1158 22.2766 12.6286 22.0715L15.1286 21.0715L15.872 22.9282L13.3714 23.9285Z" fill="#333333"/>
<path fill-rule="evenodd" clip-rule="evenodd" d="M30.3714 20.0715C29.8586 19.8664 29.2766 20.1158 29.0715 20.6286C28.8664 21.1414 29.1158 21.7234 29.6286 21.9285L32.128 22.9282L32.8714 21.0715L30.3714 20.0715ZM34.6286 23.9285C35.1414 24.1336 35.7234 23.8842 35.9285 23.3714C36.1336 22.8586 35.8842 22.2766 35.3714 22.0715L32.8714 21.0715L32.128 22.9282L34.6286 23.9285Z" fill="#333333"/>
</svg>
