<svg width="48" height="48" viewBox="0 0 48 48" fill="none" xmlns="http://www.w3.org/2000/svg">
<path fill-rule="evenodd" clip-rule="evenodd" d="M48 0H0V48H48V0ZM13.457 11.6388C13.5349 11.76 13.6124 11.8803 13.6884 12H34.3907C35.1742 10.8143 36 9.55508 36 8.09677C36 7.29597 35.4797 6.62166 34.791 6.08848C32.231 4.10662 24 3 24 3C24 3 15.769 4.10661 13.209 6.08848C12.5203 6.62166 12 7.29597 12 8.09678C12 9.37587 12.7488 10.5389 13.4569 11.6388L13.457 11.6388ZM24 6C22.8954 6 22 6.89543 22 8C22 9.10457 22.8954 10 24 10C25.1046 10 26 9.10457 26 8C26 6.89543 25.1046 6 24 6ZM15 18V16.7943C14.4263 16.2423 14.1707 15.6801 14.0659 15.2341C14.012 15.0048 13.9989 14.8101 14.0001 14.6678C14.0007 14.5967 14.0049 14.5383 14.0095 14.4948C14.0118 14.4731 14.0142 14.455 14.0163 14.4409L14.0192 14.4227L14.0204 14.4159L14.0209 14.413L14.0212 14.4118L14.0214 14.4106C14.0668 14.1728 14.2845 14 14.5386 14H33.4614C33.7155 14 33.9332 14.1728 33.9786 14.4106L33.9788 14.4118L33.9791 14.413L33.9796 14.4159L33.9808 14.4227L33.9837 14.4409C33.9858 14.455 33.9882 14.4731 33.9905 14.4948C33.9951 14.5383 33.9993 14.5967 33.9999 14.6678C34.0011 14.8101 33.988 15.0048 33.9341 15.2341C33.8293 15.6801 33.5737 16.2423 33 16.7943V18C33 22.9706 28.9706 27 24 27C19.0294 27 15 22.9706 15 18ZM24 25C20.136 25 17.0032 21.8692 17 18.006C18.499 18.5937 20.7189 19 24 19C27.2811 19 29.501 18.5937 31 18.006C30.9968 21.8692 27.864 25 24 25ZM25.5 29C26.0523 29 26.5 29.4477 26.5 30V31.382C26.5 31.7607 26.286 32.107 25.9472 32.2764L25.5 32.5L26.4306 36.2222L30.8521 31.169C30.9411 31.168 31.0315 31.178 31.1214 31.1999C36.5255 32.5182 42 35.2061 42 39.2498V44H6V39.2498C6 35.2061 11.4745 32.5182 16.8786 31.1999C16.9685 31.178 17.0589 31.168 17.1479 31.169L21.5769 36.2308L22.5 33L21.7929 32.2929C21.6054 32.1054 21.5 31.851 21.5 31.5858V30C21.5 29.4477 21.9477 29 22.5 29H25.5ZM33 36C33.6667 36.6667 35 37.3333 35 37.3333C35 37.3333 34.3018 40 33 40C31.6983 40 31 37.3333 31 37.3333C31 37.3333 32.3333 36.6667 33 36Z" fill="#333333"/>
</svg>
