<svg width="48" height="48" viewBox="0 0 48 48" fill="none" xmlns="http://www.w3.org/2000/svg">
<path fill-rule="evenodd" clip-rule="evenodd" d="M48 0H0V48H48V0ZM22 10H23H24.2361C23.6868 9.38625 22.8885 9 22 9C21.1115 9 20.3132 9.38625 19.7639 10H22ZM26.584 10C25.8124 8.2341 24.0503 7 22 7C19.2386 7 17 9.23858 17 12C17 14.7614 19.2386 17 22 17C22.2442 17 22.4842 16.9825 22.719 16.9487C23.2692 17.5921 24.087 18 25 18H27H28V17V12H29V10L28 10H27H26.584ZM26 12H24V15C24 15.5523 24.4477 16 25 16H26V12ZM9 18C6.79086 18 5 19.7909 5 22V28C5 30.2091 6.79086 32 9 32H10.0494C10.5511 37.0533 14.8147 41 20 41C24.4958 41 28.2987 38.0332 29.5576 33.9506C30.549 34.1767 31.5691 33.6172 31.8974 32.6325C32.1511 31.8712 31.9217 31.0653 31.3755 30.5474L35.3699 28.8928L35.0436 28.1049H37.1882H42.6882V26.1049H39.5976L41.7821 23.9141L40.3659 22.5019L36.4801 26.3988L34.9659 27.9173L34.6046 27.0451L28.7433 29.4729L26 28.5585V22C26 19.7909 24.2091 18 22 18H18H16C15.0831 18 14.2622 18.4114 13.7119 19.0596C12.9991 18.4018 12.0465 18 11 18H12C12.5523 18 13 17.5523 13 17C13 16.4477 12.5523 16 12 16H8C7.44772 16 7 16.4477 7 17C7 17.5523 7.44772 18 8 18H9ZM27.6563 33.327L25.9295 32.7514C25.5779 34.6013 23.9523 36 22 36H20C17.7909 36 16 34.2091 16 32V20C15.4477 20 15 20.4477 15 21V22V24V28C15 29.8473 13.7478 31.4021 12.0459 31.8619C12.4757 35.8748 15.8729 39 20 39C23.6089 39 26.6597 36.6103 27.6563 33.327ZM18 32V20H22C23.1046 20 24 20.8954 24 22V27.8918L23 27.5585V23C23 21.8954 22.1046 21 21 21C19.8954 21 19 21.8954 19 23V29C19 29.8609 19.5509 30.6251 20.3675 30.8974L23.9972 32.1072C23.9414 33.1619 23.0686 34 22 34H20C18.8954 34 18 33.1046 18 32ZM11.2929 21.2929L10 22.5858L8.70711 21.2929L7.29289 22.7071L8.58579 24L7.29289 25.2929L8.70711 26.7071L10 25.4142L11.2929 26.7071L12.7071 25.2929L11.4142 24L12.7071 22.7071L11.2929 21.2929Z" fill="#333333"/>
</svg>
