<svg width="48" height="48" viewBox="0 0 48 48" fill="none" xmlns="http://www.w3.org/2000/svg">
<path fill-rule="evenodd" clip-rule="evenodd" d="M48 0H0V48H48V0ZM28.4673 7.49839C28.4673 9.70852 26.6764 11.5002 24.4672 11.5002C22.2581 11.5002 20.4672 9.70852 20.4672 7.49839C20.4672 5.28825 22.2581 3.49658 24.4672 3.49658C26.6764 3.49658 28.4673 5.28825 28.4673 7.49839ZM21.9311 12.5075C21.9643 12.5064 21.9976 12.5058 22.0311 12.5058H29.8578C30.7569 12.5058 33.5329 14.1404 33.5329 17.3163C33.5329 21.53 30.7569 23.2412 29.8578 23.2412V42.8689C29.8578 43.768 29.1223 44.5035 28.2233 44.5035C27.3243 44.5035 26.5887 43.768 26.5887 42.8689V31.217H26.5212C27.1226 30.6684 27.5 29.8783 27.5 29C27.5 27.3431 26.1569 26 24.5 26C24.2675 26 24.0412 26.0264 23.8239 26.0765C23.7287 25.837 23.5945 25.6083 23.4206 25.3995L19.0504 20.1553V19.2327L18.2781 20.7901L22.6524 26.0392C23.1827 26.6756 23.0967 27.6215 22.4603 28.1518C21.8239 28.6822 20.878 28.5962 20.3477 27.9598L15.3477 21.9598C14.9673 21.5033 14.8922 20.8654 15.1562 20.3331L18.6234 13.3409C18.8766 12.8303 19.3973 12.5073 19.9672 12.5073H21.9079L21.9311 12.5075ZM21.5415 29.4997C21.6548 30.1755 21.994 30.7747 22.4789 31.217H22.3195V42.8689C22.3195 43.768 21.584 44.5035 20.685 44.5035C19.7859 44.5035 19.0504 43.768 19.0504 42.8689V27.9655L19.5795 28.6004C20.0831 29.2048 20.8117 29.5114 21.5415 29.4997ZM24.5 31C23.4916 31 22.6575 30.2536 22.5199 29.2832C22.7244 29.1917 22.9199 29.071 23.1005 28.9205C23.676 28.441 23.9814 27.7575 23.9993 27.0632C24.1593 27.0219 24.3271 27 24.5 27C25.6046 27 26.5 27.8954 26.5 29C26.5 30.1046 25.6046 31 24.5 31Z" fill="#333333"/>
</svg>
