<svg width="48" height="48" viewBox="0 0 48 48" fill="none" xmlns="http://www.w3.org/2000/svg">
<path fill-rule="evenodd" clip-rule="evenodd" d="M48 0H0V48H48V0ZM22.1099 4.02518C21.5527 3.4122 20.604 3.36702 19.991 3.92428L14.491 8.92426C13.8834 9.47666 13.8329 10.415 14.3777 11.0294L18.3777 15.5402C18.4447 15.6157 18.5184 15.6836 18.5977 15.7433C18.5881 15.8419 18.5832 15.9419 18.5832 16.043V41.9271C18.5832 42.8261 19.3187 43.5616 20.2177 43.5616C21.1167 43.5616 21.8523 42.8261 21.8523 41.9271V29.7542H26.1215V41.9271C26.1215 42.8261 26.857 43.5616 27.756 43.5616C28.655 43.5616 29.3906 42.8261 29.3906 41.9271V23.7784C30.2896 23.7784 33.0657 22.0672 33.0657 17.8535C33.0657 14.6776 30.2896 13.043 29.3906 13.043H21.5639C21.5273 13.043 21.4909 13.0437 21.4546 13.045H20.1747L17.6053 10.1475L22.009 6.1441C22.622 5.58684 22.6672 4.63817 22.1099 4.02518ZM26 7.09103C26 8.31777 26.6526 9.36717 27.5758 9.79485C26.9181 11.1027 25.5639 12.0001 24.0001 12.0001C22.1935 12.0001 20.6666 10.8025 20.1702 9.15784L22.6713 6.88405C23.4775 6.15119 23.6944 5.01214 23.2937 4.06229C23.523 4.02144 23.759 4.00013 24.0001 4.00013C24.9582 4.00013 25.8377 4.33703 26.5265 4.89885C26.2186 5.5857 26 6.33837 26 7.09103ZM30.0001 7.18182C30.0001 8.18597 29.3285 9 28.5001 9C27.6716 9 27.0001 8.18597 27.0001 7.18182C27.0001 5.59091 28.5001 4 28.5001 4C28.5001 4 30.0001 5.59091 30.0001 7.18182Z" fill="#333333"/>
</svg>
