<svg width="48" height="48" viewBox="0 0 48 48" fill="none" xmlns="http://www.w3.org/2000/svg">
<path fill-rule="evenodd" clip-rule="evenodd" d="M48 0H0V48H48V0ZM19.0127 6.74341C15.826 7.71984 13.0377 9.60753 10.9517 12.1026H8.89375C8.73138 12.1026 8.57095 12.1126 8.41314 12.1321C11.271 8.04097 15.6985 5.12736 20.8223 4.26465C20.0137 4.90717 19.3803 5.76034 19.0127 6.74341ZM5.64197 18.0846C6.06122 18.7124 6.6598 19.2093 7.35899 19.5082C7.12369 20.6352 7 21.8032 7 23.0001C7 27.9159 9.08653 32.3445 12.4223 35.4483L11.8014 37.5676C7.64365 34.0822 5 28.8499 5 23.0001C5 21.3002 5.22323 19.6525 5.64197 18.0846ZM18.8904 40.6132L19.4132 39.3741C20.8723 39.782 22.4107 40.0001 24 40.0001C25.5893 40.0001 27.1277 39.782 28.5868 39.3741L29.1096 40.6132C29.1372 40.8377 29.1842 41.0557 29.2487 41.2658C27.5817 41.744 25.8207 42.0001 24 42.0001C22.1793 42.0001 20.4183 41.744 18.7513 41.2658C18.8158 41.0557 18.8628 40.8377 18.8904 40.6132ZM36.1986 37.5676L35.5777 35.4483C38.9135 32.3445 41 27.9159 41 23.0001C41 21.8032 40.8763 20.6352 40.641 19.5082C41.3402 19.2093 41.9388 18.7124 42.358 18.0846C42.7768 19.6525 43 21.3002 43 23.0001C43 28.8499 40.3563 34.0822 36.1986 37.5676ZM39.1062 12.1026H37.0483C35.1845 9.8733 32.76 8.12888 29.9917 7.08608C29.6869 6.07685 29.1073 5.18768 28.3429 4.4987C32.9708 5.58079 36.948 8.35445 39.5869 12.1321C39.429 12.1126 39.2686 12.1026 39.1062 12.1026ZM19.6568 8.71967C19.6568 6.1046 21.826 4 24.4443 4C27.0626 4 29.2318 6.10461 29.2318 8.71967C29.2318 10.7117 27.9732 12.4075 26.2161 13.1025H39.1062C40.683 13.1025 42 14.3702 42 15.9623C42 17.5545 40.683 18.8221 39.1062 18.8221H29.6648L30.0099 20C32.2145 20.0053 34 21.7942 34 24C34 25.4106 33.2699 26.6506 32.1669 27.3628L35.8279 39.859L35.8683 39.9967V40.1402C35.8683 41.7323 34.5512 43 32.9745 43C31.7127 43 30.7778 42.0524 30.1357 41.1311C29.4545 40.1536 28.87 38.8715 28.3743 37.5887C27.8743 36.295 27.4421 34.9397 27.0831 33.7919L26.9654 33.4151C26.77 32.789 26.6038 32.2566 26.4625 31.841H24.8295C24.9404 32.2078 25 32.597 25 33C25 35.2091 23.2091 37 21 37C20.6196 37 20.2515 36.9469 19.9029 36.8477C19.813 37.0957 19.7206 37.3433 19.6257 37.5887C19.13 38.8715 18.5455 40.1536 17.8643 41.1311C17.2222 42.0524 16.2873 43 15.0255 43C13.4488 43 12.1318 41.7323 12.1318 40.1402V39.9967L12.1721 39.859L18.3352 18.8221H16.8347C16.1103 19.5497 15.1078 20 14 20C12.8922 20 11.8897 19.5497 11.1653 18.8221H8.89375C7.31702 18.8221 6 17.5545 6 15.9623C6 14.3702 7.31702 13.1025 8.89375 13.1025H11.2424C11.96 12.4193 12.931 12 14 12C15.069 12 16.04 12.4193 16.7576 13.1025H22.6726C20.9155 12.4075 19.6568 10.7117 19.6568 8.71967ZM23.454 29.841H24.1996H27.1577H27.8211L28.079 30.4523C28.3006 30.9776 28.5706 31.8438 28.8694 32.8024L28.9919 33.1948C29.3505 34.3412 29.7658 35.6411 30.2398 36.8678C30.7181 38.1055 31.2341 39.2093 31.7765 39.9876C32.358 40.8219 32.7699 41 32.9745 41C33.4376 41 33.8012 40.6603 33.8599 40.2552L30.267 27.9912C30.1787 27.997 30.0897 28 30 28C27.7909 28 26 26.2091 26 24C26 22.4904 26.8363 21.1761 28.0708 20.4951L27.3701 18.1033L26.9948 16.8221H28.3298H39.1062C39.6126 16.8221 40 16.416 40 15.9623C40 15.5087 39.6126 15.1025 39.1062 15.1025H17.8989C17.9651 15.391 18 15.6914 18 16C18 16.2818 17.9709 16.5568 17.9154 16.8221H19.6702H21.0052L20.6299 18.1033L14.1401 40.2552C14.1988 40.6603 14.5624 41 15.0255 41C15.2301 41 15.642 40.8219 16.2235 39.9876C16.7659 39.2093 17.2819 38.1055 17.7602 36.8678C17.8951 36.5186 18.0254 36.1634 18.1508 35.8075C17.4392 35.0854 17 34.094 17 33C17 30.7909 18.7909 29 21 29C21.9249 29 22.7765 29.3139 23.454 29.841ZM10.1011 15.1025H8.89375C8.38736 15.1025 8 15.5087 8 15.9623C8 16.416 8.38736 16.8221 8.89375 16.8221H10.0846C10.0291 16.5568 10 16.2818 10 16C10 15.6914 10.0349 15.391 10.1011 15.1025ZM24.4443 6C22.8964 6 21.6568 7.2431 21.6568 8.71967C21.6568 10.1962 22.8964 11.4393 24.4443 11.4393C25.9923 11.4393 27.2318 10.1962 27.2318 8.71967C27.2318 7.2431 25.9923 6 24.4443 6Z" fill="#333333"/>
</svg>
