<svg width="48" height="48" viewBox="0 0 48 48" fill="none" xmlns="http://www.w3.org/2000/svg">
<path fill-rule="evenodd" clip-rule="evenodd" d="M0 0H48V48H0V0ZM14.3931 21.9287C14.3931 26.5613 17.8931 30.3763 22.3931 30.8738V35.93H20.3931C19.8408 35.93 19.3931 36.3777 19.3931 36.93C19.3931 37.4823 19.8408 37.93 20.3931 37.93H22.3931V39.93C22.3931 40.4823 22.8408 40.93 23.3931 40.93C23.9454 40.93 24.3931 40.4823 24.3931 39.93V37.93H26.3931C26.9454 37.93 27.3931 37.4823 27.3931 36.93C27.3931 36.3777 26.9454 35.93 26.3931 35.93H24.3931V30.8738C28.893 30.3763 32.3931 26.5613 32.3931 21.9287C32.3931 19.9334 31.7438 18.0898 30.645 16.5976L32.8589 14.3975L34.2886 15.8272C34.6791 16.2177 35.3123 16.2177 35.7028 15.8272C36.0933 15.4367 36.0933 14.8035 35.7028 14.413L34.2776 12.9878L36.875 10.4066V12C36.875 12.5523 37.3228 13 37.875 13C38.4273 13 38.875 12.5523 38.875 12V8.00004C38.875 7.44776 38.4273 7.00004 37.875 7.00004H33.875C33.3228 7.00004 32.875 7.44776 32.875 8.00004C32.875 8.55233 33.3228 9.00004 33.875 9.00004H35.4531L32.8633 11.5736L31.4602 10.1704C31.0696 9.77985 30.4365 9.77985 30.0459 10.1704C29.6554 10.5609 29.6554 11.1941 30.0459 11.5846L31.4447 12.9833L29.2873 15.1272C27.7082 13.7576 25.6474 12.9287 23.3931 12.9287C21.2669 12.9287 19.313 13.666 17.773 14.8987L12.4142 9.53996H14C14.5523 9.53996 15 9.09224 15 8.53996C15 7.98767 14.5523 7.53996 14 7.53996H10C9.44776 7.53996 9.00004 7.98767 9.00004 8.53996V12.54C9.00004 13.0922 9.44776 13.54 10 13.54C10.5523 13.54 11 13.0922 11 12.54V10.9543L16.3592 16.3134C15.1288 17.8527 14.3931 19.8048 14.3931 21.9287ZM23.3931 14.9287C19.5271 14.9287 16.3931 18.0627 16.3931 21.9287C16.3931 25.7947 19.5271 28.9287 23.3931 28.9287C27.2591 28.9287 30.3931 25.7947 30.3931 21.9287C30.3931 18.0627 27.2591 14.9287 23.3931 14.9287Z" fill="#333333"/>
</svg>
