<svg width="48" height="48" viewBox="0 0 48 48" fill="none" xmlns="http://www.w3.org/2000/svg">
<path fill-rule="evenodd" clip-rule="evenodd" d="M48 0H0V48H48V0ZM34.2494 11H13.7943C13.7224 10.8164 13.6448 10.6001 13.5674 10.3525C13.5442 10.2779 13.5207 10.2041 13.4974 10.1305L13.4974 10.1304L13.4972 10.13L13.4971 10.1295L13.4971 10.1295C13.2451 9.33549 13 8.56283 13 7.09677C13 6.29597 13.5203 5.62166 14.209 5.08848C14.9068 4.54829 15.8598 4.08579 16.9213 3.7088C19.0471 2.95383 21.7281 2.5 24 2.5C26.2719 2.5 28.9529 2.95383 31.0787 3.7088C32.1402 4.08579 33.0932 4.54829 33.7909 5.08848C34.4797 5.62166 35 6.29597 35 7.09677C35 8.67596 34.758 9.45061 34.4883 10.3139L34.4762 10.3526C34.3989 10.6002 34.3213 10.8165 34.2494 11ZM21 7C20.4477 7 20 7.44772 20 8C20 8.55228 20.4477 9 21 9H27C27.5523 9 28 8.55228 28 8C28 7.44772 27.5523 7 27 7H21ZM15 17V15.7943C14.4263 15.2423 14.1707 14.6801 14.0659 14.2341C14.012 14.0048 13.9988 13.8101 14.0001 13.6678C14.0007 13.5967 14.0049 13.5383 14.0095 13.4948C14.0118 13.4731 14.0142 13.455 14.0163 13.4409L14.0192 13.4227L14.0204 13.4159L14.0209 13.413L14.0212 13.4118L14.0214 13.4106C14.0668 13.1728 14.2845 13 14.5385 13H33.4614C33.7155 13 33.9331 13.1728 33.9786 13.4106L33.9788 13.4118L33.979 13.413L33.9796 13.4159L33.9808 13.4227L33.9837 13.4409C33.9858 13.455 33.9882 13.4731 33.9905 13.4948C33.9951 13.5383 33.9993 13.5967 33.9999 13.6678C34.0011 13.8101 33.9879 14.0048 33.934 14.2341C33.8292 14.6801 33.5737 15.2423 33 15.7943V17C33 21.9706 28.9705 26 24 26C19.0294 26 15 21.9706 15 17ZM24 24C20.136 24 17.0032 20.8692 17 17.006C18.499 17.5937 20.7189 18 24 18C27.281 18 29.501 17.5937 31 17.006C30.9967 20.8692 27.864 24 24 24ZM14.5982 34.2867C16.5287 31.1168 20.0171 29 24 29C27.9831 29 31.4718 31.1171 33.4022 34.2874L34.9306 33.8778C35.9976 33.5919 37.0942 34.2251 37.3801 35.292L38.4154 39.1557C38.7013 40.2227 38.0681 41.3193 37.0012 41.6052L35.0693 42.1229C34.9743 42.1483 34.8791 42.1665 34.7842 42.1777C34.5456 43.3653 34.1157 44.4844 33.5278 45.5007L31.7965 44.4993C32.3518 43.5394 32.7349 42.4675 32.9033 41.3246C32.8338 41.2235 32.773 41.1151 32.7223 41H26.8293C26.4174 42.1652 25.3062 43 24 43C22.6938 43 21.5825 42.1652 21.1707 41H15.2773C15.2266 41.1148 15.1659 41.2231 15.0965 41.324C15.2649 42.4671 15.6481 43.5392 16.2034 44.4993L14.4722 45.5007C13.8841 44.4842 13.4541 43.3648 13.2155 42.1769C13.1207 42.1657 13.0256 42.1475 12.9306 42.1221L10.9988 41.6044C9.93186 41.3185 9.29869 40.2219 9.58457 39.1549L10.6199 35.2912C10.9057 34.2243 12.0024 33.5911 13.0693 33.877L14.5982 34.2867ZM15.8377 39H21.1707C21.472 38.1476 22.1476 37.472 23 37.1707V31.0549C20.1302 31.3722 17.6671 33.0387 16.2591 35.406C16.481 35.8336 16.5499 36.3422 16.4154 36.8441L15.8377 39ZM25 31.0549C27.8699 31.3722 30.3331 33.0389 31.741 35.4064C31.519 35.8341 31.45 36.3428 31.5846 36.8449L32.162 39H26.8293C26.528 38.1476 25.8524 37.472 25 37.1707V31.0549Z" fill="#333333"/>
</svg>
