<svg width="48" height="48" viewBox="0 0 48 48" fill="none" xmlns="http://www.w3.org/2000/svg">
<path fill-rule="evenodd" clip-rule="evenodd" d="M48 0H0V48H48V0ZM24.0001 12.0036C26.2093 12.0036 28.0002 10.2119 28.0002 8.00181C28.0002 5.79167 26.2093 4 24.0001 4C21.7909 4 20 5.79167 20 8.00181C20 10.2119 21.7909 12.0036 24.0001 12.0036ZM30.1539 26.4381L27.555 18.4573L25.9999 26L28.5 29V42.3515C28.5 43.2578 27.6436 43.9993 26.7197 43.9993C25.7959 43.9993 25.1406 43.2578 25.1406 42.3515V30.6052H22.8594V42.3515C22.8594 43.2578 22.1035 43.9993 21.1797 43.9993C20.2559 43.9993 19.5 43.2578 19.5 42.3515V29L21.9999 26L20.5 18.4573L17.9082 26.4079C17.5984 27.3234 16.1051 27.8145 15.1896 27.5048C14.2741 27.1951 14.283 26.2019 14.5927 25.2863L17.7785 15.8688C18.1563 14.7518 19.2043 14 20.3835 14H27.5C28.6631 14 29.7004 14.7317 30.0906 15.8274L33.4511 25.264C33.7753 26.1744 33.3001 27.1754 32.3896 27.4996C31.4791 27.8239 30.4782 27.3486 30.1539 26.4381Z" fill="#333333"/>
</svg>
