<svg width="48" height="48" viewBox="0 0 48 48" fill="none" xmlns="http://www.w3.org/2000/svg">
<path fill-rule="evenodd" clip-rule="evenodd" d="M48 0H0V48H48V0ZM26.6542 15.0667C25.8952 14.694 25.2645 14.1054 24.842 13.3755C24.4196 12.6457 24.2244 11.8074 24.2813 10.967C24.3382 10.1267 24.6445 9.32204 25.1615 8.65515C25.6785 7.98826 26.3829 7.48915 27.1853 7.2211C27.9876 6.95305 28.852 6.92814 29.6686 7.14952C30.4852 7.3709 31.2174 7.8286 31.7723 8.46459C32.3273 9.10059 32.6799 9.88623 32.7856 10.7219C32.8912 11.5576 32.7452 12.4057 32.3659 13.1586C32.1168 13.6572 31.7715 14.1021 31.3497 14.4678C30.9278 14.8336 30.4377 15.113 29.9073 15.2902C29.3769 15.4674 28.8166 15.5389 28.2584 15.5005C27.7003 15.4621 27.1551 15.3147 26.6542 15.0667ZM6.32988 19.1918C6.71897 18.3351 7.23314 17.5422 7.85468 16.8405C7.85468 16.8405 12.9491 10.71 17.0316 9.21484C18.5306 8.51382 20.232 8.43602 21.771 8.99811C22.1871 9.10212 22.5561 9.34369 22.8208 9.68534C22.8522 9.72587 22.8814 9.76182 22.9085 9.79519L22.9089 9.79567L22.909 9.79575L22.9093 9.79613L22.9093 9.79618C23.118 10.0528 23.2026 10.1568 23.2026 11.0174C23.2026 11.9909 22.9832 17.6533 22.9832 17.6533L28.6573 21.6457C29.0318 21.9105 29.302 22.3016 29.4213 22.7513C29.5405 23.201 29.5012 23.681 29.3103 24.1083C29.1193 24.5356 28.7886 24.8833 28.3755 25.0912C27.9624 25.2991 27.4928 25.3542 27.0479 25.2469C26.8165 25.189 26.5979 25.0887 26.4025 24.951L19.8475 20.2835C19.5748 20.0925 19.3556 19.8328 19.2105 19.5294C19.0655 19.2259 18.9995 18.8887 19.0189 18.5497L19.1121 16.7203C18.1614 17.8537 17.1455 18.9288 16.0701 19.9399L22.5829 24.597C23.0264 24.9408 23.3552 25.4151 23.5259 25.9572C23.6966 26.4993 23.701 27.0835 23.5385 27.6325L22.0567 38.8271C22.0342 39.1681 21.9445 39.5019 21.7929 39.8084C21.6414 40.1149 21.4311 40.3878 21.1746 40.6109C20.9182 40.8339 20.6208 41.0024 20.3004 41.1064C19.98 41.2104 19.6432 41.2476 19.31 41.2159C18.6179 41.1152 17.9953 40.7418 17.5758 40.1754C17.1562 39.6091 16.973 38.895 17.0655 38.1861L18.4765 28.3672L7.73201 22.9643C7.07071 22.6395 6.55816 22.0695 6.29789 21.3692C6.03763 20.669 6.04906 19.8907 6.32988 19.1918ZM42 38.5C42 39.8807 38.4183 41 34 41C29.5817 41 26 39.8807 26 38.5C26 37.1193 29.5817 36 34 36C34.7904 36 35.5539 36.0358 36.275 36.1025C36.0846 35.8419 35.9723 35.5212 35.9723 35.1743C35.9723 34.3016 36.6832 33.5942 37.5601 33.5942C38.4371 33.5942 39.148 34.3016 39.148 35.1743C39.148 35.6898 38.8999 36.1477 38.516 36.4361C40.6198 36.8865 42 37.6429 42 38.5ZM30.6795 19.8465C31.2641 19.8465 31.738 19.3749 31.738 18.7931C31.738 18.2113 31.2641 17.7397 30.6795 17.7397C30.0948 17.7397 29.6209 18.2113 29.6209 18.7931C29.6209 19.3749 30.0948 19.8465 30.6795 19.8465ZM33.8552 25.6402C33.8552 26.5129 33.1443 27.2203 32.2673 27.2203C31.3904 27.2203 30.6795 26.5129 30.6795 25.6402C30.6795 24.7676 31.3904 24.0601 32.2673 24.0601C33.1443 24.0601 33.8552 24.7676 33.8552 25.6402ZM35.9723 29.3272C36.5569 29.3272 37.0309 28.8555 37.0309 28.2738C37.0309 27.692 36.5569 27.2203 35.9723 27.2203C35.3877 27.2203 34.9137 27.692 34.9137 28.2738C34.9137 28.8555 35.3877 29.3272 35.9723 29.3272ZM32.7966 32.4874C32.7966 33.0692 32.3227 33.5408 31.738 33.5408C31.1534 33.5408 30.6795 33.0692 30.6795 32.4874C30.6795 31.9056 31.1534 31.434 31.738 31.434C32.3227 31.434 32.7966 31.9056 32.7966 32.4874Z" fill="#333333"/>
</svg>
