<svg width="48" height="48" viewBox="0 0 48 48" fill="none" xmlns="http://www.w3.org/2000/svg">
<path fill-rule="evenodd" clip-rule="evenodd" d="M38 38C35.2386 38 33 35.7614 33 33C33 30.2386 35.2386 28 38 28C40.7614 28 43 30.2386 43 33C43 35.7614 40.7614 38 38 38ZM38 40C34.134 40 31 36.866 31 33C31 29.134 34.134 26 38 26C41.866 26 45 29.134 45 33C45 36.866 41.866 40 38 40Z" fill="#333333"/>
<path fill-rule="evenodd" clip-rule="evenodd" d="M28.9106 10.5862C28.7483 10.2292 28.3924 10 28.0002 10H22.7503C22.198 10 21.7503 10.4477 21.7503 11C21.7503 11.5523 22.198 12 22.7503 12H27.3563L37.0899 33.4138C37.3184 33.9166 37.9113 34.1389 38.414 33.9104C38.9168 33.6818 39.1391 33.089 38.9106 32.5862L28.9106 10.5862Z" fill="#333333"/>
<path fill-rule="evenodd" clip-rule="evenodd" d="M9 38C6.23858 38 4 35.7614 4 33C4 30.2386 6.23858 28 9 28C11.7614 28 14 30.2386 14 33C14 35.7614 11.7614 38 9 38ZM9 40C5.13401 40 2 36.866 2 33C2 29.134 5.13401 26 9 26C12.866 26 16 29.134 16 33C16 36.866 12.866 40 9 40Z" fill="#333333"/>
<path fill-rule="evenodd" clip-rule="evenodd" d="M22 33C22 32.4477 21.5523 32 21 32H9C8.44771 32 8 32.4477 8 33C8 33.5523 8.44771 34 9 34H21C21.5523 34 22 33.5523 22 33Z" fill="#333333"/>
<path fill-rule="evenodd" clip-rule="evenodd" d="M30.5001 16H21.8996C20.9191 16 19.9452 16.1602 19.0164 16.4743L14.5965 17.969C14.3179 18.0633 14.0949 18.2753 13.9868 18.5488C13.8787 18.8224 13.8965 19.1296 14.0355 19.3888L18.3688 27.4725C18.5429 27.7973 18.8816 28 19.2501 28H28.0001C28.271 28 28.5304 27.8901 28.7188 27.6954L33.7188 22.5284L32.2815 21.1376L27.5763 26H19.8487L16.3564 19.4852L19.6571 18.3689C20.3795 18.1246 21.137 18 21.8996 18H30.5001V16Z" fill="#333333"/>
<path fill-rule="evenodd" clip-rule="evenodd" d="M4.99992 20H15.0832V18H3.99992C3.44763 18 2.99992 18.4477 2.99992 19V22.5C2.99992 23.0095 3.38306 23.4376 3.88949 23.4939L17.3895 24.9939L17.6104 23.0061L4.99992 21.605V20Z" fill="#333333"/>
<path fill-rule="evenodd" clip-rule="evenodd" d="M28 26H21C19.3431 26 18 27.3431 18 29V31C18 32.6569 19.3431 34 21 34H25C26.6569 34 28 32.6569 28 31V26ZM26 28V31C26 31.5523 25.5523 32 25 32H21C20.4477 32 20 31.5523 20 31V29C20 28.4477 20.4477 28 21 28H26Z" fill="#333333"/>
<path fill-rule="evenodd" clip-rule="evenodd" d="M36.433 13.4108C36.2448 13.1527 35.9445 13 35.625 13H29V15H35.1165L38.0332 19H32V21H40C40.3763 21 40.7208 20.7887 40.8914 20.4532C41.062 20.1178 41.0297 19.7149 40.808 19.4108L36.433 13.4108Z" fill="#333333"/>
</svg>
