<svg width="48" height="48" viewBox="0 0 48 48" fill="none" xmlns="http://www.w3.org/2000/svg">
<path d="M29.126 33C29.5701 31.2748 31.1362 30 33 30C34.8638 30 36.4299 31.2748 36.874 33H40V28H28V33H29.126Z" fill="#333333"/>
<path d="M28 26H39.5257L34.3963 21.2652C34.2116 21.0947 33.9694 21 33.718 21H28V26Z" fill="#333333"/>
<path d="M14 36C15.1046 36 16 35.1046 16 34C16 32.8954 15.1046 32 14 32C12.8954 32 12 32.8954 12 34C12 35.1046 12.8954 36 14 36Z" fill="#333333"/>
<path d="M35 34C35 35.1046 34.1046 36 33 36C31.8954 36 31 35.1046 31 34C31 32.8954 31.8954 32 33 32C34.1046 32 35 32.8954 35 34Z" fill="#333333"/>
<path d="M18 19C18 18.4477 17.5523 18 17 18C16.4477 18 16 18.4477 16 19V22H13C12.4477 22 12 22.4477 12 23C12 23.5523 12.4477 24 13 24H16V27C16 27.5523 16.4477 28 17 28C17.5523 28 18 27.5523 18 27V24H21C21.5523 24 22 23.5523 22 23C22 22.4477 21.5523 22 21 22H18V19Z" fill="#333333"/>
<path fill-rule="evenodd" clip-rule="evenodd" d="M48 0H0V48H48V0ZM32 12L31 14L30 12H32ZM6 17C6 15.3431 7.34315 14 9 14H25C26.6569 14 28 15.3431 28 17V19H29V18H30V17C30 16.4477 30.4477 16 31 16C31.5523 16 32 16.4477 32 17V18H33V19H33.718C34.4722 19 35.1987 19.284 35.7529 19.7956L41.0348 24.6713C41.6501 25.2392 42 26.0384 42 26.8757V35H36.874C36.4299 36.7252 34.8638 38 33 38C31.1362 38 29.5701 36.7252 29.126 35H17.874C17.4299 36.7252 15.8638 38 14 38C12.1362 38 10.5701 36.7252 10.126 35H6V17ZM33.7071 14.1213L35.8284 13.4142L34.4142 12L33.7071 14.1213ZM36 18L34 17L36 16V18Z" fill="#333333"/>
</svg>
