<svg width="48" height="48" viewBox="0 0 48 48" fill="none" xmlns="http://www.w3.org/2000/svg">
<path fill-rule="evenodd" clip-rule="evenodd" d="M0 0H48V48H0V0ZM38.5 35.5C36.0147 35.5 34 33.4853 34 31C34 29.5395 34.6958 28.2415 35.774 27.4194L37.5897 31.4138C37.8182 31.9166 38.411 32.1389 38.9138 31.9104C39.4166 31.6818 39.6389 31.089 39.4104 30.5862L37.5945 26.5911C37.887 26.5314 38.1898 26.5 38.5 26.5C40.9853 26.5 43 28.5147 43 31C43 33.4853 40.9853 35.5 38.5 35.5ZM32.6564 20.5607L27.8561 10H23.25C22.6977 10 22.25 9.55229 22.25 9C22.25 8.44771 22.6977 8 23.25 8H28.5C28.8922 8 29.2481 8.2292 29.4104 8.5862L36.3337 23.8176C37.0196 23.611 37.7468 23.5 38.5 23.5C42.6421 23.5 46 26.8579 46 31C46 35.1421 42.6421 38.5 38.5 38.5C34.3579 38.5 31 35.1421 31 31C31 28.3228 32.4028 25.9732 34.5134 24.6461L33.5124 22.4439L25.7649 31.6441C25.5749 31.8698 25.295 32 25 32H16.9339C16.445 35.6694 13.3031 38.5 9.5 38.5C5.35786 38.5 2 35.1421 2 31C2 26.8579 5.35786 23.5 9.5 23.5C13.3031 23.5 16.445 26.3306 16.9339 30H23.1546L19.5546 26H18.5C17.3954 26 16.5 25.3546 16.5 24.25C16.5 23.1454 17.3954 22.5 18.5 22.5H25.5C26.0523 22.5 26.5 22.9477 26.5 23.5V24.25C26.5 25.3546 25.6046 26 24.5 26H22.2454L25.1683 29.2477L32.2351 20.8559C32.3517 20.7174 32.4978 20.6186 32.6564 20.5607ZM24.5348 30H24.5L24.6436 29.8708L24.5348 30ZM13.8885 30C13.4338 27.996 11.6416 26.5 9.5 26.5C7.01472 26.5 5 28.5147 5 31C5 33.4853 7.01472 35.5 9.5 35.5C11.6416 35.5 13.4338 34.004 13.8885 32H9.5C8.94772 32 8.5 31.5523 8.5 31C8.5 30.4477 8.94772 30 9.5 30H13.8885ZM35.3764 16.4409C35.1693 15.9233 35.4255 15.3363 35.9459 15.1362L40.3561 13.44C40.9469 13.2127 41.5974 13.5846 41.7015 14.2089L42.2729 17.6371C42.3848 18.3088 41.8074 18.8934 41.1344 18.7899L36.5644 18.0868C36.2146 18.033 35.9194 17.7984 35.7879 17.4698L35.3764 16.4409ZM26.882 15C27.2608 15 27.607 15.214 27.7764 15.5528L29.2764 18.5528C29.6088 19.2177 29.1254 20 28.382 20H17.8532C17.6775 20 17.5519 19.8302 17.6032 19.6622C18.6312 16.298 22.2362 15 25.754 15H26.882ZM7 16C6.44772 16 6 16.4477 6 17V19C6 19.5523 6.44772 20 7 20H13C13.824 20 14.2944 19.0592 13.8 18.4L12.3 16.4C12.1111 16.1482 11.8148 16 11.5 16H7Z" fill="#333333"/>
</svg>
