<svg width="48" height="48" viewBox="0 0 48 48" fill="none" xmlns="http://www.w3.org/2000/svg">
<path fill-rule="evenodd" clip-rule="evenodd" d="M48 0H0V48H48V0ZM34.5 32C34.5 34.2091 36.2909 36 38.5 36C40.7091 36 42.5 34.2091 42.5 32C42.5 29.7909 40.7091 28 38.5 28C38.2638 28 38.0324 28.0205 37.8074 28.0597L39.4104 31.5862C39.6389 32.089 39.4166 32.6818 38.9138 32.9104C38.411 33.1389 37.8182 32.9166 37.5896 32.4138L35.9869 28.8878C35.08 29.6211 34.5 30.7428 34.5 32ZM34.7224 26.1058L27.8561 11H23.25C22.6977 11 22.25 10.5523 22.25 10C22.25 9.44771 22.6977 9 23.25 9H28.5C28.8921 9 29.2481 9.2292 29.4104 9.5862L36.5427 25.2773C37.1638 25.0968 37.8206 25 38.5 25C42.366 25 45.5 28.134 45.5 32C45.5 35.866 42.366 39 38.5 39C34.634 39 31.5 35.866 31.5 32C31.5 29.5254 32.7841 27.3506 34.7224 26.1058ZM9.5 36C7.29086 36 5.5 34.2091 5.5 32C5.5 29.7909 7.29086 28 9.5 28C11.3638 28 12.9299 29.2748 13.374 31H9.5C8.94771 31 8.5 31.4477 8.5 32C8.5 32.5523 8.94771 33 9.5 33H13.374C12.9299 34.7252 11.3638 36 9.5 36ZM16.4291 33C15.9439 36.3923 13.0265 39 9.5 39C5.63401 39 2.5 35.866 2.5 32C2.5 28.134 5.63401 25 9.5 25C13.0265 25 15.9439 27.6077 16.4291 31H19.5V29C19.5 27.8954 20.3954 27 21.5 27H25.5C26.6046 27 27.5 27.8954 27.5 29V31C27.5 32.1046 26.6046 33 25.5 33H21.5H16.4291ZM34.493 13C33.7497 13 33.2662 13.7823 33.5986 14.4472L35.5986 18.4472C35.768 18.786 36.1143 19 36.493 19H40.4082C41.2261 19 41.6981 18.0717 41.2162 17.4108L38.2996 13.4108C38.1113 13.1527 37.8111 13 37.4916 13H34.493ZM28.2723 24.4327C28.1059 24.7794 27.7553 25 27.3707 25H21.3108C20.9624 25 20.6392 24.8187 20.4575 24.5215L17.0179 18.8945C16.7017 18.3772 16.9149 17.6998 17.4704 17.4568L19.8366 16.4216C20.6622 16.1424 21.5279 16 22.3995 16H26.8914C27.2652 16 27.6079 16.2085 27.7796 16.5406L29.771 20.3902C29.9152 20.6691 29.9201 20.9994 29.7843 21.2824L28.2723 24.4327ZM5.5 18C4.94772 18 4.5 18.4477 4.5 19V20.6128C4.5 21.119 4.87826 21.5454 5.38085 21.6057L15.1839 22.7821C15.9689 22.8763 16.5476 22.0652 16.2031 21.3535L14.8531 18.5643C14.6861 18.2192 14.3364 18 13.953 18H5.5Z" fill="#333333"/>
</svg>
