<svg width="48" height="48" viewBox="0 0 48 48" fill="none" xmlns="http://www.w3.org/2000/svg">
<path fill-rule="evenodd" clip-rule="evenodd" d="M48 0H0V48H48V0ZM29.4718 13.7438C30.0779 12.7011 31.2071 12 32.5 12H36.3846C36.7245 12 37 12.2755 37 12.6154V18.3846C37 18.7245 36.7245 19 36.3846 19H34V26L33.8944 26.1056C35.2834 25.9222 36.6945 26.2651 37.847 27.0721C38.7908 27.733 39.5015 28.6632 39.8941 29.7297C39.9346 29.8396 39.9497 29.9497 39.9434 30.0559L39.9637 30.052C40.546 33.0956 38.5508 36.035 35.5072 36.6174C32.4636 37.1997 29.5242 35.2045 28.9418 32.1609L29.1666 32.1179C29.0726 31.9872 29.0171 31.8273 29.0178 31.6475C29.0186 31.4306 29.032 31.2144 29.0577 31H21H19.9889C20 31.1446 20 31.3102 20 31.4996C20 34.5372 17.5376 36.9996 14.5 36.9996C11.4624 36.9996 9 34.5372 9 31.4996C9 31.3102 9 31.1446 9.0111 31H5.44444C5.19898 31 5 30.801 5 30.5556C5 25.2782 8.5 23 12.5556 23H22.2C22.6418 23 23 23.3582 23 23.8V25H29.8333L30.8979 18.6126C29.8185 18.0559 29.066 16.9542 29.0041 15.6714C28.9827 15.669 28.9612 15.666 28.9396 15.6622L25.9849 15.1429C25.441 15.0473 25.0775 14.5289 25.1731 13.9849C25.2687 13.441 25.7871 13.0775 26.3311 13.1731L29.2858 13.6924C29.3505 13.7037 29.4127 13.7211 29.4718 13.7438ZM9 20C9 18.3431 10.3431 17 12 17H21C22.6569 17 24 18.3431 24 20C24 20.5523 23.5523 21 23 21H10C9.44772 21 9 20.5523 9 20ZM16.95 31H12.05C12.0172 31.1616 12 31.3288 12 31.5C12 32.8807 13.1193 34 14.5 34C15.8807 34 17 32.8807 17 31.5C17 31.3288 16.9828 31.1616 16.95 31ZM37.1472 31.2242L32.1237 32.11C32.3492 33.2878 33.3849 34.1779 34.6285 34.1779C36.0371 34.1779 37.1789 33.036 37.1789 31.6275C37.1789 31.4902 37.1681 31.3555 37.1472 31.2242Z" fill="#333333"/>
</svg>
