<svg width="48" height="48" viewBox="0 0 48 48" fill="none" xmlns="http://www.w3.org/2000/svg">
<path fill-rule="evenodd" clip-rule="evenodd" d="M13 30L13 18L15 18L15 30L13 30Z" fill="#333333"/>
<path d="M13.1339 10.5C13.5188 9.83333 14.4811 9.83333 14.866 10.5L19.1961 18C19.581 18.6667 19.0999 19.5 18.3301 19.5H9.66983C8.90003 19.5 8.4189 18.6667 8.8038 18L13.1339 10.5Z" fill="#333333"/>
<path fill-rule="evenodd" clip-rule="evenodd" d="M14 13L11.4019 17.5H16.598L14 13ZM14.866 10.5C14.4811 9.83333 13.5188 9.83333 13.1339 10.5L8.8038 18C8.4189 18.6667 8.90003 19.5 9.66983 19.5H18.3301C19.0999 19.5 19.581 18.6667 19.1961 18L14.866 10.5Z" fill="#333333"/>
<path fill-rule="evenodd" clip-rule="evenodd" d="M23 29.7786L23 27.9999L23 21.7882L23 9.38107C23 6.4224 25.2386 4.02393 28 4.02393C30.7614 4.02393 33 6.4224 33 9.38107L33 21.7882L33 28.0005L33 29.7786C34.8289 31.2447 36 33.4975 36 36.0239C36 40.4422 32.4183 44.0239 28 44.0239C23.5817 44.0239 20 40.4422 20 36.0239C20 33.4975 21.1711 31.2447 23 29.7786ZM26.9824 21.4451C28.1778 21.7552 29.5429 22.1093 31 22.0849L31 19.9999L29 19.9999C28.4477 19.9999 28 19.5522 28 18.9999C28 18.4476 28.4477 17.9999 29 17.9999L31 17.9999L31 15.9999L29 15.9999C28.4477 15.9999 28 15.5522 28 14.9999C28 14.4476 28.4477 13.9999 29 13.9999L31 13.9999L31 11.9999L29 11.9999C28.4477 11.9999 28 11.5522 28 10.9999C28 10.4476 28.4477 9.99988 29 9.99988L31 9.99988L31 9.38107C31 7.60587 29.6569 6.16678 28 6.16678C26.3431 6.16678 25 7.60587 25 9.38107L25 21.0225C25.5858 21.0829 26.2524 21.2558 26.9824 21.4451Z" fill="#333333"/>
</svg>
