<svg width="48" height="48" viewBox="0 0 48 48" fill="none" xmlns="http://www.w3.org/2000/svg">
<path fill-rule="evenodd" clip-rule="evenodd" d="M20.1604 12.6419C20.1604 12.6419 9.00001 12.6419 9.00001 16.8683C9.00001 16.9413 9.00018 17.0141 9.00053 17.0866L7.37002 17.4489C5.39982 17.8868 4.06441 19.7237 4.25576 21.7329L4.82916 27.7536C4.9725 29.2587 5.95223 30.5544 7.36135 31.1024L14.5532 33.8992C18.6505 38 23.5161 38 23.5161 38H24.4839C24.4839 38 29.2777 38 33.3556 33.9897C33.5139 34.013 33.6801 33.9984 33.8411 33.94L40.5947 31.4894C42.0577 30.9585 43.0799 29.6273 43.2151 28.0768L43.7722 21.6895C43.944 19.7203 42.6516 17.9209 40.7306 17.4548L38.9997 17.0348C38.9999 16.9794 39 16.9239 39 16.8683C39 12.6419 28.0144 12.6415 28.0144 12.6415L27.1138 11.0261C26.7607 10.3926 26.0923 10 25.367 10H22.8079C22.0826 10 21.4141 10.3927 21.061 11.0263L20.1604 12.6419ZM38.9444 19.0794C38.6635 24.5285 37.3449 28.4082 35.6098 31.1706L39.9125 29.6093C40.644 29.3439 41.1551 28.6783 41.2227 27.9031L41.7798 21.5158C41.8657 20.5311 41.2195 19.6314 40.259 19.3984L38.9444 19.0794ZM7.80388 19.4013L9.05786 19.1226C9.33201 24.3299 10.555 28.1007 12.1826 30.8314L8.08625 29.2384C7.38169 28.9644 6.89182 28.3165 6.82015 27.564L6.24675 21.5433C6.15108 20.5387 6.81878 19.6202 7.80388 19.4013ZM24.2425 18.5299L24 18.4692L23.7575 18.5299L17.7575 20.0299C17.2217 20.1638 16.8959 20.7067 17.0299 21.2425C17.1638 21.7783 17.7067 22.1041 18.2425 21.9701L24 20.5308L29.7575 21.9701C30.2933 22.1041 30.8362 21.7783 30.9701 21.2425C31.1041 20.7067 30.7783 20.1638 30.2425 20.0299L24.2425 18.5299Z" fill="#333333"/>
</svg>
