<svg width="48" height="48" viewBox="0 0 48 48" fill="none" xmlns="http://www.w3.org/2000/svg">
<path d="M9.27321 12.7672L8.56609 13.4743L7.74739 14.2931C7.68605 14.3544 7.58661 14.3544 7.52526 14.2931C7.46391 14.2317 7.46391 14.1322 7.52526 14.0708L14.0707 7.52526L13.3636 6.81816L14.0707 7.52525C14.132 7.46391 14.2315 7.46391 14.2928 7.52526C14.3542 7.58661 14.3542 7.6861 14.2928 7.74746L13.4752 8.56513L12.7681 9.27223L12.061 9.97936L9.98029 12.0601L9.27321 12.7672ZM14.0707 18.979L14.7778 18.2719L15.4849 17.5647L17.5656 15.484L18.2726 14.7769L18.9797 14.0698L22.2525 10.797C22.3138 10.7356 22.4133 10.7356 22.4746 10.797C22.536 10.8583 22.536 10.9578 22.4746 11.0192L20.8379 12.6559L20.1308 13.363L19.4237 14.0701L14.0703 19.4237L13.3632 20.1308L12.6561 20.8379L11.0201 22.474C10.9588 22.5353 10.8593 22.5353 10.798 22.474C10.7366 22.4126 10.7366 22.3131 10.798 22.2518L14.0707 18.979ZM21.8601 28.6281L19.2452 26.0131L19.3818 25.8766L18.4747 25.1827C18.3393 25.0791 18.2079 24.9671 18.0812 24.8467C18.2915 25.0465 18.5161 25.224 18.7518 25.3789L19.4323 25.8261L20.008 25.2503L25.2502 20.0079L25.826 19.4322L25.3789 18.7517C25.2255 18.5183 25.0499 18.2958 24.8525 18.0873C24.9707 18.2121 25.0807 18.3414 25.1826 18.4746L25.8765 19.3817L26.0128 19.2454L34.7473 27.98C36.1338 29.3665 36.4931 31.3939 35.8193 33.1133L35.5805 33.7225L36.0432 34.1852L37.2017 35.3438C37.5447 35.6868 37.6598 36.1728 37.5421 36.614L37.3935 37.1711L37.8012 37.5789L40.4747 40.2525C40.5361 40.3138 40.5361 40.4133 40.4747 40.4747C40.4134 40.536 40.3139 40.536 40.2526 40.4747L37.5795 37.8015L37.1715 37.3935L36.6141 37.5425C36.1727 37.6606 35.6864 37.5456 35.3433 37.2024L34.1847 36.0438L33.722 35.5811L33.1127 35.8199C31.4781 36.4604 29.5652 36.1672 28.1892 34.9453L30.749 32.3855C31.5913 31.5431 31.5913 30.1773 30.749 29.3349L30.0419 30.042L30.749 29.3349C29.9066 28.4925 28.5408 28.4925 27.6984 29.3349L25.1327 31.9007L24.9107 31.6787L27.4765 29.1128C28.3189 28.2704 28.3189 26.9046 27.4765 26.0622C26.6341 25.2198 25.2683 25.2198 24.4259 26.0622L21.8601 28.6281Z" fill="#333333" stroke="#333333" stroke-width="2"/>
</svg>
