<svg width="48" height="48" viewBox="0 0 48 48" fill="none" xmlns="http://www.w3.org/2000/svg">
<path fill-rule="evenodd" clip-rule="evenodd" d="M18.9829 29.7391L18.9814 27.9605L18.9763 21.7488L18.9662 9.34162C18.9638 6.38295 21.2004 3.98265 23.9618 3.98039C26.7232 3.97812 28.9638 6.37477 28.9662 9.33343L28.9763 21.7406L28.9814 27.9528L28.9829 29.7309C30.813 31.1955 31.9859 33.4474 31.988 35.9738C31.9916 40.3921 28.4128 43.9768 23.9945 43.9804C19.5763 43.984 15.9916 40.4052 15.988 35.9869C15.9859 33.4605 17.1552 31.2067 18.9829 29.7391ZM22.9584 21.4024C24.1541 21.7115 25.5195 22.0645 26.9766 22.0389L26.9749 19.9539L24.9749 19.9555C24.4226 19.956 23.9745 19.5086 23.9741 18.9563C23.9736 18.404 24.421 17.956 24.9732 17.9555L26.9732 17.9539L26.9716 15.9539L24.9716 15.9555C24.4193 15.956 23.9712 15.5086 23.9708 14.9563C23.9703 14.4041 24.4177 13.956 24.97 13.9555L26.97 13.9539L26.9683 11.9539L24.9683 11.9555C24.416 11.956 23.968 11.5086 23.9675 10.9563C23.9671 10.4041 24.4144 9.95597 24.9667 9.95552L26.9667 9.95388L26.9662 9.33507C26.9647 7.55987 25.6204 6.12189 23.9635 6.12324C22.3067 6.1246 20.9647 7.56478 20.9662 9.33998L20.9757 20.9814C21.5615 21.0413 22.2283 21.2137 22.9584 21.4024Z" fill="#333333"/>
</svg>
