<svg width="48" height="48" viewBox="0 0 48 48" fill="none" xmlns="http://www.w3.org/2000/svg">
<path fill-rule="evenodd" clip-rule="evenodd" d="M4.49756 16.1516C3.39299 16.1516 2.49756 17.047 2.49756 18.1516V30.1516C2.49756 31.2562 3.39299 32.1516 4.49756 32.1516H43.5024C44.607 32.1516 45.5024 31.2562 45.5024 30.1516V18.1516C45.5024 17.047 44.607 16.1516 43.5024 16.1516H4.49756ZM42 24.1536C42 23.049 41.1045 22.1536 40 22.1536C38.8954 22.1536 38 23.049 38 24.1536C38 25.2581 38.8954 26.1536 40 26.1536C41.1045 26.1536 42 25.2581 42 24.1536ZM36 23.2747C36.5523 23.2747 37 23.7224 37 24.2747C37 24.8269 36.5523 25.2747 36 25.2747C35.4477 25.2747 35 24.8269 35 24.2747C35 23.7224 35.4477 23.2747 36 23.2747ZM13.0296 22.1536L18.8036 22.1536V26.1536L13.0296 26.1536V22.1536ZM11.0296 22.1536L9.99997 22.1536C8.8954 22.1536 7.99997 23.049 7.99997 24.1536C7.99997 25.2581 8.8954 26.1536 9.99997 26.1536L11.0296 26.1536V22.1536ZM29.5523 26.1536L20.8036 26.1536V22.1536L29.5523 22.1536C30.6569 22.1536 31.5523 23.049 31.5523 24.1536C31.5523 25.2581 30.6569 26.1536 29.5523 26.1536ZM9.99997 28.1536C7.79083 28.1536 5.99997 26.3627 5.99997 24.1536C5.99997 21.9444 7.79083 20.1536 9.99997 20.1536L29.5523 20.1536C31.7615 20.1536 33.5523 21.9444 33.5523 24.1536C33.5523 26.3627 31.7615 28.1536 29.5523 28.1536L9.99997 28.1536Z" fill="#333333"/>
<path d="M9.88688 14.9062C10.9509 14.9062 11.6539 14.5927 12.2524 14.0702C12.3854 13.9562 12.4994 13.7757 12.4994 13.5477C12.4994 13.1772 12.1859 12.8732 11.8154 12.8732C11.6444 12.8732 11.4924 12.9397 11.3784 13.0347C10.9604 13.3672 10.5519 13.5572 9.93438 13.5572C8.79438 13.5572 8.00588 12.6072 8.00588 11.4672V11.4482C8.00588 10.3082 8.81338 9.3772 9.93438 9.3772C10.4569 9.3772 10.8844 9.5482 11.2929 9.8522C11.3974 9.9187 11.5304 9.9947 11.7299 9.9947C12.1289 9.9947 12.4519 9.6812 12.4519 9.2822C12.4519 9.0257 12.3189 8.8167 12.1669 8.7027C11.6159 8.2942 10.9414 8.0282 9.94388 8.0282C7.90138 8.0282 6.47638 9.5767 6.47638 11.4672V11.4862C6.47638 13.3957 7.92988 14.9062 9.88688 14.9062Z" fill="#333333"/>
<path d="M27.337 14.115C27.337 14.5235 27.66 14.8465 28.0685 14.8465C28.477 14.8465 28.8 14.5235 28.8 14.115V12.7945H29.9115C31.403 12.7945 32.6 11.9965 32.6 10.4575V10.4385C32.6 9.07996 31.6405 8.13946 30.054 8.13946H28.0685C27.66 8.13946 27.337 8.46246 27.337 8.87096V14.115ZM28.8 11.493V9.45996H29.9305C30.662 9.45996 31.118 9.81146 31.118 10.467V10.486C31.118 11.056 30.6905 11.493 29.959 11.493H28.8Z" fill="#333333"/>
<path d="M33.6319 14.1245C33.6319 14.5235 33.9549 14.8465 34.3539 14.8465C34.7529 14.8465 35.0759 14.5235 35.0759 14.1245V10.9325H35.6839C36.0164 10.9325 36.2824 10.676 36.2824 10.3435C36.2824 10.011 36.0164 9.75446 35.6839 9.75446H35.0569V9.55496C35.0569 9.17496 35.2469 9.00396 35.5794 9.00396H35.7029C36.0259 9.00396 36.2919 8.72846 36.2919 8.40546C36.2919 8.08246 36.0449 7.86396 35.7979 7.82596C35.6364 7.79746 35.4369 7.78796 35.2089 7.78796C34.6959 7.78796 34.3064 7.92096 34.0404 8.18696C33.7744 8.45296 33.6319 8.86146 33.6319 9.42196V9.74496H33.5749C33.2424 9.74496 32.9764 10.011 32.9764 10.3435C32.9764 10.676 33.2424 10.9325 33.5749 10.9325H33.6319V14.1245Z" fill="#333333"/>
<path d="M14.3869 39.4314C14.3869 39.8399 14.7099 40.1629 15.1184 40.1629C15.5269 40.1629 15.8499 39.8399 15.8499 39.4314V38.1109H16.9614C18.4529 38.1109 19.6499 37.3129 19.6499 35.7739V35.7549C19.6499 34.3964 18.6904 33.4559 17.1039 33.4559H15.1184C14.7099 33.4559 14.3869 33.7789 14.3869 34.1874V39.4314ZM15.8499 36.8094V34.7764H16.9804C17.7119 34.7764 18.1679 35.1279 18.1679 35.7834V35.8024C18.1679 36.3724 17.7404 36.8094 17.0089 36.8094H15.8499Z" fill="#333333"/>
<path d="M23.3904 39.5834L24.9484 35.9829C24.9769 35.9164 25.0244 35.7644 25.0244 35.6409C25.0244 35.2514 24.7109 34.9569 24.3309 34.9569C23.9509 34.9569 23.7514 35.2039 23.6564 35.4509L22.5449 38.4244L21.4524 35.4699C21.3479 35.1754 21.1389 34.9569 20.7494 34.9569C20.3599 34.9569 20.0464 35.2894 20.0464 35.6314C20.0464 35.7644 20.0844 35.8879 20.1224 35.9829L21.6804 39.5834C21.8419 39.9634 22.1079 40.2104 22.4974 40.2104H22.5734C22.9629 40.2104 23.2289 39.9539 23.3904 39.5834Z" fill="#333333"/>
</svg>
