<svg width="48" height="48" viewBox="0 0 48 48" fill="none" xmlns="http://www.w3.org/2000/svg">
<path fill-rule="evenodd" clip-rule="evenodd" d="M48 0H0V48H48V0ZM24.9159 12.0593C24.9714 11.876 25 11.6894 25 11.5C25 9.01472 20.0751 7 14 7C7.92487 7 3 9.01472 3 11.5C3 11.6908 3.02904 11.8789 3.0854 12.0635C3.02856 12.0225 3 12 3 12V34C3 34 6.47368 37 14 37C15.9634 37 17.651 36.7958 19.0731 36.494C19.1099 36.6806 19.1652 36.916 19.2478 37.1859C19.4478 37.8388 19.8121 38.7078 20.4726 39.5782C21.8272 41.3632 24.3102 43 28.7031 43C31.331 43 33.3307 42.2238 34.7793 40.7537C36.1985 39.3134 36.9793 37.3163 37.4203 35.0818C37.8624 32.8418 37.9831 30.2549 37.9983 27.536C38.0062 26.1199 37.9842 24.5938 37.962 23.0485V23.0483V23.048V23.0478V23.0476V23.0474V23.0472V23.047V23.0468V23.0467V23.0465L37.958 22.7691C39.7045 21.9106 41 18.7579 41 15C41 10.5817 39.2091 7 37 7C34.7909 7 33 10.5817 33 15C33 18.6966 34.2536 21.8076 35.9569 22.7253L35.9628 23.1204V23.1207V23.1209V23.1212V23.1215V23.1217V23.122L35.9628 23.1229V23.1233V23.1236V23.124V23.1243V23.1246V23.1249V23.1252V23.1255V23.1258C35.9849 24.6187 36.0065 26.0722 35.9983 27.5248C35.9833 30.2155 35.8622 32.6473 35.4582 34.6945C35.053 36.7473 34.3833 38.3061 33.3547 39.3499C32.3556 40.3639 30.9103 41 28.7031 41C24.8765 41 23.0078 39.6105 22.0658 38.3692C21.578 37.7264 21.3077 37.0822 21.1602 36.6003C21.0866 36.3602 21.0446 36.1638 21.0216 36.0333C21.0182 36.014 21.0152 35.9963 21.0126 35.9801C23.7143 35.1104 25 34 25 34V31.9381C28.9463 31.446 32 28.0796 32 24C32 19.9204 28.9463 16.554 25 16.0619V12C25 12 24.9717 12.0209 24.9159 12.0593ZM16 24C16 19.9204 19.0537 16.554 23 16.0619V15.2957C22.9492 15.3164 22.8978 15.3371 22.8458 15.3578C20.7672 16.1864 17.7658 17 14 17C13.6599 17 13.3266 16.9938 13 16.9818V34.9806C13.3237 34.9933 13.657 35 14 35C17.4896 35 19.9799 34.306 21.5565 33.6525C22.1712 33.3976 22.651 33.1473 23 32.9432V31.9381C19.0537 31.446 16 28.0796 16 24ZM22 12C22 13.6569 18.4183 15 14 15C9.58172 15 6 13.6569 6 12C6 10.3431 9.58172 9 14 9C18.4183 9 22 10.3431 22 12ZM24 26C25.1046 26 26 25.1046 26 24C26 23.2597 25.5978 22.6134 25 22.2676V19C25 18.4477 24.5523 18 24 18C23.4477 18 23 18.4477 23 19V22.2676C22.4022 22.6134 22 23.2597 22 24C22 25.1046 22.8954 26 24 26Z" fill="#333333"/>
</svg>
