<svg width="48" height="48" viewBox="0 0 48 48" fill="none" xmlns="http://www.w3.org/2000/svg">
<path fill-rule="evenodd" clip-rule="evenodd" d="M0 0H48V48H0V0ZM11.1227 12.2188C11.1227 11.5457 11.6684 11 12.3415 11C13.0146 11 13.5602 11.5457 13.5602 12.2188V15.3889L16.3058 13.8037C16.8887 13.4672 17.6341 13.6669 17.9706 14.2498C18.3072 14.8327 18.1075 15.5781 17.5246 15.9147L14.779 17.4998L17.5246 19.085C18.1075 19.4215 18.3072 20.1669 17.9706 20.7498C17.6341 21.3327 16.8887 21.5325 16.3058 21.1959L13.5602 19.6108V22.7812C13.5602 23.4543 13.0146 24 12.3415 24C11.6684 24 11.1227 23.4543 11.1227 22.7812V19.6108L8.37716 21.1959C7.79424 21.5325 7.04886 21.3327 6.71231 20.7498C6.37576 20.1669 6.57549 19.4215 7.15841 19.085L9.90398 17.4998L7.15841 15.9147C6.57549 15.5781 6.37576 14.8327 6.71231 14.2498C7.04886 13.6669 7.79424 13.4672 8.37716 13.8037L11.1227 15.3889V12.2188ZM23 27.9999V29.7786C21.1711 31.2447 20 33.4975 20 36.0239C20 40.4422 23.5817 44.0239 28 44.0239C32.4183 44.0239 36 40.4422 36 36.0239C36 33.4975 34.8289 31.2447 33 29.7786V28.0005V21.7882V9.38107C33 6.4224 30.7614 4.02393 28 4.02393C25.2386 4.02393 23 6.4224 23 9.38107V21.7882V27.9999ZM31 22.0849C29.5429 22.1093 28.1778 21.7552 26.9824 21.4451C26.2524 21.2558 25.5858 21.0829 25 21.0225V9.38107C25 7.60587 26.3431 6.16678 28 6.16678C29.6569 6.16678 31 7.60587 31 9.38107V9.99988H29C28.4477 9.99988 28 10.4476 28 10.9999C28 11.5522 28.4477 11.9999 29 11.9999H31V13.9999H29C28.4477 13.9999 28 14.4476 28 14.9999C28 15.5522 28.4477 15.9999 29 15.9999H31V17.9999H29C28.4477 17.9999 28 18.4476 28 18.9999C28 19.5522 28.4477 19.9999 29 19.9999H31V22.0849Z" fill="#333333"/>
</svg>
