<svg width="48" height="48" viewBox="0 0 48 48" fill="none" xmlns="http://www.w3.org/2000/svg">
<path fill-rule="evenodd" clip-rule="evenodd" d="M48 0H0V48H48V0ZM18.4647 12H16V7.33446C16 6.51335 16.5019 5.77566 17.2656 5.47416L20.2922 4.2794C20.7599 4.09479 21.2582 4 21.7609 4H26.2391C26.7418 4 27.2401 4.09479 27.7078 4.2794L30.7344 5.47416C31.4981 5.77566 32 6.51335 32 7.33446V12H29.5353L28.5311 13.5063L32.7556 15.0905C34.7071 15.8223 36 17.6879 36 19.7721V38.0001C36 40.7615 33.7614 43.0001 31 43.0001H17C14.2386 43.0001 12 40.7615 12 38.0001V19.7721C12 17.6879 13.2929 15.8223 15.2444 15.0905L19.4689 13.5063L18.4647 12ZM20.8684 12L21.133 12.3969C21.8476 13.4687 21.3773 14.9266 20.1712 15.3789L15.9466 16.9631C14.7757 17.4022 14 18.5216 14 19.7721V38.0001C14 39.657 15.3431 41.0001 17 41.0001H31C32.6569 41.0001 34 39.657 34 38.0001V19.7721C34 18.5216 33.2243 17.4022 32.0534 16.9631L27.8288 15.3789C26.6227 14.9266 26.1524 13.4687 26.867 12.3969L27.1316 12H20.8684ZM24 35C25.5723 35 27.0236 34.4816 28.1922 33.6064L18.3936 23.8078C17.5184 24.9764 17 26.4277 17 28C17 31.866 20.134 35 24 35ZM19.8078 22.3936L29.6064 32.1922C30.4816 31.0236 31 29.5723 31 28C31 24.134 27.866 21 24 21C22.4277 21 20.9764 21.5184 19.8078 22.3936ZM24 37C28.9706 37 33 32.9706 33 28C33 23.0294 28.9706 19 24 19C19.0294 19 15 23.0294 15 28C15 32.9706 19.0294 37 24 37ZM26.1516 27.3972C26.1825 27.612 26.1688 27.814 26.1198 27.9985L25.0777 26.9564L25.0173 26.5368C24.5838 25.8415 24.7751 24.7955 25.5185 24.0521C26.3571 23.2135 27.5808 23.0776 28.2517 23.7485C28.9226 24.4193 28.7866 25.6431 27.948 26.4817C27.4151 27.0146 26.7267 27.2637 26.1235 27.2025L26.1516 27.3972ZM21.901 29.3693C21.79 28.926 21.8792 28.5233 22.087 28.2083L22.8563 28.9776C22.8537 29.0251 22.8582 29.0749 22.8711 29.1264L22.9817 29.5684C23.2874 30.7895 21.8735 31.7051 20.8844 30.9267C20.6498 30.7422 20.3125 30.9504 20.3723 31.2428L20.4695 31.7177L19.4898 31.9181L19.3926 31.4432C19.1461 30.2382 20.5361 29.3802 21.5027 30.1409C21.7428 30.3297 22.0858 30.1076 22.0117 29.8113L21.901 29.3693ZM20 10V7H22V10H20ZM23 7V10H25V7H23ZM26 10V7H28V10H26Z" fill="#333333"/>
</svg>
