<svg width="48" height="48" viewBox="0 0 48 48" fill="none" xmlns="http://www.w3.org/2000/svg">
<path fill-rule="evenodd" clip-rule="evenodd" d="M48 0H0V48H48V0ZM12 4C7.58172 4 4 7.58172 4 12V36C4 40.4183 7.58172 44 12 44H36C40.4183 44 44 40.4183 44 36V12C44 7.58172 40.4183 4 36 4H12ZM17 15H31C32.1046 15 33 15.8954 33 17V31C33 32.1046 32.1046 33 31 33H17C15.8954 33 15 32.1046 15 31V17C15 15.8954 15.8954 15 17 15ZM13 17C13 14.7909 14.7909 13 17 13H31C33.2091 13 35 14.7909 35 17V31C35 33.2091 33.2091 35 31 35H17C14.7909 35 13 33.2091 13 31V17ZM21 18C21 18.5523 20.5523 19 20 19C19.4477 19 19 18.5523 19 18C19 17.4477 19.4477 17 20 17C20.5523 17 21 17.4477 21 18ZM22 22C22.5523 22 23 21.5523 23 21C23 20.4477 22.5523 20 22 20C21.4477 20 21 20.4477 21 21C21 21.5523 21.4477 22 22 22ZM19 21C19 21.5523 18.5523 22 18 22C17.4477 22 17 21.5523 17 21C17 20.4477 17.4477 20 18 20C18.5523 20 19 20.4477 19 21ZM20 25C20.5523 25 21 24.5523 21 24C21 23.4477 20.5523 23 20 23C19.4477 23 19 23.4477 19 24C19 24.5523 19.4477 25 20 25ZM23 27C23 27.5523 22.5523 28 22 28C21.4477 28 21 27.5523 21 27C21 26.4477 21.4477 26 22 26C22.5523 26 23 26.4477 23 27ZM18 28C18.5523 28 19 27.5523 19 27C19 26.4477 18.5523 26 18 26C17.4477 26 17 26.4477 17 27C17 27.5523 17.4477 28 18 28ZM21 30C21 30.5523 20.5523 31 20 31C19.4477 31 19 30.5523 19 30C19 29.4477 19.4477 29 20 29C20.5523 29 21 29.4477 21 30ZM24 19C24.5523 19 25 18.5523 25 18C25 17.4477 24.5523 17 24 17C23.4477 17 23 17.4477 23 18C23 18.5523 23.4477 19 24 19ZM27 21C27 21.5523 26.5523 22 26 22C25.4477 22 25 21.5523 25 21C25 20.4477 25.4477 20 26 20C26.5523 20 27 20.4477 27 21ZM24 25C24.5523 25 25 24.5523 25 24C25 23.4477 24.5523 23 24 23C23.4477 23 23 23.4477 23 24C23 24.5523 23.4477 25 24 25ZM27 27C27 27.5523 26.5523 28 26 28C25.4477 28 25 27.5523 25 27C25 26.4477 25.4477 26 26 26C26.5523 26 27 26.4477 27 27ZM24 31C24.5523 31 25 30.5523 25 30C25 29.4477 24.5523 29 24 29C23.4477 29 23 29.4477 23 30C23 30.5523 23.4477 31 24 31ZM29 18C29 18.5523 28.5523 19 28 19C27.4477 19 27 18.5523 27 18C27 17.4477 27.4477 17 28 17C28.5523 17 29 17.4477 29 18ZM30 22C30.5523 22 31 21.5523 31 21C31 20.4477 30.5523 20 30 20C29.4477 20 29 20.4477 29 21C29 21.5523 29.4477 22 30 22ZM29 24C29 24.5523 28.5523 25 28 25C27.4477 25 27 24.5523 27 24C27 23.4477 27.4477 23 28 23C28.5523 23 29 23.4477 29 24ZM30 28C30.5523 28 31 27.5523 31 27C31 26.4477 30.5523 26 30 26C29.4477 26 29 26.4477 29 27C29 27.5523 29.4477 28 30 28ZM29 30C29 30.5523 28.5523 31 28 31C27.4477 31 27 30.5523 27 30C27 29.4477 27.4477 29 28 29C28.5523 29 29 29.4477 29 30Z" fill="#333333"/>
</svg>
