<svg width="48" height="48" viewBox="0 0 48 48" fill="none" xmlns="http://www.w3.org/2000/svg">
<path fill-rule="evenodd" clip-rule="evenodd" d="M0 0H48V48H0V0ZM24 39C25.1046 39 26 38.1046 26 37C26 35.8954 25.1046 35 24 35C22.8954 35 22 35.8954 22 37C22 38.1046 22.8954 39 24 39ZM24 42C26.7614 42 29 39.7614 29 37C29 34.9343 27.7473 33.1612 25.9602 32.3989C25.9863 32.27 26 32.1366 26 32V27.8646L22 30.3451V32C22 32.1366 22.0137 32.27 22.0398 32.3989C20.2527 33.1612 19 34.9343 19 37C19 39.7614 21.2386 42 24 42ZM24 6H28L30 10H26V15.5113L22 17.9918V10H18L20 6H24ZM32 6H30.2361L32.2361 10H34L32 6ZM34.2361 6H40C41.1046 6 42 6.89543 42 8C42 9.10457 41.1046 10 40 10H36.2361L34.2361 6ZM17.7639 6H16L14 10H15.7639L17.7639 6ZM22 20.3451V22.9918L26 20.5113V17.8646L22 20.3451ZM26 22.8646V25.5113L22 27.9918V25.3451L26 22.8646ZM8 6H13.7639L11.7639 10H8C6.89543 10 6 9.10457 6 8C6 6.89543 6.89543 6 8 6Z" fill="#333333"/>
</svg>
