<svg width="48" height="48" viewBox="0 0 48 48" fill="none" xmlns="http://www.w3.org/2000/svg">
<path fill-rule="evenodd" clip-rule="evenodd" d="M48 0H0V48H48V0ZM29 7C29 5.89543 29.8954 5 31 5H38C39.1046 5 40 5.89543 40 7V11H39V14.3431C39 15.1388 39.3161 15.9019 39.8787 16.4645L41.5355 18.1213C42.4732 19.059 43 20.3308 43 21.6569V37C43 39.7614 40.7614 42 38 42H31C28.2386 42 26 39.7614 26 37V21.6569C26 20.3308 26.5268 19.059 27.4645 18.1213L29.1213 16.4645C29.6839 15.9019 30 15.1388 30 14.3431V11H29V7ZM32 11H37V14.3431C37 15.6692 37.5268 16.941 38.4645 17.8787L40.1213 19.5355C40.6839 20.0981 41 20.8612 41 21.6569V37C41 38.6569 39.6569 40 38 40H31C29.3431 40 28 38.6569 28 37V21.6569C28 20.8612 28.3161 20.0981 28.8787 19.5355L30.5355 17.8787C31.4732 16.941 32 15.6692 32 14.3431V11ZM34.5 21C34.7761 21 35 21.2239 35 21.5V24.2276C35.2805 24.492 35.5228 24.9726 35.6985 25.5944L36.5 24.7929V23.5C36.5 23.3674 36.5527 23.2402 36.6465 23.1464L38.1465 21.6464C38.3417 21.4512 38.6583 21.4512 38.8536 21.6464C39.0488 21.8417 39.0488 22.1583 38.8536 22.3536L37.5 23.7071V25C37.5 25.1326 37.4473 25.2598 37.3536 25.3536L36.4557 26.2514L39.9639 26.8571C40.1098 27.5502 39.8876 28.9157 37.8958 28.9963L38.7774 29.584C38.9532 29.7012 39.0363 29.9163 38.9851 30.1213L38.5705 31.7794L39.7774 32.584C40.0071 32.7372 40.0692 33.0476 39.916 33.2774C39.7629 33.5071 39.4524 33.5692 39.2227 33.416L37.7227 32.416C37.5468 32.2988 37.4637 32.0837 37.5149 31.8787L37.9295 30.2206L37.4952 29.9311C37.5057 30.006 37.4992 30.0836 37.4743 30.1581L36.5398 32.9616L37.9472 35.7764C38.0707 36.0234 37.9706 36.3237 37.7236 36.4472C37.4766 36.5707 37.1763 36.4706 37.0528 36.2236L35.5528 33.2236C35.4935 33.105 35.4837 32.9677 35.5257 32.8419L36.4279 30.135L35.8777 29.5848C35.6475 31.0056 35.1173 32 34.5 32C33.8827 32 33.3525 31.0056 33.1223 29.5848L32.5721 30.135L33.4743 32.8419C33.5163 32.9677 33.5065 33.105 33.4472 33.2236L31.9472 36.2236C31.8237 36.4706 31.5234 36.5707 31.2764 36.4472C31.0294 36.3237 30.9293 36.0234 31.0528 35.7764L32.4602 32.9616L31.5257 30.1581C31.5008 30.0836 31.4943 30.006 31.5048 29.9311L31.0705 30.2206L31.4851 31.8787C31.5363 32.0837 31.4532 32.2988 31.2774 32.416L29.7774 33.416C29.5476 33.5692 29.2372 33.5071 29.084 33.2774C28.9308 33.0476 28.9929 32.7372 29.2227 32.584L30.4295 31.7794L30.0149 30.1213C29.9637 29.9163 30.0468 29.7012 30.2227 29.584L31.1042 28.9963C29.1124 28.9156 28.8902 27.5502 29.0361 26.8571L32.5443 26.2514L31.6465 25.3536C31.5527 25.2598 31.5 25.1326 31.5 25V23.7071L30.1465 22.3536C29.9512 22.1583 29.9512 21.8417 30.1465 21.6464C30.3417 21.4512 30.6583 21.4512 30.8536 21.6464L32.3536 23.1464C32.4473 23.2402 32.5 23.3674 32.5 23.5V24.7929L33.3015 25.5944C33.4773 24.9726 33.7195 24.492 34 24.2276V21.5C34 21.2239 34.2239 21 34.5 21ZM7 12H6V6H22V12H21V13.2929C21 14.0109 20.7148 14.6994 20.2071 15.2071C20.0745 15.3397 20 15.5196 20 15.7071V31.2929C20 31.4804 20.0745 31.6603 20.2071 31.7929C20.7148 32.3006 21 32.9891 21 33.7071V35H22V41H20.8571H7.14286H6V35H7V33.7071C7 32.9891 7.28521 32.3006 7.79289 31.7929C7.9255 31.6603 8 31.4804 8 31.2929V15.7071C8 15.5196 7.9255 15.3397 7.79289 15.2071C7.28521 14.6994 7 14.0109 7 13.2929V12ZM19 33.7071V35H18V37C18 37.5523 17.5523 38 17 38C16.4477 38 16 37.5523 16 37V35H15V37C15 37.5523 14.5523 38 14 38C13.4477 38 13 37.5523 13 37V35H12V37C12 37.5523 11.5523 38 11 38C10.4477 38 10 37.5523 10 37V35H9V33.7071C9 33.5196 9.0745 33.3397 9.20711 33.2071C9.71479 32.6994 10 32.0109 10 31.2929V15.7071C10 14.9891 9.71479 14.3006 9.20711 13.7929C9.0745 13.6603 9 13.4804 9 13.2929V12H10V10C10 9.44772 10.4477 9 11 9C11.5523 9 12 9.44772 12 10V12H13V10C13 9.44772 13.4477 9 14 9C14.5523 9 15 9.44772 15 10V12H16V10C16 9.44772 16.4477 9 17 9C17.5523 9 18 9.44772 18 10V12H19V13.2929C19 13.4804 18.9255 13.6603 18.7929 13.7929C18.2852 14.3006 18 14.9891 18 15.7071V31.2929C18 32.0109 18.2852 32.6994 18.7929 33.2071C18.9255 33.3397 19 33.5196 19 33.7071Z" fill="#333333"/>
</svg>
