<svg width="48" height="48" viewBox="0 0 48 48" fill="none" xmlns="http://www.w3.org/2000/svg">
<path fill-rule="evenodd" clip-rule="evenodd" d="M48 0H0V48H48V0ZM18.3301 19.5H15L15 30H13L13 19.5H9.66987C8.90007 19.5 8.41895 18.6667 8.80385 18L13.134 10.5C13.5189 9.83333 14.4811 9.83333 14.866 10.5L19.1962 18C19.5811 18.6667 19.0999 19.5 18.3301 19.5ZM23 27.9999V29.7786C21.1711 31.2447 20 33.4975 20 36.0239C20 40.4422 23.5817 44.0239 28 44.0239C32.4183 44.0239 36 40.4422 36 36.0239C36 33.4975 34.8289 31.2447 33 29.7786V28.0005V21.7882V9.38107C33 6.4224 30.7614 4.02393 28 4.02393C25.2386 4.02393 23 6.4224 23 9.38107V21.7882V27.9999ZM31 22.0849C29.5429 22.1093 28.1778 21.7552 26.9824 21.4451C26.2524 21.2558 25.5858 21.0829 25 21.0225V9.38107C25 7.60587 26.3431 6.16678 28 6.16678C29.6569 6.16678 31 7.60587 31 9.38107V9.99988H29C28.4477 9.99988 28 10.4476 28 10.9999C28 11.5522 28.4477 11.9999 29 11.9999H31V13.9999H29C28.4477 13.9999 28 14.4476 28 14.9999C28 15.5522 28.4477 15.9999 29 15.9999H31V17.9999H29C28.4477 17.9999 28 18.4476 28 18.9999C28 19.5522 28.4477 19.9999 29 19.9999H31V22.0849Z" fill="#333333"/>
</svg>
