<svg width="48" height="48" viewBox="0 0 48 48" fill="none" xmlns="http://www.w3.org/2000/svg">
<path fill-rule="evenodd" clip-rule="evenodd" d="M0 0H48V48H0V0ZM9.58534 11.8657C12.8298 7.92666 16.7437 6.80449 21.1655 9.40009L27.3451 14.7557C27.7624 15.1174 28.394 15.0723 28.7557 14.6549C29.1174 14.2376 29.0723 13.606 28.6549 13.2443L25.0566 10.1257C27.7373 8.53788 33.4534 6.08711 37.5808 10.8727C40.4801 14.2345 40.3596 17.7171 39.3536 21.138C37.8914 19.2302 35.5894 18 33 18C28.5817 18 25 21.5817 25 26C25 30.4183 28.5817 34 33 34C33.6948 34 34.3689 33.9114 35.0116 33.745C33.9903 36.9793 33.1461 38.1311 31.2874 39.701C30.0886 40.7135 28.7366 38.9646 27.3138 37.1239C26.0812 35.5293 24.7954 33.8658 23.5098 33.8697C22.203 33.8737 20.8965 35.5398 19.6465 37.1338C18.2048 38.9724 16.8383 40.715 15.6331 39.701C13.1996 37.6532 12.1324 34.8237 11.0169 30.2829C10.8022 29.4087 10.4755 28.3602 10.1153 27.204L10.1153 27.2039C8.60445 22.3544 6.50278 15.6083 9.58534 11.8657ZM35.8273 31.2935C34.9849 31.7443 34.0223 32 33 32C29.6863 32 27 29.3137 27 26C27 22.6863 29.6863 20 33 20C35.4664 20 37.5853 21.4882 38.5075 23.6156C38.8244 24.3465 39 25.1527 39 26C39 28.2914 37.7155 30.2828 35.8273 31.2935ZM32 23C32 22.4477 32.4477 22 33 22C33.5523 22 34 22.4477 34 23V25H36C36.5523 25 37 25.4477 37 26C37 26.5523 36.5523 27 36 27H34V29C34 29.5523 33.5523 30 33 30C32.4477 30 32 29.5523 32 29V27H30C29.4477 27 29 26.5523 29 26C29 25.4477 29.4477 25 30 25H32V23Z" fill="#333333"/>
</svg>
