<svg width="48" height="48" viewBox="0 0 48 48" fill="none" xmlns="http://www.w3.org/2000/svg">
<path fill-rule="evenodd" clip-rule="evenodd" d="M0 0H48V48H0V0ZM23 6L25 4V11H23V6ZM22 19H23V11H21C20.4477 11 20 11.4477 20 12V17H19V19H18C15.7909 19 14 20.7909 14 23V40C14 42.2091 15.7909 44 18 44H30C32.2091 44 34 42.2091 34 40V23C34 20.7909 32.2091 19 30 19H29V17H28V12C28 11.4477 27.5523 11 27 11H25V19H26V21C26 21.5523 25.5523 22 25 22V24H23V22C22.4477 22 22 21.5523 22 21V19ZM28 29C28 31.2091 26.2091 33 24 33C21.7909 33 20 31.2091 20 29C20 26.7909 21.7909 25 24 25C26.2091 25 28 26.7909 28 29ZM23 36V34H25V36H23ZM21 21H18C16.8954 21 16 21.8954 16 23V34V36H18H21V34H18V23H21V21ZM27 23H30V34H27V36H30H32V34V23C32 21.8954 31.1046 21 30 21H27V23Z" fill="#333333"/>
</svg>
