<svg width="48" height="48" viewBox="0 0 48 48" fill="none" xmlns="http://www.w3.org/2000/svg">
<path fill-rule="evenodd" clip-rule="evenodd" d="M0 0H48V48H0V0ZM4 19.6766H8.6C13.0183 19.6766 16.6 23.2583 16.6 27.6766V30.4766H4V19.6766ZM24.25 30.4766C27.9779 30.4766 31 27.4545 31 23.7266C31 19.9986 27.9779 16.9766 24.25 16.9766C20.5221 16.9766 17.5 19.9986 17.5 23.7266C17.5 27.4545 20.5221 30.4766 24.25 30.4766ZM3 33.1836C3 32.6313 3.44772 32.1836 4 32.1836H36.2335C37.7651 29.8954 38.6583 27.1438 38.6583 24.1836C38.6583 16.2307 32.2112 9.78359 24.2583 9.78359C20.6063 9.78359 17.2718 11.1431 14.7334 13.3836H9.85703C13.141 9.01159 18.3694 6.18359 24.2584 6.18359C34.1995 6.18359 42.2584 14.2425 42.2584 24.1836C42.2584 34.1247 34.1995 42.1836 24.2584 42.1836C19.223 42.1836 14.6706 40.116 11.4038 36.7836H17.2815C19.3484 37.9305 21.7271 38.5836 24.2583 38.5836C28.8515 38.5836 32.9423 36.4331 35.579 33.0841L33.6 34.1836H4C3.44772 34.1836 3 33.7359 3 33.1836Z" fill="#333333"/>
</svg>
