<svg width="48" height="48" viewBox="0 0 48 48" fill="none" xmlns="http://www.w3.org/2000/svg">
<path fill-rule="evenodd" clip-rule="evenodd" d="M48 0H0V48H48V0ZM35 6H33V8H34V10V19C34 21.3266 32.6467 23.6533 31.5144 25.1928C30.7 26.3 30 27 30 27C30.7867 27 31.5204 27.2271 32.139 27.6194C32.6846 27.9653 33.1407 28.4397 33.4649 29H34H35V27H40V29H36C39.3137 29 42 31.6863 42 35V37H40H39H37V35C37 34.4477 36.5523 34 36 34H34V38C34 39.4806 33.1956 40.7733 32 41.4649V44H30V42H10V44H8V41.4649C6.8044 40.7733 6 39.4806 6 38V32V31C6 29.5776 6.74247 28.3286 7.86101 27.6194C8.47963 27.2271 9.21329 27 10 27C10 27 9.29997 26.3 8.4856 25.1928C7.35331 23.6533 6 21.3266 6 19V10V8H7V6H5V4H35V6ZM32 33.3466V32V31C32 29.8954 31.1046 29 30 29H25.1716L27 27.1716V23H25V29H23V23H21V29H19V23H17V29H15V23H13V27.1716L14.8284 29H10C8.89543 29 8 29.8954 8 31V33.3469C10.4444 34.5442 12.8889 34.0952 15.3333 32C15.8889 32.4762 16.4444 32.8673 17 33.1735V29H19V33.9082C19.6667 34.0306 20.3333 34.0306 21 33.9082V29H23V33.1735C23.5556 32.8673 24.1111 32.4762 24.6667 32C27.1111 34.096 29.5556 34.5439 32 33.3466ZM34 31V32H36C37.6569 32 39 33.3431 39 35H40C40 32.7909 38.2091 31 36 31H34ZM9 6H31V8H9V6ZM11 23H9.41228C9.49423 23.1316 9.57831 23.2619 9.6641 23.3906C10.1092 24.0583 10.5572 24.6186 10.8935 25.0109C10.9305 25.0541 10.9661 25.0951 11 25.1339V23ZM29 25.1339C29.0339 25.0951 29.0695 25.0541 29.1065 25.0109C29.4428 24.6186 29.8908 24.0583 30.3359 23.3906C30.4217 23.2619 30.5058 23.1316 30.5877 23H29V25.1339ZM8 16H32V10H8V16ZM41 41.1818C41 42.186 40.3284 43 39.5 43C38.6716 43 38 42.186 38 41.1818C38 39.5909 39.5 38 39.5 38C39.5 38 41 39.5909 41 41.1818Z" fill="#333333"/>
</svg>
