<svg width="48" height="48" viewBox="0 0 48 48" fill="none" xmlns="http://www.w3.org/2000/svg">
<path d="M35.7919 24.3106C39.2206 24.3106 41.9999 21.5312 41.9999 18.1026C41.9999 14.674 39.2206 11.8945 35.7919 11.8945C32.3634 11.8945 29.5839 14.674 29.5839 18.1026C29.5839 21.5312 32.3634 24.3106 35.7919 24.3106Z" fill="#333333"/>
<path d="M38.8959 29.8976H36.8421L33.4485 26.4995C32.9087 25.6348 32.1567 24.9226 31.2639 24.4307C30.3709 23.9389 29.3671 23.6837 28.3477 23.6896H21.8246L22.4457 36.1056H28.0326C28.8612 36.1044 29.6811 35.9367 30.4435 35.6122C31.2058 35.2877 31.8952 34.8132 32.4704 34.2168L33.4275 35.1755C33.7204 35.4769 34.0725 35.7142 34.4615 35.8728C34.8507 36.0314 35.2685 36.1076 35.6884 36.0966C35.7244 36.0966 35.7559 36.1056 35.7919 36.1056H38.8959C39.7193 36.1056 40.5087 35.7786 41.0908 35.1965C41.6729 34.6144 42 33.8248 42 33.0016C42 32.1784 41.6729 31.3888 41.0908 30.8067C40.5087 30.2246 39.7193 29.8976 38.8959 29.8976Z" fill="#333333"/>
<path d="M15.8086 26.7935L12.7046 29.8975H9.10402C8.28083 29.8975 7.49125 30.2246 6.90915 30.8067C6.32705 31.3888 6 32.1783 6 33.0015C6 33.8247 6.32705 34.6143 6.90915 35.1964C7.49125 35.7785 8.28083 36.1056 9.10402 36.1056H13.7548C13.7923 36.1056 13.8238 36.1056 13.8598 36.0966C14.2799 36.1072 14.6976 36.0308 15.0866 35.8723C15.4757 35.7138 15.8277 35.4765 16.1207 35.1754L20.1549 31.1397C20.4405 30.8541 20.6672 30.5149 20.8217 30.1416C20.9764 29.7685 21.0559 29.3684 21.0559 28.9644C21.0559 28.5603 20.9764 28.1604 20.8217 27.7871C20.6672 27.4138 20.4405 27.0746 20.1549 26.789C19.8692 26.5033 19.5302 26.2767 19.1569 26.1221C18.7836 25.9675 18.3835 25.8879 17.9795 25.8879C17.5755 25.8879 17.1755 25.9675 16.8023 26.1221C16.429 26.2767 16.0898 26.5033 15.8041 26.789L15.8086 26.7935Z" fill="#333333"/>
</svg>
