<svg width="48" height="48" viewBox="0 0 48 48" fill="none" xmlns="http://www.w3.org/2000/svg">
<path fill-rule="evenodd" clip-rule="evenodd" d="M27.0394 34.2634C26.9946 35.0584 26.5057 38.475 26.4125 39.1223H25.0058V44.0111H36.0058V39.1223H34.5964C35.3314 37.9803 36.1271 37.1746 36.9304 36.3611C37.7995 35.481 38.6776 34.5918 39.497 33.2582C39.703 32.923 39.9116 32.6011 40.1139 32.289L40.114 32.2889C40.8445 31.1619 41.492 30.1629 41.6287 29.1312C41.8033 27.8139 42.0479 19.8971 41.6592 18.6909C41.2704 17.4848 38.9091 16.7678 38.0376 19.4343C37.6076 20.7501 37.4473 22.4499 37.3018 23.9916L37.3018 23.9916C37.1525 25.5743 37.0189 26.9903 36.6254 27.6529C35.8487 28.9608 33.365 32.2022 33.365 32.2022L35.5318 28.1267C35.5318 28.1267 35.8612 27.563 35.7144 26.4785C35.5676 25.394 34.3369 23.8568 33.722 25.0472C33.1071 26.2377 32.0519 27.3013 32.0519 27.3013L28.3102 31.8031C28.3102 31.8031 27.0888 33.3841 27.0394 34.2634ZM20.9768 34.2635C21.0215 35.0585 21.5104 38.4751 21.6036 39.1223H23.0103V44.0112H12.0103V39.1223H13.4197C12.6848 37.9804 11.889 37.1747 11.0858 36.3612C10.2166 35.4811 9.33855 34.5919 8.51908 33.2583C8.31312 32.9231 8.10445 32.6011 7.90215 32.289L7.90214 32.289C7.17161 31.1619 6.52413 30.163 6.38742 29.1313C6.21284 27.814 5.96824 19.8972 6.35696 18.691C6.74567 17.4849 9.10701 16.7679 9.97849 19.4344C10.4085 20.7502 10.5689 22.45 10.7143 23.9917L10.7143 23.9917C10.8636 25.5744 10.9972 26.9904 11.3907 27.6529C12.1674 28.9609 14.6511 32.2023 14.6511 32.2023L12.4844 28.1268C12.4844 28.1268 12.1549 27.5631 12.3017 26.4786C12.4485 25.3941 13.6792 23.8569 14.2941 25.0473C14.909 26.2378 15.9642 27.3014 15.9642 27.3014L19.706 31.8032C19.706 31.8032 20.9273 33.3842 20.9768 34.2635Z" fill="#333333"/>
<path d="M31.7288 11C33.9379 11 35.7288 9.20918 35.7288 7C35.7288 4.79091 33.9379 3 31.7288 3C29.5197 3 27.7288 4.79091 27.7288 7C27.7288 9.20918 29.5197 11 31.7288 11Z" fill="#333333"/>
<path d="M33.7027 14.8414H32.3275L30.0553 12.5661C29.6939 11.9871 29.1903 11.5103 28.5925 11.1809C27.9946 10.8516 27.3225 10.6807 26.6399 10.6846H22.2722L22.6881 18.9981H26.429C26.9838 18.9973 27.5327 18.885 28.0432 18.6677C28.5536 18.4504 29.0152 18.1327 29.4003 17.7334L30.0412 18.3753C30.2373 18.5771 30.4731 18.736 30.7336 18.8422C30.9941 18.9484 31.2739 18.9994 31.5551 18.9921C31.5792 18.9921 31.6003 18.9981 31.6244 18.9981H33.7027C34.254 18.9981 34.7826 18.7791 35.1724 18.3894C35.5621 17.9996 35.7811 17.4709 35.7811 16.9197C35.7811 16.3686 35.5621 15.8399 35.1724 15.4501C34.7826 15.0604 34.254 14.8414 33.7027 14.8414Z" fill="#333333"/>
<path d="M18.2441 12.7631L16.1657 14.8414H13.7549C13.2037 14.8414 12.675 15.0604 12.2853 15.4502C11.8955 15.8399 11.6765 16.3686 11.6765 16.9198C11.6765 17.471 11.8955 17.9997 12.2853 18.3894C12.675 18.7792 13.2037 18.9982 13.7549 18.9982H16.8689C16.894 18.9982 16.9151 18.9982 16.9392 18.9921C17.2205 18.9993 17.5002 18.9481 17.7606 18.842C18.0212 18.7359 18.2569 18.577 18.4531 18.3754L21.1542 15.6732C21.3455 15.4819 21.4973 15.2548 21.6007 15.0049C21.7043 14.755 21.7576 14.4871 21.7576 14.2166C21.7576 13.9461 21.7043 13.6783 21.6007 13.4284C21.4973 13.1784 21.3455 12.9513 21.1542 12.7601C20.963 12.5688 20.7359 12.417 20.486 12.3135C20.2361 12.21 19.9682 12.1567 19.6977 12.1567C19.4271 12.1567 19.1593 12.21 18.9094 12.3135C18.6595 12.417 18.4324 12.5688 18.2411 12.7601L18.2441 12.7631Z" fill="#333333"/>
</svg>
