<svg width="48" height="48" viewBox="0 0 48 48" fill="none" xmlns="http://www.w3.org/2000/svg">
<path fill-rule="evenodd" clip-rule="evenodd" d="M33 17C33 21.9725 28.9725 26 24 26C19.0275 26 15 21.9725 15 17C15 12.0275 19.0275 8 24 8C28.9725 8 33 12.0275 33 17ZM30.5 27.9999C30.2884 27.9483 30.0619 28.0522 29.9591 28.2614L26 39.5715V36L25.4255 31.9786C25.7941 31.901 26.0951 31.6194 26.1894 31.2425L26.6894 29.2425C26.8471 28.6114 26.3698 28 25.7192 28H22.2808C21.6302 28 21.1528 28.6114 21.3106 29.2425L21.8106 31.2425C21.9048 31.6194 22.2059 31.901 22.5745 31.9786L22 36V38.6962L18.0409 28.2614C17.9381 28.0522 17.7116 27.9483 17.5 27.9999C17.1413 28.0874 16.7551 28.1778 16.3521 28.2721C14.09 28.8014 11.2944 29.4556 9.808 30.4316C8.04534 31.589 7 32.9534 7 34.4999V40.9999L22 40.9997V41H26V40.9999H41V34.4999C41 32.9534 39.9547 31.589 38.192 30.4316C36.7056 29.4556 33.9099 28.8014 31.6478 28.272L31.6478 28.272L31.6478 28.272C31.2448 28.1777 30.8587 28.0874 30.5 27.9999Z" fill="#333333"/>
</svg>
