<svg width="48" height="48" viewBox="0 0 48 48" fill="none" xmlns="http://www.w3.org/2000/svg">
<path fill-rule="evenodd" clip-rule="evenodd" d="M22.7229 22.0194H25.9631C26.9136 22.0382 27.8507 22.2357 28.7201 22.6003C29.5896 22.965 30.3741 23.4896 31.0282 24.1439C31.6824 24.7981 32.1931 25.5689 32.531 26.4116C32.8688 27.2544 33.0269 28.1523 32.9963 29.0534V42H6V28.1068C6.04412 26.4752 6.75973 24.9248 7.99374 23.7872C9.22776 22.6496 10.8822 22.0151 12.6032 22.0194H15.4287V17.5631C14.3087 16.734 13.4897 15.5938 13.0864 14.3018C12.683 13.0097 12.7153 11.6305 13.1788 10.3567C13.6423 9.08298 14.5138 7.97837 15.6716 7.19726C16.8293 6.41615 18.2155 5.99757 19.6363 6.00001C21.1046 6.01077 22.5309 6.46577 23.7076 7.29874C24.8842 8.13171 25.7497 9.29916 26.1781 10.6311C26.3163 11.1262 26.4699 12.5825 26.4699 12.5825C26.7156 13.2087 26.9766 13.8204 27.2377 14.432L27.6062 15.3204C27.7438 15.561 27.8372 15.822 27.8826 16.0922C27.8926 16.2717 27.8323 16.4483 27.7132 16.5881C27.5941 16.7279 27.4248 16.821 27.2377 16.8495C27.2251 16.8495 27.1862 16.8532 27.1323 16.8582C26.9225 16.8779 26.4852 16.919 26.4852 16.8495V18.5243C26.4812 19.2015 26.1946 19.8497 25.6882 20.3273C25.1818 20.8048 24.4967 21.0728 23.7825 21.0728H22.7229V22.0194ZM20.5907 31.9771C20.6974 31.9874 20.7885 31.9931 20.8572 31.9962C20.7912 33.8667 20.7627 36.2935 21.838 37.3659C23.2479 38.7719 26.0675 39.4749 27.4774 38.3032C28.8872 37.1315 26.5375 25.6491 23.2479 25.6491C20.9673 25.6491 20.8819 28.3855 20.8934 29.9953C20.8621 29.9933 20.8253 29.9904 20.7843 29.9865C20.6339 29.9718 20.4502 29.9438 20.28 29.8942C20.1365 29.8523 20.0474 29.8079 20 29.7768V25.0004L18 25V29.7768C17.9526 29.8079 17.8635 29.8523 17.72 29.8942C17.5498 29.9438 17.3661 29.9718 17.2157 29.9865C17.143 29.9935 17.0835 29.997 17.0443 29.9986L17.0272 29.9992L17.003 29.9999L17.0014 29.9999C17.013 28.3908 16.9296 25.6491 14.6469 25.6491C11.3573 25.6491 9.00755 37.1315 10.4174 38.3032C11.8272 39.4749 14.6469 38.7719 16.0567 37.3659C17.1314 36.2941 17.1036 33.8696 17.0377 31.9996L17.0419 31.9995C17.0634 31.9991 17.0923 31.9983 17.1276 31.9969C17.1978 31.9939 17.2945 31.9882 17.4093 31.9771C17.6339 31.9552 17.9502 31.9104 18.28 31.8142C18.4958 31.7512 18.7514 31.6567 19 31.5095C19.2486 31.6567 19.5042 31.7512 19.72 31.8142C20.0498 31.9104 20.3661 31.9552 20.5907 31.9771ZM24 19C24.5523 19 25 18.5523 25 18C25 17.4477 24.5523 17 24 17C23.4477 17 23 17.4477 23 18C23 18.5523 23.4477 19 24 19ZM22 17C22 17.5523 21.5523 18 21 18C20.4477 18 20 17.5523 20 17C20 16.4477 20.4477 16 21 16C21.5523 16 22 16.4477 22 17Z" fill="#333333"/>
<path d="M31 15C31.5523 15 32 14.5523 32 14C32 13.4477 31.5523 13 31 13C30.4477 13 30 13.4477 30 14C30 14.5523 30.4477 15 31 15Z" fill="#333333"/>
<path d="M34 17C34 17.5523 33.5523 18 33 18C32.4477 18 32 17.5523 32 17C32 16.4477 32.4477 16 33 16C33.5523 16 34 16.4477 34 17Z" fill="#333333"/>
<path d="M35 21C35.5523 21 36 20.5523 36 20C36 19.4477 35.5523 19 35 19C34.4477 19 34 19.4477 34 20C34 20.5523 34.4477 21 35 21Z" fill="#333333"/>
<path d="M42 19C42 19.5523 41.5523 20 41 20C40.4477 20 40 19.5523 40 19C40 18.4477 40.4477 18 41 18C41.5523 18 42 18.4477 42 19Z" fill="#333333"/>
<path d="M41 15C41.5523 15 42 14.5523 42 14C42 13.4477 41.5523 13 41 13C40.4477 13 40 13.4477 40 14C40 14.5523 40.4477 15 41 15Z" fill="#333333"/>
<path d="M42 10C42 10.5523 41.5523 11 41 11C40.4477 11 40 10.5523 40 10C40 9.44772 40.4477 9 41 9C41.5523 9 42 9.44772 42 10Z" fill="#333333"/>
<path d="M37 13C37.5523 13 38 12.5523 38 12C38 11.4477 37.5523 11 37 11C36.4477 11 36 11.4477 36 12C36 12.5523 36.4477 13 37 13Z" fill="#333333"/>
<path d="M38 16C38 16.5523 37.5523 17 37 17C36.4477 17 36 16.5523 36 16C36 15.4477 36.4477 15 37 15C37.5523 15 38 15.4477 38 16Z" fill="#333333"/>
<path d="M29 20C29.5523 20 30 19.5523 30 19C30 18.4477 29.5523 18 29 18C28.4477 18 28 18.4477 28 19C28 19.5523 28.4477 20 29 20Z" fill="#333333"/>
</svg>
