<svg width="48" height="48" viewBox="0 0 48 48" fill="none" xmlns="http://www.w3.org/2000/svg">
<path fill-rule="evenodd" clip-rule="evenodd" d="M33.717 12.6386C35.5026 13.4757 37.6348 12.6937 38.4795 10.8921C39.3241 9.09037 38.5613 6.95121 36.7757 6.11411C34.9901 5.277 32.8579 6.05895 32.0132 7.86064C31.1686 9.66233 31.9314 11.8015 33.717 12.6386ZM33.5279 40.2945C33.4527 42.6174 29.9103 42.7186 29.5856 40.4521C29.2608 38.1856 28.7833 31.8629 28.7833 31.8629L23.0622 29.6687C23.0622 29.6687 17.8376 27.8157 18.234 23.6918C18.4334 21.6168 22.2439 13.9433 25.4177 12.1243C28.5915 10.3053 29.0571 10.2797 31.0631 11.464C33.069 12.6484 33.2995 21.376 33.2995 21.376C33.2995 21.376 37.2613 24.5344 38.686 25.9342C40.1108 27.334 37.9348 29.1871 36.862 28.6299C35.7892 28.0728 30.0776 24.6633 29.4871 23.8172C28.8966 22.9712 28.5927 20.0911 28.5927 20.0911L26.3592 24.0585C26.3592 24.0585 31.9605 27.3621 33.0104 27.8543C34.0602 28.3464 33.957 29.1926 33.957 29.1926C33.957 29.1926 33.6031 37.9715 33.5279 40.2945ZM17.7883 27.2082C17.7204 27.1427 17.6397 27.0908 17.5509 27.0557C17.4602 27.018 17.3624 26.9991 17.2637 27C17.165 27.001 17.0676 27.0219 16.9777 27.0614C16.8879 27.1008 16.8075 27.158 16.7419 27.2292C16.6762 27.3003 16.6267 27.384 16.5964 27.4748L14.0657 33.0623C14.0254 33.1464 14.0031 33.2375 14.0003 33.3301C13.9975 33.4227 14.0141 33.5149 14.0493 33.6011C14.0844 33.6873 14.1374 33.7657 14.2048 33.8316C14.2723 33.8974 14.3528 33.9494 14.4417 33.9843C14.5369 34.0052 14.6357 34.0052 14.7309 33.9843C14.872 33.9848 15.0102 33.9453 15.1284 33.8709C15.2466 33.7964 15.3397 33.6902 15.3961 33.5652L17.9413 27.9776C17.9792 27.8924 17.9991 27.8008 18 27.7081C18.0008 27.6154 17.9825 27.5234 17.9461 27.4376C17.9098 27.3518 17.8561 27.2738 17.7883 27.2082ZM19.8417 29.2167C19.7862 29.1535 19.7187 29.1024 19.6434 29.0667C19.4922 28.9907 19.3179 28.9792 19.1585 29.0346C18.999 29.0901 18.8673 29.2081 18.792 29.3629L17.0641 33.0723C17.0278 33.1484 17.0064 33.2311 17.0012 33.3157C16.996 33.4003 17.0071 33.4851 17.0339 33.5653C17.0607 33.6455 17.1025 33.7194 17.1571 33.7829C17.2117 33.8464 17.278 33.8981 17.3521 33.9352C17.4369 33.981 17.5318 34.0032 17.6275 33.9996C17.7467 34.0008 17.8638 33.9676 17.9656 33.9039C18.0674 33.8402 18.1498 33.7484 18.2035 33.639L19.9314 29.9296C19.9695 29.8539 19.9923 29.771 19.9983 29.686C20.0044 29.6009 19.9937 29.5155 19.9667 29.4349C19.9398 29.3542 19.8973 29.28 19.8417 29.2167ZM7.6919 36.8289C10.0551 36.5156 12.4003 36.0794 14.7181 35.522C15.4061 35.5021 16.0665 35.4635 16.6994 35.4266C19.1818 35.2816 21.2451 35.1611 22.9246 36.2809C23.9703 36.978 23.7641 37.6128 23.5687 38.2146C23.3701 38.8259 23.1827 39.403 24.3299 39.9766C26.6063 41.1149 20.4233 42.2391 17.5847 41.7051C16.3869 41.4797 15.7066 40.8966 15.0079 40.2977C14.051 39.4774 13.0597 38.6276 10.6569 38.6276C6.50003 38.6276 4.48797 37.2083 7.6919 36.8289Z" fill="#333333"/>
</svg>
