<svg width="48" height="48" viewBox="0 0 48 48" fill="none" xmlns="http://www.w3.org/2000/svg">
<mask id="path-1-inside-1" fill="white">
<path fill-rule="evenodd" clip-rule="evenodd" d="M14.4326 33.4415C13.5732 33.9691 13 34.9176 13 36C13 37.6568 14.3431 39 16 39C17.6569 39 19 37.6568 19 36C19 34.4759 17.8636 33.2173 16.3919 33.0253C16.3591 32.9079 16.3249 32.7725 16.2901 32.6205C16.1703 32.0971 16.056 31.4332 15.9709 30.7511C15.8856 30.0679 15.8327 29.3904 15.8292 28.8374C15.8279 28.6348 15.8334 28.4582 15.8446 28.3101C16.2293 28.1997 16.6151 28.1002 17 28.0126C17.4413 27.9121 17.7025 28.433 17.9141 28.8551C17.9436 28.9138 17.9721 28.9707 18 29.0237H22.0639C22.9797 29.0235 23.4324 29.0236 23.8903 29.0237H23.8904H23.8905H23.8907H23.8907H23.8907H23.8907C24.3381 29.0238 24.7906 29.0239 25.6851 29.0237H29.7493C29.9775 28.5901 30.4972 27.8981 31 28.0126C31.5363 28.1347 32.0745 28.2797 32.6089 28.4455L32.6056 28.4472C32.6044 28.4449 32.6045 28.4453 32.6057 28.4486L32.6057 28.4487L32.6057 28.4487C32.6104 28.4628 32.6324 28.528 32.6542 28.6698C32.6791 28.8313 32.6964 29.0411 32.7035 29.2936C32.7177 29.798 32.6894 30.411 32.6297 31.0286C32.5699 31.6456 32.4811 32.2429 32.3811 32.7143C32.359 32.8187 32.3369 32.9141 32.3152 33H31C30.6212 33 30.275 33.214 30.1056 33.5528L29.1056 35.5528C29.0361 35.6916 29 35.8447 29 36V38C29 38.5523 29.4477 39 30 39H32V37H31V36.236L31.618 35H34.382L35 36.236V37H34V39H36C36.5523 39 37 38.5523 37 38V36C37 35.8447 36.9639 35.6916 36.8944 35.5528L35.8944 33.5528C35.725 33.214 35.3788 33 35 33H34.3643C34.4711 32.4673 34.56 31.8448 34.6203 31.2213C34.6856 30.5473 34.7198 29.8478 34.7027 29.2376L34.7019 29.2101C38.6895 30.8948 42 33.6661 42 36.5699V42H6V36.5699C6 33.5376 9.60993 30.6499 13.831 28.993C13.8424 29.6146 13.9013 30.3182 13.9862 30.9988C14.0779 31.7334 14.2029 32.4653 14.3406 33.0669C14.3701 33.1958 14.4008 33.3213 14.4326 33.4415ZM16 37.0147C16.5384 37.0147 17 36.5742 17 36C17 35.4257 16.5384 34.9853 16 34.9853C15.4616 34.9853 15 35.4257 15 36C15 36.5742 15.4616 37.0147 16 37.0147Z"/>
</mask>
<path fill-rule="evenodd" clip-rule="evenodd" d="M14.4326 33.4415C13.5732 33.9691 13 34.9176 13 36C13 37.6568 14.3431 39 16 39C17.6569 39 19 37.6568 19 36C19 34.4759 17.8636 33.2173 16.3919 33.0253C16.3591 32.9079 16.3249 32.7725 16.2901 32.6205C16.1703 32.0971 16.056 31.4332 15.9709 30.7511C15.8856 30.0679 15.8327 29.3904 15.8292 28.8374C15.8279 28.6348 15.8334 28.4582 15.8446 28.3101C16.2293 28.1997 16.6151 28.1002 17 28.0126C17.4413 27.9121 17.7025 28.433 17.9141 28.8551C17.9436 28.9138 17.9721 28.9707 18 29.0237H22.0639C22.9797 29.0235 23.4324 29.0236 23.8903 29.0237H23.8904H23.8905H23.8907H23.8907H23.8907H23.8907C24.3381 29.0238 24.7906 29.0239 25.6851 29.0237H29.7493C29.9775 28.5901 30.4972 27.8981 31 28.0126C31.5363 28.1347 32.0745 28.2797 32.6089 28.4455L32.6056 28.4472C32.6044 28.4449 32.6045 28.4453 32.6057 28.4486L32.6057 28.4487L32.6057 28.4487C32.6104 28.4628 32.6324 28.528 32.6542 28.6698C32.6791 28.8313 32.6964 29.0411 32.7035 29.2936C32.7177 29.798 32.6894 30.411 32.6297 31.0286C32.5699 31.6456 32.4811 32.2429 32.3811 32.7143C32.359 32.8187 32.3369 32.9141 32.3152 33H31C30.6212 33 30.275 33.214 30.1056 33.5528L29.1056 35.5528C29.0361 35.6916 29 35.8447 29 36V38C29 38.5523 29.4477 39 30 39H32V37H31V36.236L31.618 35H34.382L35 36.236V37H34V39H36C36.5523 39 37 38.5523 37 38V36C37 35.8447 36.9639 35.6916 36.8944 35.5528L35.8944 33.5528C35.725 33.214 35.3788 33 35 33H34.3643C34.4711 32.4673 34.56 31.8448 34.6203 31.2213C34.6856 30.5473 34.7198 29.8478 34.7027 29.2376L34.7019 29.2101C38.6895 30.8948 42 33.6661 42 36.5699V42H6V36.5699C6 33.5376 9.60993 30.6499 13.831 28.993C13.8424 29.6146 13.9013 30.3182 13.9862 30.9988C14.0779 31.7334 14.2029 32.4653 14.3406 33.0669C14.3701 33.1958 14.4008 33.3213 14.4326 33.4415ZM16 37.0147C16.5384 37.0147 17 36.5742 17 36C17 35.4257 16.5384 34.9853 16 34.9853C15.4616 34.9853 15 35.4257 15 36C15 36.5742 15.4616 37.0147 16 37.0147Z" fill="#333333"/>
<path d="M14.4326 33.4415L15.479 35.1459L16.7459 34.3681L16.3662 32.9307L14.4326 33.4415ZM16.3919 33.0253L14.4655 33.5629L14.8211 34.8374L16.1332 35.0085L16.3919 33.0253ZM16.2901 32.6205L18.2397 32.1742V32.1742L16.2901 32.6205ZM15.9709 30.7511L17.9555 30.5035V30.5035L15.9709 30.7511ZM15.8292 28.8374L13.8293 28.85V28.85L15.8292 28.8374ZM15.8446 28.3101L15.2928 26.3877L13.955 26.7717L13.8502 28.1596L15.8446 28.3101ZM17 28.0126L16.5559 26.0625L16.5559 26.0625L17 28.0126ZM17.9141 28.8551L19.702 27.9586L19.702 27.9586L17.9141 28.8551ZM18 29.0237L16.2303 29.9554L16.7927 31.0237H18V29.0237ZM22.0639 29.0237V31.0237H22.0644L22.0639 29.0237ZM23.8903 29.0237L23.8899 31.0237H23.8903V29.0237ZM23.8907 29.0237L23.8911 27.0237H23.8907V29.0237ZM25.6851 29.0237V27.0237L25.6847 27.0237L25.6851 29.0237ZM29.7493 29.0237V31.0237H30.9566L31.519 29.9554L29.7493 29.0237ZM31 28.0126L31.4441 26.0625L31.4441 26.0625L31 28.0126ZM32.6089 28.4455L33.5033 30.2344L37.9534 28.0095L33.2015 26.5353L32.6089 28.4455ZM32.6056 28.4472L30.8174 29.3431L31.7126 31.1297L33.4999 30.2361L32.6056 28.4472ZM32.6057 28.4486L34.5542 27.9979L34.5323 27.9031L34.5013 27.8109L32.6057 28.4486ZM32.6057 28.4487L30.6571 28.8994L30.6793 28.9953L30.7108 29.0886L32.6057 28.4487ZM32.6057 28.4487L34.5013 27.811L34.5006 27.8087L32.6057 28.4487ZM32.6542 28.6698L34.6309 28.3653L34.6309 28.3653L32.6542 28.6698ZM32.7035 29.2936L30.7043 29.3497V29.3497L32.7035 29.2936ZM32.6297 31.0286L30.639 30.836V30.836L32.6297 31.0286ZM32.3811 32.7143L34.3376 33.1294L34.3376 33.1293L32.3811 32.7143ZM32.3152 33V35H33.8729L34.2543 33.4897L32.3152 33ZM30.1056 33.5528L31.8944 34.4472V34.4472L30.1056 33.5528ZM29.1056 35.5528L30.8944 36.4472L30.8944 36.4472L29.1056 35.5528ZM32 39V41H34V39H32ZM32 37H34V35H32V37ZM31 37H29V39H31V37ZM31 36.236L29.2111 35.3416L29 35.7639V36.236H31ZM31.618 35V33H30.382L29.8292 34.1055L31.618 35ZM34.382 35L36.1708 34.1055L35.618 33H34.382V35ZM35 36.236H37V35.7639L36.7889 35.3416L35 36.236ZM35 37V39H37V37H35ZM34 37V35H32V37H34ZM34 39H32V41H34V39ZM36.8944 35.5528L38.6833 34.6583L38.6833 34.6583L36.8944 35.5528ZM35.8944 33.5528L37.6833 32.6583L37.6833 32.6583L35.8944 33.5528ZM34.3643 33L32.4034 32.6066L31.9233 35H34.3643V33ZM34.6203 31.2213L36.611 31.4139V31.4139L34.6203 31.2213ZM34.7027 29.2376L36.7019 29.1815L36.7019 29.1789L34.7027 29.2376ZM34.7019 29.2101L35.4803 27.3678L32.6114 26.1556L32.7028 29.2688L34.7019 29.2101ZM42 42V44H44V42H42ZM6 42H4V44H6V42ZM13.831 28.993L15.8307 28.9565L15.7783 26.08L13.1002 27.1313L13.831 28.993ZM13.9862 30.9988L12.0016 31.2464L12.0016 31.2464L13.9862 30.9988ZM14.3406 33.0669L12.391 33.5133L12.391 33.5133L14.3406 33.0669ZM15 36C15 35.6415 15.1873 35.325 15.479 35.1459L13.3861 31.7371C11.959 32.6133 11 34.1938 11 36H15ZM16 37C15.4477 37 15 36.5523 15 36H11C11 38.7614 13.2386 41 16 41V37ZM17 36C17 36.5523 16.5523 37 16 37V41C18.7614 41 21 38.7614 21 36H17ZM16.1332 35.0085C16.6217 35.0723 17 35.4935 17 36H21C21 33.4583 19.1054 31.3624 16.6506 31.0421L16.1332 35.0085ZM18.3183 32.4878C18.2954 32.4057 18.2688 32.3011 18.2397 32.1742L14.3406 33.0669C14.3811 33.2438 14.4229 33.4101 14.4655 33.5629L18.3183 32.4878ZM18.2397 32.1742C18.1378 31.7289 18.034 31.1329 17.9555 30.5035L13.9862 30.9988C14.0779 31.7334 14.2029 32.4653 14.3406 33.0669L18.2397 32.1742ZM17.9555 30.5035C17.8765 29.8703 17.832 29.2754 17.8292 28.8249L13.8293 28.85C13.8334 29.5054 13.8947 30.2654 13.9862 30.9988L17.9555 30.5035ZM17.8292 28.8249C17.8282 28.6627 17.8328 28.5421 17.8389 28.4606L13.8502 28.1596C13.834 28.3743 13.8277 28.607 13.8293 28.85L17.8292 28.8249ZM16.5559 26.0625C16.134 26.1586 15.7123 26.2673 15.2928 26.3877L16.3964 30.2325C16.7463 30.132 17.0962 30.0419 17.4441 29.9627L16.5559 26.0625ZM19.702 27.9586C19.6256 27.8063 19.3985 27.327 19.058 26.932C18.6786 26.4919 17.8087 25.7773 16.5559 26.0625L17.4441 29.9627C17.1098 30.0388 16.76 29.9958 16.464 29.8597C16.2068 29.7415 16.068 29.5897 16.0284 29.5437C15.9856 29.4942 15.9798 29.475 16.0091 29.5262C16.0378 29.5762 16.0692 29.6377 16.1263 29.7515L19.702 27.9586ZM19.7697 28.092C19.7528 28.0598 19.7334 28.0213 19.702 27.9586L16.1263 29.7515C16.1538 29.8064 16.1914 29.8816 16.2303 29.9554L19.7697 28.092ZM22.0639 27.0237H18V31.0237H22.0639V27.0237ZM23.8907 27.0237C23.4326 27.0236 22.9797 27.0235 22.0635 27.0237L22.0644 31.0237C22.9798 31.0235 23.4321 31.0236 23.8899 31.0237L23.8907 27.0237ZM23.8904 27.0237H23.8903V31.0237H23.8904V27.0237ZM23.8905 27.0237H23.8904V31.0237H23.8905V27.0237ZM23.8907 27.0237H23.8905V31.0237H23.8907V27.0237ZM23.8907 27.0237H23.8907V31.0237H23.8907V27.0237ZM23.8907 27.0237H23.8907V31.0237H23.8907V27.0237ZM23.8907 27.0237H23.8907V31.0237H23.8907V27.0237ZM25.6847 27.0237C24.7906 27.0239 24.3383 27.0238 23.8911 27.0237L23.8903 31.0237C24.3378 31.0238 24.7906 31.0239 25.6855 31.0237L25.6847 27.0237ZM29.7493 27.0237H25.6851V31.0237H29.7493V27.0237ZM31.4441 26.0625C30.149 25.7676 29.2114 26.5574 28.8852 26.8713C28.4663 27.2742 28.1607 27.7478 27.9795 28.092L31.519 29.9554C31.5351 29.9249 31.563 29.8779 31.5974 29.8297C31.6137 29.8069 31.6285 29.7881 31.6406 29.7737C31.653 29.759 31.6593 29.753 31.6582 29.754C31.6577 29.7545 31.6433 29.7685 31.6137 29.7898C31.5848 29.8106 31.5297 29.847 31.4478 29.884C31.2802 29.9597 30.9568 30.0539 30.5559 29.9627L31.4441 26.0625ZM33.2015 26.5353C32.6196 26.3548 32.0318 26.1964 31.4441 26.0625L30.5559 29.9627C31.0407 30.0731 31.5294 30.2047 32.0163 30.3557L33.2015 26.5353ZM33.4999 30.2361L33.5033 30.2344L31.7145 26.6566L31.7112 26.6583L33.4999 30.2361ZM34.5013 27.8109C34.4993 27.805 34.5034 27.8172 34.5075 27.8298C34.5093 27.8354 34.5165 27.8575 34.5249 27.8861C34.529 27.9004 34.537 27.9284 34.5459 27.964C34.5515 27.9866 34.5731 28.0732 34.5879 28.1863C34.5945 28.2371 34.6101 28.3666 34.6029 28.5327C34.601 28.5749 34.5986 29.172 34.1473 29.7188C33.8519 30.0767 33.3996 30.3656 32.84 30.4318C32.3438 30.4906 31.9578 30.351 31.7577 30.2575C31.3934 30.0872 31.1777 29.8481 31.1383 29.8057C31.0066 29.6636 30.9256 29.5323 30.9162 29.5175C30.8893 29.475 30.8697 29.4406 30.861 29.4251C30.8428 29.3926 30.8295 29.3668 30.8266 29.3612C30.8219 29.3519 30.8183 29.3447 30.8174 29.3431L34.3937 27.5513C34.3926 27.5491 34.3887 27.5414 34.3838 27.5317C34.3807 27.5257 34.3672 27.4995 34.3489 27.4669C34.3401 27.4512 34.3205 27.4167 34.2935 27.3742C34.284 27.3592 34.2031 27.2279 34.0713 27.0858C34.0319 27.0434 33.8162 26.8043 33.4519 26.634C33.2518 26.5404 32.8657 26.4008 32.3695 26.4596C31.81 26.5259 31.3577 26.8147 31.0623 27.1727C30.611 27.7195 30.6085 28.3166 30.6067 28.3588C30.5994 28.5249 30.615 28.6545 30.6217 28.7053C30.6365 28.8184 30.6581 28.9051 30.6637 28.9278C30.6726 28.9635 30.6806 28.9917 30.6848 29.006C30.6933 29.035 30.7006 29.0574 30.7026 29.0636C30.7054 29.0724 30.7078 29.0794 30.7085 29.0816C30.709 29.0831 30.7094 29.0844 30.7096 29.085C30.7099 29.0857 30.7101 29.0863 30.7101 29.0864L34.5013 27.8109ZM34.5542 27.9979L34.5542 27.9979L30.6571 28.8994L30.6571 28.8994L34.5542 27.9979ZM34.5006 27.8087L34.5005 27.8087L30.7108 29.0886L30.7109 29.0886L34.5006 27.8087ZM34.6309 28.3653C34.5906 28.1034 34.5403 27.9268 34.5013 27.811L30.7101 29.0864C30.7101 29.0864 30.7074 29.0786 30.7043 29.0687C30.7012 29.059 30.6981 29.0491 30.6951 29.0391C30.6891 29.019 30.6847 29.0023 30.6815 28.9894C30.6752 28.9639 30.675 28.9575 30.6776 28.9744L34.6309 28.3653ZM34.7027 29.2376C34.6942 28.9329 34.6725 28.6349 34.6309 28.3653L30.6776 28.9744C30.6858 29.0276 30.6987 29.1493 30.7043 29.3497L34.7027 29.2376ZM34.6203 31.2213C34.6856 30.5473 34.7198 29.8478 34.7027 29.2376L30.7043 29.3497C30.7155 29.7482 30.6933 30.2746 30.639 30.836L34.6203 31.2213ZM34.3376 33.1293C34.4564 32.5695 34.5551 31.896 34.6203 31.2213L30.639 30.836C30.5848 31.3952 30.5059 31.9163 30.4247 32.2993L34.3376 33.1293ZM34.2543 33.4897C34.283 33.3761 34.3108 33.2557 34.3376 33.1294L30.4247 32.2993C30.4072 32.3818 30.3908 32.4521 30.3761 32.5102L34.2543 33.4897ZM31 35H32.3152V31H31V35ZM31.8944 34.4472C31.725 34.786 31.3788 35 31 35V31C29.8637 31 28.8249 31.642 28.3167 32.6583L31.8944 34.4472ZM30.8944 36.4472L31.8944 34.4472L28.3167 32.6583L27.3167 34.6583L30.8944 36.4472ZM31 36C31 36.1552 30.9639 36.3083 30.8944 36.4472L27.3167 34.6583C27.1084 35.0749 27 35.5342 27 36H31ZM31 38V36H27V38H31ZM30 37C30.5523 37 31 37.4477 31 38H27C27 39.6568 28.3431 41 30 41V37ZM32 37H30V41H32V37ZM30 37V39H34V37H30ZM31 39H32V35H31V39ZM29 36.236V37H33V36.236H29ZM29.8292 34.1055L29.2111 35.3416L32.7889 37.1305L33.4069 35.8944L29.8292 34.1055ZM34.382 33H31.618V37H34.382V33ZM36.7889 35.3416L36.1708 34.1055L32.5931 35.8944L33.2111 37.1305L36.7889 35.3416ZM37 37V36.236H33V37H37ZM34 39H35V35H34V39ZM36 39V37H32V39H36ZM36 37H34V41H36V37ZM35 38C35 37.4477 35.4477 37 36 37V41C37.6569 41 39 39.6568 39 38H35ZM35 36V38H39V36H35ZM35.1056 36.4472C35.0361 36.3083 35 36.1552 35 36H39C39 35.5342 38.8916 35.0749 38.6833 34.6583L35.1056 36.4472ZM34.1056 34.4472L35.1056 36.4472L38.6833 34.6583L37.6833 32.6583L34.1056 34.4472ZM35 35C34.6212 35 34.275 34.786 34.1056 34.4472L37.6833 32.6583C37.1751 31.642 36.1363 31 35 31V35ZM34.3643 35H35V31H34.3643V35ZM32.6297 31.0286C32.5746 31.5974 32.4946 32.1517 32.4034 32.6066L36.3252 33.3933C36.4477 32.7829 36.5454 32.0922 36.611 31.4139L32.6297 31.0286ZM32.7035 29.2936C32.7177 29.798 32.6894 30.411 32.6297 31.0286L36.611 31.4139C36.6817 30.6837 36.722 29.8975 36.7019 29.1815L32.7035 29.2936ZM32.7028 29.2688L32.7036 29.2963L36.7019 29.1789L36.7011 29.1514L32.7028 29.2688ZM44 36.5699C44 34.3422 42.7447 32.4353 41.2276 30.9864C39.6815 29.51 37.6324 28.277 35.4803 27.3678L33.9235 31.0524C35.759 31.8279 37.3589 32.8229 38.465 33.8792C39.6 34.9631 40 35.8937 40 36.5699H44ZM44 42V36.5699H40V42H44ZM6 44H42V40H6V44ZM4 36.5699V42H8V36.5699H4ZM13.1002 27.1313C10.8244 28.0246 8.63779 29.2761 6.98276 30.7899C5.36434 32.2702 4 34.2458 4 36.5699H8C8 35.8617 8.44063 34.8773 9.68244 33.7414C10.8876 32.6391 12.6166 31.6182 14.5618 30.8547L13.1002 27.1313ZM11.8314 29.0294C11.8443 29.7407 11.9107 30.5176 12.0016 31.2464L15.9709 30.7511C15.8919 30.1187 15.8404 29.4884 15.8307 28.9565L11.8314 29.0294ZM12.0016 31.2464C12.0999 32.0337 12.2354 32.8335 12.391 33.5133L16.2901 32.6205C16.1703 32.0971 16.056 31.4332 15.9709 30.7511L12.0016 31.2464ZM12.391 33.5133C12.4248 33.6605 12.4607 33.8078 12.4989 33.9524L16.3662 32.9307C16.3409 32.8348 16.3155 32.7311 16.2901 32.6205L12.391 33.5133ZM15 36C15 35.4613 15.4422 35.0147 16 35.0147V39.0147C17.6346 39.0147 19 37.6871 19 36H15ZM16 36.9853C15.4422 36.9853 15 36.5386 15 36H19C19 34.3128 17.6346 32.9853 16 32.9853V36.9853ZM17 36C17 36.5386 16.5578 36.9853 16 36.9853V32.9853C14.3654 32.9853 13 34.3128 13 36H17ZM16 35.0147C16.5578 35.0147 17 35.4613 17 36H13C13 37.6871 14.3654 39.0147 16 39.0147V35.0147Z" fill="#333333" mask="url(#path-1-inside-1)"/>
<path d="M13 20.1719C13 24.8106 20.99 26 20.99 26C20.99 26 15.7637 17.0199 18.5 15.4737C21.2363 13.9274 27.9527 11.2453 28.5 12.3158C33.5348 19.928 27.5572 26 27.5572 26C27.5572 26 35 25.2864 35 20.1719C35 15.0574 31.4975 9.15789 31.4975 9.15789C31.4975 9.15789 28.9801 6 24.0547 6C19.1294 6 17.3781 9.15789 17.3781 9.15789C17.3781 9.15789 13 15.5332 13 20.1719Z" fill="#333333"/>
</svg>
