<svg width="48" height="48" viewBox="0 0 48 48" fill="none" xmlns="http://www.w3.org/2000/svg">
<path fill-rule="evenodd" clip-rule="evenodd" d="M44 24C44 35.0457 35.0457 44 24 44C12.9543 44 4 35.0457 4 24C4 12.9543 12.9543 4 24 4C35.0457 4 44 12.9543 44 24ZM18.8708 20.5081C17.4893 19.8603 15.8504 19.9683 14.5547 20.8321C14.0952 21.1384 13.4743 21.0142 13.1679 20.5547C12.8616 20.0952 12.9858 19.4743 13.4453 19.1679L13.448 19.1662C13.4807 19.1444 13.5136 19.1229 13.5467 19.1017C13.7843 18.9497 14.0295 18.8148 14.2805 18.6971C16.2887 17.7553 18.6712 17.9123 20.5547 19.1679C20.6121 19.2062 20.6643 19.2495 20.7111 19.2966C21.0385 19.627 21.1001 20.1526 20.8321 20.5547C20.5257 21.0142 19.9048 21.1384 19.4453 20.8321C19.2602 20.7087 19.0681 20.6007 18.8708 20.5081ZM32.9077 20.5257C33.0921 20.6142 33.2718 20.7164 33.4453 20.8321C33.9048 21.1384 34.5257 21.0142 34.8321 20.5547C35.1384 20.0952 35.0142 19.4743 34.5547 19.1679C34.2856 18.9886 34.0064 18.8316 33.7195 18.6971C31.7113 17.7553 29.3288 17.9123 27.4453 19.1679C26.9858 19.4743 26.8616 20.0952 27.1679 20.5547C27.4743 21.0142 28.0952 21.1384 28.5547 20.8321C29.8504 19.9683 31.4893 19.8603 32.8708 20.5081C32.8831 20.5139 32.8954 20.5198 32.9077 20.5257ZM14.7419 30C16.4618 33.5617 19.9619 36 24 36C28.0381 36 31.5382 33.5617 33.2581 30C33.5641 29.3664 33.8137 28.6973 34 28H14C14.1863 28.6973 14.4359 29.3664 14.7419 30Z" fill="#333333"/>
</svg>
