<svg width="48" height="48" viewBox="0 0 48 48" fill="none" xmlns="http://www.w3.org/2000/svg">
<path fill-rule="evenodd" clip-rule="evenodd" d="M21.0001 5.03406L20.0001 2.03406H22.0001L21.0001 5.03406ZM19.0001 7.03406L16.0001 8.03406V6.03406L19.0001 7.03406ZM17.0001 4.44812L19.8285 5.86233L18.4143 3.03391L17.0001 4.44812ZM20.991 6.92415C21.604 6.36689 22.5527 6.41207 23.1099 7.02506C23.6672 7.63804 23.622 8.58672 23.009 9.14398L18.6053 13.1474L21.1747 16.0449H22.4546C22.4909 16.0436 22.5273 16.0429 22.5639 16.0429H30.3906C31.2896 16.0429 34.0657 17.6775 34.0657 20.8534C34.0657 25.0671 31.2896 26.7783 30.3906 26.7783V42.9269C30.3906 43.826 29.655 44.5615 28.756 44.5615C27.857 44.5615 27.1215 43.826 27.1215 42.9269V31.7541H22.8523V42.9269C22.8523 43.826 22.1167 44.5615 21.2177 44.5615C20.3187 44.5615 19.5832 43.826 19.5832 42.9269V19.0429C19.5832 18.9418 19.5881 18.8418 19.5977 18.7432C19.5184 18.6835 19.4447 18.6156 19.3777 18.5401L15.3777 14.0293C14.8329 13.4148 14.8834 12.4765 15.491 11.9241L20.991 6.92415ZM21.1702 12.1577L23.6713 9.88393C24.4775 9.15106 24.6944 8.01201 24.2937 7.06216C24.523 7.02132 24.759 7 25.0001 7C27.2092 7 29.0001 8.79086 29.0001 11C29.0001 13.2091 27.2092 15 25.0001 15C23.1935 15 21.6666 13.8024 21.1702 12.1577Z" fill="#333333"/>
</svg>
