<svg width="48" height="48" viewBox="0 0 48 48" fill="none" xmlns="http://www.w3.org/2000/svg">
<path d="M33 17C33 21.9725 28.9725 26 24 26C19.0275 26 15 21.9725 15 17C15 12.0275 19.0275 8 24 8C28.9725 8 33 12.0275 33 17Z" fill="#333333"/>
<path fill-rule="evenodd" clip-rule="evenodd" d="M19 30C19 30 17.5028 27.8982 17 28.0127C11.5958 29.2435 6 32.7947 6 36.57V42.0001H42V36.57C42 32.7947 36.4042 29.2435 31 28.0127C30.4972 27.8982 29 30 29 30H25.6851C24.5676 30.0003 24.1399 30.0002 23.5504 30.0001L19 30ZM32 32V34H30V36H32V38H34V36H36V34H34V32H32Z" fill="#333333"/>
</svg>
