<svg width="48" height="48" viewBox="0 0 48 48" fill="none" xmlns="http://www.w3.org/2000/svg">
<path fill-rule="evenodd" clip-rule="evenodd" d="M24 44C35.0457 44 44 35.0457 44 24C44 12.9543 35.0457 4 24 4C12.9543 4 4 12.9543 4 24C4 35.0457 12.9543 44 24 44ZM17 23C18.1046 23 19 22.1046 19 21C19 19.8954 18.1046 19 17 19C15.8954 19 15 19.8954 15 21C15 22.1046 15.8954 23 17 23ZM33 21C33 22.1046 32.1046 23 31 23C29.8954 23 29 22.1046 29 21C29 19.8954 29.8954 19 31 19C32.1046 19 33 19.8954 33 21ZM17 30C16.4477 30 16 30.4477 16 31C16 31.5523 16.4477 32 17 32L31 32C31.5523 32 32 31.5523 32 31C32 30.4477 31.5523 30 31 30L17 30Z" fill="#333333"/>
</svg>
