<svg width="48" height="48" viewBox="0 0 48 48" fill="none" xmlns="http://www.w3.org/2000/svg">
<path fill-rule="evenodd" clip-rule="evenodd" d="M44 24C44 35.0457 35.0457 44 24 44C12.9543 44 4 35.0457 4 24C4 12.9543 12.9543 4 24 4C35.0457 4 44 12.9543 44 24ZM19 21C19 22.1046 18.1046 23 17 23C15.8954 23 15 22.1046 15 21C15 19.8954 15.8954 19 17 19C18.1046 19 19 19.8954 19 21ZM31 23C32.1046 23 33 22.1046 33 21C33 19.8954 32.1046 19 31 19C29.8954 19 29 19.8954 29 21C29 22.1046 29.8954 23 31 23ZM18.5673 33.8235L18.5692 33.8223L18.5872 33.8101C18.6046 33.7986 18.6324 33.7803 18.6699 33.7563C18.7451 33.7082 18.8592 33.6371 19.0069 33.5507C19.303 33.3775 19.7307 33.1448 20.2485 32.9122C21.2987 32.4403 22.6509 32 24 32C25.3491 32 26.7013 32.4403 27.7515 32.9122C28.2693 33.1448 28.697 33.3775 28.9931 33.5507C29.1408 33.6371 29.2549 33.7082 29.3301 33.7563C29.3676 33.7803 29.3954 33.7986 29.4128 33.8101L29.4308 33.8223L29.4331 33.8238C29.8878 34.1361 30.5104 34.0217 30.8235 33.5673C31.1368 33.1125 31.0221 32.4898 30.5673 32.1765L30.5664 32.1758L30.5652 32.175L30.5619 32.1728L30.5523 32.1663L30.5205 32.1449C30.4938 32.1272 30.4562 32.1025 30.4083 32.0718C30.3126 32.0106 30.1757 31.9254 30.0029 31.8243C29.6579 31.6225 29.1662 31.3552 28.5711 31.0878C27.3955 30.5597 25.7476 30 24 30C22.2524 30 20.6045 30.5597 19.4289 31.0878C18.8338 31.3552 18.3421 31.6225 17.9971 31.8243C17.8243 31.9254 17.6874 32.0106 17.5917 32.0718C17.5438 32.1025 17.5062 32.1272 17.4795 32.1449L17.4477 32.1663L17.4381 32.1728L17.4348 32.175L17.4336 32.1758L17.4327 32.1765C16.9779 32.4898 16.8632 33.1125 17.1765 33.5673C17.4897 34.022 18.1125 34.1365 18.5673 33.8235Z" fill="#333333"/>
</svg>
