<svg width="48" height="48" viewBox="0 0 48 48" fill="none" xmlns="http://www.w3.org/2000/svg">
<path fill-rule="evenodd" clip-rule="evenodd" d="M24 44C35.0457 44 44 35.0457 44 24C44 12.9543 35.0457 4 24 4C12.9543 4 4 12.9543 4 24C4 35.0457 12.9543 44 24 44ZM17 23C18.1046 23 19 22.1046 19 21C19 19.8954 18.1046 19 17 19C15.8954 19 15 19.8954 15 21C15 22.1046 15.8954 23 17 23ZM33 21C33 22.1046 32.1046 23 31 23C29.8954 23 29 22.1046 29 21C29 19.8954 29.8954 19 31 19C32.1046 19 33 19.8954 33 21ZM30.7071 31.7071L30 31C30.7071 31.7071 30.7064 31.7078 30.7064 31.7078L30.704 31.7102L30.7001 31.7141L30.6899 31.724C30.6822 31.7315 30.6724 31.7409 30.6605 31.752C30.6368 31.7742 30.6049 31.8034 30.5648 31.8385C30.4845 31.9087 30.3713 32.0028 30.225 32.1125C29.9325 32.3318 29.5067 32.6147 28.9472 32.8944C27.8249 33.4556 26.1728 34 24 34C21.8272 34 20.1751 33.4556 19.0528 32.8944C18.4933 32.6147 18.0675 32.3318 17.775 32.1125C17.6287 32.0028 17.5155 31.9087 17.4352 31.8385C17.3951 31.8034 17.3632 31.7742 17.3395 31.752C17.3276 31.7409 17.3178 31.7315 17.3101 31.724L17.2999 31.7141L17.296 31.7102L17.2944 31.7086L17.2936 31.7078C17.2936 31.7078 17.2929 31.7071 18 31L17.2929 31.7071C16.9024 31.3166 16.9024 30.6834 17.2929 30.2929C17.6817 29.904 18.3111 29.9024 18.7021 30.2879L18.7074 30.2929C18.7149 30.3 18.7299 30.3138 18.7523 30.3334C18.797 30.3725 18.8713 30.4347 18.975 30.5125C19.1825 30.6682 19.5067 30.8853 19.9472 31.1056C20.8249 31.5444 22.1728 32 24 32C25.8272 32 27.1751 31.5444 28.0528 31.1056C28.4933 30.8853 28.8175 30.6682 29.025 30.5125C29.1287 30.4347 29.203 30.3725 29.2477 30.3334C29.2701 30.3138 29.2851 30.3 29.2926 30.2929L29.2979 30.2879C29.6889 29.9024 30.3183 29.904 30.7071 30.2929C31.0976 30.6834 31.0976 31.3166 30.7071 31.7071Z" fill="#333333"/>
</svg>
