<svg width="48" height="48" viewBox="0 0 48 48" fill="none" xmlns="http://www.w3.org/2000/svg">
<path d="M32.0366 21.8022C31.1317 19.9605 30.0378 18.2217 28.773 16.615C27.7845 14.9828 26.5154 13.5456 25.0265 12.3721C24.0912 11.8091 22.9858 11.6151 21.9196 11.8268C20.4053 12.1593 19.5045 14.0613 18.7082 15.2317L16.0973 18.8495C15.9105 19.1226 15.8309 19.4572 15.8744 19.7872C15.9179 20.1172 16.0813 20.4186 16.3323 20.6318L21.0319 24.5421C21.2473 24.7154 21.5108 24.8151 21.785 24.827C22.0592 24.8389 22.3301 24.7625 22.5592 24.6086C22.2459 25.8722 17.7944 38.7206 17.7422 38.8935H22.8464L23.0292 42.6708C23.0292 43.0236 23.1667 43.3619 23.4115 43.6113C23.6563 43.8608 23.9884 44.0009 24.3346 44.0009C24.6808 44.0009 25.0129 43.8608 25.2577 43.6113C25.5025 43.3619 25.64 43.0236 25.64 42.6708L25.8358 38.9733H30.457C30.457 38.6408 30.0001 32.0969 30.0393 31.3387C30.0785 30.5806 30.8878 30.1284 31.3447 29.6762C31.8757 29.1264 32.3165 28.4932 32.6502 27.8008C32.9226 27.1744 33.0818 26.503 33.1201 25.819C33.1006 24.4079 32.7276 23.0253 32.0366 21.8022ZM18.9823 19.5012L21.7237 16.3091C21.9065 17.1869 22.1154 18.0648 22.3112 18.9692C22.6376 20.1921 22.8087 21.4527 22.8203 22.72C22.7721 22.6503 22.7198 22.5837 22.6636 22.5204L18.9823 19.5012Z" fill="#333333"/>
<path d="M26.4935 11C27.4276 10.9901 28.3197 10.6247 28.9754 9.98365C29.631 9.34255 29.997 8.4777 29.9935 7.57768C30.0226 7.11839 29.9538 6.65821 29.7914 6.22549C29.629 5.79276 29.3764 5.39663 29.0492 5.06149C28.7219 4.72634 28.3269 4.45928 27.8885 4.27673C27.4501 4.09417 26.9776 4 26.5 4C26.0224 4 25.5499 4.09417 25.1115 4.27673C24.6731 4.45928 24.2781 4.72634 23.9508 5.06149C23.6236 5.39663 23.371 5.79276 23.2086 6.22549C23.0462 6.65821 22.9774 7.11839 23.0065 7.57768C22.9996 8.47654 23.3626 9.34142 24.0162 9.98287C24.6698 10.6243 25.5606 10.9901 26.4935 11Z" fill="#333333"/>
</svg>
