<svg width="48" height="48" viewBox="0 0 48 48" fill="none" xmlns="http://www.w3.org/2000/svg">
<path fill-rule="evenodd" clip-rule="evenodd" d="M24 44C35.0457 44 44 35.0457 44 24C44 12.9543 35.0457 4 24 4C12.9543 4 4 12.9543 4 24C4 35.0457 12.9543 44 24 44ZM18.9285 20.6286C18.7234 20.1158 18.1414 19.8664 17.6286 20.0715L15.1508 21.0626L15.1496 21.0631L15.1484 21.0636L15.1472 21.0641L15.1461 21.0645L15.1451 21.0649L15.1441 21.0653L15.1368 21.0683L15.1302 21.0709L15.1292 21.0713L15.1283 21.0717L15.1141 21.0773L15.1131 21.0777L15.1121 21.0781L15.1111 21.0785L15.1077 21.0799L15.1064 21.0804L15.1051 21.0809L15.1038 21.0814L15.0606 21.0987L15.0579 21.0998L12.6286 22.0715C12.1158 22.2766 11.8664 22.8586 12.0715 23.3714C12.2766 23.8842 12.8586 24.1336 13.3714 23.9285L15.8492 22.9374L15.8528 22.9359L15.8539 22.9355L15.8549 22.9351L15.8559 22.9347L15.8632 22.9317L15.8698 22.9291L15.8717 22.9283L15.8859 22.9227L15.8869 22.9223L15.8879 22.9219L15.8889 22.9215L15.8923 22.9201L15.8936 22.9196L15.8949 22.9191L15.8962 22.9186L18.3714 21.9285C18.8842 21.7234 19.1336 21.1414 18.9285 20.6286ZM30.3714 20.0715C29.8586 19.8664 29.2766 20.1158 29.0715 20.6286C28.8664 21.1414 29.1158 21.7234 29.6286 21.9285L32.1051 22.9191L32.1064 22.9196L32.1111 22.9215L32.1121 22.9219L32.1131 22.9223L32.1141 22.9227L32.1204 22.9252L32.128 22.9282L32.13 22.929L32.1309 22.9294L32.1461 22.9355L32.1484 22.9364L32.1508 22.9374L34.6286 23.9285C35.1414 24.1336 35.7234 23.8842 35.9285 23.3714C36.1336 22.8586 35.8842 22.2766 35.3714 22.0715L32.8949 21.0809L32.8936 21.0804L32.8889 21.0785L32.8879 21.0781L32.8869 21.0777L32.8859 21.0773L32.8796 21.0748L32.872 21.0718L32.87 21.071L32.8691 21.0706L32.8539 21.0645L32.8528 21.0641L32.8516 21.0636L32.8504 21.0631L32.8492 21.0626L30.3714 20.0715ZM16.801 33.5987L16.8 33.6C16.4685 34.0413 15.8416 34.1312 15.4 33.8C14.9582 33.4686 14.8686 32.8418 15.2 32.4L16 33C15.2 32.4 15.1997 32.4003 15.2 32.4L15.2011 32.3986L15.2024 32.3968L15.206 32.3921L15.2165 32.3784C15.225 32.3673 15.2364 32.3526 15.2509 32.3344C15.2797 32.2979 15.3204 32.2476 15.3727 32.1853C15.4772 32.0607 15.6286 31.8879 15.8249 31.6831C16.2167 31.2743 16.7922 30.7328 17.5368 30.1913C19.0223 29.1109 21.2245 28 24 28C26.7755 28 28.9777 29.1109 30.4632 30.1913C31.2078 30.7328 31.7833 31.2743 32.1751 31.6831C32.3714 31.8879 32.5228 32.0607 32.6273 32.1853C32.6796 32.2476 32.7203 32.2979 32.7491 32.3344C32.7636 32.3526 32.775 32.3673 32.7835 32.3784L32.794 32.3921L32.7976 32.3968L32.7989 32.3986C32.7992 32.3989 32.8 32.4 32.0353 32.9735L32.8 32.4C33.1314 32.8418 33.0418 33.4686 32.6 33.8C32.1588 34.1309 31.5333 34.0421 31.2015 33.602L31.2008 33.6011C31.2006 33.6008 31.2 33.6 32 33L31.2 33.6L31.199 33.5987L31.181 33.5758C31.1635 33.5536 31.1348 33.5181 31.0954 33.471C31.0163 33.3768 30.8942 33.2371 30.7311 33.0669C30.4042 32.7257 29.9172 32.2672 29.2868 31.8087C28.0223 30.8891 26.2245 30 24 30C21.7755 30 19.9777 30.8891 18.7132 31.8087C18.0828 32.2672 17.5958 32.7257 17.2689 33.0669C17.1058 33.2371 16.9837 33.3768 16.9046 33.471C16.8652 33.5181 16.8365 33.5536 16.819 33.5758L16.801 33.5987Z" fill="#333333"/>
</svg>
