<svg width="48" height="48" viewBox="0 0 48 48" fill="none" xmlns="http://www.w3.org/2000/svg">
<path fill-rule="evenodd" clip-rule="evenodd" d="M22.9672 11.5002C25.1764 11.5002 26.9673 9.70852 26.9673 7.49839C26.9673 5.28825 25.1764 3.49658 22.9672 3.49658C20.7581 3.49658 18.9672 5.28825 18.9672 7.49839C18.9672 9.70852 20.7581 11.5002 22.9672 11.5002ZM20.5311 12.5058C20.4976 12.5058 20.4643 12.5064 20.4311 12.5075L20.4079 12.5073H18.4672C17.8973 12.5073 17.3766 12.8303 17.1234 13.3409L13.6562 20.3331C13.3922 20.8654 13.4673 21.5033 13.8477 21.9598L18.8477 27.9598C19.378 28.5962 20.3239 28.6822 20.9603 28.1518C21.5967 27.6215 21.6827 26.6756 21.1524 26.0392L16.7781 20.7901L17.5504 19.2327V20.1553L21.9206 25.3995C22.0945 25.6083 22.2287 25.837 22.3239 26.0765C22.5412 26.0264 22.7675 26 23 26C24.6569 26 26 27.3431 26 29C26 29.8783 25.6226 30.6684 25.0212 31.217H25.0887V42.8689C25.0887 43.768 25.8243 44.5035 26.7233 44.5035C27.6223 44.5035 28.3578 43.768 28.3578 42.8689V23.2412C29.2569 23.2412 32.0329 21.53 32.0329 17.3163C32.0329 14.1404 29.2569 12.5058 28.3578 12.5058H20.5311ZM20.9789 31.217C20.494 30.7747 20.1548 30.1755 20.0415 29.4997C19.3117 29.5114 18.5831 29.2048 18.0795 28.6004L17.5504 27.9655V42.8689C17.5504 43.768 18.2859 44.5035 19.185 44.5035C20.084 44.5035 20.8195 43.768 20.8195 42.8689V31.217H20.9789ZM21.0199 29.2832C21.1575 30.2536 21.9916 31 23 31C24.1046 31 25 30.1046 25 29C25 27.8954 24.1046 27 23 27C22.8271 27 22.6593 27.0219 22.4993 27.0632C22.4814 27.7575 22.176 28.441 21.6005 28.9205C21.4199 29.071 21.2244 29.1917 21.0199 29.2832Z" fill="#333333"/>
</svg>
