<svg width="48" height="48" viewBox="0 0 48 48" fill="none" xmlns="http://www.w3.org/2000/svg">
<path fill-rule="evenodd" clip-rule="evenodd" d="M23.3931 28.9299C23.9454 28.9299 24.3931 29.3776 24.3931 29.9299V39.9299C24.3931 40.4822 23.9454 40.9299 23.3931 40.9299C22.8408 40.9299 22.3931 40.4822 22.3931 39.9299V29.9299C22.3931 29.3776 22.8408 28.9299 23.3931 28.9299Z" fill="#333333"/>
<path fill-rule="evenodd" clip-rule="evenodd" d="M19.3931 36.9299C19.3931 36.3776 19.8408 35.9299 20.3931 35.9299H26.3931C26.9454 35.9299 27.3931 36.3776 27.3931 36.9299C27.3931 37.4822 26.9454 37.9299 26.3931 37.9299H20.3931C19.8408 37.9299 19.3931 37.4822 19.3931 36.9299Z" fill="#333333"/>
<path fill-rule="evenodd" clip-rule="evenodd" d="M23.3931 14.9287C19.5271 14.9287 16.3931 18.0627 16.3931 21.9287C16.3931 25.7947 19.5271 28.9287 23.3931 28.9287C27.2591 28.9287 30.3931 25.7947 30.3931 21.9287C30.3931 18.0627 27.2591 14.9287 23.3931 14.9287ZM23.3931 12.9287C18.4225 12.9287 14.3931 16.9581 14.3931 21.9287C14.3931 26.8993 18.4225 30.9287 23.3931 30.9287C28.3636 30.9287 32.3931 26.8993 32.3931 21.9287C32.3931 16.9581 28.3636 12.9287 23.3931 12.9287Z" fill="#333333"/>
<path fill-rule="evenodd" clip-rule="evenodd" d="M29.1182 16.7049C28.7289 16.3131 28.7309 15.68 29.1227 15.2907L36.7059 7.75503C37.0977 7.36574 37.7308 7.36773 38.1201 7.75949C38.5094 8.15124 38.5074 8.7844 38.1157 9.17369L30.5324 16.7093C30.1407 17.0986 29.5075 17.0966 29.1182 16.7049Z" fill="#333333"/>
<path fill-rule="evenodd" clip-rule="evenodd" d="M35.7027 15.8272C35.3122 16.2177 34.679 16.2177 34.2885 15.8272L30.0459 11.5846C29.6553 11.194 29.6553 10.5609 30.0459 10.1703C30.4364 9.77982 31.0695 9.77982 31.4601 10.1703L35.7027 14.413C36.0932 14.8035 36.0932 15.4367 35.7027 15.8272Z" fill="#333333"/>
<path fill-rule="evenodd" clip-rule="evenodd" d="M37.875 13C37.3227 13 36.875 12.5523 36.875 12V9H33.875C33.3227 9 32.875 8.55228 32.875 8C32.875 7.44772 33.3227 7 33.875 7H37.875C38.4273 7 38.875 7.44772 38.875 8V12C38.875 12.5523 38.4273 13 37.875 13Z" fill="#333333"/>
<path fill-rule="evenodd" clip-rule="evenodd" d="M11.1713 8.29714L18.1671 15.2929C18.5576 15.6834 18.5576 16.3166 18.1671 16.7071C17.7765 17.0976 17.1434 17.0976 16.7529 16.7071L9.75713 9.71136C9.36661 9.32083 9.36661 8.68767 9.75713 8.29714C10.1477 7.90662 10.7808 7.90662 11.1713 8.29714Z" fill="#333333"/>
<path fill-rule="evenodd" clip-rule="evenodd" d="M15 8.53992C15 9.0922 14.5523 9.53992 14 9.53992H11V12.5399C11 13.0922 10.5523 13.5399 10 13.5399C9.44772 13.5399 9 13.0922 9 12.5399V8.53992C9 7.98763 9.44772 7.53992 10 7.53992H14C14.5523 7.53992 15 7.98763 15 8.53992Z" fill="#333333"/>
</svg>
