<svg width="48" height="48" viewBox="0 0 48 48" fill="none" xmlns="http://www.w3.org/2000/svg">
<path fill-rule="evenodd" clip-rule="evenodd" d="M24.842 13.3755C25.2644 14.1054 25.8952 14.694 26.6542 15.0667C27.1551 15.3147 27.7002 15.4621 28.2584 15.5005C28.8165 15.5389 29.3768 15.4674 29.9072 15.2902C30.4376 15.113 30.9278 14.8336 31.3496 14.4678C31.7715 14.1021 32.1168 13.6572 32.3658 13.1587C32.7451 12.4057 32.8912 11.5576 32.7855 10.7219C32.6798 9.88624 32.3272 9.10059 31.7723 8.4646C31.2174 7.82861 30.4852 7.37091 29.6685 7.14953C28.8519 6.92815 27.9876 6.95306 27.1852 7.22111C26.3828 7.48916 25.6785 7.98826 25.1615 8.65515C24.6445 9.32204 24.3381 10.1267 24.2812 10.967C24.2244 11.8074 24.4195 12.6457 24.842 13.3755ZM7.85462 16.8405C7.23308 17.5422 6.71891 18.3351 6.32982 19.1918C6.049 19.8907 6.03757 20.669 6.29783 21.3692C6.5581 22.0695 7.07065 22.6395 7.73195 22.9643L18.4764 28.3672L17.0654 38.1861C16.973 38.895 17.1562 39.6091 17.5757 40.1754C17.9953 40.7418 18.6178 41.1152 19.31 41.2159C19.6431 41.2476 19.98 41.2104 20.3004 41.1064C20.6208 41.0024 20.9181 40.8339 21.1746 40.6109C21.431 40.3878 21.6413 40.1149 21.7929 39.8084C21.9444 39.5019 22.0342 39.1681 22.0566 38.8271L23.5385 27.6325C23.7009 27.0835 23.6965 26.4993 23.5258 25.9572C23.3552 25.4151 23.0263 24.9408 22.5828 24.597L16.0701 19.9399C17.1455 18.9288 18.1613 17.8537 19.1121 16.7203L19.0188 18.5498C18.9995 18.8887 19.0655 19.2259 19.2105 19.5294C19.3555 19.8328 19.5748 20.0925 19.8474 20.2835L26.4025 24.951C26.5978 25.0887 26.8165 25.189 27.0479 25.2469C27.4927 25.3542 27.9623 25.2991 28.3755 25.0912C28.7886 24.8833 29.1192 24.5356 29.3102 24.1083C29.5012 23.681 29.5405 23.201 29.4212 22.7513C29.302 22.3016 29.0317 21.9105 28.6573 21.6457L22.9831 17.6533C22.9831 17.6533 23.2025 11.9909 23.2025 11.0174C23.2025 10.1568 23.118 10.0528 22.9093 9.79619C22.8819 9.76255 22.8524 9.72628 22.8207 9.68534C22.556 9.3437 22.187 9.10213 21.7709 8.99812C20.2319 8.43603 18.5306 8.51383 17.0316 9.21485C12.9491 10.71 7.85462 16.8405 7.85462 16.8405Z" fill="#333333"/>
<path d="M42 38.5C42 39.8807 38.4183 41 34 41C29.5817 41 26 39.8807 26 38.5C26 37.1193 29.5817 36 34 36C38.4183 36 42 37.1193 42 38.5Z" fill="#333333"/>
<path d="M31.738 18.7932C31.738 19.3749 31.264 19.8466 30.6794 19.8466C30.0948 19.8466 29.6208 19.3749 29.6208 18.7932C29.6208 18.2114 30.0948 17.7397 30.6794 17.7397C31.264 17.7397 31.738 18.2114 31.738 18.7932Z" fill="#333333"/>
<path d="M33.8551 25.6403C33.8551 26.513 33.1442 27.2204 32.2673 27.2204C31.3903 27.2204 30.6794 26.513 30.6794 25.6403C30.6794 24.7676 31.3903 24.0602 32.2673 24.0602C33.1442 24.0602 33.8551 24.7676 33.8551 25.6403Z" fill="#333333"/>
<path d="M37.0308 28.2737C37.0308 28.8555 36.5569 29.3271 35.9723 29.3271C35.3876 29.3271 34.9137 28.8555 34.9137 28.2737C34.9137 27.692 35.3876 27.2203 35.9723 27.2203C36.5569 27.2203 37.0308 27.692 37.0308 28.2737Z" fill="#333333"/>
<path d="M32.7966 32.4874C32.7966 33.0691 32.3226 33.5408 31.738 33.5408C31.1534 33.5408 30.6794 33.0691 30.6794 32.4874C30.6794 31.9056 31.1534 31.434 31.738 31.434C32.3226 31.434 32.7966 31.9056 32.7966 32.4874Z" fill="#333333"/>
<path d="M39.1479 35.1743C39.1479 36.047 38.437 36.7545 37.56 36.7545C36.6831 36.7545 35.9722 36.047 35.9722 35.1743C35.9722 34.3017 36.6831 33.5942 37.56 33.5942C38.437 33.5942 39.1479 34.3017 39.1479 35.1743Z" fill="#333333"/>
</svg>
