<svg width="48" height="48" viewBox="0 0 48 48" fill="none" xmlns="http://www.w3.org/2000/svg">
<path d="M24 7L24.8944 6.55279C24.725 6.214 24.3788 6 24 6C23.6212 6 23.275 6.214 23.1056 6.55279L24 7ZM41 41V42C41.3466 42 41.6684 41.8205 41.8507 41.5257C42.0329 41.2309 42.0494 40.8628 41.8944 40.5528L41 41ZM7 41L6.10557 40.5528C5.95058 40.8628 5.96714 41.2309 6.14935 41.5257C6.33156 41.8205 6.65342 42 7 42V41ZM41 40H7V42H41V40ZM7.89443 41.4472L24.8944 7.44721L23.1056 6.55279L6.10557 40.5528L7.89443 41.4472ZM23.1056 7.44721L40.1056 41.4472L41.8944 40.5528L24.8944 6.55279L23.1056 7.44721Z" fill="#333333"/>
<path fill-rule="evenodd" clip-rule="evenodd" d="M25 19V28C25 28.5523 24.5523 29 24 29C23.4477 29 23 28.5523 23 28V19C23 18.4477 23.4477 18 24 18C24.5523 18 25 18.4477 25 19ZM21 19C21 17.3431 22.3431 16 24 16C25.6569 16 27 17.3431 27 19V28C27 29.6569 25.6569 31 24 31C22.3431 31 21 29.6569 21 28V19ZM24 37C23.4477 37 23 36.5523 23 36C23 35.4477 23.4477 35 24 35C24.5523 35 25 35.4477 25 36C25 36.5523 24.5523 37 24 37ZM21 36C21 34.3431 22.3431 33 24 33C25.6569 33 27 34.3431 27 36C27 37.6569 25.6569 39 24 39C22.3431 39 21 37.6569 21 36Z" fill="#333333"/>
</svg>
