<svg width="48" height="48" viewBox="0 0 48 48" fill="none" xmlns="http://www.w3.org/2000/svg">
<path fill-rule="evenodd" clip-rule="evenodd" d="M24 11C25.6569 11 27 12.3431 27 14V26C27 27.6569 25.6569 29 24 29C22.3431 29 21 27.6569 21 26V14C21 12.3431 22.3431 11 24 11ZM23 26V14C23 13.4477 23.4477 13 24 13C24.5523 13 25 13.4477 25 14V26C25 26.5523 24.5523 27 24 27C23.4477 27 23 26.5523 23 26Z" fill="#333333"/>
<path fill-rule="evenodd" clip-rule="evenodd" d="M27 34C27 32.3431 25.6569 31 24 31C22.3431 31 21 32.3431 21 34C21 35.6569 22.3431 37 24 37C25.6569 37 27 35.6569 27 34ZM24 35C24.5523 35 25 34.5523 25 34C25 33.4477 24.5523 33 24 33C23.4477 33 23 33.4477 23 34C23 34.5523 23.4477 35 24 35Z" fill="#333333"/>
<path fill-rule="evenodd" clip-rule="evenodd" d="M24 4C12.9543 4 4 12.9543 4 24C4 35.0457 12.9543 44 24 44C35.0457 44 44 35.0457 44 24C44 12.9543 35.0457 4 24 4ZM24 6C14.0589 6 6 14.0589 6 24C6 33.9411 14.0589 42 24 42C33.9411 42 42 33.9411 42 24C42 14.0589 33.9411 6 24 6Z" fill="#333333"/>
</svg>
