<svg width="49" height="48" viewBox="0 0 49 48" fill="none" xmlns="http://www.w3.org/2000/svg">
<path fill-rule="evenodd" clip-rule="evenodd" d="M29.4882 32.2841C34.1981 31.1834 36.8379 26.9977 35.9394 23.2573C35.0409 19.517 30.7775 16.9445 26.0676 18.0452C21.3577 19.1458 18.7179 23.3315 19.6164 27.0719C20.515 30.8123 24.7783 33.3847 29.4882 32.2841ZM29.9554 34.2287C35.5384 32.924 39.0895 27.8082 37.8869 22.8022C36.6843 17.7962 31.1835 14.7958 25.6005 16.1005C20.0174 17.4052 16.4663 22.521 17.6689 27.527C18.8715 32.533 24.3723 35.5334 29.9554 34.2287Z" fill="#333333"/>
<path fill-rule="evenodd" clip-rule="evenodd" d="M32.0279 27.8221C32.2534 27.8221 32.389 27.649 32.389 27.4933C32.389 27.3377 32.2534 27.1646 32.0279 27.1646C31.8023 27.1646 31.6667 27.3377 31.6667 27.4933C31.6667 27.649 31.8023 27.8221 32.0279 27.8221ZM32.0279 29.8221C33.3319 29.8221 34.389 28.7795 34.389 27.4933C34.389 26.2072 33.3319 25.1646 32.0279 25.1646C30.7239 25.1646 29.6667 26.2072 29.6667 27.4933C29.6667 28.7795 30.7239 29.8221 32.0279 29.8221Z" fill="#333333"/>
<path fill-rule="evenodd" clip-rule="evenodd" d="M12.3577 14.6069C12.9344 13.1089 14.399 12.0549 16.1012 12.0549C17.2019 12.0549 18.2014 12.4953 18.9264 13.2093C19.3319 13.0651 19.7685 12.9867 20.2224 12.9867C22.3264 12.9867 24.0557 14.6726 24.0557 16.7812V16.9456L24.0031 17.1014C23.654 18.1342 23.0728 18.9906 22.2502 19.6297C21.4848 20.7045 20.0454 21.9416 17.6752 21.7219C17.44 21.7 17.291 21.7422 17.1878 21.7963C17.0789 21.8535 16.9601 21.9565 16.8407 22.1419C16.5857 22.5376 16.4052 23.1891 16.3335 24.0317C16.2637 24.8516 16.3053 25.748 16.4085 26.5456C16.4887 27.1649 16.6004 27.6812 16.7064 28.0319C17.7203 28.7474 18.389 29.9242 18.389 31.2615C18.389 32.0059 18.1811 32.7024 17.8214 33.2966C18.1854 33.91 18.389 34.6413 18.389 35.4113C18.389 36.0309 18.2574 36.6236 18.0177 37.1499C18.2546 37.6057 18.389 38.1235 18.389 38.6718C18.389 40.5231 16.8712 42.0005 15.0279 42.0005C13.1847 42.0005 11.6668 40.5231 11.6668 38.6718C11.6668 38.1235 11.8012 37.6057 12.0381 37.1499C11.7984 36.6236 11.6668 36.0309 11.6668 35.4113C11.6668 35.0273 11.7173 34.6539 11.8126 34.3004C10.9394 33.5758 10.3789 32.4862 10.3789 31.2615C10.3789 31.0861 10.3905 30.9133 10.4129 30.7436C8.89431 30.1845 7.80314 28.7389 7.80314 27.0274C7.80314 26.5107 7.90341 26.0166 8.08536 25.5636C7.38198 24.8512 6.94458 23.8746 6.94458 22.7932C6.94458 21.3948 7.67418 20.1735 8.768 19.4689C8.69852 19.1765 8.66177 18.8718 8.66177 18.5591C8.66177 16.4611 10.3012 14.7628 12.3577 14.6069ZM16.1012 14.0549C15.0728 14.0549 14.2399 14.8091 14.1131 15.761L13.9789 16.7685L12.9737 16.6179C12.8742 16.603 12.7718 16.5952 12.6668 16.5952C11.5464 16.5952 10.6618 17.4874 10.6618 18.5591C10.6618 18.8973 10.7482 19.2133 10.9006 19.4898L11.4879 20.5556L10.3284 20.9252C9.51656 21.1839 8.94458 21.93 8.94458 22.7932C8.94458 23.4887 9.31381 24.1059 9.88423 24.4574L10.8007 25.0221L10.1701 25.8945C9.93821 26.2153 9.80314 26.6049 9.80314 27.0274C9.80314 28.069 10.6387 28.941 11.7143 28.9892L13.23 29.057L12.57 30.4232C12.4476 30.6765 12.3789 30.9599 12.3789 31.2615C12.3789 32.0204 12.8196 32.6876 13.48 33.0151L14.4065 33.4747L13.916 34.3853C13.7623 34.6706 13.6668 35.0221 13.6668 35.4113C13.6668 35.8885 13.8101 36.3072 14.0266 36.6175L14.4646 37.245L13.9732 37.8318C13.7802 38.0622 13.6668 38.3535 13.6668 38.6718C13.6668 39.3927 14.2631 40.0005 15.0279 40.0005C15.7927 40.0005 16.389 39.3927 16.389 38.6718C16.389 38.3535 16.2756 38.0622 16.0826 37.8318L15.5913 37.245L16.0292 36.6175C16.2457 36.3072 16.389 35.8885 16.389 35.4113C16.389 34.8113 16.1633 34.3092 15.8554 33.9946L15.1786 33.3031L15.8475 32.6039C16.1856 32.2504 16.389 31.7793 16.389 31.2615C16.389 30.5403 15.9916 29.9026 15.3849 29.5593L15.0835 29.3887L14.9522 29.0681C14.7281 28.5213 14.5402 27.6918 14.4251 26.8024C14.308 25.8979 14.2562 24.855 14.3407 23.8622C14.4232 22.8922 14.6444 21.8579 15.1594 21.0586C15.4249 20.6465 15.7831 20.2748 16.2584 20.0254C16.7393 19.773 17.2816 19.6768 17.8598 19.7304C19.3669 19.8701 20.2044 19.0984 20.6875 18.3732L20.7878 18.2225L20.9346 18.1166C21.4237 17.7637 21.798 17.2796 22.0489 16.626C21.9688 15.7182 21.1932 14.9867 20.2224 14.9867C19.8424 14.9867 19.4931 15.0987 19.2027 15.2895L18.3518 15.8486L17.8081 14.9878C17.4554 14.4294 16.8252 14.0549 16.1012 14.0549Z" fill="#333333"/>
<path fill-rule="evenodd" clip-rule="evenodd" d="M31.7098 17.301L31.7115 17.2931C31.7133 17.2845 31.7164 17.27 31.7208 17.2501C31.7296 17.2103 31.7438 17.1488 31.7638 17.0683C31.8039 16.9072 31.8671 16.6714 31.9575 16.3838C32.1391 15.8059 32.4261 15.0325 32.8468 14.2401C33.7063 12.6213 35.0114 11.1243 36.9316 10.7714C37.4783 10.6709 37.8403 10.1522 37.7401 9.6128C37.6399 9.07345 37.1153 8.71769 36.5685 8.81819C33.7406 9.33799 32.0317 11.4999 31.0643 13.3219C30.5715 14.25 30.2417 15.1424 30.0349 15.8002C29.9312 16.1305 29.8573 16.405 29.8089 16.5998C29.7846 16.6973 29.7667 16.775 29.7544 16.8301C29.7483 16.8576 29.7436 16.8795 29.7403 16.8953L29.7363 16.9145L29.7351 16.9206L29.7346 16.9228C29.7346 16.9232 29.7343 16.9244 30.7219 17.1127L29.7343 16.9244C29.6274 17.4631 29.9829 17.9841 30.5284 18.0881C31.0737 18.1921 31.6026 17.8394 31.7098 17.301L31.7096 17.302C31.7096 17.3021 31.7096 17.302 31.7096 17.302M31.7096 17.302L31.7098 17.301L31.7096 17.302Z" fill="#333333"/>
<path fill-rule="evenodd" clip-rule="evenodd" d="M6.64464 6.06531C7.16087 5.86903 7.73847 6.12841 7.93475 6.64464C8.48039 8.07976 9.73202 8.79455 11.0729 8.79455C12.423 8.79455 13.8407 8.06163 14.6081 6.54786C14.7707 6.2271 15.093 6.01836 15.4522 6.00117C15.8114 5.98398 16.1522 6.161 16.3447 6.46476C17.4018 8.13294 18.6565 8.79455 19.75 8.79455C20.8435 8.79455 22.0983 8.13294 23.1553 6.46476C23.3478 6.161 23.6886 5.98398 24.0478 6.00117C24.407 6.01836 24.7294 6.2271 24.892 6.54786C25.692 8.12603 26.9102 8.79456 28.0729 8.79456C29.2559 8.79457 30.6184 8.10116 31.6553 6.46477C31.8387 6.1754 32.1574 6.00003 32.5 6.00003C32.8426 6.00003 33.1613 6.17539 33.3447 6.46476C34.4018 8.13294 35.6565 8.79455 36.75 8.79455C37.8435 8.79455 39.0983 8.13294 40.1553 6.46476C40.451 5.99826 41.0688 5.85972 41.5353 6.15534C42.0018 6.45096 42.1403 7.06878 41.8447 7.53529C40.5407 9.59315 38.726 10.7945 36.75 10.7945C35.1682 10.7945 33.6897 10.0246 32.4939 8.66177C31.2522 10.0406 29.6824 10.7946 28.0729 10.7946C26.4972 10.7946 25.0266 10.0711 23.9386 8.73786C22.7548 10.0533 21.3022 10.7945 19.75 10.7945C18.1913 10.7945 16.733 10.047 15.5464 8.7211C14.3655 10.0956 12.7036 10.7945 11.0729 10.7945C8.99025 10.7945 6.93633 9.64632 6.06531 7.35541C5.86903 6.83918 6.12841 6.26158 6.64464 6.06531Z" fill="#333333"/>
</svg>
