<svg width="48" height="48" viewBox="0 0 48 48" fill="none" xmlns="http://www.w3.org/2000/svg">
<path d="M31.5 42H33.6003H36.6005L38.8563 32.9749L36.6005 22.9498C37.5118 23.7029 38.2712 24.2097 39.4975 26.2284C39.9826 27.0323 40.932 26.4422 41.6014 26.2339C42.012 25.9253 42.1245 25.3141 41.8489 24.8573L40.7463 23.0423C39.16 20.4309 36.5105 18.8752 33.6529 18.8752H20.3999L15.8322 13.8624C13 13.4118 13.083 8.8268 10.6344 6.14593C10.4319 5.92369 10.0944 5.96073 9.93691 6.22001C9.245 7.36826 9.35751 11.9363 10.28 12.9488C10.4657 13.1525 10.6907 13.2759 10.9157 13.4118C10.7919 13.5167 10.6513 13.6031 10.5557 13.7451L6.35925 19.8753C5.94861 20.4741 5.88673 21.2767 6.19049 21.9434L6.9949 23.709C7.29867 24.3757 7.92307 24.8017 8.60372 24.8017H10.3475C10.8257 24.8017 11.2813 24.5918 11.6189 24.2214L14 20.9167L16.7997 28.7527L17.7997 35.4597L16.7997 40.1667C16.7997 40.1667 15 39.5 15 42H16.7997H19.9714C19.9714 42 20.4658 40.7022 20.3999 39C20.2919 36.2135 19.7476 32.3435 20.9714 31.3099C23.1579 33.7333 25.5 33.5 27.8516 32C29.055 31.667 32.0105 28.6197 32.6003 30.3099C33.1901 32 35.1472 31.8349 35.0343 32.9749C36.6005 37 33.6999 38.4297 33.1901 40.1667M31.5 42C31.5 39.6051 33.0076 40.2639 33.1759 40.182M31.5 42L33.1759 40.182M33.1901 40.1667C33.1881 40.1734 33.1833 40.1785 33.1759 40.182M33.1901 40.1667L33.1759 40.182" stroke="#333333" stroke-width="2" stroke-linecap="round" stroke-linejoin="round"/>
</svg>
