<svg width="48" height="48" viewBox="0 0 48 48" fill="none" xmlns="http://www.w3.org/2000/svg">
<path fill-rule="evenodd" clip-rule="evenodd" d="M29.5913 4.67461C28.7899 4.21665 27.8914 4 26.9238 4H21.6761C19.8517 4 18.0073 4.84975 16.8975 6.38697C16.8604 6.43373 16.8241 6.4809 16.7886 6.52845L14.4523 9.55709L13.641 10.639C13.6405 10.6397 13.6399 10.6403 13.6394 10.641C11.1085 13.9837 11.109 18.6379 13.641 21.98L13.6469 21.9878L18.7192 28.4189L23.424 34.3903L31.2676 44.3909L38.832 38.6603L29.789 27.0891L24.997 21.0313L18.481 12.6149L18.4761 12.6086C17.9076 11.898 17.6095 10.9479 17.6095 10.0667C17.6095 9.25167 17.8658 8.43472 18.3832 7.73584L18.4982 7.5867L18.5089 7.57171C19.2104 6.58966 20.4332 6 21.6761 6H26.9238C27.5847 6 28.1338 6.14525 28.5991 6.4111C29.181 6.74365 29.6704 7.1096 30.0005 7.57171L31.628 6.40924C31.0533 5.60468 30.276 5.06587 29.5913 4.67461ZM15.717 11.2043C15.8932 12.14 16.2873 13.0717 16.9091 13.8515L23.4252 22.2681L28.2168 28.3253L28.2204 28.3299L36.006 38.2921L31.6276 41.6091L24.9963 33.1543L20.2902 27.1811L15.2294 20.7648C13.2438 18.1367 13.2457 14.4728 15.2351 11.8467L15.2381 11.8429L15.717 11.2043Z" fill="#333333"/>
<path fill-rule="evenodd" clip-rule="evenodd" d="M12.413 38.2917L20.2022 28.3249L18.6263 27.0934L9.58694 38.6599L17.1514 44.3905L24.9963 34.3882L23.4226 33.1539L16.7914 41.6087L12.413 38.2917Z" fill="#333333"/>
<path fill-rule="evenodd" clip-rule="evenodd" d="M31.627 6.43315C31.5873 6.37986 31.5465 6.3271 31.5048 6.2749L29.9321 7.5104L30.0322 7.64012C31.0977 9.07935 31.0679 11.1116 29.943 12.5178L29.9381 12.524L23.4189 20.9446L25.0003 22.1689L31.51 13.7606C32.1354 12.9765 32.5352 12.0671 32.7091 11.1227L33.1839 11.7558C35.1743 14.3831 35.1753 18.049 33.1871 20.6773L28.2143 27.0967L29.7954 28.3215L34.7782 21.8892C37.3101 18.547 37.3106 13.8928 34.7796 10.5501L33.9586 9.4554L31.627 6.43315Z" fill="#333333"/>
<path fill-rule="evenodd" clip-rule="evenodd" d="M21.5856 13.5094C20.5462 13.5094 19.5466 13.8817 18.8546 14.5736L17.4404 13.1594C18.558 12.0419 20.0917 11.5094 21.5856 11.5094H26.8333C28.3713 11.5094 29.8708 12.1607 30.9403 13.1232L29.6024 14.6098C28.8623 13.9438 27.8286 13.5094 26.8333 13.5094H21.5856Z" fill="#333333"/>
<path d="M41.6589 32.6986C41.6589 33.4174 41.0762 34 40.3574 34C39.6386 34 39.0559 33.4174 39.0559 32.6986C39.0559 31.9798 39.6386 31.3971 40.3574 31.3971C41.0762 31.3971 41.6589 31.9798 41.6589 32.6986Z" fill="#333333"/>
<path d="M36.7198 23.6071C36.7564 23.1536 36.8194 22.9421 37.0085 22.5659C37.3278 21.9538 37.7304 21.6508 38.251 21.3844C38.6301 21.2046 38.8702 21.1532 39.2922 21.0704C39.8921 21.0001 40.2419 20.9757 40.8479 21.0286C42.0334 21.1546 43.0251 21.598 43.5972 22.5659C43.9999 23.2736 44.0426 24.0199 43.9796 24.6483C43.921 25.2315 43.7538 25.6793 43.4529 26.0657C43.2495 26.3504 42.9424 26.6656 42.4157 27.0011C42.0005 27.2656 41.6162 27.4622 41.303 27.757C41.1871 27.8981 41.0834 28.0051 41.0834 28.2756C41.0834 28.8328 41.0814 29.3104 41.0814 29.8475C41.0814 30.2156 40.7225 30.36 40.3574 30.36C40.0253 30.36 39.6009 30.2847 39.5908 29.8292C39.5806 29.3737 39.5969 28.8261 39.5969 28.2797V27.753C39.6396 27.393 39.835 27.0647 40.1287 26.7306C40.5546 26.2694 40.978 26.0819 41.3746 25.8094C42.266 25.2678 42.4647 24.8929 42.4422 24.1216C42.4157 23.2157 41.9173 22.9137 41.3746 22.7184C41.1152 22.5996 39.9974 22.4673 39.2922 22.6615C38.7863 22.8008 38.3975 23.0552 38.2897 23.599C38.2557 23.7703 38.2998 23.8816 38.2673 24.0972C38.1916 24.3681 38.0643 24.5635 37.7609 24.6727C37.5492 24.7489 37.3776 24.732 37.2098 24.6605C36.7665 24.4713 36.6818 24.0772 36.7198 23.6071Z" fill="#333333"/>
</svg>
