<svg width="49" height="49" viewBox="0 0 49 49" fill="none" xmlns="http://www.w3.org/2000/svg">
<rect width="48" height="48" transform="translate(0 1) rotate(-0.0469255)" fill="white"/>
<path d="M33.0059 7.97299C33.0054 7.4207 33.4528 6.97262 34.005 6.97217C34.5573 6.97172 35.0054 7.41906 35.0059 7.97135L35.0337 41.9713C35.0342 42.5236 34.5868 42.9717 34.0345 42.9722C33.4822 42.9726 33.0342 42.5253 33.0337 41.973L33.0059 7.97299Z" fill="#333333"/>
<path d="M13.0059 7.98937C13.0054 7.43708 13.4528 6.989 14.005 6.98855C14.5573 6.9881 15.0054 7.43544 15.0059 7.98773L15.0337 41.9877C15.0342 42.54 14.5868 42.9881 14.0345 42.9885C13.4822 42.989 13.0342 42.5416 13.0337 41.9894L13.0059 7.98937Z" fill="#333333"/>
<path d="M23.0091 11.9812C23.0087 11.4289 23.456 10.9808 24.0083 10.9804C24.5606 10.9799 25.0087 11.4273 25.0091 11.9795L25.0124 15.9795C25.0129 16.5318 24.5655 16.9799 24.0132 16.9804C23.4609 16.9808 23.0129 16.5335 23.0124 15.9812L23.0091 11.9812Z" fill="#333333"/>
<path d="M23.0181 22.9812C23.0177 22.4289 23.465 21.9808 24.0173 21.9804C24.5696 21.9799 25.0177 22.4272 25.0181 22.9795L25.0214 26.9795C25.0219 27.5318 24.5745 27.9799 24.0222 27.9804C23.47 27.9808 23.0219 27.5335 23.0214 26.9812L23.0181 22.9812Z" fill="#333333"/>
<path d="M23.0272 33.9812C23.0267 33.4289 23.474 32.9808 24.0263 32.9804C24.5786 32.9799 25.0267 33.4272 25.0272 33.9795L25.0304 37.9795C25.0309 38.5318 24.5835 38.9799 24.0312 38.9804C23.479 38.9808 23.0309 38.5335 23.0304 37.9812L23.0272 33.9812Z" fill="#333333"/>
</svg>
