<svg width="48" height="48" viewBox="0 0 48 48" fill="none" xmlns="http://www.w3.org/2000/svg">
<path fill-rule="evenodd" clip-rule="evenodd" d="M12 27C13.1054 27 14 26.1054 14 25C14 23.8946 13.1054 23 12 23C10.8946 23 10 23.8946 10 25C10 26.1054 10.8946 27 12 27ZM16 25C16 27.21 14.21 29 12 29C9.79 29 8 27.21 8 25C8 22.79 9.79 21 12 21C14.21 21 16 22.79 16 25Z" fill="#333333"/>
<path fill-rule="evenodd" clip-rule="evenodd" d="M11.2958 31.0041C11.2246 30.9294 11.1045 30.7781 10.9556 30.5906C10.4471 29.95 9.60348 28.8871 9.23058 29.0173C7.12896 29.7508 5 31.2463 5 33.4963V34.6876C5 35.4124 5.58763 36.0001 6.3125 36.0001H17.6875C18.4124 36.0001 19 35.4124 19 34.6876V33.4963C19 31.2463 16.871 29.7508 14.7694 29.0173C14.3966 28.8872 13.5529 29.9499 13.0443 30.5904C12.8954 30.7779 12.7753 30.9293 12.7041 31.004C12.3585 31.0041 12.1825 31.004 12.0097 31.004C11.8303 31.004 11.6544 31.004 11.2958 31.0041ZM15.0443 31.2983C14.9144 31.453 14.7842 31.6157 14.6576 31.775C14.6431 31.7932 14.6283 31.8118 14.6135 31.8304C14.5465 31.9148 14.4776 32.0017 14.4173 32.0761C14.3535 32.1549 14.2531 32.2777 14.1513 32.3844L13.5605 33.0037L12.7047 33.004C12.3509 33.0041 12.1781 33.004 12.0088 33.004C11.8334 33.004 11.6617 33.004 11.2965 33.0041L10.4398 33.0044L9.84855 32.3844C9.74673 32.2777 9.64636 32.1549 9.58252 32.0761C9.52229 32.0017 9.45339 31.9149 9.38644 31.8306C9.37159 31.8119 9.35684 31.7933 9.34229 31.775C9.21573 31.6157 9.08551 31.453 8.95559 31.2983C8.4627 31.545 8.02969 31.8328 7.69659 32.1457C7.18592 32.6255 7 33.0669 7 33.4963V34.0001H17V33.4963C17 33.0669 16.8141 32.6255 16.3034 32.1457C15.9703 31.8328 15.5373 31.5449 15.0443 31.2983ZM8.46798 30.7761C8.45889 30.7695 8.45825 30.7683 8.46649 30.7749C8.46698 30.7753 8.46748 30.7757 8.46798 30.7761ZM15.5334 30.7749C15.5417 30.7684 15.541 30.7695 15.5319 30.7761C15.5324 30.7757 15.5329 30.7753 15.5334 30.7749Z" fill="#333333"/>
<path fill-rule="evenodd" clip-rule="evenodd" d="M36 27C37.1054 27 38 26.1054 38 25C38 23.8946 37.1054 23 36 23C34.8946 23 34 23.8946 34 25C34 26.1054 34.8946 27 36 27ZM40 25C40 27.21 38.21 29 36 29C33.79 29 32 27.21 32 25C32 22.79 33.79 21 36 21C38.21 21 40 22.79 40 25Z" fill="#333333"/>
<path fill-rule="evenodd" clip-rule="evenodd" d="M33.7154 29.347C33.6266 29.0886 33.4261 28.949 33.2306 29.0172C31.129 29.7507 29 31.2463 29 33.4962V34.6875C29 35.4124 29.5876 36 30.3125 36H41.6875C42.4124 36 43 35.4124 43 34.6875V33.4962C43 31.2463 40.871 29.7507 38.7694 29.0172C38.5739 28.949 38.3734 29.0886 38.2846 29.347L36.7041 31.0039C36.3585 31.004 36.1825 31.004 36.0096 31.004C35.8303 31.004 35.6544 31.0039 35.2958 31.0041L33.7154 29.347ZM32.8594 31.3473C32.4064 31.5827 32.0079 31.8533 31.6966 32.1457C31.1859 32.6255 31 33.0668 31 33.4962V34H41V33.4962C41 33.0668 40.8141 32.6255 40.3034 32.1457C39.9921 31.8533 39.5936 31.5827 39.1405 31.3473L37.5605 33.0036L36.7047 33.0039C36.351 33.004 36.1783 33.004 36.009 33.004C35.8336 33.004 35.6619 33.0039 35.2965 33.0041L34.4398 33.0043L32.8594 31.3473Z" fill="#333333"/>
<path fill-rule="evenodd" clip-rule="evenodd" d="M39 15H9V13H39V15Z" fill="#333333"/>
<path fill-rule="evenodd" clip-rule="evenodd" d="M11.7071 10.2929C12.0976 10.6834 12.0976 11.3166 11.7071 11.7071L9.58579 13.8285L11.7071 15.9498C12.0976 16.3403 12.0976 16.9735 11.7071 17.364C11.3166 17.7545 10.6834 17.7545 10.2929 17.364L8.17157 15.2427C7.39052 14.4616 7.39052 13.1953 8.17157 12.4142L10.2929 10.2929C10.6834 9.9024 11.3166 9.9024 11.7071 10.2929Z" fill="#333333"/>
<path fill-rule="evenodd" clip-rule="evenodd" d="M36.2929 17.7071C35.9024 17.3166 35.9024 16.6834 36.2929 16.2929L38.4142 14.1715L36.2929 12.0502C35.9024 11.6597 35.9024 11.0265 36.2929 10.636C36.6834 10.2455 37.3166 10.2455 37.7071 10.636L39.8284 12.7573C40.6095 13.5384 40.6095 14.8047 39.8284 15.5858L37.7071 17.7071C37.3166 18.0976 36.6834 18.0976 36.2929 17.7071Z" fill="#333333"/>
</svg>
