<svg width="48" height="48" viewBox="0 0 48 48" fill="none" xmlns="http://www.w3.org/2000/svg">
<path fill-rule="evenodd" clip-rule="evenodd" d="M24 11C16.8203 11 11 16.8203 11 24C11 31.1797 16.8203 37 24 37C31.1797 37 37 31.1797 37 24C37 16.8203 31.1797 11 24 11ZM9 24C9 15.7157 15.7157 9 24 9C32.2843 9 39 15.7157 39 24C39 32.2843 32.2843 39 24 39C15.7157 39 9 32.2843 9 24Z" fill="#333333"/>
<path fill-rule="evenodd" clip-rule="evenodd" d="M21 5C21 4.44772 21.4477 4 22 4H26C26.5523 4 27 4.44772 27 5C27 5.55228 26.5523 6 26 6H25V12C25 12.5523 24.5523 13 24 13C23.4477 13 23 12.5523 23 12V6H22C21.4477 6 21 5.55228 21 5Z" fill="#333333"/>
<path fill-rule="evenodd" clip-rule="evenodd" d="M24 35C24.5523 35 25 35.4477 25 36V42H26C26.5523 42 27 42.4477 27 43C27 43.5523 26.5523 44 26 44H22C21.4477 44 21 43.5523 21 43C21 42.4477 21.4477 42 22 42H23V36C23 35.4477 23.4477 35 24 35Z" fill="#333333"/>
<path fill-rule="evenodd" clip-rule="evenodd" d="M12.6864 39.5563C12.2958 39.9468 11.6627 39.9468 11.2721 39.5563L8.44371 36.7279C8.05319 36.3374 8.05319 35.7042 8.44371 35.3137C8.83424 34.9232 9.4674 34.9232 9.85793 35.3137L10.565 36.0208L14.8077 31.7781C15.1982 31.3876 15.8314 31.3876 16.2219 31.7781C16.6124 32.1687 16.6124 32.8018 16.2219 33.1924L11.9792 37.435L12.6864 38.1421C13.0769 38.5326 13.0769 39.1658 12.6864 39.5563Z" fill="#333333"/>
<path fill-rule="evenodd" clip-rule="evenodd" d="M31.7783 16.2218C31.3878 15.8313 31.3878 15.1981 31.7783 14.8076L36.021 10.565L35.3139 9.85786C34.9233 9.46733 34.9233 8.83417 35.3139 8.44364C35.7044 8.05312 36.3376 8.05312 36.7281 8.44364L39.5565 11.2721C39.947 11.6626 39.947 12.2958 39.5565 12.6863C39.166 13.0768 38.5328 13.0768 38.1423 12.6863L37.4352 11.9792L33.1926 16.2218C32.802 16.6123 32.1689 16.6123 31.7783 16.2218Z" fill="#333333"/>
<path fill-rule="evenodd" clip-rule="evenodd" d="M8.44368 12.6862C8.05315 12.2957 8.05315 11.6625 8.44368 11.272L11.2721 8.44359C11.6626 8.05307 12.2958 8.05307 12.6863 8.44359C13.0768 8.83412 13.0768 9.46728 12.6863 9.85781L11.9792 10.5649L16.2219 14.8076C16.6124 15.1981 16.6124 15.8312 16.2219 16.2218C15.8313 16.6123 15.1982 16.6123 14.8076 16.2218L10.565 11.9791L9.85789 12.6862C9.46737 13.0768 8.8342 13.0768 8.44368 12.6862Z" fill="#333333"/>
<path fill-rule="evenodd" clip-rule="evenodd" d="M31.7783 31.7781C32.1688 31.3876 32.802 31.3876 33.1925 31.7781L37.4352 36.0207L38.1423 35.3136C38.5328 34.9231 39.166 34.9231 39.5565 35.3136C39.947 35.7042 39.947 36.3373 39.5565 36.7278L36.7281 39.5563C36.3375 39.9468 35.7044 39.9468 35.3138 39.5563C34.9233 39.1657 34.9233 38.5326 35.3138 38.1421L36.0209 37.4349L31.7783 33.1923C31.3878 32.8018 31.3878 32.1686 31.7783 31.7781Z" fill="#333333"/>
<path fill-rule="evenodd" clip-rule="evenodd" d="M5 27.0004C4.44772 27.0004 4 26.5527 4 26.0004V22.0004C4 21.4481 4.44772 21.0004 5 21.0004C5.55228 21.0004 6 21.4481 6 22.0004V23.0004H12C12.5523 23.0004 13 23.4481 13 24.0004C13 24.5527 12.5523 25.0004 12 25.0004H6V26.0004C6 26.5527 5.55228 27.0004 5 27.0004Z" fill="#333333"/>
<path fill-rule="evenodd" clip-rule="evenodd" d="M35 24.0004C35 23.4481 35.4477 23.0004 36 23.0004H42V22.0004C42 21.4481 42.4477 21.0004 43 21.0004C43.5523 21.0004 44 21.4481 44 22.0004V26.0004C44 26.5527 43.5523 27.0004 43 27.0004C42.4477 27.0004 42 26.5527 42 26.0004V25.0004H36C35.4477 25.0004 35 24.5527 35 24.0004Z" fill="#333333"/>
<path fill-rule="evenodd" clip-rule="evenodd" d="M17 20.5C17.5523 20.5 18 20.9477 18 21.5V23H20V21.5C20 20.9477 20.4477 20.5 21 20.5C21.5523 20.5 22 20.9477 22 21.5V26.5C22 27.0523 21.5523 27.5 21 27.5C20.4477 27.5 20 27.0523 20 26.5V25H18V26.5C18 27.0523 17.5523 27.5 17 27.5C16.4477 27.5 16 27.0523 16 26.5V21.5C16 20.9477 16.4477 20.5 17 20.5Z" fill="#333333"/>
<path fill-rule="evenodd" clip-rule="evenodd" d="M24.5 20.5C25.0523 20.5 25.5 20.9477 25.5 21.5V26.5C25.5 27.0523 25.0523 27.5 24.5 27.5C23.9477 27.5 23.5 27.0523 23.5 26.5V21.5C23.5 20.9477 23.9477 20.5 24.5 20.5Z" fill="#333333"/>
<path fill-rule="evenodd" clip-rule="evenodd" d="M27.1286 20.5715C27.6414 20.3664 28.2234 20.6158 28.4285 21.1286L29.5 23.8074L30.5715 21.1286C30.7767 20.6158 31.3586 20.3664 31.8714 20.5715C32.3842 20.7767 32.6336 21.3586 32.4285 21.8714L30.4285 26.8714C30.2766 27.2511 29.9089 27.5 29.5 27.5C29.0911 27.5 28.7234 27.2511 28.5715 26.8714L26.5715 21.8714C26.3664 21.3586 26.6158 20.7767 27.1286 20.5715Z" fill="#333333"/>
</svg>
