<svg width="48" height="48" viewBox="0 0 48 48" fill="none" xmlns="http://www.w3.org/2000/svg">
<path fill-rule="evenodd" clip-rule="evenodd" d="M24 31C26.1533 31 28 29.1844 28 26.8182C28 24.7373 26.7943 22.2053 25.3295 19.9805C24.8713 19.2844 24.4115 18.6537 24 18.1198C23.5885 18.6537 23.1287 19.2844 22.6705 19.9805C21.2057 22.2053 20 24.7373 20 26.8182C20 29.1844 21.8467 31 24 31ZM22.6966 16.5398C20.9318 18.7675 18 23.0371 18 26.8182C18 30.2323 20.6863 33 24 33C27.3137 33 30 30.2323 30 26.8182C30 23.0371 27.0682 18.7675 25.3034 16.5398C24.5435 15.5806 24 15 24 15C24 15 23.4565 15.5806 22.6966 16.5398Z" fill="#333333"/>
<path fill-rule="evenodd" clip-rule="evenodd" d="M33.8996 14.1009C28.4322 8.63353 19.5679 8.63353 14.1006 14.1009L12.6864 12.6867C18.9348 6.43827 29.0654 6.43827 35.3138 12.6867C38.4249 15.7978 39.9872 19.8734 40 23.9498L40 23.9529L40 27.5859L43.293 24.2929L44.7072 25.7072L39.7072 30.7072L39.0001 31.4143L38.293 30.7072L33.293 25.7072L34.7072 24.2929L38 27.5858L38 23.9561L38 23.9545C37.9884 20.3854 36.6218 16.8231 33.8996 14.1009ZM14.1006 33.8999C19.5679 39.3672 28.4322 39.3672 33.8996 33.8999L35.3138 35.3141C29.0654 41.5625 18.9348 41.5625 12.6864 35.3141C9.56319 32.1909 8.0009 28.0957 8.00008 24.0036L8.00008 24.0034V20.4143L4.70718 23.7072L3.29297 22.2929L8.29297 17.2929L9.00008 16.5858L9.70718 17.2929L14.7072 22.2929L13.293 23.7072L10.0001 20.4143L10.0001 24.0032L10.0001 24.0034C10.0008 27.5868 11.3675 31.1668 14.1006 33.8999Z" fill="#333333"/>
</svg>
