<svg width="48" height="48" viewBox="0 0 48 48" fill="none" xmlns="http://www.w3.org/2000/svg">
<path d="M16.5247 13C17.7335 13 18.5342 13.3991 19.1087 13.9905C19.7121 14.6116 20.1342 15.5178 20.411 16.6218C20.8902 18.5335 20.8683 20.7255 20.852 22.365C20.8492 22.6423 20.8466 22.9039 20.8466 23.1456C20.8466 23.8858 20.8793 24.766 20.9141 25.7043C20.9281 26.0813 20.9425 26.4678 20.9552 26.8583C21.0002 28.2405 21.0267 29.7124 20.9584 31.1461C20.8899 32.5836 20.7274 33.9487 20.4076 35.1227C20.0861 36.303 19.6252 37.2173 19.0117 37.8291C17.5744 39.2626 15.3679 40.3745 13.1412 40.8063C10.8921 41.2425 8.85488 40.9469 7.5845 39.8911C7.55921 39.8701 7.4731 39.7788 7.37323 39.5294C7.27632 39.2873 7.18897 38.9525 7.12341 38.5177C6.99222 37.6477 6.96455 36.4903 7.04553 35.1216C7.20706 32.391 7.79187 28.9604 8.70842 25.5979C9.62672 22.2291 10.8608 18.9923 12.2918 16.6218C13.0077 15.4359 13.7478 14.5089 14.4864 13.8882C15.2218 13.2702 15.8999 13 16.5247 13Z" stroke="#333333" stroke-width="2"/>
<path d="M31.4753 12.9998C30.2665 12.9998 29.4658 13.3988 28.8913 13.9902C28.2879 14.6114 27.8658 15.5175 27.589 16.6215C27.1098 18.5333 27.1317 20.7252 27.148 22.3647C27.1508 22.6421 27.1534 22.9037 27.1534 23.1454C27.1534 23.8856 27.1207 24.7657 27.0859 25.704C27.0719 26.0811 27.0575 26.4675 27.0448 26.8581C26.9998 28.2403 26.9733 29.7122 27.0416 31.1459C27.1101 32.5833 27.2726 33.9484 27.5924 35.1224C27.9139 36.3027 28.3748 37.2171 28.9883 37.8289C30.4256 39.2623 32.6321 40.3743 34.8588 40.8061C37.1079 41.2422 39.1451 40.9466 40.4155 39.8909C40.4408 39.8699 40.5269 39.7786 40.6268 39.5291C40.7237 39.287 40.811 38.9522 40.8766 38.5174C41.0078 37.6474 41.0354 36.4901 40.9545 35.1213C40.7929 32.3907 40.2081 28.9601 39.2916 25.5977C38.3733 22.2289 37.1392 18.9921 35.7082 16.6215C34.9923 15.4356 34.2522 14.5087 33.5136 13.888C32.7782 13.2699 32.1001 12.9998 31.4753 12.9998Z" stroke="#333333" stroke-width="2"/>
<path d="M24 6C24 6 24 17 24 20.5C24 24 21 24 21 24" stroke="#333333" stroke-width="2"/>
<path d="M24 6C24 6 24 17 24 20.5C24 24 27 24 27 24" stroke="#333333" stroke-width="2"/>
</svg>
