<svg width="48" height="48" viewBox="0 0 48 48" fill="none" xmlns="http://www.w3.org/2000/svg">
<path fill-rule="evenodd" clip-rule="evenodd" d="M48 0H0V48H48V0ZM24.0526 12.0479C33 12.0479 44 24.0479 44 24.0479C44 24.0479 33 36.0479 24.0526 36.0479C15.1053 36.0479 4 24.0479 4 24.0479C4 24.0479 15.1053 12.0479 24.0526 12.0479ZM6.81101 24.0478C6.94947 23.9132 7.09748 23.7705 7.25451 23.6209C8.40009 22.5296 10.014 21.0785 11.8915 19.6323C12.999 18.7793 14.185 17.9382 15.4092 17.1771C13.9016 19.0597 13 21.4485 13 24.0479C13 26.6472 13.9016 29.036 15.4092 30.9186C14.185 30.1576 12.999 29.3164 11.8915 28.4634C10.014 27.0172 8.40009 25.5661 7.25451 24.4748C7.09748 24.3252 6.94947 24.1825 6.81101 24.0478ZM35 24.0479C35 21.405 34.0679 18.9798 32.5146 17.083C33.7835 17.8673 35.0122 18.7413 36.1559 19.6283C38.0199 21.0738 39.6203 22.5243 40.7559 23.6151C40.9138 23.7669 41.0626 23.9115 41.2015 24.0479C41.0626 24.1842 40.9138 24.3288 40.7559 24.4806C39.6203 25.5714 38.0199 27.0219 36.1559 28.4674C35.0122 29.3544 33.7835 30.2284 32.5146 31.0127C34.0679 29.1159 35 26.6907 35 24.0479ZM24 33.0479C28.9706 33.0479 33 29.0184 33 24.0479C33 19.0773 28.9706 15.0479 24 15.0479C19.0294 15.0479 15 19.0773 15 24.0479C15 29.0184 19.0294 33.0479 24 33.0479ZM29 24.0479C29 26.8093 26.7614 29.0479 24 29.0479C21.2386 29.0479 19 26.8093 19 24.0479C19 21.2864 21.2386 19.0479 24 19.0479C25.2416 19.0479 26.3774 19.5004 27.2517 20.2495C27.0307 20.1213 26.7739 20.0479 26.5 20.0479C25.6716 20.0479 25 20.7194 25 21.5479C25 22.3763 25.6716 23.0479 26.5 23.0479C27.3284 23.0479 28 22.3763 28 21.5479C28 21.2739 27.9266 21.0172 27.7984 20.7962C28.5475 21.6704 29 22.8063 29 24.0479Z" fill="#333333"/>
</svg>
