<svg width="48" height="48" viewBox="0 0 48 48" fill="none" xmlns="http://www.w3.org/2000/svg">
<g clip-path="url(#clip0)">
<path fill-rule="evenodd" clip-rule="evenodd" d="M0 0L48 -0.0393122L48.0393 47.9607L0.0393122 48L0 0ZM16.542 11.9911C21.9771 11.9955 21.8979 18.8638 21.8572 22.3907L21.8572 22.3919C21.8557 22.5216 21.8543 22.6467 21.8532 22.7668C21.9024 22.7432 21.9518 22.7173 22.0009 22.6887C22.4404 22.4327 23.0044 21.8892 23.0056 20.4922L23.0056 20.4922L23.0126 11.9338L23.0126 11.9338L23.016 7.77178L23.016 7.77175L23.0171 6.47846L23.0171 6.47843L23.0171 6.45003L23.0171 6.45L23.0171 6.43609L23.0171 6.42241L23.0171 6.42237L23.0171 6.39559L23.0171 6.39556L23.0171 6.38249L23.0171 6.38245L23.0171 6.36959L23.0171 6.36956L23.0172 6.35686L23.0172 6.34441L23.0172 6.34438L23.0172 6.33213L23.0172 6.3321L23.0172 6.32005L23.0172 6.32002L23.0172 6.30816L23.0172 6.29651L23.0172 6.27386L23.0172 6.27383L23.0172 6.26284L23.0172 6.26281L23.0172 6.25203L23.0172 6.252L23.0173 6.23106L23.0173 6.23103L23.0173 6.21094L23.0173 6.21091L23.0173 6.1917L23.0173 6.19167L23.0173 6.12353L23.0173 6.12349L23.0174 6.06977L23.0174 6.03084L23.0174 6.03081L23.0174 6.00718L23.0174 6.00715L23.0174 6.00531L23.0174 6.00528L23.0174 6.0037L23.0174 6.00366L23.0174 6.00232L23.0174 6.00229L23.0174 6.0012L23.0174 6.00117L23.0174 6.00032L23.0174 6.00029L23.0174 5.9997L23.0174 5.99967L23.0174 5.99932L23.0174 5.99929C23.0174 5.99921 23.0174 5.99916 24.0174 5.99998C25.0174 6.0008 25.0174 6.00085 25.0174 6.00093L25.0174 6.00096L25.0174 6.00131L25.0174 6.00134L25.0174 6.00193L25.0174 6.00196L25.0174 6.00281L25.0174 6.00284L25.0174 6.00393L25.0174 6.00396L25.0174 6.0053L25.0174 6.00534L25.0174 6.00692L25.0174 6.00695L25.0174 6.00879L25.0174 6.00882L25.0174 6.03245L25.0174 6.03248L25.0174 6.07137L25.0173 6.12513L25.0173 6.12517L25.0173 6.19331L25.0173 6.19334L25.0173 6.21255L25.0173 6.21258L25.0173 6.23266L25.0173 6.2327L25.0172 6.25364L25.0172 6.25367L25.0172 6.26445L25.0172 6.26448L25.0172 6.27547L25.0172 6.2755L25.0172 6.29818L25.0172 6.30983L25.0172 6.32166L25.0172 6.32169L25.0172 6.33373L25.0172 6.33377L25.0172 6.34601L25.0172 6.34605L25.0172 6.35853L25.0171 6.37119L25.0171 6.37123L25.0171 6.38409L25.0171 6.38412L25.0171 6.3972L25.0171 6.39723L25.0171 6.42401L25.0171 6.42405L25.0171 6.43776L25.0171 6.45164L25.0171 6.45167L25.0171 6.48007L25.0171 6.4801L25.016 7.77339L25.016 7.77342L25.0126 11.9354L25.0126 11.9355L25.0056 20.4938C25.0044 21.8908 25.5676 22.4353 26.0067 22.6919C26.0556 22.7205 26.1048 22.7465 26.1538 22.7701C26.1529 22.6497 26.1517 22.5243 26.1504 22.3943C26.1155 18.8673 26.0476 11.9989 31.4826 12.0034C38.928 12.0095 44.2249 38.0078 41.0319 40.6576C37.8388 43.3075 31.4583 41.7108 28.27 38.5252C25.6959 35.9534 25.9237 29.9487 26.0873 25.6384C26.0972 25.3756 26.107 25.1192 26.1158 24.8702C25.7907 24.7891 25.3968 24.6521 24.9974 24.4186C24.6416 24.2106 24.2999 23.9364 24.0031 23.5844C23.7056 23.936 23.3635 24.2096 23.0074 24.417C22.6073 24.6499 22.2131 24.7863 21.8878 24.8669C21.8962 25.1158 21.9055 25.3722 21.9151 25.6349C22.0715 29.9455 22.2895 35.9505 19.7112 38.5181C16.5177 41.6985 10.1346 43.2847 6.94587 40.6296C3.75713 37.9746 9.09662 11.985 16.542 11.9911Z" fill="#333333"/>
</g>
<defs>
<clipPath id="clip0">
<rect width="48" height="48" fill="white"/>
</clipPath>
</defs>
</svg>
