<svg width="48" height="48" viewBox="0 0 48 48" fill="none" xmlns="http://www.w3.org/2000/svg">
<path fill-rule="evenodd" clip-rule="evenodd" d="M43.5024 18.1516H4.49756L4.49756 30.1516H43.5024L43.5024 18.1516ZM4.49756 16.1516C3.39299 16.1516 2.49756 17.047 2.49756 18.1516V30.1516C2.49756 31.2562 3.39299 32.1516 4.49756 32.1516H43.5024C44.607 32.1516 45.5024 31.2562 45.5024 30.1516V18.1516C45.5024 17.047 44.607 16.1516 43.5024 16.1516H4.49756Z" fill="#333333"/>
<path d="M40 22.1536C41.1046 22.1536 42 23.049 42 24.1536C42 25.2581 41.1046 26.1536 40 26.1536C38.8954 26.1536 38 25.2581 38 24.1536C38 23.049 38.8954 22.1536 40 22.1536Z" fill="#333333"/>
<path d="M36 23.2747C36.5523 23.2747 37 23.7224 37 24.2747C37 24.8269 36.5523 25.2747 36 25.2747C35.4477 25.2747 35 24.8269 35 24.2747C35 23.7224 35.4477 23.2747 36 23.2747Z" fill="#333333"/>
<path fill-rule="evenodd" clip-rule="evenodd" d="M29.5524 22.1536L10 22.1536C8.89543 22.1536 8 23.049 8 24.1536C8 25.2581 8.89543 26.1536 10 26.1536L29.5524 26.1536C30.6569 26.1536 31.5524 25.2581 31.5524 24.1536C31.5524 23.049 30.6569 22.1536 29.5524 22.1536ZM6 24.1536C6 26.3627 7.79086 28.1536 10 28.1536L29.5524 28.1536C31.7615 28.1536 33.5524 26.3627 33.5524 24.1536C33.5524 21.9444 31.7615 20.1536 29.5524 20.1536L10 20.1536C7.79086 20.1536 6 21.9444 6 24.1536Z" fill="#333333"/>
<path fill-rule="evenodd" clip-rule="evenodd" d="M20.8037 22.1536L20.8037 26.1536L18.8037 26.1536L18.8037 22.1536L20.8037 22.1536Z" fill="#333333"/>
<path fill-rule="evenodd" clip-rule="evenodd" d="M13.0296 22.1536L13.0296 26.1536L11.0296 26.1536L11.0296 22.1536L13.0296 22.1536Z" fill="#333333"/>
<path d="M9.88688 14.9062C10.9509 14.9062 11.6539 14.5927 12.2524 14.0702C12.3854 13.9562 12.4994 13.7757 12.4994 13.5477C12.4994 13.1772 12.1859 12.8732 11.8154 12.8732C11.6444 12.8732 11.4924 12.9397 11.3784 13.0347C10.9604 13.3672 10.5519 13.5572 9.93438 13.5572C8.79438 13.5572 8.00588 12.6072 8.00588 11.4672V11.4482C8.00588 10.3082 8.81338 9.3772 9.93438 9.3772C10.4569 9.3772 10.8844 9.5482 11.2929 9.8522C11.3974 9.9187 11.5304 9.9947 11.7299 9.9947C12.1289 9.9947 12.4519 9.6812 12.4519 9.2822C12.4519 9.0257 12.3189 8.8167 12.1669 8.7027C11.6159 8.2942 10.9414 8.0282 9.94388 8.0282C7.90138 8.0282 6.47638 9.5767 6.47638 11.4672V11.4862C6.47638 13.3957 7.92988 14.9062 9.88688 14.9062Z" fill="#333333"/>
<path d="M27.3371 14.115C27.3371 14.5235 27.6601 14.8465 28.0686 14.8465C28.4771 14.8465 28.8001 14.5235 28.8001 14.115V12.7945H29.9116C31.4031 12.7945 32.6001 11.9965 32.6001 10.4575V10.4385C32.6001 9.07996 31.6406 8.13946 30.0541 8.13946H28.0686C27.6601 8.13946 27.3371 8.46246 27.3371 8.87096V14.115ZM28.8001 11.493V9.45996H29.9306C30.6621 9.45996 31.1181 9.81146 31.1181 10.467V10.486C31.1181 11.056 30.6906 11.493 29.9591 11.493H28.8001Z" fill="#333333"/>
<path d="M33.632 14.1245C33.632 14.5235 33.955 14.8465 34.354 14.8465C34.753 14.8465 35.076 14.5235 35.076 14.1245V10.9325H35.684C36.0165 10.9325 36.2825 10.676 36.2825 10.3435C36.2825 10.011 36.0165 9.75446 35.684 9.75446H35.057V9.55496C35.057 9.17496 35.247 9.00396 35.5795 9.00396H35.703C36.026 9.00396 36.292 8.72846 36.292 8.40546C36.292 8.08246 36.045 7.86396 35.798 7.82596C35.6365 7.79746 35.437 7.78796 35.209 7.78796C34.696 7.78796 34.3065 7.92096 34.0405 8.18696C33.7745 8.45296 33.632 8.86146 33.632 9.42196V9.74496H33.575C33.2425 9.74496 32.9765 10.011 32.9765 10.3435C32.9765 10.676 33.2425 10.9325 33.575 10.9325H33.632V14.1245Z" fill="#333333"/>
<path d="M14.3869 39.4316C14.3869 39.8401 14.7099 40.1631 15.1184 40.1631C15.5269 40.1631 15.8499 39.8401 15.8499 39.4316V38.1111H16.9614C18.4529 38.1111 19.6499 37.3131 19.6499 35.7741V35.7551C19.6499 34.3966 18.6904 33.4561 17.1039 33.4561H15.1184C14.7099 33.4561 14.3869 33.7791 14.3869 34.1876V39.4316ZM15.8499 36.8096V34.7766H16.9804C17.7119 34.7766 18.1679 35.1281 18.1679 35.7836V35.8026C18.1679 36.3726 17.7404 36.8096 17.0089 36.8096H15.8499Z" fill="#333333"/>
<path d="M23.3904 39.5836L24.9484 35.9831C24.9769 35.9166 25.0244 35.7646 25.0244 35.6411C25.0244 35.2516 24.7109 34.9571 24.3309 34.9571C23.9509 34.9571 23.7514 35.2041 23.6564 35.4511L22.5449 38.4246L21.4524 35.4701C21.3479 35.1756 21.1389 34.9571 20.7494 34.9571C20.3599 34.9571 20.0464 35.2896 20.0464 35.6316C20.0464 35.7646 20.0844 35.8881 20.1224 35.9831L21.6804 39.5836C21.8419 39.9636 22.1079 40.2106 22.4974 40.2106H22.5734C22.9629 40.2106 23.2289 39.9541 23.3904 39.5836Z" fill="#333333"/>
</svg>
